M48
;Layer_Color=6321
;FILE_FORMAT=2:4
INCH,TZ
;TYPE=PLATED
;TYPE=NON_PLATED
T5F00S00C0.0787
%
G90
G05
T05
G00X-4193Y-33425
M15
G01X-4862
M16
G00X-23287Y-33425
M15
G01X-23957
M16
G00X-48287Y-19705
M15
G01Y-19035
M16
G00X-48287Y-19705
M15
G01X-48957
M16
G00X-48957Y-19705
M15
G01Y-19035
M16
G00X-48287Y-19035
M15
G01X-48957
M16
G00X-23957Y-33425
M15
G01Y-32756
M16
G00X-23287Y-33425
M15
G01Y-32756
M16
G00X-23287Y-32756
M15
G01X-23957
M16
G00X-4862Y-33425
M15
G01Y-32756
M16
G00X-4193Y-33425
M15
G01Y-32756
M16
G00X-4193Y-32756
M15
G01X-4862
M16
G00X-4075Y-20764
M15
G01Y-20094
M16
G00X-3406Y-20764
M15
G01X-4075
M16
G00X-3406Y-20764
M15
G01Y-20094
M16
G00X-3406Y-20094
M15
G01X-4075
M16
G00X25846Y-22461
M15
G01Y-21791
M16
G00X26516Y-22461
M15
G01X25846
M16
G00X26516Y-22461
M15
G01Y-21791
M16
G00X26516Y-21791
M15
G01X25846
M16
G00X26516Y-12224
M15
G01X25846
M16
G00X25846Y-12224
M15
G01Y-11555
M16
G00X26516Y-12224
M15
G01Y-11555
M16
G00X26516Y-11555
M15
G01X25846
M16
G00X16673Y-17130
M15
G01Y-16461
M16
G00X16673Y-17130
M15
G01X16004
M16
G00X16004Y-17130
M15
G01Y-16461
M16
G00X16673Y-16461
M15
G01X16004
M16
G00X16083Y-6909
M15
G01Y-6240
M16
G00X16083Y-6909
M15
G01X15413
M16
G00X15413Y-6909
M15
G01Y-6240
M16
G00X16083Y-6240
M15
G01X15413
M16
G00X5256Y-6961
M15
G01Y-6291
M16
G00X5256Y-6961
M15
G01X4587
M16
G00X4587Y-6961
M15
G01Y-6291
M16
G00X5256Y-6291
M15
G01X4587
M16
G00X5768Y-17130
M15
G01Y-16461
M16
G00X6437Y-17130
M15
G01X5768
M16
G00X6437Y-17130
M15
G01Y-16461
M16
G00X6437Y-16461
M15
G01X5768
M16
G00X-4980Y-10650
M15
G01Y-9980
M16
G00X-4980Y-10650
M15
G01X-5650
M16
G00X-5650Y-10650
M15
G01Y-9980
M16
G00X-4980Y-9980
M15
G01X-5650
M16
G00X-13248Y-16949
M15
G01Y-16280
M16
G00X-13248Y-16949
M15
G01X-13917
M16
G00X-13917Y-16949
M15
G01Y-16280
M16
G00X-13248Y-16280
M15
G01X-13917
M16
G00X-25453Y-12815
M15
G01Y-12146
M16
G00X-25453Y-12815
M15
G01X-26122
M16
G00X-26122Y-12815
M15
G01Y-12146
M16
G00X-25453Y-12146
M15
G01X-26122
M16
G00X-32933Y-10846
M15
G01Y-10177
M16
G00X-32933Y-10846
M15
G01X-33602
M16
G00X-33602Y-10846
M15
G01Y-10177
M16
G00X-32933Y-10177
M15
G01X-33602
M16
G00X-40413Y-10846
M15
G01Y-10177
M16
G00X-40413Y-10846
M15
G01X-41083
M16
G00X-41083Y-10846
M15
G01Y-10177
M16
G00X-40413Y-10177
M15
G01X-41083
M16
G00X-39350Y-217
M15
G01Y453
M16
G00X-38681Y-217
M15
G01X-39350
M16
G00X-38681Y-217
M15
G01Y453
M16
G00X-38681Y453
M15
G01X-39350
M16
G00X-46122Y-217
M15
G01Y453
M16
G00X-46122Y-217
M15
G01X-46791
M16
G00X-46791Y-217
M15
G01Y453
M16
G00X-46122Y453
M15
G01X-46791
M16
G00X-31909Y-217
M15
G01Y453
M16
G00X-31240Y-217
M15
G01X-31909
M16
G00X-31240Y-217
M15
G01Y453
M16
G00X-31240Y453
M15
G01X-31909
M16
M17
M30
