M48
;Layer_Color=6321
;FILE_FORMAT=2:4
INCH,TZ
;TYPE=PLATED
;TYPE=NON_PLATED
T5F00S00C0.0787
%
G90
G05
T05
G00X48169Y2008
M15
G01X47500
M16
G00X29075Y2008
M15
G01X28406
M16
G00X4075Y15728
M15
G01Y16398
M16
G00X4075Y15728
M15
G01X3406
M16
G00X3406Y15728
M15
G01Y16398
M16
G00X4075Y16398
M15
G01X3406
M16
G00X28406Y2008
M15
G01Y2677
M16
G00X29075Y2008
M15
G01Y2677
M16
G00X29075Y2677
M15
G01X28406
M16
G00X47500Y2008
M15
G01Y2677
M16
G00X48169Y2008
M15
G01Y2677
M16
G00X48169Y2677
M15
G01X47500
M16
G00X48287Y14669
M15
G01Y15339
M16
G00X48957Y14669
M15
G01X48287
M16
G00X48957Y14669
M15
G01Y15339
M16
G00X48957Y15339
M15
G01X48287
M16
G00X78878Y13642
M15
G01X78209
M16
G00X78878Y12972
M15
G01X78209
M16
G00X78878Y12972
M15
G01Y13642
M16
G00X78209Y12972
M15
G01Y13642
M16
G00X78209Y23209
M15
G01Y23878
M16
G00X78878Y23209
M15
G01X78209
M16
G00X78878Y23209
M15
G01Y23878
M16
G00X78878Y23878
M15
G01X78209
M16
G00X69035Y18972
M15
G01X68366
M16
G00X69035Y18303
M15
G01X68366
M16
G00X69035Y18303
M15
G01Y18972
M16
G00X68366Y18303
M15
G01Y18972
M16
G00X68445Y28524
M15
G01X67776
M16
G00X67776Y28524
M15
G01Y29193
M16
G00X68445Y28524
M15
G01Y29193
M16
G00X68445Y29193
M15
G01X67776
M16
G00X57618Y29142
M15
G01X56949
M16
G00X57618Y28472
M15
G01X56949
M16
G00X57618Y28472
M15
G01Y29142
M16
G00X56949Y28472
M15
G01Y29142
M16
G00X58799Y18972
M15
G01X58130
M16
G00X58799Y18303
M15
G01X58130
M16
G00X58799Y18303
M15
G01Y18972
M16
G00X58130Y18303
M15
G01Y18972
M16
G00X47382Y24783
M15
G01Y25453
M16
G00X47382Y24783
M15
G01X46713
M16
G00X46713Y24783
M15
G01Y25453
M16
G00X47382Y25453
M15
G01X46713
M16
G00X39114Y18484
M15
G01Y19154
M16
G00X39114Y18484
M15
G01X38445
M16
G00X38445Y18484
M15
G01Y19154
M16
G00X39114Y19154
M15
G01X38445
M16
G00X26909Y22618
M15
G01Y23287
M16
G00X26909Y22618
M15
G01X26240
M16
G00X26909Y23287
M15
G01X26240
M16
G00X26240Y22618
M15
G01Y23287
M16
G00X19429Y24587
M15
G01Y25256
M16
G00X19429Y24587
M15
G01X18760
M16
G00X18760Y24587
M15
G01Y25256
M16
G00X19429Y25256
M15
G01X18760
M16
G00X11949Y25256
M15
G01X11280
M16
G00X11949Y24587
M15
G01X11280
M16
G00X11949Y24587
M15
G01Y25256
M16
G00X11280Y24587
M15
G01Y25256
M16
G00X13012Y35217
M15
G01Y35886
M16
G00X13681Y35217
M15
G01X13012
M16
G00X13681Y35217
M15
G01Y35886
M16
G00X13681Y35886
M15
G01X13012
M16
G00X6240Y35217
M15
G01Y35886
M16
G00X6240Y35217
M15
G01X5571
M16
G00X5571Y35217
M15
G01Y35886
M16
G00X6240Y35886
M15
G01X5571
M16
G00X21122Y35886
M15
G01X20453
M16
G00X21122Y35217
M15
G01X20453
M16
G00X21122Y35217
M15
G01Y35886
M16
G00X20453Y35217
M15
G01Y35886
M16
M17
M30
