M48
;Layer_Color=6321
;FILE_FORMAT=2:4
INCH,TZ
;TYPE=PLATED
T1F00S00C0.0157
T2F00S00C0.0630
T3F00S00C0.1201
;TYPE=NON_PLATED
T4F00S00C0.0748
T6F00S00C0.1988
T7F00S00C0.2362
%
T01
X66929Y3937
X70866
X74803
X62992
X59055
X55118
X53130Y2701
X50128Y4148
X47244Y3937
X39370
X35039Y2697
X32037Y4144
X27559Y3937
X23622
X19685
X15748
X11811
X7874
Y7874
Y11811
Y15748
X11811
Y11811
X15748
Y15748
Y19685
X11811
X7874
X3937
Y15748
Y11811
Y7874
X11811
X15748
X19685
X23622
X27559
Y11811
Y15748
Y19685
X31496
Y15748
Y11811
X23622
Y15748
Y19685
X19685
Y15748
Y11811
X35433
Y15748
Y19685
X39370
X42697Y20295
X43602Y20374
X43307Y19685
X43602Y19291
X43307Y15748
X47244
Y11811
X43307
Y7874
X47244
X39370
Y11811
Y15748
X47244Y19685
X50522Y19108
X51181Y15748
Y11811
X55118
Y15748
X53524Y17661
X58465Y19370
X59055Y19685
Y15748
Y11811
X62992
Y15748
Y7874
X59055
X55118
X66929
X70866
X74803
X78740
Y11811
Y15748
X74803
Y11811
X70866
Y15748
Y19685
X74803
X78740
X66929
Y15748
Y11811
X82677
Y7874
X86614
Y11811
Y15748
Y19685
X84232Y17539
X81230Y18986
X83711Y21801
Y22982
X82677Y23622
X84232Y27776
X81230Y29222
X82677Y35433
X86614
X78740
X79921Y31102
Y30217
X78740Y27559
X74803
X73917Y30413
Y31201
X73406Y31516
X75886Y31496
Y30315
X70866Y27559
X66929
Y31496
Y35433
X70404Y32963
X70866Y23622
X70994Y22743
X68898Y22736
Y21457
X66929Y23622
X73996Y21296
X78740Y23622
X63760Y21296
X60758Y22743
X59055Y23622
X58465Y20827
X55118Y23622
Y27559
X52264Y27461
Y26870
X51949Y27776
X51181Y23622
X55118Y31496
X53839Y35630
X59577Y32911
X62579Y31465
X63681Y30807
Y30020
X62992Y27559
X59055
X48947Y29222
X47244Y27559
X43307
X43799Y29331
X44291Y29331
X42815Y30807
X42323
X41142Y31398
X42126Y34252
X43110
X44094
X45079
X47343Y35138
X48701Y35846
X48130Y31988
X47343
Y31594
X46555
Y31988
X45768Y31594
X46850Y23425
X47244Y23622
X46850Y22638
X39695Y21742
X35138Y21850
X35433Y23622
Y27559
X34744Y28937
X34350
Y29626
X34744Y31398
X35433Y35433
X39370
X39567Y35827
X39370Y27559
X30906Y30217
X28248Y31890
Y33957
X27559Y35433
X23622
X19685
X18533Y29026
X21535Y27579
X22047Y27657
Y26575
X23622Y27559
X27559
Y23622
X28888Y23907
X31890Y22461
X32382Y22441
Y21555
X33661Y21850
X23622Y23622
X19685
X31496Y35433
X15748
X13484Y34154
X11811Y35433
X7874
X3937
Y31496
Y27559
Y23622
X7874
X11811
X15748
Y27559
X11811
X10610Y27579
X7608Y29026
X13484Y29921
X15748Y31496
X18012Y37697
Y38878
X17441Y38622
X14439Y40069
X12697Y40945
Y41831
X11811Y43307
X13681Y43996
X14468Y43799
X11811Y39370
X10000Y38622
X6998Y40069
X3937Y39370
Y43307
X19685
Y39370
X21880Y40069
X21555Y37992
X22638
X24882Y38622
X27559Y39370
X28248Y41339
X28937Y42618
X27874Y43425
X32677Y43799
X31496Y39370
X34055Y37598
X35236
X39567Y37894
Y38878
Y39862
Y40846
Y41831
Y42815
Y43898
X48720
X48689Y42846
X48705Y41846
X48720Y40846
X48705Y39846
X48689Y38846
X48673Y37846
X48685Y36846
X54921Y36614
X55610Y37303
X53346Y40453
X53642Y41142
X53937Y41831
X54232Y42520
X54528Y43209
X54823Y43898
X59055Y43307
X62992
X66929
X70866
X74803
X78740
X75886Y38878
Y38091
X82677Y39370
X86614
X82677Y43307
T02
X49606Y2819
X31516Y2815
X39173Y20413
X50000Y17780
X80709Y17657
Y27894
X69882Y31634
X70472Y21415
X60236
X59055Y31583
X48425Y27894
X28366Y22579
X18012Y27697
X7087
X6476Y38740
X13917
X21358
T03
X33484Y7165
X35453Y6339
X51575Y7169
X53543Y6343
X82677Y22008
X84646Y21181
Y31417
X82677Y32244
X73819Y35157
X71850Y35984
X72441Y25765
X74409Y24938
X64173
X62205Y25765
X62992Y35106
X61024Y35933
X52362Y31417
X50394Y32244
X51968Y22130
X53937Y21303
X43110Y23937
X41142Y24764
X32303Y26102
X30335Y26929
X21949Y31220
X19980Y32047
X11024Y31220
X9055Y32047
X10413Y42264
X8445Y43091
X15886
X17854Y42264
X23327Y43091
X25295Y42264
T04
X49409Y4846
X53740
X35650Y4843
X31319
X49803Y19807
X54134
X80512Y19685
X84843
Y29921
X80512
X74016Y33661
X69685
X70276Y23442
X74606
X64370
X60039
X58858Y33610
X63189
X52559Y29921
X48228
X43307Y22441
X38976
X32500Y24606
X28169
X22146Y29724
X17815
X11220
X6890
X6280Y40768
X10610
X13720
X18051
X21161
X25492
T06
X51575Y4846
X33484Y4843
X51968Y19807
X82677Y19685
Y29921
X71850Y33661
X72441Y23442
X62205
X61024Y33610
X50394Y29921
X41142Y22441
X30335Y24606
X19980Y29724
X9055
X8445Y40768
X15886
X23327
T07
X85236Y2953
X44094
X2953
X44094Y31890
X2953Y41929
X85236
M30
