M48
;Layer_Color=6321
;FILE_FORMAT=2:4
INCH,TZ
;TYPE=PLATED
;TYPE=NON_PLATED
T5F00S00C0.0787
%
G90
G05
T05
G00X51240Y2661
M15
G01Y3331
M16
G00X51909Y2661
M15
G01X51240
M16
G00X51909Y3331
M15
G01X51240
M16
G00X51909Y2661
M15
G01Y3331
M16
G00X33819Y2657
M15
G01Y3327
M16
G00X33819Y2657
M15
G01X33150
M16
G00X33819Y3327
M15
G01X33150
M16
G00X33150Y2657
M15
G01Y3327
M16
G00X40807Y20256
M15
G01Y20925
M16
G00X41476Y20256
M15
G01X40807
M16
G00X41476Y20256
M15
G01Y20925
M16
G00X52303Y18291
M15
G01X51634
M16
G00X52303Y17622
M15
G01X51634
M16
G00X52303Y17622
M15
G01Y18291
M16
G00X51634Y17622
M15
G01Y18291
M16
G00X82343Y17500
M15
G01Y18169
M16
G00X83012Y17500
M15
G01X82343
M16
G00X83012Y17500
M15
G01Y18169
M16
G00X83012Y18169
M15
G01X82343
M16
G00X83012Y27736
M15
G01X82343
M16
G00X83012Y28406
M15
G01X82343
M16
G00X83012Y27736
M15
G01Y28406
M16
G00X82343Y27736
M15
G01Y28406
M16
G00X72185Y31476
M15
G01Y32146
M16
G00X72185Y31476
M15
G01X71516
M16
G00X72185Y32146
M15
G01X71516
M16
G00X71516Y31476
M15
G01Y32146
M16
G00X72106Y21257
M15
G01Y21926
M16
G00X72776Y21257
M15
G01X72106
M16
G00X72776Y21257
M15
G01Y21926
M16
G00X72776Y21926
M15
G01X72106
M16
G00X62539Y21257
M15
G01Y21926
M16
G00X62539Y21257
M15
G01X61870
M16
G00X61870Y21257
M15
G01Y21926
M16
G00X62539Y21926
M15
G01X61870
M16
G00X61358Y31425
M15
G01Y32094
M16
G00X61358Y31425
M15
G01X60689
M16
G00X60689Y31425
M15
G01Y32094
M16
G00X61358Y32094
M15
G01X60689
M16
G00X50728Y28406
M15
G01X50059
M16
G00X50728Y27736
M15
G01X50059
M16
G00X50728Y27736
M15
G01Y28406
M16
G00X50059Y27736
M15
G01Y28406
M16
G00X41476Y20925
M15
G01X40807
M16
G00X30669Y22421
M15
G01Y23091
M16
G00X30669Y22421
M15
G01X30000
M16
G00X30000Y22421
M15
G01Y23091
M16
G00X30669Y23091
M15
G01X30000
M16
G00X20315Y27539
M15
G01Y28209
M16
G00X20315Y27539
M15
G01X19646
M16
G00X20315Y28209
M15
G01X19646
M16
G00X19646Y27539
M15
G01Y28209
M16
G00X9390Y27539
M15
G01Y28209
M16
G00X9390Y27539
M15
G01X8720
M16
G00X8720Y27539
M15
G01Y28209
M16
G00X9390Y28209
M15
G01X8720
M16
G00X8780Y38583
M15
G01Y39252
M16
G00X8780Y38583
M15
G01X8110
M16
G00X8110Y38583
M15
G01Y39252
M16
G00X8780Y39252
M15
G01X8110
M16
G00X16220Y39252
M15
G01X15551
M16
G00X16220Y38583
M15
G01X15551
M16
G00X16220Y38583
M15
G01Y39252
M16
G00X15551Y38583
M15
G01Y39252
M16
G00X22992Y38583
M15
G01Y39252
M16
G00X23661Y38583
M15
G01X22992
M16
G00X23661Y38583
M15
G01Y39252
M16
G00X23661Y39252
M15
G01X22992
M16
M17
M30
