M48
;Layer_Color=6321
;FILE_FORMAT=2:4
INCH,TZ
;TYPE=PLATED
T1F00S00C0.0157
T2F00S00C0.0630
T3F00S00C0.1201
;TYPE=NON_PLATED
T4F00S00C0.0748
T6F00S00C0.1988
T7F00S00C0.2362
%
T01
X50128Y3734
X50128Y4148
X53130Y2701
X35039Y2697
X32037Y3730
X32037Y4144
X15748Y7874
Y15748
X7874
Y7874
X23622
Y15748
X31496
X39370
X43602Y19291
Y20374
X42697Y20295
X47244Y15748
Y7874
X39370
X55118
Y15748
X53524Y17661
X50522Y18695
X50522Y19108
X62992Y15748
Y7874
X70866
Y15748
X78740
Y7874
X81230Y18573
X81230Y18986
X84232Y17539
Y27776
X81230Y28809
X81230Y29222
X78740Y31496
X73917Y31201
Y30413
X73406Y31516
X70404Y32549
X70404Y32963
X70994Y22743
X70994Y22330
X73996Y21296
X78740Y23622
X63760Y21296
X60758Y22330
X60758Y22743
X55118Y23622
X52264Y26870
Y27461
X51949Y27776
X55118Y31496
X53346Y34941
X54035Y35630
X54724Y36319
X59577Y32911
X59577Y32498
X62579Y31465
X63878Y30807
X63091Y30020
X48947Y29222
X48947Y28809
X44291Y29331
X43799Y29331
X42815Y30807
X42323
X41142Y31398
X42126Y34252
X43110
X44094
X45079
X47343Y35138
X48701Y35846
X39567Y35827
X34449Y31496
Y29035
X39695Y21742
X39695Y21329
X47244Y23622
X32382Y22441
X31890Y22461
X32382Y21555
X28888Y23494
X28888Y23907
X23622Y23622
X22047Y26575
Y27657
X21535Y27579
X18533Y28612
X18533Y29026
X30906Y30217
X15748Y31496
Y23622
X7874
X7608Y28612
X7608Y29026
X10610Y27579
X10000Y38622
X6998Y39656
X6998Y40069
X14439
X14439Y39656
X17441Y38622
X18012Y38878
Y37697
X21063Y37992
X22244
X21880Y39656
X21880Y40069
X24882Y38622
X31496Y39370
X32677Y43799
X28937Y42618
X35039Y39469
X35039Y38780
X34055Y38091
X39567Y37894
Y38878
Y39862
Y40846
Y41831
Y42815
Y43898
X48720
X48689Y42846
X48705Y41846
X48720Y40846
X48705Y39846
X48689Y38846
X48673Y37846
X48685Y36846
X55315Y37008
Y37697
Y38386
Y39075
Y39764
X53346Y40453
X53642Y41142
X53937Y41831
X54232Y42520
X54528Y43209
X54823Y43898
T02
X49606Y2819
X31516Y2815
X39173Y20413
X50000Y17780
X80709Y17657
Y27894
X69882Y31634
X70472Y21415
X60236
X59055Y31583
X48425Y27894
X39370Y23622
X28366Y22579
X18012Y27697
X7087
X6476Y38740
X13917
X21358
T03
X33484Y7165
X35453Y6339
X51575Y7169
X53543Y6343
X82677Y22008
X84646Y21181
Y31417
X82677Y32244
X73819Y35157
X71850Y35984
X72441Y25765
X74409Y24938
X64173
X62205Y25765
X62992Y35106
X61024Y35933
X52362Y31417
X50394Y32244
X51968Y22130
X53937Y21303
X43110Y23937
X41142Y24764
X32303Y26102
X30335Y26929
X21949Y31220
X19980Y32047
X11024Y31220
X9055Y32047
X10413Y42264
X8445Y43091
X15886
X17854Y42264
X23327Y43091
X25295Y42264
T04
X49409Y4846
X53740
X35650Y4843
X31319
X49803Y19807
X54134
X80512Y19685
X84843
Y29921
X80512
X74016Y33661
X69685
X70276Y23442
X74606
X64370
X60039
X58858Y33610
X63189
X52559Y29921
X48228
X43307Y22441
X38976
X32500Y24606
X28169
X22146Y29724
X17815
X11220
X6890
X6280Y40768
X10610
X13720
X18051
X21161
X25492
T06
X51575Y4846
X33484Y4843
X51968Y19807
X82677Y19685
Y29921
X71850Y33661
X72441Y23442
X62205
X61024Y33610
X50394Y29921
X41142Y22441
X30335Y24606
X19980Y29724
X9055
X8445Y40768
X15886
X23327
T07
X85236Y2953
X44094
X2953
X44094Y31890
X2953Y41929
X85236
M30
