M48
;Layer_Color=6321
;FILE_FORMAT=2:4
INCH,TZ
;TYPE=PLATED
T1F00S00C0.0157
T2F00S00C0.0630
T3F00S00C0.1201
;TYPE=NON_PLATED
T4F00S00C0.0748
T6F00S00C0.1988
T7F00S00C0.2362
%
T01
X11614Y-34449
X15551
X19488
X7677
X3740
X-197
X-2992Y-33858
X-8071Y-34449
X-15945
X-21850Y-33661
X-31693Y-34449
X-35630
X-39567
X-43504
X-47441
Y-30512
Y-26575
Y-22638
X-46890Y-19685
X-43504Y-18701
X-39567
Y-22638
Y-26575
X-43504
Y-22638
Y-30512
X-39567
X-51378
Y-26575
Y-22638
Y-18701
X-35630
X-31693
X-27756
X-23819
Y-22638
X-27756
X-31693
Y-26575
Y-30512
X-35630
Y-26575
Y-22638
X-22244Y-32244
X-15945Y-30512
X-12008
X-8071
X-7638Y-33110
X-8071Y-26575
Y-22638
X-12008
Y-26575
X-15945
Y-22638
X-19882
Y-18701
X-11772Y-18465
X-8071Y-18701
X-866Y-18898
X-1969Y-21260
X-197Y-22638
Y-26575
X3740
Y-22638
Y-18701
X3150Y-19016
X7677Y-22638
Y-26575
Y-30512
X3740
X-197
X-4134Y-26575
Y-22638
X11614
Y-26575
X15551
Y-22638
Y-18701
X13622Y-18032
X11614Y-18701
X19488
X23425
Y-22638
X19488
Y-26575
X23425
Y-30512
X19488
X15551
X11614
X27362
Y-26575
X31299
Y-22638
X27953Y-22638
X31299Y-18701
Y-30512
X28396Y-16585
Y-15404
X27362Y-14764
X27953Y-12205
X27362Y-2953
X31299
X23425
X23386Y-7283
Y-8169
X23425Y-10827
X19488
X20571Y-8071
Y-6890
X17894Y-7185
X17323Y-7205
X17894Y-7972
X15551Y-10827
X11614
Y-14764
X13583Y-15650
X13110Y-16260
X18110Y-17323
X23425Y-14764
X11614Y-6890
Y-2953
X6535Y-7598
X5906
X6535Y-8386
X7677Y-10827
X3740
X3504Y-14291
X3150Y-17559
X7283Y-15945
X-197Y-14764
X-4134
X-3051Y-11516
Y-10925
X-3583Y-10630
X-197Y-10827
Y-6890
X-1476Y-2756
X-6614Y-2539
X-7972Y-3248
Y-6398
Y-6791
X-7480Y-6850
X-8760Y-6791
Y-6398
X-9547Y-6791
X-10236Y-4134
X-11220
X-12205
X-13189
X-13228Y-6850
X-13415Y-7205
X-14724Y-5551
X-15945Y-2953
X-15748Y-2559
X-19882Y-2953
X-20866Y-5197
X-21142Y-8071
Y-9331
X-20571Y-9449
X-19882Y-10827
X-15945
X-12008
X-11516Y-9055
X-11024Y-9055
X-8071Y-10827
X-6368Y-9163
X-8071Y-14764
X-8465Y-14961
Y-15748
X-11772Y-17165
X-12402Y-17520
X-20177Y-16535
X-19882Y-14764
X-21850Y-16535
X-24055Y-14213
Y-13425
X-24606Y-13346
X-27756Y-14764
X-31693
X-32165Y-12205
X-32008Y-11299
X-31535Y-11417
X-27283Y-11063
X-27067Y-6496
X-24409Y-7205
X-23819Y-2953
X-27047Y-2874
X-27756Y-2953
X-31693
X-35630
X-34331Y-7835
X-35630Y-14764
X-39567
X-39134Y-12835
Y-11811
X-39724Y-11417
X-39567Y-6890
X-43504
X-47441
Y-10827
X-51378
X-50630Y-9370
X-50236Y-8661
X-50630Y-7638
X-51378Y-6890
Y-2953
X-47441
X-43504
X-39567
X-43504Y-14764
X-51378
X-49055Y-1732
X-51378Y984
Y4921
X-43504
X-41732Y4449
X-42520Y1969
X-43465Y1575
X-44685Y-236
X-37520Y-276
X-37303Y492
X-37244Y-1220
X-35630Y984
X-32480Y1024
X-32165Y-984
X-33248
X-30000Y-197
X-27756Y984
X-27067Y2953
X-26378Y4232
X-27441Y5039
X-24567Y5000
X-23819Y984
X-35630Y4921
X-21260Y-787
X-20079
X-15748Y-492
Y492
Y1476
Y2461
Y3445
Y4429
Y5512
X-15713Y-1539
X-6630
X-6642Y-539
X-6626Y461
X-6610Y1461
X-6594Y2461
X-6610Y3461
X-6626Y4461
X-6594Y5512
X-492Y5512
X-787Y4823
X-1083Y4134
X-1378Y3445
X-1673Y2756
X-1969Y2067
X295Y-1083
X-394Y-1772
X3740Y4921
X7677
X11614
X15551
X19488
X23425
X20571Y492
Y-295
X27362Y984
X31299
X27362Y4921
T02
X-6496Y-33268
X-25591
X-50591Y-19547
X-5709Y-20606
X24213Y-22303
Y-12067
X14370Y-16972
X13780Y-6752
X2953Y-6803
X4134Y-16972
X-7283Y-10492
X-15551Y-16791
X-27756Y-12657
X-35236Y-10689
X-42717
X-40984Y-59
X-48425
X-33543
T03
X-23622Y-28917
X-21654Y-29744
X-4528Y-28917
X-2559Y-29744
X26181Y-17953
X28150Y-18780
Y-8543
X26181Y-7717
X17717Y-3228
X15748Y-2402
X16339Y-12622
X18307Y-13449
X8071
X6102Y-12622
X6890Y-3280
X4921Y-2453
X-3346Y-6969
X-5315Y-6142
X-3740Y-16256
X-1772Y-17083
X-11614Y-13268
X-13583Y-12441
X-23819Y-9134
X-25787Y-8307
X-31299Y-7165
X-33268Y-6339
X-38780Y-7165
X-40748Y-6339
X-46654Y-16024
X-48622Y-15197
X-46457Y4291
X-44488Y3465
X-39016Y4291
X-37047Y3465
X-31575Y4291
X-29606Y3465
T04
X-25787Y-31240
X-21457
X-6693
X-2362
X-1575Y-18579
X-5906
X24016Y-20276
X28346
Y-10039
X24016
X18504Y-14945
X14173
X13583Y-4724
X17913
X7087Y-4776
X2756
X-3150Y-8465
X3937Y-14945
X8268
X-11417Y-14764
X-15748
X-7480Y-8465
X-23622Y-10630
X-27953
X-31102Y-8661
X-35433
X-38583
X-42913
X-46457Y-17520
X-50787
X-48622Y1969
X-44291
X-41181
X-36850
X-33740
X-29409
T06
X-23622Y-31240
X-4528
X-3740Y-18579
X26181Y-20276
Y-10039
X16339Y-14945
X15748Y-4724
X4921Y-4776
X6102Y-14945
X-5315Y-8465
X-13583Y-14764
X-25787Y-10630
X-33268Y-8661
X-40748
X-48622Y-17520
X-46457Y1969
X-39016
X-31575
T07
X29921Y-35433
X-11220
X-52362
Y3543
X-17520
X-4921
X29921
M30
