M48
;Layer_Color=6321
;FILE_FORMAT=2:4
INCH,TZ
;TYPE=PLATED
T1F00S00C0.0157
T2F00S00C0.0630
T3F00S00C0.1201
;TYPE=NON_PLATED
T4F00S00C0.0748
T6F00S00C0.1988
T7F00S00C0.2362
%
T01
X63976Y984
X67913
X71850
X60039
X56102
X52165
X49370Y1575
X44291Y984
X36417
X30512Y1772
X20669Y984
X16732
X12795
X8858
X4921
Y4921
Y8858
Y12795
X5472Y15748
X8858Y16732
X12795
Y12795
Y8858
X8858
Y12795
Y4921
X12795
X984
Y8858
Y12795
Y16732
X16732
X20669
X24606
X28543
Y12795
X24606
X20669
Y8858
Y4921
X16732
Y8858
Y12795
X30118Y3189
X36417Y4921
X40354
X44291
X44724Y2323
X44291Y8858
Y12795
X40354
Y8858
X36417
Y12795
X32480
Y16732
X40591Y16968
X44291Y16732
X51220Y15827
X50394Y14173
X52165Y12795
Y8858
X56102
Y12795
Y16732
X55512Y16417
X60039Y12795
Y8858
Y4921
X56102
X52165
X48228Y8858
Y12795
X63976
Y8858
X67913
Y12795
Y16732
X65984Y17402
X63976Y16732
X71850
X75787
Y12795
X71850
Y8858
X75787
Y4921
X71850
X67913
X63976
X79724
Y8858
X83661
Y12795
X80315Y12795
X83661Y16732
Y4921
X80758Y18848
Y20030
X79724Y20669
X80315Y23228
X79724Y32480
X83661
X75787
X75748Y28150
Y27264
X75787Y24606
X71850
X72933Y27362
Y28543
X70256Y28248
X69685Y28228
X70256Y27461
X67913Y24606
X63976
Y20669
X65945Y19783
X65472Y19173
X70472Y18110
X75787Y20669
X63976Y28543
Y32480
X58898Y27835
X58268
X58898Y27047
X60039Y24606
X56102
X55866Y21142
X55512Y17874
X59646Y19488
X52165Y20669
X48228
X49311Y23917
Y24508
X48780Y24803
X52165Y24606
Y28543
X50886Y32677
X45748Y32894
X44390Y32185
Y29035
Y28642
X44882Y28583
X43602Y28642
Y29035
X42815Y28642
X42126Y31299
X41142
X40157
X39173
X39134Y28583
X38947Y28228
X37638Y29882
X36417Y32480
X36614Y32874
X32480Y32480
X31496Y30236
X31220Y27362
Y26102
X31791Y25984
X32480Y24606
X36417
X40354
X40846Y26378
X41339Y26378
X44291Y24606
X45994Y26270
X44291Y20669
X43898Y20472
Y19685
X40591Y18268
X39961Y17913
X32185Y18898
X32480Y20669
X30512Y18898
X28307Y21220
Y22008
X27756Y22087
X24606Y20669
X20669
X20197Y23228
X20354Y24134
X20827Y24016
X25079Y24370
X25295Y28937
X27953Y28228
X28543Y32480
X25315Y32559
X24606Y32480
X20669
X16732
X18032Y27598
X16732Y20669
X12795
X13228Y22598
Y23622
X12638Y24016
X12795Y28543
X8858
X4921
Y24606
X984
X1732Y26063
X2126Y26772
X1732Y27795
X984Y28543
Y32480
X4921
X8858
X12795
X8858Y20669
X984
X3307Y33701
X984Y36417
Y40354
X8858
X10630Y39882
X9843Y37402
X8858Y36417
X7677Y35197
X14843Y35157
X15059Y35925
X15118Y34213
X16732Y36417
X19882Y36457
X20197Y34449
X19114
X22362Y35236
X24606Y36417
X25295Y38386
X25984Y39665
X24921Y40472
X29724Y40846
X28543Y36417
X16732Y40354
X31102Y34646
X32283
X36614Y34941
Y35925
Y36909
Y37894
Y38878
Y39862
Y40945
X36650Y33894
X45732
X45720Y34894
X45736Y35894
X45752Y36894
X45768Y37894
X45752Y38894
X45736Y39894
X45768Y40945
X51870Y40945
X51575Y40256
X51280Y39567
X50984Y38878
X50689Y38189
X50394Y37500
X52657Y34350
X51968Y33661
X56102Y40354
X60039
X63976
X67913
X71850
X75787
X72933Y35925
Y35138
X79724Y36417
X83661
X79724Y40354
T02
X45866Y2165
X26772
X1772Y15886
X46654Y14827
X76575Y13130
Y23366
X66732Y18461
X66142Y28681
X55315Y28630
X56496Y18461
X45079Y24941
X36811Y18642
X24606Y22776
X17126Y24744
X9646
X11378Y35374
X3937
X18819
T03
X28740Y6516
X30709Y5689
X47835Y6516
X49803Y5689
X78543Y17480
X80512Y16654
Y26890
X78543Y27717
X70079Y32205
X68110Y33031
X68701Y22811
X70669Y21984
X60433
X58465Y22811
X59252Y32154
X57283Y32980
X49016Y28465
X47047Y29291
X48622Y19177
X50591Y18350
X40748Y22165
X38780Y22992
X28543Y26299
X26575Y27126
X21063Y28268
X19094Y29094
X13583Y28268
X11614Y29094
X5709Y19409
X3740Y20236
X5906Y39724
X7874Y38898
X13346Y39724
X15315Y38898
X20787Y39724
X22756Y38898
T04
X26575Y4193
X30906
X45669
X50000
X50787Y16854
X46457
X76378Y15157
X80709
Y25394
X76378
X70866Y20488
X66535
X65945Y30709
X70276
X59449Y30657
X55118
X49213Y26969
X56299Y20488
X60630
X40945Y20669
X36614
X44882Y26969
X28740Y24803
X24409
X21260Y26772
X16929
X13780
X9449
X5906Y17913
X1575
X3740Y37402
X8071
X11181
X15512
X18622
X22953
T06
X28740Y4193
X47835
X48622Y16854
X78543Y15157
Y25394
X68701Y20488
X68110Y30709
X57283Y30657
X58465Y20488
X47047Y26969
X38780Y20669
X26575Y24803
X19094Y26772
X11614
X3740Y17913
X5906Y37402
X13346
X20787
T07
X82283Y0
X41142
X0
Y38976
X34843
X47441
X82283
M30
