G04*
G04 #@! TF.GenerationSoftware,Altium Limited,CircuitStudio,1.5.2 (30)*
G04*
G04 Layer_Color=13948096*
%FSLAX25Y25*%
%MOIN*%
G70*
G01*
G75*
%ADD24C,0.00591*%
%ADD25C,0.01000*%
%ADD29C,0.00394*%
D24*
X511811Y170905D02*
Y172874D01*
Y186260D02*
Y188228D01*
X527559Y186260D02*
Y188228D01*
X511811D02*
X514961D01*
X524409D02*
X527559D01*
X511811Y170905D02*
X525591D01*
X527559Y172874D01*
X532283Y202795D02*
X549213D01*
X536614Y222480D02*
X549213D01*
X509449Y230748D02*
X528346D01*
X509449Y211457D02*
X523622D01*
X525984Y209095D02*
X532283Y202795D01*
X528346Y230748D02*
X536614Y222480D01*
X509449Y227992D02*
Y230748D01*
Y211457D02*
Y215787D01*
X549213Y219724D02*
Y222480D01*
Y202795D02*
Y206732D01*
X523622Y211457D02*
X525984Y209095D01*
X625984Y247807D02*
X628346Y245445D01*
X651575Y239146D02*
Y243083D01*
Y256075D02*
Y258831D01*
X611811Y247807D02*
Y252138D01*
Y264342D02*
Y267098D01*
X630709D02*
X638976Y258831D01*
X628346Y245445D02*
X634646Y239146D01*
X611811Y247807D02*
X625984D01*
X611811Y267098D02*
X630709D01*
X638976Y258831D02*
X651575D01*
X634646Y239146D02*
X651575D01*
X627953Y207256D02*
X629921Y209224D01*
X614173Y207256D02*
X627953D01*
X626772Y224579D02*
X629921D01*
X614173D02*
X617323D01*
X629921Y222610D02*
Y224579D01*
X614173Y222610D02*
Y224579D01*
Y207256D02*
Y209224D01*
X496063Y272047D02*
Y274016D01*
Y287402D02*
Y289370D01*
X511811Y287402D02*
Y289370D01*
X496063D02*
X499213D01*
X508661D02*
X511811D01*
X496063Y272047D02*
X509842D01*
X511811Y274016D01*
X516535Y303937D02*
X533465D01*
X520866Y323622D02*
X533465D01*
X493701Y331890D02*
X512598D01*
X493701Y312598D02*
X507874D01*
X510236Y310236D02*
X516535Y303937D01*
X512598Y331890D02*
X520866Y323622D01*
X493701Y329134D02*
Y331890D01*
Y312598D02*
Y316929D01*
X533465Y320866D02*
Y323622D01*
Y303937D02*
Y307874D01*
X507874Y312598D02*
X510236Y310236D01*
X614173Y349488D02*
X616535Y347126D01*
X639764Y340827D02*
Y344764D01*
Y357756D02*
Y360512D01*
X600000Y349488D02*
Y353819D01*
Y366024D02*
Y368779D01*
X618898D02*
X627165Y360512D01*
X616535Y347126D02*
X622835Y340827D01*
X600000Y349488D02*
X614173D01*
X600000Y368779D02*
X618898D01*
X627165Y360512D02*
X639764D01*
X622835Y340827D02*
X639764D01*
X616142Y308937D02*
X618110Y310906D01*
X602362Y308937D02*
X616142D01*
X614961Y326260D02*
X618110D01*
X602362D02*
X605512D01*
X618110Y324291D02*
Y326260D01*
X602362Y324291D02*
Y326260D01*
Y308937D02*
Y310906D01*
X191929Y270079D02*
Y272047D01*
Y285433D02*
Y287402D01*
X207677Y285433D02*
Y287402D01*
X191929D02*
X195079D01*
X204528D02*
X207677D01*
X191929Y270079D02*
X205709D01*
X207677Y272047D01*
X212402Y301969D02*
X229331D01*
X216732Y321654D02*
X229331D01*
X189567Y329921D02*
X208465D01*
X189567Y310630D02*
X203740D01*
X206102Y308268D02*
X212402Y301969D01*
X208465Y329921D02*
X216732Y321654D01*
X189567Y327165D02*
Y329921D01*
Y310630D02*
Y314961D01*
X229331Y318898D02*
Y321654D01*
Y301969D02*
Y305906D01*
X203740Y310630D02*
X206102Y308268D01*
X237205Y421063D02*
X239567Y418701D01*
X262795Y412402D02*
Y416339D01*
Y429331D02*
Y432087D01*
X223031Y421063D02*
Y425394D01*
Y437598D02*
Y440354D01*
X241929D02*
X250197Y432087D01*
X239567Y418701D02*
X245866Y412402D01*
X223031Y421063D02*
X237205D01*
X223031Y440354D02*
X241929D01*
X250197Y432087D02*
X262795D01*
X245866Y412402D02*
X262795D01*
X239173Y380512D02*
X241142Y382480D01*
X225394Y380512D02*
X239173D01*
X237992Y397835D02*
X241142D01*
X225394D02*
X228543D01*
X241142Y395866D02*
Y397835D01*
X225394Y395866D02*
Y397835D01*
Y380512D02*
Y382480D01*
X710630Y309449D02*
Y311417D01*
Y324803D02*
Y326772D01*
X726378Y324803D02*
Y326772D01*
X710630D02*
X713779D01*
X723228D02*
X726378D01*
X710630Y309449D02*
X724409D01*
X726378Y311417D01*
X731102Y341339D02*
X748032D01*
X735433Y361024D02*
X748032D01*
X708268Y369291D02*
X727165D01*
X708268Y350000D02*
X722441D01*
X724803Y347638D02*
X731102Y341339D01*
X727165Y369291D02*
X735433Y361024D01*
X708268Y366535D02*
Y369291D01*
Y350000D02*
Y354331D01*
X748032Y358268D02*
Y361024D01*
Y341339D02*
Y345276D01*
X722441Y350000D02*
X724803Y347638D01*
X728346Y247807D02*
X730709Y245445D01*
X753937Y239146D02*
Y243083D01*
Y256075D02*
Y258831D01*
X714173Y247807D02*
Y252138D01*
Y264342D02*
Y267098D01*
X733071D02*
X741339Y258831D01*
X730709Y245445D02*
X737008Y239146D01*
X714173Y247807D02*
X728346D01*
X714173Y267098D02*
X733071D01*
X741339Y258831D02*
X753937D01*
X737008Y239146D02*
X753937D01*
X730315Y207256D02*
X732283Y209224D01*
X716535Y207256D02*
X730315D01*
X729134Y224579D02*
X732283D01*
X716535D02*
X719685D01*
X732283Y222610D02*
Y224579D01*
X716535Y222610D02*
Y224579D01*
Y207256D02*
Y209224D01*
X403543Y197244D02*
Y199213D01*
Y212598D02*
Y214567D01*
X419291Y212598D02*
Y214567D01*
X403543D02*
X406693D01*
X416142D02*
X419291D01*
X403543Y197244D02*
X417323D01*
X419291Y199213D01*
X424016Y229134D02*
X440945D01*
X428346Y248819D02*
X440945D01*
X401181Y257087D02*
X420079D01*
X401181Y237795D02*
X415354D01*
X417717Y235433D02*
X424016Y229134D01*
X420079Y257087D02*
X428346Y248819D01*
X401181Y254331D02*
Y257087D01*
Y237795D02*
Y242126D01*
X440945Y246063D02*
Y248819D01*
Y229134D02*
Y233071D01*
X415354Y237795D02*
X417717Y235433D01*
X94488Y310630D02*
X96850Y308268D01*
X120079Y301969D02*
Y305906D01*
Y318898D02*
Y321654D01*
X80315Y310630D02*
Y314961D01*
Y327165D02*
Y329921D01*
X99213D02*
X107480Y321654D01*
X96850Y308268D02*
X103150Y301969D01*
X80315Y310630D02*
X94488D01*
X80315Y329921D02*
X99213D01*
X107480Y321654D02*
X120079D01*
X103150Y301969D02*
X120079D01*
X96457Y270079D02*
X98425Y272047D01*
X82677Y270079D02*
X96457D01*
X95276Y287402D02*
X98425D01*
X82677D02*
X85827D01*
X98425Y285433D02*
Y287402D01*
X82677Y285433D02*
Y287402D01*
Y270079D02*
Y272047D01*
X818898Y272047D02*
Y274016D01*
Y287402D02*
Y289370D01*
X834646Y287402D02*
Y289370D01*
X818898D02*
X822047D01*
X831496D02*
X834646D01*
X818898Y272047D02*
X832677D01*
X834646Y274016D01*
X839370Y303937D02*
X856299D01*
X843701Y323622D02*
X856299D01*
X816535Y331890D02*
X835433D01*
X816535Y312598D02*
X830709D01*
X833071Y310236D02*
X839370Y303937D01*
X835433Y331890D02*
X843701Y323622D01*
X816535Y329134D02*
Y331890D01*
Y312598D02*
Y316929D01*
X856299Y320866D02*
Y323622D01*
Y303937D02*
Y307874D01*
X830709Y312598D02*
X833071Y310236D01*
X830709Y210236D02*
X833071Y207874D01*
X856299Y201575D02*
Y205512D01*
Y218504D02*
Y221260D01*
X816535Y210236D02*
Y214567D01*
Y226772D02*
Y229528D01*
X835433D02*
X843701Y221260D01*
X833071Y207874D02*
X839370Y201575D01*
X816535Y210236D02*
X830709D01*
X816535Y229528D02*
X835433D01*
X843701Y221260D02*
X856299D01*
X839370Y201575D02*
X856299D01*
X832677Y169685D02*
X834646Y171653D01*
X818898Y169685D02*
X832677D01*
X831496Y187008D02*
X834646D01*
X818898D02*
X822047D01*
X834646Y185039D02*
Y187008D01*
X818898Y185039D02*
Y187008D01*
Y169685D02*
Y171653D01*
X507874Y21299D02*
Y23268D01*
Y36654D02*
Y38622D01*
X523622Y36654D02*
Y38622D01*
X507874D02*
X511024D01*
X520472D02*
X523622D01*
X507874Y21299D02*
X521654D01*
X523622Y23268D01*
X528346Y53189D02*
X545276D01*
X532677Y72874D02*
X545276D01*
X505512Y81142D02*
X524409D01*
X505512Y61850D02*
X519685D01*
X522047Y59488D02*
X528346Y53189D01*
X524409Y81142D02*
X532677Y72874D01*
X505512Y78386D02*
Y81142D01*
Y61850D02*
Y66181D01*
X545276Y70118D02*
Y72874D01*
Y53189D02*
Y57126D01*
X519685Y61850D02*
X522047Y59488D01*
X307283Y259449D02*
X309646Y257087D01*
X332874Y250787D02*
Y254724D01*
Y267717D02*
Y270472D01*
X293110Y259449D02*
Y263779D01*
Y275984D02*
Y278740D01*
X312008D02*
X320276Y270472D01*
X309646Y257087D02*
X315945Y250787D01*
X293110Y259449D02*
X307283D01*
X293110Y278740D02*
X312008D01*
X320276Y270472D02*
X332874D01*
X315945Y250787D02*
X332874D01*
X309252Y218898D02*
X311221Y220866D01*
X295472Y218898D02*
X309252D01*
X308071Y236221D02*
X311221D01*
X295472D02*
X298622D01*
X311221Y234252D02*
Y236221D01*
X295472Y234252D02*
Y236221D01*
Y218898D02*
Y220866D01*
X150984Y380512D02*
Y382480D01*
Y395866D02*
Y397835D01*
X166732Y395866D02*
Y397835D01*
X150984D02*
X154134D01*
X163583D02*
X166732D01*
X150984Y380512D02*
X164764D01*
X166732Y382480D01*
X171457Y412402D02*
X188386D01*
X175787Y432087D02*
X188386D01*
X148622Y440354D02*
X167520D01*
X148622Y421063D02*
X162795D01*
X165157Y418701D02*
X171457Y412402D01*
X167520Y440354D02*
X175787Y432087D01*
X148622Y437598D02*
Y440354D01*
Y421063D02*
Y425394D01*
X188386Y429331D02*
Y432087D01*
Y412402D02*
Y416339D01*
X162795Y421063D02*
X165157Y418701D01*
X88386Y421063D02*
X90748Y418701D01*
X113976Y412402D02*
Y416339D01*
Y429331D02*
Y432087D01*
X74213Y421063D02*
Y425394D01*
Y437598D02*
Y440354D01*
X93110D02*
X101378Y432087D01*
X90748Y418701D02*
X97047Y412402D01*
X74213Y421063D02*
X88386D01*
X74213Y440354D02*
X93110D01*
X101378Y432087D02*
X113976D01*
X97047Y412402D02*
X113976D01*
X90354Y380512D02*
X92323Y382480D01*
X76575Y380512D02*
X90354D01*
X89173Y397835D02*
X92323D01*
X76575D02*
X79724D01*
X92323Y395866D02*
Y397835D01*
X76575Y395866D02*
Y397835D01*
Y380512D02*
Y382480D01*
X326969Y21260D02*
Y23228D01*
Y36614D02*
Y38583D01*
X342717Y36614D02*
Y38583D01*
X326969D02*
X330118D01*
X339567D02*
X342717D01*
X326969Y21260D02*
X340748D01*
X342717Y23228D01*
X347441Y53150D02*
X364370D01*
X351772Y72835D02*
X364370D01*
X324606Y81102D02*
X343504D01*
X324606Y61811D02*
X338779D01*
X341142Y59449D02*
X347441Y53150D01*
X343504Y81102D02*
X351772Y72835D01*
X324606Y78347D02*
Y81102D01*
Y61811D02*
Y66142D01*
X364370Y70079D02*
Y72835D01*
Y53150D02*
Y57087D01*
X338779Y61811D02*
X341142Y59449D01*
D25*
X579724Y441731D02*
X576576D01*
X578150D01*
Y437008D01*
X575001D02*
Y441731D01*
X572640D01*
X571853Y440944D01*
Y439369D01*
X572640Y438582D01*
X575001D01*
X570279Y437008D02*
X568704D01*
X569491D01*
Y441731D01*
X570279Y440944D01*
X566343D02*
X565556Y441731D01*
X563981D01*
X563194Y440944D01*
Y437795D01*
X563981Y437008D01*
X565556D01*
X566343Y437795D01*
Y440944D01*
X561620Y437795D02*
X560833Y437008D01*
X559259D01*
X558471Y437795D01*
Y440944D01*
X559259Y441731D01*
X560833D01*
X561620Y440944D01*
Y440157D01*
X560833Y439369D01*
X558471D01*
X579724Y434841D02*
X576576D01*
X578150D01*
Y430118D01*
X575001D02*
Y434841D01*
X572640D01*
X571853Y434054D01*
Y432480D01*
X572640Y431692D01*
X575001D01*
X570279Y430118D02*
X568704D01*
X569491D01*
Y434841D01*
X570279Y434054D01*
X566343Y430118D02*
X564769D01*
X565556D01*
Y434841D01*
X566343Y434054D01*
X559259Y430118D02*
X562407D01*
X559259Y433267D01*
Y434054D01*
X560046Y434841D01*
X561620D01*
X562407Y434054D01*
X579724Y427951D02*
X576576D01*
X578150D01*
Y423228D01*
X575001D02*
Y427951D01*
X572640D01*
X571853Y427164D01*
Y425590D01*
X572640Y424803D01*
X575001D01*
X570279Y423228D02*
X568704D01*
X569491D01*
Y427951D01*
X570279Y427164D01*
X566343Y423228D02*
X564769D01*
X565556D01*
Y427951D01*
X566343Y427164D01*
X562407D02*
X561620Y427951D01*
X560046D01*
X559259Y427164D01*
Y426377D01*
X560046Y425590D01*
X560833D01*
X560046D01*
X559259Y424803D01*
Y424016D01*
X560046Y423228D01*
X561620D01*
X562407Y424016D01*
X579724Y421062D02*
X576576D01*
X578150D01*
Y416339D01*
X575001D02*
Y421062D01*
X572640D01*
X571853Y420274D01*
Y418700D01*
X572640Y417913D01*
X575001D01*
X570279Y416339D02*
X568704D01*
X569491D01*
Y421062D01*
X570279Y420274D01*
X566343Y416339D02*
X564769D01*
X565556D01*
Y421062D01*
X566343Y420274D01*
X559259Y421062D02*
X560833Y420274D01*
X562407Y418700D01*
Y417126D01*
X561620Y416339D01*
X560046D01*
X559259Y417126D01*
Y417913D01*
X560046Y418700D01*
X562407D01*
X579724Y414172D02*
X576576D01*
X578150D01*
Y409449D01*
X575001D02*
Y414172D01*
X572640D01*
X571853Y413385D01*
Y411810D01*
X572640Y411023D01*
X575001D01*
X570279Y409449D02*
X568704D01*
X569491D01*
Y414172D01*
X570279Y413385D01*
X566343Y409449D02*
X564769D01*
X565556D01*
Y414172D01*
X566343Y413385D01*
X562407Y414172D02*
X559259D01*
Y413385D01*
X562407Y410236D01*
Y409449D01*
X579724Y407282D02*
X576576D01*
X578150D01*
Y402559D01*
X575001D02*
Y407282D01*
X572640D01*
X571853Y406495D01*
Y404920D01*
X572640Y404133D01*
X575001D01*
X570279Y402559D02*
X568704D01*
X569491D01*
Y407282D01*
X570279Y406495D01*
X566343Y402559D02*
X564769D01*
X565556D01*
Y407282D01*
X566343Y406495D01*
X562407Y403346D02*
X561620Y402559D01*
X560046D01*
X559259Y403346D01*
Y406495D01*
X560046Y407282D01*
X561620D01*
X562407Y406495D01*
Y405708D01*
X561620Y404920D01*
X559259D01*
X329724Y15550D02*
X326576D01*
X328150D01*
Y10827D01*
X325002D02*
Y15550D01*
X322640D01*
X321853Y14762D01*
Y13188D01*
X322640Y12401D01*
X325002D01*
X320279Y10827D02*
X318704D01*
X319492D01*
Y15550D01*
X320279Y14762D01*
X316343D02*
X315556Y15550D01*
X313982D01*
X313194Y14762D01*
Y13975D01*
X313982Y13188D01*
X314769D01*
X313982D01*
X313194Y12401D01*
Y11614D01*
X313982Y10827D01*
X315556D01*
X316343Y11614D01*
X311620D02*
X310833Y10827D01*
X309259D01*
X308471Y11614D01*
Y14762D01*
X309259Y15550D01*
X310833D01*
X311620Y14762D01*
Y13975D01*
X310833Y13188D01*
X308471D01*
X757874Y227164D02*
X754725D01*
X756300D01*
Y222441D01*
X753151D02*
Y227164D01*
X750790D01*
X750002Y226377D01*
Y224802D01*
X750790Y224015D01*
X753151D01*
X748428Y222441D02*
X746854D01*
X747641D01*
Y227164D01*
X748428Y226377D01*
X744492D02*
X743705Y227164D01*
X742131D01*
X741344Y226377D01*
Y225589D01*
X742131Y224802D01*
X742918D01*
X742131D01*
X741344Y224015D01*
Y223228D01*
X742131Y222441D01*
X743705D01*
X744492Y223228D01*
X739770Y226377D02*
X738982Y227164D01*
X737408D01*
X736621Y226377D01*
Y225589D01*
X737408Y224802D01*
X736621Y224015D01*
Y223228D01*
X737408Y222441D01*
X738982D01*
X739770Y223228D01*
Y224015D01*
X738982Y224802D01*
X739770Y225589D01*
Y226377D01*
X738982Y224802D02*
X737408D01*
X655512Y227164D02*
X652363D01*
X653937D01*
Y222441D01*
X650789D02*
Y227164D01*
X648427D01*
X647640Y226377D01*
Y224802D01*
X648427Y224015D01*
X650789D01*
X646066Y222441D02*
X644492D01*
X645279D01*
Y227164D01*
X646066Y226377D01*
X642130D02*
X641343Y227164D01*
X639769D01*
X638982Y226377D01*
Y225589D01*
X639769Y224802D01*
X640556D01*
X639769D01*
X638982Y224015D01*
Y223228D01*
X639769Y222441D01*
X641343D01*
X642130Y223228D01*
X637407Y227164D02*
X634259D01*
Y226377D01*
X637407Y223228D01*
Y222441D01*
X553150Y191731D02*
X550001D01*
X551575D01*
Y187008D01*
X548427D02*
Y191731D01*
X546065D01*
X545278Y190944D01*
Y189369D01*
X546065Y188582D01*
X548427D01*
X543704Y187008D02*
X542130D01*
X542917D01*
Y191731D01*
X543704Y190944D01*
X539768D02*
X538981Y191731D01*
X537407D01*
X536620Y190944D01*
Y190156D01*
X537407Y189369D01*
X538194D01*
X537407D01*
X536620Y188582D01*
Y187795D01*
X537407Y187008D01*
X538981D01*
X539768Y187795D01*
X531897Y191731D02*
X533471Y190944D01*
X535045Y189369D01*
Y187795D01*
X534258Y187008D01*
X532684D01*
X531897Y187795D01*
Y188582D01*
X532684Y189369D01*
X535045D01*
X547244Y42125D02*
X544096D01*
X545670D01*
Y37402D01*
X542521D02*
Y42125D01*
X540160D01*
X539373Y41337D01*
Y39763D01*
X540160Y38976D01*
X542521D01*
X537798Y37402D02*
X536224D01*
X537011D01*
Y42125D01*
X537798Y41337D01*
X533863D02*
X533075Y42125D01*
X531501D01*
X530714Y41337D01*
Y40550D01*
X531501Y39763D01*
X532288D01*
X531501D01*
X530714Y38976D01*
Y38189D01*
X531501Y37402D01*
X533075D01*
X533863Y38189D01*
X525991Y42125D02*
X529140D01*
Y39763D01*
X527565Y40550D01*
X526778D01*
X525991Y39763D01*
Y38189D01*
X526778Y37402D01*
X528353D01*
X529140Y38189D01*
X370079Y42125D02*
X366930D01*
X368504D01*
Y37402D01*
X365356D02*
Y42125D01*
X362994D01*
X362207Y41337D01*
Y39763D01*
X362994Y38976D01*
X365356D01*
X360633Y37402D02*
X359059D01*
X359846D01*
Y42125D01*
X360633Y41337D01*
X356697D02*
X355910Y42125D01*
X354336D01*
X353549Y41337D01*
Y40550D01*
X354336Y39763D01*
X355123D01*
X354336D01*
X353549Y38976D01*
Y38189D01*
X354336Y37402D01*
X355910D01*
X356697Y38189D01*
X349613Y37402D02*
Y42125D01*
X351974Y39763D01*
X348826D01*
X864173Y189762D02*
X861025D01*
X862599D01*
Y185039D01*
X859450D02*
Y189762D01*
X857089D01*
X856302Y188975D01*
Y187401D01*
X857089Y186614D01*
X859450D01*
X854727Y185039D02*
X853153D01*
X853940D01*
Y189762D01*
X854727Y188975D01*
X850792D02*
X850005Y189762D01*
X848430D01*
X847643Y188975D01*
Y188188D01*
X848430Y187401D01*
X849217D01*
X848430D01*
X847643Y186614D01*
Y185827D01*
X848430Y185039D01*
X850005D01*
X850792Y185827D01*
X846069Y188975D02*
X845282Y189762D01*
X843707D01*
X842920Y188975D01*
Y188188D01*
X843707Y187401D01*
X844495D01*
X843707D01*
X842920Y186614D01*
Y185827D01*
X843707Y185039D01*
X845282D01*
X846069Y185827D01*
X860236Y292124D02*
X857088D01*
X858662D01*
Y287402D01*
X855513D02*
Y292124D01*
X853152D01*
X852365Y291337D01*
Y289763D01*
X853152Y288976D01*
X855513D01*
X850791Y287402D02*
X849216D01*
X850003D01*
Y292124D01*
X850791Y291337D01*
X846855D02*
X846068Y292124D01*
X844493D01*
X843706Y291337D01*
Y290550D01*
X844493Y289763D01*
X845280D01*
X844493D01*
X843706Y288976D01*
Y288189D01*
X844493Y287402D01*
X846068D01*
X846855Y288189D01*
X838983Y287402D02*
X842132D01*
X838983Y290550D01*
Y291337D01*
X839770Y292124D01*
X841345D01*
X842132Y291337D01*
X750000Y329526D02*
X746851D01*
X748426D01*
Y324803D01*
X745277D02*
Y329526D01*
X742916D01*
X742129Y328739D01*
Y327165D01*
X742916Y326377D01*
X745277D01*
X740554Y324803D02*
X738980D01*
X739767D01*
Y329526D01*
X740554Y328739D01*
X736619D02*
X735831Y329526D01*
X734257D01*
X733470Y328739D01*
Y327952D01*
X734257Y327165D01*
X735044D01*
X734257D01*
X733470Y326377D01*
Y325590D01*
X734257Y324803D01*
X735831D01*
X736619Y325590D01*
X731896Y324803D02*
X730321D01*
X731109D01*
Y329526D01*
X731896Y328739D01*
X643701Y329526D02*
X640552D01*
X642127D01*
Y324803D01*
X638978D02*
Y329526D01*
X636617D01*
X635829Y328739D01*
Y327165D01*
X636617Y326377D01*
X638978D01*
X634255Y324803D02*
X632681D01*
X633468D01*
Y329526D01*
X634255Y328739D01*
X630319D02*
X629532Y329526D01*
X627958D01*
X627171Y328739D01*
Y327952D01*
X627958Y327165D01*
X628745D01*
X627958D01*
X627171Y326377D01*
Y325590D01*
X627958Y324803D01*
X629532D01*
X630319Y325590D01*
X625596Y328739D02*
X624809Y329526D01*
X623235D01*
X622448Y328739D01*
Y325590D01*
X623235Y324803D01*
X624809D01*
X625596Y325590D01*
Y328739D01*
X446850Y217321D02*
X443702D01*
X445276D01*
Y212598D01*
X442128D02*
Y217321D01*
X439766D01*
X438979Y216534D01*
Y214960D01*
X439766Y214173D01*
X442128D01*
X437405Y212598D02*
X435830D01*
X436618D01*
Y217321D01*
X437405Y216534D01*
X430320Y212598D02*
X433469D01*
X430320Y215747D01*
Y216534D01*
X431107Y217321D01*
X432682D01*
X433469Y216534D01*
X428746Y213386D02*
X427959Y212598D01*
X426385D01*
X425597Y213386D01*
Y216534D01*
X426385Y217321D01*
X427959D01*
X428746Y216534D01*
Y215747D01*
X427959Y214960D01*
X425597D01*
X334646Y238975D02*
X331497D01*
X333071D01*
Y234252D01*
X329923D02*
Y238975D01*
X327561D01*
X326774Y238188D01*
Y236613D01*
X327561Y235826D01*
X329923D01*
X325200Y234252D02*
X323626D01*
X324413D01*
Y238975D01*
X325200Y238188D01*
X318116Y234252D02*
X321264D01*
X318116Y237401D01*
Y238188D01*
X318903Y238975D01*
X320477D01*
X321264Y238188D01*
X316541D02*
X315754Y238975D01*
X314180D01*
X313393Y238188D01*
Y237401D01*
X314180Y236613D01*
X313393Y235826D01*
Y235039D01*
X314180Y234252D01*
X315754D01*
X316541Y235039D01*
Y235826D01*
X315754Y236613D01*
X316541Y237401D01*
Y238188D01*
X315754Y236613D02*
X314180D01*
X232283Y292124D02*
X229135D01*
X230709D01*
Y287402D01*
X227561D02*
Y292124D01*
X225199D01*
X224412Y291337D01*
Y289763D01*
X225199Y288976D01*
X227561D01*
X222838Y287402D02*
X221263D01*
X222051D01*
Y292124D01*
X222838Y291337D01*
X215753Y287402D02*
X218902D01*
X215753Y290550D01*
Y291337D01*
X216541Y292124D01*
X218115D01*
X218902Y291337D01*
X214179Y292124D02*
X211031D01*
Y291337D01*
X214179Y288189D01*
Y287402D01*
X532282Y271654D02*
Y274802D01*
Y273228D01*
X527559D01*
Y276376D02*
X532282D01*
Y278738D01*
X531495Y279525D01*
X529920D01*
X529133Y278738D01*
Y276376D01*
X527559Y281099D02*
Y282674D01*
Y281887D01*
X532282D01*
X531495Y281099D01*
X527559Y288184D02*
Y285035D01*
X530708Y288184D01*
X531495D01*
X532282Y287397D01*
Y285822D01*
X531495Y285035D01*
X532282Y292906D02*
X531495Y291332D01*
X529920Y289758D01*
X528346D01*
X527559Y290545D01*
Y292119D01*
X528346Y292906D01*
X529133D01*
X529920Y292119D01*
Y289758D01*
X122047Y290156D02*
X118899D01*
X120473D01*
Y285433D01*
X117324D02*
Y290156D01*
X114963D01*
X114176Y289369D01*
Y287794D01*
X114963Y287007D01*
X117324D01*
X112601Y285433D02*
X111027D01*
X111814D01*
Y290156D01*
X112601Y289369D01*
X105517Y285433D02*
X108666D01*
X105517Y288582D01*
Y289369D01*
X106304Y290156D01*
X107879D01*
X108666Y289369D01*
X100794Y290156D02*
X103943D01*
Y287794D01*
X102369Y288582D01*
X101581D01*
X100794Y287794D01*
Y286220D01*
X101581Y285433D01*
X103156D01*
X103943Y286220D01*
X579724Y393502D02*
X576576D01*
X578150D01*
Y388779D01*
X575001D02*
Y393502D01*
X572640D01*
X571853Y392715D01*
Y391141D01*
X572640Y390354D01*
X575001D01*
X570279Y388779D02*
X568704D01*
X569491D01*
Y393502D01*
X570279Y392715D01*
X563194Y388779D02*
X566343D01*
X563194Y391928D01*
Y392715D01*
X563981Y393502D01*
X565556D01*
X566343Y392715D01*
X559259Y388779D02*
Y393502D01*
X561620Y391141D01*
X558471D01*
X352362Y411219D02*
X349214D01*
X350788D01*
Y406496D01*
X347639D02*
Y411219D01*
X345278D01*
X344491Y410432D01*
Y408857D01*
X345278Y408070D01*
X347639D01*
X342916Y406496D02*
X341342D01*
X342129D01*
Y411219D01*
X342916Y410432D01*
X335832Y406496D02*
X338981D01*
X335832Y409645D01*
Y410432D01*
X336619Y411219D01*
X338194D01*
X338981Y410432D01*
X334258D02*
X333471Y411219D01*
X331896D01*
X331109Y410432D01*
Y409645D01*
X331896Y408857D01*
X332683D01*
X331896D01*
X331109Y408070D01*
Y407283D01*
X331896Y406496D01*
X333471D01*
X334258Y407283D01*
X579724Y400392D02*
X576576D01*
X578150D01*
Y395669D01*
X575001D02*
Y400392D01*
X572640D01*
X571853Y399605D01*
Y398031D01*
X572640Y397244D01*
X575001D01*
X570279Y395669D02*
X568704D01*
X569491D01*
Y400392D01*
X570279Y399605D01*
X563194Y395669D02*
X566343D01*
X563194Y398818D01*
Y399605D01*
X563981Y400392D01*
X565556D01*
X566343Y399605D01*
X558471Y395669D02*
X561620D01*
X558471Y398818D01*
Y399605D01*
X559259Y400392D01*
X560833D01*
X561620Y399605D01*
X265748Y400392D02*
X262599D01*
X264174D01*
Y395669D01*
X261025D02*
Y400392D01*
X258664D01*
X257877Y399605D01*
Y398031D01*
X258664Y397244D01*
X261025D01*
X256302Y395669D02*
X254728D01*
X255515D01*
Y400392D01*
X256302Y399605D01*
X249218Y395669D02*
X252366D01*
X249218Y398818D01*
Y399605D01*
X250005Y400392D01*
X251579D01*
X252366Y399605D01*
X247644Y395669D02*
X246069D01*
X246856D01*
Y400392D01*
X247644Y399605D01*
X190945Y400392D02*
X187796D01*
X189371D01*
Y395669D01*
X186222D02*
Y400392D01*
X183861D01*
X183073Y399605D01*
Y398031D01*
X183861Y397244D01*
X186222D01*
X181499Y395669D02*
X179925D01*
X180712D01*
Y400392D01*
X181499Y399605D01*
X174415Y395669D02*
X177563D01*
X174415Y398818D01*
Y399605D01*
X175202Y400392D01*
X176776D01*
X177563Y399605D01*
X172840D02*
X172053Y400392D01*
X170479D01*
X169692Y399605D01*
Y396456D01*
X170479Y395669D01*
X172053D01*
X172840Y396456D01*
Y399605D01*
X352362Y404329D02*
X349214D01*
X350788D01*
Y399606D01*
X347639D02*
Y404329D01*
X345278D01*
X344491Y403542D01*
Y401968D01*
X345278Y401181D01*
X347639D01*
X342916Y399606D02*
X341342D01*
X342129D01*
Y404329D01*
X342916Y403542D01*
X338981Y399606D02*
X337406D01*
X338194D01*
Y404329D01*
X338981Y403542D01*
X335045D02*
X334258Y404329D01*
X332683D01*
X331896Y403542D01*
Y402755D01*
X332683Y401968D01*
X331896Y401181D01*
Y400393D01*
X332683Y399606D01*
X334258D01*
X335045Y400393D01*
Y401181D01*
X334258Y401968D01*
X335045Y402755D01*
Y403542D01*
X334258Y401968D02*
X332683D01*
X352362Y397439D02*
X349214D01*
X350788D01*
Y392717D01*
X347639D02*
Y397439D01*
X345278D01*
X344491Y396652D01*
Y395078D01*
X345278Y394291D01*
X347639D01*
X342916Y392717D02*
X341342D01*
X342129D01*
Y397439D01*
X342916Y396652D01*
X338981Y392717D02*
X337406D01*
X338194D01*
Y397439D01*
X338981Y396652D01*
X331896Y397439D02*
X335045D01*
Y395078D01*
X333471Y395865D01*
X332683D01*
X331896Y395078D01*
Y393504D01*
X332683Y392717D01*
X334258D01*
X335045Y393504D01*
X352362Y390550D02*
X349214D01*
X350788D01*
Y385827D01*
X347639D02*
Y390550D01*
X345278D01*
X344491Y389762D01*
Y388188D01*
X345278Y387401D01*
X347639D01*
X342916Y385827D02*
X341342D01*
X342129D01*
Y390550D01*
X342916Y389762D01*
X338981Y385827D02*
X337406D01*
X338194D01*
Y390550D01*
X338981Y389762D01*
X332683Y385827D02*
Y390550D01*
X335045Y388188D01*
X331896D01*
X352362Y383660D02*
X349214D01*
X350788D01*
Y378937D01*
X347639D02*
Y383660D01*
X345278D01*
X344491Y382873D01*
Y381298D01*
X345278Y380511D01*
X347639D01*
X342916Y378937D02*
X341342D01*
X342129D01*
Y383660D01*
X342916Y382873D01*
X338981Y378937D02*
X337406D01*
X338194D01*
Y383660D01*
X338981Y382873D01*
X335045Y378937D02*
X333471D01*
X334258D01*
Y383660D01*
X335045Y382873D01*
X114488Y400392D02*
X111340D01*
X112914D01*
Y395669D01*
X109765D02*
Y400392D01*
X107404D01*
X106617Y399605D01*
Y398031D01*
X107404Y397244D01*
X109765D01*
X105042Y395669D02*
X103468D01*
X104255D01*
Y400392D01*
X105042Y399605D01*
X101107Y395669D02*
X99532D01*
X100320D01*
Y400392D01*
X101107Y399605D01*
X97171D02*
X96384Y400392D01*
X94810D01*
X94022Y399605D01*
Y396456D01*
X94810Y395669D01*
X96384D01*
X97171Y396456D01*
Y399605D01*
X579724Y352164D02*
X576576D01*
X578150D01*
Y347441D01*
X575001D02*
Y352164D01*
X572640D01*
X571853Y351377D01*
Y349802D01*
X572640Y349015D01*
X575001D01*
X570279Y347441D02*
X568704D01*
X569491D01*
Y352164D01*
X570279Y351377D01*
X566343D02*
X565556Y352164D01*
X563981D01*
X563194Y351377D01*
Y348228D01*
X563981Y347441D01*
X565556D01*
X566343Y348228D01*
Y351377D01*
X561620D02*
X560833Y352164D01*
X559259D01*
X558471Y351377D01*
Y350589D01*
X559259Y349802D01*
X558471Y349015D01*
Y348228D01*
X559259Y347441D01*
X560833D01*
X561620Y348228D01*
Y349015D01*
X560833Y349802D01*
X561620Y350589D01*
Y351377D01*
X560833Y349802D02*
X559259D01*
X579724Y359054D02*
X576576D01*
X578150D01*
Y354331D01*
X575001D02*
Y359054D01*
X572640D01*
X571853Y358266D01*
Y356692D01*
X572640Y355905D01*
X575001D01*
X570279Y354331D02*
X568704D01*
X569491D01*
Y359054D01*
X570279Y358266D01*
X566343D02*
X565556Y359054D01*
X563981D01*
X563194Y358266D01*
Y355118D01*
X563981Y354331D01*
X565556D01*
X566343Y355118D01*
Y358266D01*
X561620Y359054D02*
X558471D01*
Y358266D01*
X561620Y355118D01*
Y354331D01*
X579724Y365943D02*
X576576D01*
X578150D01*
Y361221D01*
X575001D02*
Y365943D01*
X572640D01*
X571853Y365156D01*
Y363582D01*
X572640Y362795D01*
X575001D01*
X570279Y361221D02*
X568704D01*
X569491D01*
Y365943D01*
X570279Y365156D01*
X566343D02*
X565556Y365943D01*
X563981D01*
X563194Y365156D01*
Y362008D01*
X563981Y361221D01*
X565556D01*
X566343Y362008D01*
Y365156D01*
X558471Y365943D02*
X560046Y365156D01*
X561620Y363582D01*
Y362008D01*
X560833Y361221D01*
X559259D01*
X558471Y362008D01*
Y362795D01*
X559259Y363582D01*
X561620D01*
X365158Y430904D02*
X362009D01*
X363583D01*
Y426181D01*
X360435D02*
Y430904D01*
X358073D01*
X357286Y430117D01*
Y428543D01*
X358073Y427755D01*
X360435D01*
X355712Y426181D02*
X354137D01*
X354925D01*
Y430904D01*
X355712Y430117D01*
X351776D02*
X350989Y430904D01*
X349414D01*
X348627Y430117D01*
Y426968D01*
X349414Y426181D01*
X350989D01*
X351776Y426968D01*
Y430117D01*
X343904Y430904D02*
X347053D01*
Y428543D01*
X345479Y429330D01*
X344692D01*
X343904Y428543D01*
Y426968D01*
X344692Y426181D01*
X346266D01*
X347053Y426968D01*
X579724Y372833D02*
X576576D01*
X578150D01*
Y368110D01*
X575001D02*
Y372833D01*
X572640D01*
X571853Y372046D01*
Y370472D01*
X572640Y369685D01*
X575001D01*
X570279Y368110D02*
X568704D01*
X569491D01*
Y372833D01*
X570279Y372046D01*
X566343D02*
X565556Y372833D01*
X563981D01*
X563194Y372046D01*
Y368897D01*
X563981Y368110D01*
X565556D01*
X566343Y368897D01*
Y372046D01*
X559259Y368110D02*
Y372833D01*
X561620Y370472D01*
X558471D01*
X365158Y421062D02*
X362009D01*
X363583D01*
Y416339D01*
X360435D02*
Y421062D01*
X358073D01*
X357286Y420274D01*
Y418700D01*
X358073Y417913D01*
X360435D01*
X355712Y416339D02*
X354137D01*
X354925D01*
Y421062D01*
X355712Y420274D01*
X351776D02*
X350989Y421062D01*
X349414D01*
X348627Y420274D01*
Y417126D01*
X349414Y416339D01*
X350989D01*
X351776Y417126D01*
Y420274D01*
X347053D02*
X346266Y421062D01*
X344692D01*
X343904Y420274D01*
Y419487D01*
X344692Y418700D01*
X345479D01*
X344692D01*
X343904Y417913D01*
Y417126D01*
X344692Y416339D01*
X346266D01*
X347053Y417126D01*
X579724Y379723D02*
X576576D01*
X578150D01*
Y375000D01*
X575001D02*
Y379723D01*
X572640D01*
X571853Y378936D01*
Y377361D01*
X572640Y376574D01*
X575001D01*
X570279Y375000D02*
X568704D01*
X569491D01*
Y379723D01*
X570279Y378936D01*
X566343D02*
X565556Y379723D01*
X563981D01*
X563194Y378936D01*
Y375787D01*
X563981Y375000D01*
X565556D01*
X566343Y375787D01*
Y378936D01*
X558471Y375000D02*
X561620D01*
X558471Y378149D01*
Y378936D01*
X559259Y379723D01*
X560833D01*
X561620Y378936D01*
X365158Y441731D02*
X362009D01*
X363583D01*
Y437008D01*
X360435D02*
Y441731D01*
X358073D01*
X357286Y440944D01*
Y439369D01*
X358073Y438582D01*
X360435D01*
X355712Y437008D02*
X354137D01*
X354925D01*
Y441731D01*
X355712Y440944D01*
X351776D02*
X350989Y441731D01*
X349414D01*
X348627Y440944D01*
Y437795D01*
X349414Y437008D01*
X350989D01*
X351776Y437795D01*
Y440944D01*
X347053Y437008D02*
X345479D01*
X346266D01*
Y441731D01*
X347053Y440944D01*
X579724Y386613D02*
X576576D01*
X578150D01*
Y381890D01*
X575001D02*
Y386613D01*
X572640D01*
X571853Y385825D01*
Y384251D01*
X572640Y383464D01*
X575001D01*
X570279Y381890D02*
X568704D01*
X569491D01*
Y386613D01*
X570279Y385825D01*
X566343D02*
X565556Y386613D01*
X563981D01*
X563194Y385825D01*
Y382677D01*
X563981Y381890D01*
X565556D01*
X566343Y382677D01*
Y385825D01*
X561620D02*
X560833Y386613D01*
X559259D01*
X558471Y385825D01*
Y382677D01*
X559259Y381890D01*
X560833D01*
X561620Y382677D01*
Y385825D01*
X334646Y441929D02*
X329923D01*
Y439568D01*
X330710Y438781D01*
X332284D01*
X333071Y439568D01*
Y441929D01*
Y440355D02*
X334646Y438781D01*
Y437206D02*
Y435632D01*
Y436419D01*
X329923D01*
X330710Y437206D01*
X334646Y430122D02*
Y433271D01*
X331497Y430122D01*
X330710D01*
X329923Y430909D01*
Y432483D01*
X330710Y433271D01*
Y428548D02*
X329923Y427761D01*
Y426186D01*
X330710Y425399D01*
X333858D01*
X334646Y426186D01*
Y427761D01*
X333858Y428548D01*
X330710D01*
X327756Y413386D02*
X323033D01*
Y411024D01*
X323820Y410237D01*
X325395D01*
X326182Y411024D01*
Y413386D01*
Y411811D02*
X327756Y410237D01*
Y408663D02*
Y407089D01*
Y407876D01*
X323033D01*
X323820Y408663D01*
X327756Y404727D02*
Y403153D01*
Y403940D01*
X323033D01*
X323820Y404727D01*
X326969Y400792D02*
X327756Y400004D01*
Y398430D01*
X326969Y397643D01*
X323820D01*
X323033Y398430D01*
Y400004D01*
X323820Y400792D01*
X324607D01*
X325395Y400004D01*
Y397643D01*
X390748Y406496D02*
Y411219D01*
X388387D01*
X387599Y410432D01*
Y408857D01*
X388387Y408070D01*
X390748D01*
X389174D02*
X387599Y406496D01*
X386025D02*
X384451D01*
X385238D01*
Y411219D01*
X386025Y410432D01*
X382089Y406496D02*
X380515D01*
X381302D01*
Y411219D01*
X382089Y410432D01*
X378154D02*
X377366Y411219D01*
X375792D01*
X375005Y410432D01*
Y409645D01*
X375792Y408857D01*
X375005Y408070D01*
Y407283D01*
X375792Y406496D01*
X377366D01*
X378154Y407283D01*
Y408070D01*
X377366Y408857D01*
X378154Y409645D01*
Y410432D01*
X377366Y408857D02*
X375792D01*
X508858Y388779D02*
Y393502D01*
X506497D01*
X505710Y392715D01*
Y391141D01*
X506497Y390354D01*
X508858D01*
X507284D02*
X505710Y388779D01*
X504135D02*
X502561D01*
X503348D01*
Y393502D01*
X504135Y392715D01*
X500200Y388779D02*
X498625D01*
X499412D01*
Y393502D01*
X500200Y392715D01*
X496264Y393502D02*
X493115D01*
Y392715D01*
X496264Y389567D01*
Y388779D01*
X390748Y399606D02*
Y404329D01*
X388387D01*
X387599Y403542D01*
Y401968D01*
X388387Y401181D01*
X390748D01*
X389174D02*
X387599Y399606D01*
X386025D02*
X384451D01*
X385238D01*
Y404329D01*
X386025Y403542D01*
X382089Y399606D02*
X380515D01*
X381302D01*
Y404329D01*
X382089Y403542D01*
X375005Y404329D02*
X376579Y403542D01*
X378154Y401968D01*
Y400393D01*
X377366Y399606D01*
X375792D01*
X375005Y400393D01*
Y401181D01*
X375792Y401968D01*
X378154D01*
X508858Y395669D02*
Y400392D01*
X506497D01*
X505710Y399605D01*
Y398031D01*
X506497Y397244D01*
X508858D01*
X507284D02*
X505710Y395669D01*
X504135D02*
X502561D01*
X503348D01*
Y400392D01*
X504135Y399605D01*
X500200Y395669D02*
X498625D01*
X499412D01*
Y400392D01*
X500200Y399605D01*
X493115Y400392D02*
X496264D01*
Y398031D01*
X494690Y398818D01*
X493902D01*
X493115Y398031D01*
Y396456D01*
X493902Y395669D01*
X495477D01*
X496264Y396456D01*
X390748Y392717D02*
Y397439D01*
X388387D01*
X387599Y396652D01*
Y395078D01*
X388387Y394291D01*
X390748D01*
X389174D02*
X387599Y392717D01*
X386025D02*
X384451D01*
X385238D01*
Y397439D01*
X386025Y396652D01*
X382089Y392717D02*
X380515D01*
X381302D01*
Y397439D01*
X382089Y396652D01*
X375792Y392717D02*
Y397439D01*
X378154Y395078D01*
X375005D01*
X508858Y402559D02*
Y407282D01*
X506497D01*
X505710Y406495D01*
Y404920D01*
X506497Y404133D01*
X508858D01*
X507284D02*
X505710Y402559D01*
X504135D02*
X502561D01*
X503348D01*
Y407282D01*
X504135Y406495D01*
X500200Y402559D02*
X498625D01*
X499412D01*
Y407282D01*
X500200Y406495D01*
X496264D02*
X495477Y407282D01*
X493902D01*
X493115Y406495D01*
Y405708D01*
X493902Y404920D01*
X494690D01*
X493902D01*
X493115Y404133D01*
Y403346D01*
X493902Y402559D01*
X495477D01*
X496264Y403346D01*
X390748Y385827D02*
Y390550D01*
X388387D01*
X387599Y389762D01*
Y388188D01*
X388387Y387401D01*
X390748D01*
X389174D02*
X387599Y385827D01*
X386025D02*
X384451D01*
X385238D01*
Y390550D01*
X386025Y389762D01*
X382089Y385827D02*
X380515D01*
X381302D01*
Y390550D01*
X382089Y389762D01*
X375005Y385827D02*
X378154D01*
X375005Y388975D01*
Y389762D01*
X375792Y390550D01*
X377366D01*
X378154Y389762D01*
X508858Y409449D02*
Y414172D01*
X506497D01*
X505710Y413385D01*
Y411810D01*
X506497Y411023D01*
X508858D01*
X507284D02*
X505710Y409449D01*
X504135D02*
X502561D01*
X503348D01*
Y414172D01*
X504135Y413385D01*
X500200Y409449D02*
X498625D01*
X499412D01*
Y414172D01*
X500200Y413385D01*
X496264Y409449D02*
X494690D01*
X495477D01*
Y414172D01*
X496264Y413385D01*
X508858Y416339D02*
Y421062D01*
X506497D01*
X505710Y420274D01*
Y418700D01*
X506497Y417913D01*
X508858D01*
X507284D02*
X505710Y416339D01*
X504135D02*
X502561D01*
X503348D01*
Y421062D01*
X504135Y420274D01*
X500200Y416339D02*
X498625D01*
X499412D01*
Y421062D01*
X500200Y420274D01*
X496264D02*
X495477Y421062D01*
X493902D01*
X493115Y420274D01*
Y417126D01*
X493902Y416339D01*
X495477D01*
X496264Y417126D01*
Y420274D01*
X508858Y423228D02*
Y427951D01*
X506497D01*
X505710Y427164D01*
Y425590D01*
X506497Y424803D01*
X508858D01*
X507284D02*
X505710Y423228D01*
X504135D02*
X502561D01*
X503348D01*
Y427951D01*
X504135Y427164D01*
X500200D02*
X499412Y427951D01*
X497838D01*
X497051Y427164D01*
Y424016D01*
X497838Y423228D01*
X499412D01*
X500200Y424016D01*
Y427164D01*
X495477Y424016D02*
X494690Y423228D01*
X493115D01*
X492328Y424016D01*
Y427164D01*
X493115Y427951D01*
X494690D01*
X495477Y427164D01*
Y426377D01*
X494690Y425590D01*
X492328D01*
X390748Y378937D02*
Y383660D01*
X388387D01*
X387599Y382873D01*
Y381298D01*
X388387Y380511D01*
X390748D01*
X389174D02*
X387599Y378937D01*
X386025D02*
X384451D01*
X385238D01*
Y383660D01*
X386025Y382873D01*
X382089D02*
X381302Y383660D01*
X379728D01*
X378941Y382873D01*
Y379724D01*
X379728Y378937D01*
X381302D01*
X382089Y379724D01*
Y382873D01*
X377366D02*
X376579Y383660D01*
X375005D01*
X374218Y382873D01*
Y382086D01*
X375005Y381298D01*
X374218Y380511D01*
Y379724D01*
X375005Y378937D01*
X376579D01*
X377366Y379724D01*
Y380511D01*
X376579Y381298D01*
X377366Y382086D01*
Y382873D01*
X376579Y381298D02*
X375005D01*
X508858Y430118D02*
Y434841D01*
X506497D01*
X505710Y434054D01*
Y432480D01*
X506497Y431692D01*
X508858D01*
X507284D02*
X505710Y430118D01*
X504135D02*
X502561D01*
X503348D01*
Y434841D01*
X504135Y434054D01*
X500200D02*
X499412Y434841D01*
X497838D01*
X497051Y434054D01*
Y430905D01*
X497838Y430118D01*
X499412D01*
X500200Y430905D01*
Y434054D01*
X495477Y434841D02*
X492328D01*
Y434054D01*
X495477Y430905D01*
Y430118D01*
X508858Y347441D02*
Y352164D01*
X506497D01*
X505710Y351377D01*
Y349802D01*
X506497Y349015D01*
X508858D01*
X507284D02*
X505710Y347441D01*
X504135D02*
X502561D01*
X503348D01*
Y352164D01*
X504135Y351377D01*
X500200D02*
X499412Y352164D01*
X497838D01*
X497051Y351377D01*
Y348228D01*
X497838Y347441D01*
X499412D01*
X500200Y348228D01*
Y351377D01*
X492328Y352164D02*
X493902Y351377D01*
X495477Y349802D01*
Y348228D01*
X494690Y347441D01*
X493115D01*
X492328Y348228D01*
Y349015D01*
X493115Y349802D01*
X495477D01*
X508858Y437008D02*
Y441731D01*
X506497D01*
X505710Y440944D01*
Y439369D01*
X506497Y438582D01*
X508858D01*
X507284D02*
X505710Y437008D01*
X504135D02*
X502561D01*
X503348D01*
Y441731D01*
X504135Y440944D01*
X500200D02*
X499412Y441731D01*
X497838D01*
X497051Y440944D01*
Y437795D01*
X497838Y437008D01*
X499412D01*
X500200Y437795D01*
Y440944D01*
X492328Y441731D02*
X495477D01*
Y439369D01*
X493902Y440157D01*
X493115D01*
X492328Y439369D01*
Y437795D01*
X493115Y437008D01*
X494690D01*
X495477Y437795D01*
X508858Y354331D02*
Y359054D01*
X506497D01*
X505710Y358266D01*
Y356692D01*
X506497Y355905D01*
X508858D01*
X507284D02*
X505710Y354331D01*
X504135D02*
X502561D01*
X503348D01*
Y359054D01*
X504135Y358266D01*
X500200D02*
X499412Y359054D01*
X497838D01*
X497051Y358266D01*
Y355118D01*
X497838Y354331D01*
X499412D01*
X500200Y355118D01*
Y358266D01*
X493115Y354331D02*
Y359054D01*
X495477Y356692D01*
X492328D01*
X508858Y361221D02*
Y365943D01*
X506497D01*
X505710Y365156D01*
Y363582D01*
X506497Y362795D01*
X508858D01*
X507284D02*
X505710Y361221D01*
X504135D02*
X502561D01*
X503348D01*
Y365943D01*
X504135Y365156D01*
X500200D02*
X499412Y365943D01*
X497838D01*
X497051Y365156D01*
Y362008D01*
X497838Y361221D01*
X499412D01*
X500200Y362008D01*
Y365156D01*
X495477D02*
X494690Y365943D01*
X493115D01*
X492328Y365156D01*
Y364369D01*
X493115Y363582D01*
X493902D01*
X493115D01*
X492328Y362795D01*
Y362008D01*
X493115Y361221D01*
X494690D01*
X495477Y362008D01*
X508858Y368110D02*
Y372833D01*
X506497D01*
X505710Y372046D01*
Y370472D01*
X506497Y369685D01*
X508858D01*
X507284D02*
X505710Y368110D01*
X504135D02*
X502561D01*
X503348D01*
Y372833D01*
X504135Y372046D01*
X500200D02*
X499412Y372833D01*
X497838D01*
X497051Y372046D01*
Y368897D01*
X497838Y368110D01*
X499412D01*
X500200Y368897D01*
Y372046D01*
X492328Y368110D02*
X495477D01*
X492328Y371259D01*
Y372046D01*
X493115Y372833D01*
X494690D01*
X495477Y372046D01*
X508858Y375000D02*
Y379723D01*
X506497D01*
X505710Y378936D01*
Y377361D01*
X506497Y376574D01*
X508858D01*
X507284D02*
X505710Y375000D01*
X504135D02*
X502561D01*
X503348D01*
Y379723D01*
X504135Y378936D01*
X500200D02*
X499412Y379723D01*
X497838D01*
X497051Y378936D01*
Y375787D01*
X497838Y375000D01*
X499412D01*
X500200Y375787D01*
Y378936D01*
X495477Y375000D02*
X493902D01*
X494690D01*
Y379723D01*
X495477Y378936D01*
X508858Y381890D02*
Y386613D01*
X506497D01*
X505710Y385825D01*
Y384251D01*
X506497Y383464D01*
X508858D01*
X507284D02*
X505710Y381890D01*
X504135D02*
X502561D01*
X503348D01*
Y386613D01*
X504135Y385825D01*
X500200D02*
X499412Y386613D01*
X497838D01*
X497051Y385825D01*
Y382677D01*
X497838Y381890D01*
X499412D01*
X500200Y382677D01*
Y385825D01*
X495477D02*
X494690Y386613D01*
X493115D01*
X492328Y385825D01*
Y382677D01*
X493115Y381890D01*
X494690D01*
X495477Y382677D01*
Y385825D01*
X312992Y400392D02*
X311418D01*
X312205D01*
Y395669D01*
X312992D01*
X311418D01*
X305908Y399605D02*
X306695Y400392D01*
X308269D01*
X309056Y399605D01*
Y396456D01*
X308269Y395669D01*
X306695D01*
X305908Y396456D01*
X304333Y395669D02*
X302759D01*
X303546D01*
Y400392D01*
X304333Y399605D01*
X300398D02*
X299611Y400392D01*
X298036D01*
X297249Y399605D01*
Y396456D01*
X298036Y395669D01*
X299611D01*
X300398Y396456D01*
Y399605D01*
X295675Y395669D02*
X294101D01*
X294888D01*
Y400392D01*
X295675Y399605D01*
X805906Y188975D02*
X806694Y189762D01*
X808268D01*
X809055Y188975D01*
Y185827D01*
X808268Y185039D01*
X806694D01*
X805906Y185827D01*
X804332Y185039D02*
X802758D01*
X803545D01*
Y189762D01*
X804332Y188975D01*
X800397Y185039D02*
X798822D01*
X799609D01*
Y189762D01*
X800397Y188975D01*
X796461Y189762D02*
X793312D01*
Y188975D01*
X796461Y185827D01*
Y185039D01*
X703544Y226377D02*
X704331Y227164D01*
X705906D01*
X706693Y226377D01*
Y223228D01*
X705906Y222441D01*
X704331D01*
X703544Y223228D01*
X701970Y222441D02*
X700396D01*
X701183D01*
Y227164D01*
X701970Y226377D01*
X698034Y222441D02*
X696460D01*
X697247D01*
Y227164D01*
X698034Y226377D01*
X690950Y227164D02*
X692524Y226377D01*
X694099Y224802D01*
Y223228D01*
X693311Y222441D01*
X691737D01*
X690950Y223228D01*
Y224015D01*
X691737Y224802D01*
X694099D01*
X601182Y226377D02*
X601969Y227164D01*
X603544D01*
X604331Y226377D01*
Y223228D01*
X603544Y222441D01*
X601969D01*
X601182Y223228D01*
X599608Y222441D02*
X598034D01*
X598821D01*
Y227164D01*
X599608Y226377D01*
X595672Y222441D02*
X594098D01*
X594885D01*
Y227164D01*
X595672Y226377D01*
X588588Y227164D02*
X591736D01*
Y224802D01*
X590162Y225589D01*
X589375D01*
X588588Y224802D01*
Y223228D01*
X589375Y222441D01*
X590949D01*
X591736Y223228D01*
X498820Y190944D02*
X499607Y191731D01*
X501181D01*
X501968Y190944D01*
Y187795D01*
X501181Y187008D01*
X499607D01*
X498820Y187795D01*
X497246Y187008D02*
X495671D01*
X496458D01*
Y191731D01*
X497246Y190944D01*
X493310Y187008D02*
X491736D01*
X492523D01*
Y191731D01*
X493310Y190944D01*
X487013Y187008D02*
Y191731D01*
X489374Y189369D01*
X486226D01*
X494883Y41337D02*
X495670Y42125D01*
X497244D01*
X498032Y41337D01*
Y38189D01*
X497244Y37402D01*
X495670D01*
X494883Y38189D01*
X493309Y37402D02*
X491734D01*
X492521D01*
Y42125D01*
X493309Y41337D01*
X489373Y37402D02*
X487799D01*
X488586D01*
Y42125D01*
X489373Y41337D01*
X485437D02*
X484650Y42125D01*
X483076D01*
X482289Y41337D01*
Y40550D01*
X483076Y39763D01*
X483863D01*
X483076D01*
X482289Y38976D01*
Y38189D01*
X483076Y37402D01*
X484650D01*
X485437Y38189D01*
X313780Y41337D02*
X314568Y42125D01*
X316142D01*
X316929Y41337D01*
Y38189D01*
X316142Y37402D01*
X314568D01*
X313780Y38189D01*
X312206Y37402D02*
X310632D01*
X311419D01*
Y42125D01*
X312206Y41337D01*
X308271Y37402D02*
X306696D01*
X307483D01*
Y42125D01*
X308271Y41337D01*
X301186Y37402D02*
X304335D01*
X301186Y40550D01*
Y41337D01*
X301973Y42125D01*
X303548D01*
X304335Y41337D01*
X805906Y291337D02*
X806694Y292124D01*
X808268D01*
X809055Y291337D01*
Y288189D01*
X808268Y287402D01*
X806694D01*
X805906Y288189D01*
X804332Y287402D02*
X802758D01*
X803545D01*
Y292124D01*
X804332Y291337D01*
X800397Y287402D02*
X798822D01*
X799609D01*
Y292124D01*
X800397Y291337D01*
X796461Y287402D02*
X794886D01*
X795674D01*
Y292124D01*
X796461Y291337D01*
X697639Y328739D02*
X698426Y329526D01*
X700000D01*
X700787Y328739D01*
Y325590D01*
X700000Y324803D01*
X698426D01*
X697639Y325590D01*
X696065Y324803D02*
X694490D01*
X695277D01*
Y329526D01*
X696065Y328739D01*
X692129Y324803D02*
X690555D01*
X691342D01*
Y329526D01*
X692129Y328739D01*
X688193D02*
X687406Y329526D01*
X685832D01*
X685044Y328739D01*
Y325590D01*
X685832Y324803D01*
X687406D01*
X688193Y325590D01*
Y328739D01*
X589371D02*
X590158Y329526D01*
X591733D01*
X592520Y328739D01*
Y325590D01*
X591733Y324803D01*
X590158D01*
X589371Y325590D01*
X587797Y324803D02*
X586223D01*
X587010D01*
Y329526D01*
X587797Y328739D01*
X583861D02*
X583074Y329526D01*
X581500D01*
X580713Y328739D01*
Y325590D01*
X581500Y324803D01*
X583074D01*
X583861Y325590D01*
Y328739D01*
X579138Y325590D02*
X578351Y324803D01*
X576777D01*
X575990Y325590D01*
Y328739D01*
X576777Y329526D01*
X578351D01*
X579138Y328739D01*
Y327952D01*
X578351Y327165D01*
X575990D01*
X483072Y291337D02*
X483859Y292124D01*
X485433D01*
X486221Y291337D01*
Y288189D01*
X485433Y287402D01*
X483859D01*
X483072Y288189D01*
X481498Y287402D02*
X479923D01*
X480710D01*
Y292124D01*
X481498Y291337D01*
X477562D02*
X476775Y292124D01*
X475200D01*
X474413Y291337D01*
Y288189D01*
X475200Y287402D01*
X476775D01*
X477562Y288189D01*
Y291337D01*
X472839D02*
X472052Y292124D01*
X470477D01*
X469690Y291337D01*
Y290550D01*
X470477Y289763D01*
X469690Y288976D01*
Y288189D01*
X470477Y287402D01*
X472052D01*
X472839Y288189D01*
Y288976D01*
X472052Y289763D01*
X472839Y290550D01*
Y291337D01*
X472052Y289763D02*
X470477D01*
X390552Y216534D02*
X391339Y217321D01*
X392914D01*
X393701Y216534D01*
Y213386D01*
X392914Y212598D01*
X391339D01*
X390552Y213386D01*
X388978Y212598D02*
X387404D01*
X388191D01*
Y217321D01*
X388978Y216534D01*
X385042D02*
X384255Y217321D01*
X382681D01*
X381894Y216534D01*
Y213386D01*
X382681Y212598D01*
X384255D01*
X385042Y213386D01*
Y216534D01*
X380319Y217321D02*
X377171D01*
Y216534D01*
X380319Y213386D01*
Y212598D01*
X282284Y238188D02*
X283072Y238975D01*
X284646D01*
X285433Y238188D01*
Y235039D01*
X284646Y234252D01*
X283072D01*
X282284Y235039D01*
X280710Y234252D02*
X279136D01*
X279923D01*
Y238975D01*
X280710Y238188D01*
X276774D02*
X275987Y238975D01*
X274413D01*
X273626Y238188D01*
Y235039D01*
X274413Y234252D01*
X275987D01*
X276774Y235039D01*
Y238188D01*
X268903Y238975D02*
X270477Y238188D01*
X272052Y236613D01*
Y235039D01*
X271264Y234252D01*
X269690D01*
X268903Y235039D01*
Y235826D01*
X269690Y236613D01*
X272052D01*
X177954Y289369D02*
X178741Y290156D01*
X180315D01*
X181102Y289369D01*
Y286220D01*
X180315Y285433D01*
X178741D01*
X177954Y286220D01*
X176380Y285433D02*
X174805D01*
X175592D01*
Y290156D01*
X176380Y289369D01*
X172444D02*
X171657Y290156D01*
X170082D01*
X169295Y289369D01*
Y286220D01*
X170082Y285433D01*
X171657D01*
X172444Y286220D01*
Y289369D01*
X164572Y290156D02*
X167721D01*
Y287794D01*
X166147Y288582D01*
X165359D01*
X164572Y287794D01*
Y286220D01*
X165359Y285433D01*
X166934D01*
X167721Y286220D01*
X69686Y289369D02*
X70473Y290156D01*
X72048D01*
X72835Y289369D01*
Y286220D01*
X72048Y285433D01*
X70473D01*
X69686Y286220D01*
X68112Y285433D02*
X66537D01*
X67325D01*
Y290156D01*
X68112Y289369D01*
X64176D02*
X63389Y290156D01*
X61815D01*
X61027Y289369D01*
Y286220D01*
X61815Y285433D01*
X63389D01*
X64176Y286220D01*
Y289369D01*
X57092Y285433D02*
Y290156D01*
X59453Y287794D01*
X56305D01*
X282482Y436812D02*
X281694Y437599D01*
Y439174D01*
X282482Y439961D01*
X285630D01*
X286417Y439174D01*
Y437599D01*
X285630Y436812D01*
X286417Y435238D02*
Y433664D01*
Y434451D01*
X281694D01*
X282482Y435238D01*
Y431302D02*
X281694Y430515D01*
Y428941D01*
X282482Y428153D01*
X285630D01*
X286417Y428941D01*
Y430515D01*
X285630Y431302D01*
X282482D01*
Y426579D02*
X281694Y425792D01*
Y424218D01*
X282482Y423431D01*
X283269D01*
X284056Y424218D01*
Y425005D01*
Y424218D01*
X284843Y423431D01*
X285630D01*
X286417Y424218D01*
Y425792D01*
X285630Y426579D01*
X211418Y399605D02*
X212206Y400392D01*
X213780D01*
X214567Y399605D01*
Y396456D01*
X213780Y395669D01*
X212206D01*
X211418Y396456D01*
X209844Y395669D02*
X208270D01*
X209057D01*
Y400392D01*
X209844Y399605D01*
X205908D02*
X205121Y400392D01*
X203547D01*
X202760Y399605D01*
Y396456D01*
X203547Y395669D01*
X205121D01*
X205908Y396456D01*
Y399605D01*
X198037Y395669D02*
X201185D01*
X198037Y398818D01*
Y399605D01*
X198824Y400392D01*
X200398D01*
X201185Y399605D01*
X138584D02*
X139371Y400392D01*
X140945D01*
X141732Y399605D01*
Y396456D01*
X140945Y395669D01*
X139371D01*
X138584Y396456D01*
X137009Y395669D02*
X135435D01*
X136222D01*
Y400392D01*
X137009Y399605D01*
X133074D02*
X132287Y400392D01*
X130712D01*
X129925Y399605D01*
Y396456D01*
X130712Y395669D01*
X132287D01*
X133074Y396456D01*
Y399605D01*
X128351Y395669D02*
X126777D01*
X127564D01*
Y400392D01*
X128351Y399605D01*
X63780Y401574D02*
X64568Y402361D01*
X66142D01*
X66929Y401574D01*
Y398425D01*
X66142Y397638D01*
X64568D01*
X63780Y398425D01*
X62206Y397638D02*
X60632D01*
X61419D01*
Y402361D01*
X62206Y401574D01*
X58271D02*
X57483Y402361D01*
X55909D01*
X55122Y401574D01*
Y398425D01*
X55909Y397638D01*
X57483D01*
X58271Y398425D01*
Y401574D01*
X53548D02*
X52760Y402361D01*
X51186D01*
X50399Y401574D01*
Y398425D01*
X51186Y397638D01*
X52760D01*
X53548Y398425D01*
Y401574D01*
D29*
X304303Y436437D02*
G03*
X309871Y436437I2784J0D01*
G01*
X516142Y347441D02*
X517323D01*
X516142Y351378D02*
X517323D01*
X516142Y354331D02*
X517323D01*
X516142Y358268D02*
X517323D01*
X516142Y361221D02*
X517323D01*
X516142Y365158D02*
X517323D01*
X516142Y368110D02*
X517323D01*
X516142Y372047D02*
X517323D01*
X516142Y375000D02*
X517323D01*
X516142Y378937D02*
X517323D01*
X516142Y381890D02*
X517323D01*
X516142Y385827D02*
X517323D01*
X516142Y392717D02*
X517323D01*
X516142Y388779D02*
X517323D01*
X516142Y399606D02*
X517323D01*
X516142Y395669D02*
X517323D01*
X516142Y406496D02*
X517323D01*
X516142Y402559D02*
X517323D01*
X516142Y413386D02*
X517323D01*
X516142Y409449D02*
X517323D01*
X516142Y420276D02*
X517323D01*
X516142Y416339D02*
X517323D01*
X516142Y427165D02*
X517323D01*
X516142Y423228D02*
X517323D01*
X516142Y434055D02*
X517323D01*
X516142Y430118D02*
X517323D01*
X516142Y440945D02*
X517323D01*
X516142Y437008D02*
X517323D01*
X817323Y187795D02*
Y188189D01*
X814567Y187795D02*
Y188189D01*
X714961Y225197D02*
Y225590D01*
X712205Y225197D02*
Y225590D01*
X612598Y225197D02*
Y225590D01*
X609842Y225197D02*
Y225590D01*
X510236Y188779D02*
Y189173D01*
X507480Y188779D02*
Y189173D01*
X506299Y39173D02*
Y39567D01*
X503543Y39173D02*
Y39567D01*
X325197Y39173D02*
Y39567D01*
X322441Y39173D02*
Y39567D01*
X817323Y290158D02*
Y290551D01*
X814567Y290158D02*
Y290551D01*
X709055Y327559D02*
Y327953D01*
X706299Y327559D02*
Y327953D01*
X600787Y326575D02*
Y326969D01*
X598032Y326575D02*
Y326969D01*
X494488Y290158D02*
Y290551D01*
X491732Y290158D02*
Y290551D01*
X401968Y215354D02*
Y215748D01*
X399213Y215354D02*
Y215748D01*
X293701Y237008D02*
Y237402D01*
X290945Y237008D02*
Y237402D01*
X190354Y288189D02*
Y288583D01*
X187598Y288189D02*
Y288583D01*
X81102Y288189D02*
Y288583D01*
X78347Y288189D02*
Y288583D01*
X223819Y398425D02*
Y398819D01*
X221063Y398425D02*
Y398819D01*
X149016Y398425D02*
Y398819D01*
X146260Y398425D02*
Y398819D01*
X75197Y398425D02*
Y398819D01*
X72441Y398425D02*
Y398819D01*
X325394Y431890D02*
Y432283D01*
X328150Y431890D02*
Y432283D01*
X290748Y431890D02*
Y432283D01*
X287992Y431890D02*
Y432283D01*
X300394Y436437D02*
X313779D01*
X300394Y402067D02*
X313779D01*
X314764Y436516D02*
X320374D01*
X366535Y410433D02*
X367717D01*
X366535Y406496D02*
X367717D01*
X366535Y403543D02*
X367717D01*
X366535Y399606D02*
X367717D01*
X366535Y396654D02*
X367717D01*
X366535Y392717D02*
X367717D01*
X366535Y389764D02*
X367717D01*
X366535Y385827D02*
X367717D01*
X366535Y382874D02*
X367717D01*
X366535Y378937D02*
X367717D01*
X324803Y419685D02*
Y420866D01*
X328740Y419685D02*
Y420866D01*
M02*
