G04*
G04 #@! TF.GenerationSoftware,Altium Limited,CircuitStudio,1.5.2 (30)*
G04*
G04 Layer_Color=20142*
%FSLAX25Y25*%
%MOIN*%
G70*
G01*
G75*
%ADD24C,0.00591*%
%ADD28C,0.01969*%
%ADD29C,0.00394*%
G04:AMPARAMS|DCode=30|XSize=122.05mil|YSize=62.99mil|CornerRadius=16.73mil|HoleSize=0mil|Usage=FLASHONLY|Rotation=0.000|XOffset=0mil|YOffset=0mil|HoleType=Round|Shape=RoundedRectangle|*
%AMROUNDEDRECTD30*
21,1,0.12205,0.02953,0,0,0.0*
21,1,0.08858,0.06299,0,0,0.0*
1,1,0.03347,0.04429,-0.01476*
1,1,0.03347,-0.04429,-0.01476*
1,1,0.03347,-0.04429,0.01476*
1,1,0.03347,0.04429,0.01476*
%
%ADD30ROUNDEDRECTD30*%
G04:AMPARAMS|DCode=31|XSize=62.99mil|YSize=122.05mil|CornerRadius=16.73mil|HoleSize=0mil|Usage=FLASHONLY|Rotation=0.000|XOffset=0mil|YOffset=0mil|HoleType=Round|Shape=RoundedRectangle|*
%AMROUNDEDRECTD31*
21,1,0.06299,0.08858,0,0,0.0*
21,1,0.02953,0.12205,0,0,0.0*
1,1,0.03347,0.01476,-0.04429*
1,1,0.03347,-0.01476,-0.04429*
1,1,0.03347,-0.01476,0.04429*
1,1,0.03347,0.01476,0.04429*
%
%ADD31ROUNDEDRECTD31*%
%ADD32C,0.08268*%
%ADD33C,0.00394*%
%ADD34C,0.10630*%
%ADD35C,0.14567*%
G04:AMPARAMS|DCode=36|XSize=3.94mil|YSize=3.94mil|CornerRadius=0mil|HoleSize=0mil|Usage=FLASHONLY|Rotation=90.000|XOffset=0mil|YOffset=0mil|HoleType=Round|Shape=RoundedRectangle|*
%AMROUNDEDRECTD36*
21,1,0.00394,0.00394,0,0,90.0*
21,1,0.00394,0.00394,0,0,90.0*
1,1,0.00000,0.00197,0.00197*
1,1,0.00000,0.00197,-0.00197*
1,1,0.00000,-0.00197,-0.00197*
1,1,0.00000,-0.00197,0.00197*
%
%ADD36ROUNDEDRECTD36*%
G04:AMPARAMS|DCode=37|XSize=3.94mil|YSize=3.94mil|CornerRadius=0mil|HoleSize=0mil|Usage=FLASHONLY|Rotation=180.000|XOffset=0mil|YOffset=0mil|HoleType=Round|Shape=RoundedRectangle|*
%AMROUNDEDRECTD37*
21,1,0.00394,0.00394,0,0,180.0*
21,1,0.00394,0.00394,0,0,180.0*
1,1,0.00000,-0.00197,0.00197*
1,1,0.00000,0.00197,0.00197*
1,1,0.00000,0.00197,-0.00197*
1,1,0.00000,-0.00197,-0.00197*
%
%ADD37ROUNDEDRECTD37*%
%ADD38C,0.07874*%
%ADD39C,0.03543*%
G36*
X752537Y28393D02*
X752551D01*
X752592Y28352D01*
X752633Y28297D01*
X752646Y28256D01*
X752660Y28242D01*
X752701Y28174D01*
X752715Y28133D01*
X752729Y28106D01*
Y28092D01*
X752756Y28024D01*
X752783Y27969D01*
X752810Y27928D01*
Y27914D01*
X752851Y27846D01*
X752879Y27791D01*
X752906Y27750D01*
Y27737D01*
X752934Y27668D01*
X752947Y27600D01*
X752975Y27545D01*
Y27531D01*
X753002Y27463D01*
X753029Y27395D01*
X753057Y27354D01*
Y27340D01*
X753098Y27217D01*
X753139Y27108D01*
X753166Y27039D01*
X753180Y27026D01*
Y27012D01*
X753234Y26903D01*
X753262Y26793D01*
X753289Y26711D01*
X753303Y26698D01*
Y26684D01*
X753330Y26616D01*
X753344Y26547D01*
Y26493D01*
Y26479D01*
X753357Y26397D01*
X753371Y26342D01*
X753398Y26288D01*
Y26274D01*
X753426Y26192D01*
X753439Y26110D01*
X753467Y26055D01*
Y26041D01*
Y26028D01*
X753494Y25932D01*
X753508Y25864D01*
X753494Y25809D01*
Y25796D01*
X753480Y25741D01*
X753467Y25727D01*
X753426Y25686D01*
X753412Y25672D01*
X753398Y25659D01*
X753316Y25563D01*
X753289Y25536D01*
X753275Y25522D01*
X753180Y25440D01*
X753152Y25413D01*
X753139Y25399D01*
X753070Y25331D01*
X753002Y25262D01*
X752947Y25221D01*
X752934Y25208D01*
X752865Y25139D01*
X752797Y25071D01*
X752742Y25030D01*
X752729Y25016D01*
X752646Y24962D01*
X752578Y24921D01*
X752523Y24893D01*
X752496Y24880D01*
X752414Y24852D01*
X752346Y24811D01*
X752291Y24798D01*
X752264Y24784D01*
X752168Y24729D01*
X752086Y24688D01*
X752031Y24661D01*
X752004Y24647D01*
X751908Y24620D01*
X751826Y24606D01*
X751731D01*
X751635Y24620D01*
X751553Y24633D01*
X751403Y24688D01*
X751348Y24715D01*
X751307Y24729D01*
X751279Y24757D01*
X751266D01*
X751115Y24880D01*
X750992Y24989D01*
X750910Y25057D01*
X750897Y25071D01*
X750883Y25085D01*
X750610Y25372D01*
X750500Y25508D01*
X750405Y25631D01*
X750309Y25727D01*
X750254Y25823D01*
X750213Y25877D01*
X750200Y25891D01*
X750090Y26055D01*
X749967Y26206D01*
X749858Y26342D01*
X749762Y26465D01*
X749666Y26561D01*
X749598Y26629D01*
X749557Y26684D01*
X749543Y26698D01*
X749407Y27026D01*
X749366Y27067D01*
X749352Y27094D01*
Y27163D01*
Y27190D01*
X749338Y27258D01*
X749325Y27327D01*
X749352Y27450D01*
X749379Y27531D01*
X749393Y27545D01*
Y27559D01*
X749475Y27682D01*
X749557Y27764D01*
X749612Y27819D01*
X749639Y27832D01*
X749721Y27873D01*
X749735Y27887D01*
X749748D01*
X749817Y27942D01*
X749844Y27955D01*
Y27969D01*
X749885Y27959D01*
Y27955D01*
X749899D01*
X749885Y27959D01*
Y27969D01*
X749913D01*
X749940Y27983D01*
Y27996D01*
X750049D01*
X750131Y28010D01*
X750159Y28024D01*
X750172D01*
X750241Y28037D01*
X750295Y28051D01*
X750350D01*
X750418Y28065D01*
X750541D01*
X750760Y28106D01*
X750869Y28119D01*
X750951Y28133D01*
X751033Y28147D01*
X751088Y28160D01*
X751143D01*
X751375Y28201D01*
X751484Y28229D01*
X751580Y28242D01*
X751662Y28256D01*
X751717Y28270D01*
X751758Y28283D01*
X751772D01*
X751867Y28311D01*
X751963Y28324D01*
X752018Y28338D01*
X752045D01*
X752154Y28365D01*
X752236Y28379D01*
X752291Y28393D01*
X752318D01*
X752387Y28406D01*
X752510D01*
X752537Y28393D01*
D02*
G37*
G36*
X772885Y33169D02*
Y32368D01*
Y31569D01*
Y30768D01*
Y29969D01*
Y29168D01*
Y28368D01*
Y27569D01*
X779285D01*
Y26768D01*
Y25969D01*
Y25168D01*
Y24369D01*
X776085D01*
Y23569D01*
Y22769D01*
Y21969D01*
Y21169D01*
X772885D01*
Y20369D01*
Y19568D01*
Y18768D01*
Y17968D01*
X785685D01*
Y17168D01*
Y16368D01*
Y15568D01*
Y14769D01*
X782485D01*
Y13969D01*
Y13169D01*
Y12369D01*
Y11569D01*
X785685D01*
Y10768D01*
Y9968D01*
Y9168D01*
Y8369D01*
X782485D01*
Y9168D01*
Y9968D01*
Y10768D01*
Y11569D01*
X779285D01*
Y12369D01*
Y13169D01*
Y13969D01*
Y14769D01*
X772885D01*
Y13969D01*
Y13169D01*
Y12369D01*
Y11569D01*
X776085D01*
Y10768D01*
Y9968D01*
Y9168D01*
Y8369D01*
X779285D01*
Y7569D01*
Y6769D01*
Y5968D01*
Y5169D01*
X788885D01*
Y5968D01*
Y6769D01*
Y7569D01*
Y8369D01*
X792085D01*
Y7569D01*
Y6769D01*
Y5968D01*
Y5169D01*
X801685D01*
Y4369D01*
Y3568D01*
Y2768D01*
Y1969D01*
X769685D01*
Y2768D01*
Y3568D01*
Y4369D01*
Y5169D01*
Y5968D01*
Y6769D01*
Y7569D01*
Y8369D01*
Y9168D01*
Y9968D01*
Y10768D01*
Y11569D01*
Y12369D01*
Y13169D01*
Y13969D01*
Y14769D01*
Y15568D01*
Y16368D01*
Y17168D01*
Y17968D01*
Y18768D01*
Y19568D01*
Y20369D01*
Y21169D01*
Y21969D01*
Y22769D01*
Y23569D01*
Y24369D01*
Y25168D01*
Y25969D01*
Y26768D01*
Y27569D01*
Y28368D01*
Y29168D01*
Y29969D01*
Y30768D01*
Y31569D01*
Y32368D01*
Y33169D01*
Y33968D01*
X772885D01*
Y33169D01*
D02*
G37*
G36*
X756310Y30238D02*
X756529Y30224D01*
X756720Y30211D01*
X756857Y30197D01*
X756912D01*
X756952Y30184D01*
X756980D01*
X757117Y30156D01*
X757226Y30129D01*
X757308Y30115D01*
X757322Y30101D01*
X757335D01*
X757458Y30074D01*
X757568Y30033D01*
X757636Y30020D01*
X757650Y30006D01*
X757759D01*
X757786Y29992D01*
X757800D01*
X757855Y29978D01*
X757896Y29965D01*
X757909Y29951D01*
X757923Y29937D01*
X757964D01*
X758005Y29924D01*
X758019Y29910D01*
X758032D01*
X758101Y29869D01*
X758128Y29855D01*
X758210Y29814D01*
X758292Y29787D01*
X758347Y29773D01*
X758360Y29760D01*
X758443Y29732D01*
X758525Y29691D01*
X758579Y29678D01*
X758593Y29664D01*
X758661Y29609D01*
X758689Y29596D01*
X758757Y29568D01*
X758771Y29555D01*
Y29541D01*
X758839Y29486D01*
X758894Y29473D01*
X758907Y29459D01*
X758948Y29445D01*
X758976Y29432D01*
X759044Y29391D01*
X759099Y29336D01*
X759140Y29295D01*
X759153Y29281D01*
X759235Y29227D01*
X759304Y29186D01*
X759345Y29158D01*
X759358D01*
X759386Y29117D01*
X759427Y29076D01*
X759454Y29035D01*
X759468Y29022D01*
X759522Y28981D01*
X759563Y28953D01*
X759591Y28926D01*
X759605D01*
Y28899D01*
X759632Y28912D01*
X759823Y28680D01*
X759905Y28625D01*
X759960Y28543D01*
X760015Y28434D01*
X760042Y28420D01*
X760083Y28406D01*
X760097Y28379D01*
X760110Y28365D01*
X760138Y28324D01*
X760165Y28283D01*
Y28270D01*
Y28256D01*
X760247Y28147D01*
X760288Y28106D01*
X760302Y28092D01*
X760315Y28051D01*
Y28037D01*
Y28024D01*
X760370Y27996D01*
X760411Y27955D01*
X760425Y27914D01*
X760438Y27901D01*
X760479Y27832D01*
X760507Y27778D01*
X760534Y27750D01*
Y27737D01*
X760548Y27682D01*
X760561Y27668D01*
X760575Y27627D01*
Y27614D01*
Y27600D01*
X760616Y27573D01*
X760643Y27518D01*
X760671Y27477D01*
Y27463D01*
X760712Y27395D01*
X760725Y27340D01*
X760739Y27313D01*
Y27299D01*
X760808Y27121D01*
X760862Y26971D01*
X760889Y26916D01*
X760903Y26862D01*
X760917Y26834D01*
Y26821D01*
X760971Y26643D01*
X760985Y26493D01*
X760999Y26438D01*
Y26397D01*
X761013D01*
X761039Y26083D01*
X761040D01*
Y26069D01*
X761039Y26083D01*
X761013D01*
X761040Y25960D01*
Y26055D01*
X761054Y25960D01*
Y25877D01*
Y25809D01*
Y25796D01*
Y25782D01*
Y25672D01*
Y25577D01*
Y25522D01*
Y25495D01*
Y25426D01*
Y25399D01*
Y25385D01*
Y25344D01*
Y25331D01*
X761040Y25317D01*
Y25262D01*
Y25208D01*
X761026Y25167D01*
Y25153D01*
X761013Y25057D01*
X760999Y25030D01*
Y25016D01*
X760985Y24934D01*
X760958Y24852D01*
X760944Y24798D01*
Y24784D01*
X760930Y24715D01*
Y24647D01*
X760917Y24606D01*
Y24592D01*
X760903Y24497D01*
X760889Y24456D01*
Y24442D01*
X760876Y24401D01*
X760862Y24374D01*
X760849Y24360D01*
X760835D01*
Y24305D01*
Y24264D01*
X760821Y24237D01*
Y24223D01*
X760794Y24155D01*
X760780Y24128D01*
X760766Y24114D01*
X760739Y24032D01*
X760712Y23977D01*
X760698Y23923D01*
X760684Y23909D01*
X760657Y23841D01*
X760616Y23772D01*
X760602Y23731D01*
X760589Y23718D01*
X760425Y23403D01*
X760343Y23267D01*
X760261Y23144D01*
X760192Y23048D01*
X760138Y22966D01*
X760097Y22911D01*
X760083Y22897D01*
X759851Y22638D01*
X759741Y22515D01*
X759632Y22405D01*
X759536Y22323D01*
X759468Y22255D01*
X759413Y22214D01*
X759399Y22200D01*
X759290Y22118D01*
X759194Y22050D01*
X759126Y21995D01*
X759112Y21968D01*
X759099D01*
X758989Y21872D01*
X758894Y21804D01*
X758825Y21749D01*
X758812Y21722D01*
X758798D01*
X758757Y21681D01*
X758730Y21640D01*
X758716Y21612D01*
X758702Y21599D01*
X758689Y21544D01*
Y21503D01*
Y21462D01*
Y21448D01*
X758730Y21394D01*
X758757Y21339D01*
X758784Y21325D01*
X758798Y21312D01*
X758894Y21271D01*
X758921Y21257D01*
X758935D01*
X759071Y21216D01*
X759208Y21202D01*
X759263Y21189D01*
X759290Y21175D01*
X759331D01*
X759481Y21161D01*
X759618D01*
X759673Y21148D01*
X759741D01*
X759837Y21134D01*
X759878Y21120D01*
X759946D01*
X759987Y21134D01*
X760015Y21148D01*
X760028D01*
X760097Y21175D01*
X760165Y21202D01*
X760220Y21230D01*
X760233Y21243D01*
X760315Y21284D01*
X760384Y21298D01*
X760438D01*
X760479Y21353D01*
X760534Y21380D01*
X760575Y21407D01*
X760589D01*
X760671Y21435D01*
X760725Y21462D01*
X760766Y21489D01*
X760780D01*
X760944Y21571D01*
X761081Y21654D01*
X761122Y21681D01*
X761163Y21708D01*
X761190Y21722D01*
X761204D01*
X761354Y21817D01*
X761491Y21886D01*
X761546Y21927D01*
X761587Y21940D01*
X761600Y21968D01*
X761614D01*
X761696Y22023D01*
X761723Y22050D01*
X761737D01*
X761819Y22105D01*
X761846Y22132D01*
X761860D01*
X761915Y22146D01*
X761928Y22159D01*
X761969Y22187D01*
X761997D01*
X762024Y22228D01*
X762051Y22241D01*
X762106Y22269D01*
X762133Y22282D01*
X762243Y22364D01*
X762284Y22378D01*
X762297Y22392D01*
X762366Y22446D01*
X762434Y22474D01*
X762475Y22501D01*
X762489Y22515D01*
X762667Y22610D01*
X762844Y22692D01*
X763008Y22747D01*
X763159Y22788D01*
X763282Y22829D01*
X763391Y22843D01*
X763446Y22856D01*
X763664D01*
X763842Y22843D01*
X764020Y22802D01*
X764170Y22761D01*
X764293Y22706D01*
X764389Y22651D01*
X764444Y22624D01*
X764471Y22610D01*
X764690Y22460D01*
X764772Y22378D01*
X764854Y22296D01*
X764909Y22228D01*
X764950Y22187D01*
X764977Y22146D01*
X764991Y22132D01*
X765141Y21927D01*
X765264Y21735D01*
X765305Y21654D01*
X765332Y21599D01*
X765360Y21558D01*
Y21544D01*
X765524Y21189D01*
X765592Y21025D01*
X765647Y20874D01*
X765688Y20751D01*
X765715Y20655D01*
X765742Y20601D01*
Y20573D01*
X765838Y20218D01*
X765879Y20054D01*
X765920Y19890D01*
X765947Y19767D01*
X765961Y19671D01*
X765975Y19603D01*
Y19576D01*
X766002Y19453D01*
X766016Y19343D01*
X766029Y19261D01*
Y19248D01*
Y19234D01*
X766057Y19111D01*
X766070Y19002D01*
X766084Y18920D01*
Y18906D01*
Y18892D01*
Y18824D01*
X766098Y18755D01*
Y18701D01*
Y18687D01*
X766111Y18619D01*
Y18564D01*
Y18523D01*
Y18509D01*
X766139Y18468D01*
X766152Y18414D01*
Y18373D01*
Y18359D01*
Y18291D01*
Y18236D01*
Y18195D01*
Y18181D01*
Y18031D01*
Y17894D01*
Y17853D01*
Y17812D01*
Y17785D01*
Y17771D01*
Y17621D01*
Y17484D01*
Y17443D01*
Y17402D01*
X766125D01*
X766152Y17347D01*
X766125Y17019D01*
X766084Y16883D01*
X766111Y16828D01*
Y16814D01*
X766098Y16801D01*
X766084Y16787D01*
X766098Y16760D01*
Y16746D01*
Y16732D01*
X766084Y16719D01*
X766070Y16705D01*
X766084Y16678D01*
Y16664D01*
Y16650D01*
X766070D01*
X766057Y16555D01*
Y16432D01*
X766029Y16459D01*
X766057Y16377D01*
X765988Y16227D01*
X765975Y15953D01*
X765961D01*
Y15857D01*
X765934D01*
Y15844D01*
X765920D01*
X765934Y15789D01*
X765906D01*
Y15775D01*
Y15762D01*
Y15748D01*
X765920Y15707D01*
Y15693D01*
X765893D01*
Y15666D01*
Y15652D01*
X765879Y15666D01*
X765893Y15625D01*
X765879D01*
Y15611D01*
X765852D01*
X765879Y15557D01*
X765838D01*
Y15543D01*
X765852Y15516D01*
Y15502D01*
X765838D01*
X765852Y15488D01*
Y15475D01*
X765838D01*
Y15461D01*
Y15447D01*
Y15434D01*
X765824Y15461D01*
X765838Y15420D01*
X765797Y15379D01*
X765819D01*
X765824Y15393D01*
Y15379D01*
X765819D01*
X765797Y15324D01*
Y15338D01*
X765783D01*
X765797Y15283D01*
X765756Y15297D01*
Y15229D01*
X765742Y15242D01*
Y15174D01*
X765729Y15146D01*
Y15133D01*
Y15105D01*
X765715Y15065D01*
X765701Y15051D01*
X765688Y15037D01*
X765701D01*
X765660Y14996D01*
Y14955D01*
X765647D01*
Y14887D01*
X765633D01*
Y14900D01*
X765619Y14832D01*
X765606Y14805D01*
Y14791D01*
X765592Y14750D01*
X765578Y14736D01*
X765565Y14723D01*
X765551D01*
Y14682D01*
X765537Y14668D01*
X765551D01*
Y14654D01*
X765537D01*
Y14586D01*
X765510Y14572D01*
X765496Y14586D01*
X765510Y14559D01*
X765496Y14572D01*
Y14531D01*
X765469Y14559D01*
X765442Y14436D01*
Y14422D01*
X765428Y14408D01*
X765414Y14395D01*
Y14381D01*
Y14367D01*
X765401Y14381D01*
Y14326D01*
X765387Y14272D01*
X765373Y14244D01*
X765360Y14231D01*
X765332Y14190D01*
X765291Y14162D01*
X765277Y14135D01*
X765264D01*
Y14112D01*
X765237Y14067D01*
Y14039D01*
Y14026D01*
X765223Y14012D01*
X765209D01*
Y13985D01*
X765196Y13971D01*
Y13957D01*
X765182Y13930D01*
X765168Y13916D01*
X765141D01*
X765127Y13861D01*
X765113Y13834D01*
Y13821D01*
X765107D01*
X765113Y13834D01*
Y13848D01*
X765086Y13821D01*
X765107D01*
X765100Y13807D01*
X765072Y13766D01*
X765059Y13738D01*
X765018Y13670D01*
X764977Y13629D01*
X764950Y13602D01*
X764936Y13588D01*
X764895Y13533D01*
X764854Y13492D01*
X764840Y13438D01*
X764826Y13397D01*
X764813Y13369D01*
X764799Y13356D01*
X764731Y13274D01*
X764703Y13260D01*
X764690Y13246D01*
X764621Y13151D01*
X764553Y13069D01*
X764512Y13014D01*
X764498Y12987D01*
X764430Y12905D01*
X764375Y12836D01*
X764321Y12782D01*
X764307Y12768D01*
X764225Y12700D01*
X764198Y12686D01*
X764184Y12672D01*
X764157Y12645D01*
X764116Y12631D01*
X764088D01*
X764047Y12536D01*
X763993D01*
X763856Y12385D01*
X763788Y12358D01*
X763747Y12317D01*
X763733Y12303D01*
X763705D01*
Y12262D01*
X763624Y12221D01*
X763610Y12248D01*
X763569Y12180D01*
X763514Y12126D01*
X763459Y12098D01*
X763446Y12084D01*
X763364Y12043D01*
X763295Y12002D01*
X763241Y11989D01*
X763227Y11975D01*
X763159Y11920D01*
X763077Y11879D01*
X763036Y11852D01*
X763008Y11838D01*
X762926Y11797D01*
X762844Y11770D01*
X762790Y11756D01*
X762762Y11743D01*
X762694Y11715D01*
X762626Y11702D01*
X762585Y11688D01*
X762571D01*
X762502Y11661D01*
X762434Y11647D01*
X762393Y11633D01*
X762380Y11620D01*
X762284Y11579D01*
X762188Y11551D01*
X762133Y11524D01*
X762106Y11510D01*
X762010Y11483D01*
X761928Y11469D01*
X761874Y11456D01*
X761846D01*
Y11428D01*
X761286Y11264D01*
X760958Y11169D01*
X760849D01*
X760794Y11155D01*
X760766D01*
X760671Y11141D01*
X760602Y11114D01*
X760561Y11100D01*
X760548D01*
X760370Y11073D01*
X760220Y11045D01*
X760165D01*
X760110Y11032D01*
X760069D01*
X759905Y11018D01*
X759755Y10991D01*
X759687D01*
X759646Y10977D01*
X759605D01*
X759495Y10950D01*
X759441D01*
X759372Y10936D01*
X759331Y10922D01*
X759304Y10909D01*
X759290Y10895D01*
X759126D01*
X759085Y10909D01*
X758976D01*
X758907Y10895D01*
X758866Y10881D01*
X758839Y10868D01*
X758825Y10854D01*
X758798Y10868D01*
X758757D01*
X758730Y10854D01*
X758702D01*
X758620Y10868D01*
X758470D01*
X758388Y10854D01*
X758333Y10841D01*
X758265D01*
X758046Y10813D01*
X757937Y10800D01*
X757855Y10786D01*
X757773Y10772D01*
X757718D01*
X757677Y10758D01*
X757663D01*
X757445Y10731D01*
X757349Y10717D01*
X757253Y10704D01*
X757185D01*
X757130Y10690D01*
X757076D01*
X756980Y10676D01*
X756665D01*
X756611Y10663D01*
X756597D01*
X756378Y10649D01*
X756160Y10635D01*
X755955Y10622D01*
X755640D01*
X755517Y10608D01*
X755421D01*
X754998Y10594D01*
X754793D01*
X754615Y10581D01*
X754150D01*
X754068Y10594D01*
X754013Y10608D01*
X753986D01*
X753890Y10622D01*
X753781D01*
Y10649D01*
X753535D01*
X753508Y10663D01*
X753480D01*
X753426Y10676D01*
X753412Y10690D01*
X753398D01*
X753316Y10704D01*
X753070D01*
X753002Y10717D01*
X752797D01*
X752742Y10731D01*
X752701Y10745D01*
X752688Y10758D01*
X752455D01*
X752400Y10772D01*
X752359Y10786D01*
X752277D01*
X752236Y10800D01*
X752223D01*
X752154Y10808D01*
Y10813D01*
X752145Y10809D01*
X752154Y10808D01*
Y10800D01*
X752127D01*
X752145Y10809D01*
X751881Y10841D01*
X751854Y10868D01*
X751813Y10881D01*
X751703D01*
X751608Y10922D01*
X751512Y10950D01*
X751443Y10977D01*
X751416D01*
X751307Y10991D01*
X751211Y11005D01*
X751129D01*
X751115Y11045D01*
X751061Y11052D01*
Y11073D01*
X751034Y11055D01*
X750774Y11086D01*
X750733Y11100D01*
X750678Y11141D01*
X750610D01*
Y11169D01*
X750582D01*
X749967Y11401D01*
X749707Y11456D01*
X748846Y11866D01*
X748628Y12057D01*
X748559Y12098D01*
X748532Y12112D01*
X748559Y12153D01*
X748504Y12194D01*
X748450Y12235D01*
X748422Y12262D01*
X748409Y12276D01*
X748368Y12331D01*
X748327Y12385D01*
X748299Y12412D01*
X748286Y12426D01*
X748163Y12563D01*
X748067Y12700D01*
X748012Y12754D01*
X747985Y12782D01*
X747971Y12809D01*
X747958Y12823D01*
X747848Y12987D01*
X747753Y13123D01*
X747725Y13178D01*
X747698Y13219D01*
X747671Y13246D01*
Y13260D01*
X747507Y13533D01*
X747438Y13656D01*
X747383Y13766D01*
X747342Y13861D01*
X747301Y13930D01*
X747288Y13985D01*
X747274Y13998D01*
X747165Y14285D01*
X747110Y14422D01*
X747083Y14545D01*
X747042Y14654D01*
X747014Y14736D01*
X747001Y14791D01*
Y14805D01*
X746960Y15037D01*
X746932Y15283D01*
X746905Y15516D01*
Y15721D01*
Y15898D01*
Y16035D01*
Y16090D01*
Y16131D01*
Y16144D01*
Y16158D01*
X746932Y16418D01*
X746960Y16678D01*
X747001Y16896D01*
X747042Y17101D01*
X747083Y17265D01*
X747124Y17388D01*
X747137Y17470D01*
X747151Y17498D01*
X747220Y17689D01*
X747288Y17853D01*
X747315Y17908D01*
X747342Y17963D01*
X747356Y17990D01*
Y18004D01*
X747438Y18181D01*
X747507Y18345D01*
X747534Y18400D01*
X747561Y18455D01*
X747575Y18482D01*
Y18496D01*
X747602Y18564D01*
X747630Y18619D01*
X747657Y18673D01*
Y18687D01*
X747698Y18755D01*
X747753Y18810D01*
X747780Y18824D01*
X747794Y18837D01*
X747766Y18878D01*
X748040Y19288D01*
X748176Y19453D01*
X748286Y19603D01*
X748313Y19589D01*
Y19630D01*
X748354Y19699D01*
X748381Y19726D01*
Y19740D01*
X748422Y19781D01*
X748463Y19808D01*
X748491Y19822D01*
X748504D01*
X748518Y19876D01*
X748532Y19890D01*
X748559Y19917D01*
X748587Y19931D01*
X748614D01*
Y19958D01*
X748600D01*
X748750Y20068D01*
X748764Y20122D01*
X748833Y20150D01*
X748901Y20259D01*
X748942D01*
X749133Y20437D01*
X749366Y20628D01*
X749393Y20655D01*
X749420Y20683D01*
X749461Y20710D01*
X749502Y20724D01*
X749543D01*
Y20765D01*
X749748Y20902D01*
X749817Y20970D01*
X749830Y20984D01*
X749844D01*
X749913Y21025D01*
X749940Y21038D01*
X750035Y21093D01*
X750117Y21148D01*
X750172Y21202D01*
X750200Y21216D01*
X750309Y21284D01*
X750391Y21312D01*
X750446Y21325D01*
X750473D01*
X750500Y21366D01*
X750541Y21394D01*
X750569Y21407D01*
X750582D01*
X750651Y21435D01*
X750692Y21462D01*
X750719Y21476D01*
X750733D01*
X750842Y21544D01*
X750951Y21599D01*
X751020Y21640D01*
X751033Y21654D01*
X751047D01*
X751170Y21722D01*
X751266Y21790D01*
X751334Y21831D01*
X751362Y21845D01*
X751403Y21858D01*
X751443Y21886D01*
X751457Y21913D01*
X751471Y21927D01*
X751525Y21968D01*
X751553Y21982D01*
X751580Y21995D01*
X751594D01*
X751649Y22064D01*
X751676Y22091D01*
X751744Y22187D01*
X751772Y22214D01*
Y22228D01*
X751813Y22323D01*
Y22405D01*
Y22474D01*
Y22501D01*
X751785Y22610D01*
X751744Y22706D01*
X751703Y22761D01*
X751690Y22774D01*
X751662Y22829D01*
X751649Y22856D01*
X751635D01*
X751594Y22925D01*
X751580Y22938D01*
X751498Y23089D01*
X751307Y23390D01*
X751225Y23554D01*
X751211Y23622D01*
X751184Y23663D01*
X751156Y23704D01*
X751143Y23731D01*
Y23745D01*
X751129Y23813D01*
X751102Y23854D01*
X751088Y23882D01*
Y23895D01*
X751047Y24005D01*
X751006Y24100D01*
X750979Y24155D01*
X750965Y24182D01*
X750938Y24292D01*
X750897Y24401D01*
X750883Y24469D01*
X750869Y24483D01*
Y24497D01*
X750828Y24592D01*
X750815Y24633D01*
Y24647D01*
X750801Y24715D01*
X750787Y24770D01*
Y24811D01*
Y24825D01*
X750774Y24839D01*
Y24866D01*
X750760Y24893D01*
Y24907D01*
X750746Y24989D01*
Y25003D01*
Y25016D01*
X750869Y24921D01*
X750979Y24811D01*
X751061Y24729D01*
X751074Y24715D01*
X751088Y24702D01*
X751156Y24647D01*
X751225Y24592D01*
X751362Y24538D01*
X751416Y24510D01*
X751457D01*
X751484Y24497D01*
X751498D01*
X751676Y24469D01*
X751908D01*
X751922Y24483D01*
X751936D01*
X752086Y24538D01*
X752209Y24592D01*
X752264Y24620D01*
X752305Y24633D01*
X752332Y24647D01*
X752346D01*
X752428Y24688D01*
X752510Y24729D01*
X752564Y24743D01*
X752578Y24757D01*
X752674Y24811D01*
X752742Y24852D01*
X752797Y24880D01*
X752810Y24893D01*
X752892Y24962D01*
X752961Y25016D01*
X753016Y25057D01*
X753029Y25071D01*
X753111Y25153D01*
X753180Y25221D01*
X753221Y25262D01*
X753234Y25276D01*
X753303Y25331D01*
X753357Y25385D01*
X753385Y25426D01*
X753398Y25440D01*
X753453Y25508D01*
X753508Y25577D01*
X753535Y25618D01*
X753549Y25631D01*
X753590Y25659D01*
X753617Y25686D01*
X753658Y25741D01*
X753672Y25754D01*
Y25796D01*
X753658Y25823D01*
X753644Y25891D01*
X753631Y25918D01*
X753617Y26000D01*
X753603Y26069D01*
X753590Y26123D01*
X753576Y26137D01*
X753562Y26219D01*
X753549Y26288D01*
X753535Y26342D01*
Y26356D01*
X753508Y26424D01*
X753494Y26479D01*
X753480Y26520D01*
Y26534D01*
Y26602D01*
X753467Y26670D01*
X753453Y26711D01*
X753439Y26725D01*
X753412Y26821D01*
X753371Y26916D01*
X753357Y26971D01*
X753344Y26998D01*
X753303Y27108D01*
X753275Y27204D01*
X753248Y27272D01*
X753234Y27299D01*
X753180Y27422D01*
X753139Y27531D01*
X753111Y27614D01*
X753098Y27627D01*
Y27641D01*
X753043Y27764D01*
X753002Y27860D01*
X752947Y27928D01*
X752934Y27955D01*
X752892Y28037D01*
X752865Y28106D01*
X752851Y28160D01*
X752838Y28174D01*
X752810Y28256D01*
X752783Y28324D01*
X752756Y28365D01*
X752742Y28379D01*
X752701Y28434D01*
X752688Y28461D01*
X752674D01*
X752660Y28502D01*
X752633Y28516D01*
X752619Y28530D01*
X752564Y28557D01*
X752469D01*
X752414Y28543D01*
X752318D01*
X752182Y28530D01*
X752059Y28502D01*
X751977Y28488D01*
X751963Y28475D01*
X751949D01*
X751826Y28447D01*
X751717Y28420D01*
X751635Y28406D01*
X751621Y28393D01*
X751608D01*
X751963Y28871D01*
X752168Y29090D01*
X752182Y29104D01*
Y29117D01*
X752209Y29145D01*
X752223D01*
X752277Y29213D01*
X752305Y29227D01*
X752359Y29268D01*
X752387Y29281D01*
X752455Y29336D01*
X752523Y29363D01*
X752564Y29391D01*
X752578Y29404D01*
X752660Y29459D01*
X752742Y29500D01*
X752797Y29527D01*
X752810Y29541D01*
X752838Y29568D01*
X752879Y29596D01*
X752906Y29623D01*
X752920D01*
X752988Y29650D01*
X753029Y29678D01*
X753070D01*
X753111Y29719D01*
X753139Y29732D01*
X753166Y29746D01*
X753180D01*
X753234Y29760D01*
X753289D01*
X753316Y29773D01*
X753330D01*
X753453Y29828D01*
X753576Y29869D01*
X753658Y29897D01*
X753672Y29910D01*
X753685D01*
X753822Y29951D01*
X753945Y29978D01*
X754041Y30006D01*
X754068D01*
X754328Y30074D01*
X754588Y30143D01*
X754834Y30184D01*
X755052Y30211D01*
X755244Y30238D01*
X755394D01*
X755449Y30252D01*
X756064D01*
X756310Y30238D01*
D02*
G37*
G36*
X751061Y11052D02*
Y11045D01*
X751020D01*
X751034Y11055D01*
X751061Y11052D01*
D02*
G37*
G36*
X765264Y14108D02*
Y14112D01*
X765277Y14135D01*
X765264Y14108D01*
D02*
G37*
G36*
X801685Y10768D02*
Y9968D01*
Y9168D01*
Y8369D01*
X798485D01*
Y9168D01*
Y9968D01*
Y10768D01*
Y11569D01*
X801685D01*
Y10768D01*
D02*
G37*
G36*
X798485Y33169D02*
Y32368D01*
Y31569D01*
Y30768D01*
X801685D01*
Y29969D01*
Y29168D01*
Y28368D01*
Y27569D01*
X798485D01*
Y28368D01*
Y29168D01*
Y29969D01*
Y30768D01*
X795285D01*
Y31569D01*
Y32368D01*
Y33169D01*
Y33968D01*
X798485D01*
Y33169D01*
D02*
G37*
G36*
X779285D02*
Y32368D01*
Y31569D01*
Y30768D01*
X776085D01*
Y31569D01*
Y32368D01*
Y33169D01*
Y33968D01*
X779285D01*
Y33169D01*
D02*
G37*
G36*
X792085D02*
Y32368D01*
Y31569D01*
Y30768D01*
X795285D01*
Y29969D01*
Y29168D01*
Y28368D01*
Y27569D01*
Y26768D01*
Y25969D01*
Y25168D01*
Y24369D01*
X801685D01*
Y23569D01*
Y22769D01*
Y21969D01*
Y21169D01*
X795285D01*
Y21969D01*
Y22769D01*
Y23569D01*
Y24369D01*
X792085D01*
Y23569D01*
Y22769D01*
Y21969D01*
Y21169D01*
X788885D01*
Y20369D01*
Y19568D01*
Y18768D01*
Y17968D01*
X785685D01*
Y18768D01*
Y19568D01*
Y20369D01*
Y21169D01*
X782485D01*
Y21969D01*
Y22769D01*
Y23569D01*
Y24369D01*
X788885D01*
Y25168D01*
Y25969D01*
Y26768D01*
Y27569D01*
X782485D01*
Y28368D01*
Y29168D01*
Y29969D01*
Y30768D01*
Y31569D01*
Y32368D01*
Y33169D01*
Y33968D01*
X785685D01*
Y33169D01*
Y32368D01*
Y31569D01*
Y30768D01*
X788885D01*
Y31569D01*
Y32368D01*
Y33169D01*
Y33968D01*
X792085D01*
Y33169D01*
D02*
G37*
G36*
X795285Y13969D02*
Y13169D01*
Y12369D01*
Y11569D01*
X792085D01*
Y12369D01*
Y13169D01*
Y13969D01*
Y14769D01*
X795285D01*
Y13969D01*
D02*
G37*
G36*
X801685Y17168D02*
Y16368D01*
Y15568D01*
Y14769D01*
X795285D01*
Y15568D01*
Y16368D01*
Y17168D01*
Y17968D01*
X801685D01*
Y17168D01*
D02*
G37*
%LPC*%
G36*
X765209Y13998D02*
X765182D01*
Y13971D01*
X765209Y13998D01*
D02*
G37*
G36*
X757103Y27395D02*
X756939D01*
X756884Y27381D01*
X756830Y27367D01*
X756788Y27354D01*
X756775D01*
X756679Y27327D01*
X756638Y27313D01*
X756624Y27299D01*
X756529Y27231D01*
X756488Y27204D01*
X756474Y27190D01*
X756433Y27149D01*
X756392Y27108D01*
X756378Y27080D01*
X756365Y27067D01*
X756283Y26957D01*
X756242Y26848D01*
X756201Y26725D01*
X756187Y26629D01*
Y26534D01*
Y26465D01*
X756201Y26411D01*
Y26397D01*
X756242Y26260D01*
X756283Y26151D01*
X756337Y26041D01*
X756392Y25946D01*
X756447Y25877D01*
X756488Y25823D01*
X756515Y25796D01*
X756529Y25782D01*
X756570Y25754D01*
X756583Y25741D01*
X756624D01*
X756652Y25727D01*
X756679Y25686D01*
X756693Y25672D01*
X756734Y25645D01*
X756747Y25631D01*
X756857D01*
X756898Y25604D01*
X756912Y25590D01*
X756939Y25577D01*
X756952Y25563D01*
X757007Y25577D01*
X757034D01*
X757089Y25590D01*
X757117Y25604D01*
X757240D01*
X757322Y25618D01*
X757349Y25631D01*
X757363D01*
X757431Y25645D01*
X757458Y25659D01*
X757527Y25713D01*
X757554Y25741D01*
X757650Y25809D01*
X757732Y25877D01*
X757773Y25932D01*
X757786Y25946D01*
X757855Y26041D01*
X757896Y26137D01*
X757909Y26219D01*
X757923Y26233D01*
Y26247D01*
X757950Y26411D01*
Y26561D01*
X757923Y26698D01*
X757882Y26821D01*
X757827Y26916D01*
X757786Y26998D01*
X757745Y27053D01*
X757732Y27067D01*
X757609Y27190D01*
X757472Y27286D01*
X757335Y27340D01*
X757212Y27381D01*
X757103Y27395D01*
D02*
G37*
G36*
X776085Y8369D02*
X772885D01*
Y7569D01*
Y6769D01*
Y5968D01*
Y5169D01*
X776085D01*
Y5968D01*
Y6769D01*
Y7569D01*
Y8369D01*
D02*
G37*
%LPD*%
D24*
X604331Y348425D02*
Y391732D01*
Y348425D02*
X793307D01*
Y391732D01*
X604331D02*
X793307D01*
D28*
X613661Y383457D02*
Y359842D01*
Y367714D01*
X629404Y383457D01*
X617597Y371650D01*
X629404Y359842D01*
X641212Y375586D02*
X649083D01*
X653019Y371650D01*
Y359842D01*
X641212D01*
X637276Y363778D01*
X641212Y367714D01*
X653019D01*
X660890Y375586D02*
X676633D01*
X660890Y359842D01*
X676633D01*
X688440Y375586D02*
X696312D01*
X700248Y371650D01*
Y359842D01*
X688440D01*
X684505Y363778D01*
X688440Y367714D01*
X700248D01*
X708119Y359842D02*
Y375586D01*
X719926D01*
X723862Y371650D01*
Y359842D01*
X735669Y375586D02*
X743541D01*
X747476Y371650D01*
Y359842D01*
X735669D01*
X731734Y363778D01*
X735669Y367714D01*
X747476D01*
X763219Y351971D02*
X767155D01*
X771091Y355907D01*
Y375586D01*
X759284D01*
X755348Y371650D01*
Y363778D01*
X759284Y359842D01*
X771091D01*
X778962D02*
X786834D01*
X782898D01*
Y375586D01*
X778962D01*
D29*
X747047Y-10040D02*
Y-11877D01*
X747966Y-12795D01*
X748884Y-11877D01*
Y-10040D01*
X751639Y-12795D02*
X749802D01*
X751639Y-10959D01*
Y-10499D01*
X751180Y-10040D01*
X750261D01*
X749802Y-10499D01*
X752557Y-12795D02*
Y-12336D01*
X753017D01*
Y-12795D01*
X752557D01*
X754853Y-10499D02*
X755312Y-10040D01*
X756231D01*
X756690Y-10499D01*
Y-12336D01*
X756231Y-12795D01*
X755312D01*
X754853Y-12336D01*
Y-10499D01*
X748884Y-19685D02*
X747047D01*
X748884Y-17848D01*
Y-17389D01*
X748425Y-16930D01*
X747506D01*
X747047Y-17389D01*
X749802D02*
X750261Y-16930D01*
X751180D01*
X751639Y-17389D01*
Y-19226D01*
X751180Y-19685D01*
X750261D01*
X749802Y-19226D01*
Y-17389D01*
X754394Y-19685D02*
X752557D01*
X754394Y-17848D01*
Y-17389D01*
X753935Y-16930D01*
X753017D01*
X752557Y-17389D01*
X756690Y-19685D02*
Y-16930D01*
X755312Y-18307D01*
X757149D01*
X758067D02*
X759904D01*
X760822Y-17389D02*
X761281Y-16930D01*
X762200D01*
X762659Y-17389D01*
Y-19226D01*
X762200Y-19685D01*
X761281D01*
X760822Y-19226D01*
Y-17389D01*
X763577Y-19685D02*
X764496D01*
X764037D01*
Y-16930D01*
X763577Y-17389D01*
X768628Y-19685D02*
X770465Y-17848D01*
X775975Y-16930D02*
X774138D01*
Y-18307D01*
X775057D01*
X774138D01*
Y-19685D01*
X776893Y-17848D02*
Y-19685D01*
Y-18767D01*
X777353Y-18307D01*
X777812Y-17848D01*
X778271D01*
X781026Y-19685D02*
X780107D01*
X779648Y-19226D01*
Y-18307D01*
X780107Y-17848D01*
X781026D01*
X781485Y-18307D01*
Y-18767D01*
X779648D01*
X782403Y-19685D02*
X783322D01*
X782863D01*
Y-17848D01*
X782403D01*
X784699Y-16930D02*
Y-19685D01*
X786077D01*
X786536Y-19226D01*
Y-18767D01*
Y-18307D01*
X786077Y-17848D01*
X784699D01*
X787454D02*
Y-19226D01*
X787913Y-19685D01*
X789291D01*
Y-17848D01*
X790209D02*
Y-19685D01*
Y-18767D01*
X790668Y-18307D01*
X791128Y-17848D01*
X791587D01*
X793883Y-20603D02*
X794342D01*
X794801Y-20144D01*
Y-17848D01*
X793423D01*
X792964Y-18307D01*
Y-19226D01*
X793423Y-19685D01*
X794801D01*
X747047Y-5906D02*
Y-3150D01*
X747966Y-4069D01*
X748884Y-3150D01*
Y-5906D01*
X749802D02*
Y-5446D01*
X750261D01*
Y-5906D01*
X749802D01*
X752098Y-3150D02*
X753935D01*
X753017D01*
Y-5906D01*
X756231D02*
X755312D01*
X754853Y-5446D01*
Y-4528D01*
X755312Y-4069D01*
X756231D01*
X756690Y-4528D01*
Y-4987D01*
X754853D01*
X758067Y-3610D02*
Y-4069D01*
X757608D01*
X758527D01*
X758067D01*
Y-5446D01*
X758527Y-5906D01*
X760363Y-4069D02*
X761281D01*
X761741Y-4528D01*
Y-5906D01*
X760363D01*
X759904Y-5446D01*
X760363Y-4987D01*
X761741D01*
X762659Y-4069D02*
Y-5906D01*
Y-4987D01*
X763118Y-4528D01*
X763577Y-4069D01*
X764037D01*
X767251Y-3150D02*
Y-5906D01*
X765873D01*
X765414Y-5446D01*
Y-4528D01*
X765873Y-4069D01*
X767251D01*
X770924Y-5906D02*
X772761Y-4069D01*
X776434Y-5906D02*
Y-3150D01*
X777812D01*
X778271Y-3610D01*
Y-4528D01*
X777812Y-4987D01*
X776434D01*
X779189Y-5906D02*
Y-5446D01*
X779648D01*
Y-5906D01*
X779189D01*
X784240Y-3150D02*
X786077D01*
X785158D01*
Y-5906D01*
X786995Y-4069D02*
Y-5906D01*
Y-4987D01*
X787454Y-4528D01*
X787913Y-4069D01*
X788373D01*
X790209D02*
X791128D01*
X791587Y-4528D01*
Y-5906D01*
X790209D01*
X789750Y-5446D01*
X790209Y-4987D01*
X791587D01*
X792505Y-5906D02*
Y-4069D01*
X793883D01*
X794342Y-4528D01*
Y-5906D01*
X748884Y3280D02*
X748425Y3739D01*
X747506D01*
X747047Y3280D01*
Y2821D01*
X747506Y2362D01*
X748425D01*
X748884Y1903D01*
Y1443D01*
X748425Y984D01*
X747506D01*
X747047Y1443D01*
X749802Y984D02*
X750721D01*
X750261D01*
Y3739D01*
X749802D01*
X752098Y984D02*
X753017D01*
X752557D01*
Y2821D01*
X752098D01*
X754394Y984D02*
Y2821D01*
X754853D01*
X755312Y2362D01*
Y984D01*
Y2362D01*
X755771Y2821D01*
X756231Y2362D01*
Y984D01*
X757149Y3739D02*
Y984D01*
X758527D01*
X758986Y1443D01*
Y1903D01*
X758527Y2362D01*
X757149D01*
X758527D01*
X758986Y2821D01*
Y3280D01*
X758527Y3739D01*
X757149D01*
X760363Y984D02*
X761281D01*
X761741Y1443D01*
Y2362D01*
X761281Y2821D01*
X760363D01*
X759904Y2362D01*
Y1443D01*
X760363Y984D01*
X762659Y2821D02*
X764496Y984D01*
X763577Y1903D01*
X764496Y2821D01*
X762659Y984D01*
D30*
X375394Y408937D02*
D03*
X447441D02*
D03*
Y398937D02*
D03*
Y388937D02*
D03*
Y378937D02*
D03*
Y368937D02*
D03*
Y358937D02*
D03*
Y348937D02*
D03*
Y338937D02*
D03*
Y328937D02*
D03*
X375394D02*
D03*
Y338937D02*
D03*
Y348937D02*
D03*
Y358937D02*
D03*
Y368937D02*
D03*
Y378937D02*
D03*
Y388937D02*
D03*
Y398937D02*
D03*
D31*
X431417Y322835D02*
D03*
X421417D02*
D03*
X411417D02*
D03*
X401417D02*
D03*
X391417D02*
D03*
D32*
X474409Y389764D02*
D03*
X348425D02*
D03*
X411417Y0D02*
D03*
X822835Y389764D02*
D03*
X0D02*
D03*
X822835Y0D02*
D03*
X0D02*
D03*
D33*
X37402Y179134D02*
D03*
X59055D02*
D03*
X15748D02*
D03*
X59055Y374016D02*
D03*
X80709D02*
D03*
X37402D02*
D03*
X486221Y168543D02*
D03*
X507874D02*
D03*
X464567D02*
D03*
X562992Y204882D02*
D03*
X606299D02*
D03*
X584646D02*
D03*
X470472Y269685D02*
D03*
X492126D02*
D03*
X448819D02*
D03*
X551181Y306575D02*
D03*
X594488D02*
D03*
X572835D02*
D03*
X190945Y267717D02*
D03*
X212598D02*
D03*
X169291D02*
D03*
X186221Y374016D02*
D03*
X229528D02*
D03*
X207874D02*
D03*
X681102Y307087D02*
D03*
X702756D02*
D03*
X659449D02*
D03*
X665354Y204882D02*
D03*
X708661D02*
D03*
X687008D02*
D03*
X387795Y206693D02*
D03*
X409449D02*
D03*
X366142D02*
D03*
X94488Y267717D02*
D03*
X137795D02*
D03*
X116142D02*
D03*
X785433Y253937D02*
D03*
X807087D02*
D03*
X763779D02*
D03*
Y151575D02*
D03*
X807087D02*
D03*
X785433D02*
D03*
X478346Y41929D02*
D03*
X500000D02*
D03*
X456693D02*
D03*
X244094Y248031D02*
D03*
X287402D02*
D03*
X265748D02*
D03*
X133465Y374016D02*
D03*
X155118D02*
D03*
X111811D02*
D03*
X287402Y41929D02*
D03*
X309055D02*
D03*
X265748D02*
D03*
D34*
X17717Y158858D02*
D03*
X39370Y353740D02*
D03*
X466535Y148268D02*
D03*
X564961Y184606D02*
D03*
X450787Y249410D02*
D03*
X553150Y286299D02*
D03*
X171260Y247441D02*
D03*
X188189Y353740D02*
D03*
X661417Y286811D02*
D03*
X667323Y184606D02*
D03*
X368110Y186417D02*
D03*
X96457Y247441D02*
D03*
X765748Y233661D02*
D03*
Y131299D02*
D03*
X458661Y21654D02*
D03*
X246063Y227756D02*
D03*
X113779Y353740D02*
D03*
X267717Y21654D02*
D03*
D35*
X57087Y194095D02*
D03*
X37402Y202362D02*
D03*
X78740Y388976D02*
D03*
X59055Y397244D02*
D03*
X505905Y183504D02*
D03*
X486221Y191772D02*
D03*
X584646Y228110D02*
D03*
X604331Y219843D02*
D03*
X490158Y284646D02*
D03*
X470472Y292913D02*
D03*
X572835Y329803D02*
D03*
X592520Y321535D02*
D03*
X210630Y282677D02*
D03*
X190945Y290945D02*
D03*
X207874Y397244D02*
D03*
X227559Y388976D02*
D03*
X700787Y322047D02*
D03*
X681102Y330315D02*
D03*
X687008Y228110D02*
D03*
X706693Y219843D02*
D03*
X407480Y221654D02*
D03*
X387795Y229921D02*
D03*
X116142Y290945D02*
D03*
X135827Y282677D02*
D03*
X805118Y268898D02*
D03*
X785433Y277165D02*
D03*
Y174803D02*
D03*
X805118Y166535D02*
D03*
X498032Y56890D02*
D03*
X478346Y65158D02*
D03*
X265748Y271260D02*
D03*
X285433Y262992D02*
D03*
X153150Y388976D02*
D03*
X133465Y397244D02*
D03*
X307087Y56890D02*
D03*
X287402Y65158D02*
D03*
D36*
X34055Y160630D02*
D03*
X40748D02*
D03*
X55709Y355512D02*
D03*
X62402D02*
D03*
X482874Y150039D02*
D03*
X489567D02*
D03*
X587992Y186378D02*
D03*
X581299D02*
D03*
X467126Y251181D02*
D03*
X473819D02*
D03*
X576181Y288071D02*
D03*
X569488D02*
D03*
X187598Y249213D02*
D03*
X194291D02*
D03*
X211221Y355512D02*
D03*
X204528D02*
D03*
X677756Y288583D02*
D03*
X684449D02*
D03*
X690354Y186378D02*
D03*
X683661D02*
D03*
X384449Y188189D02*
D03*
X391142D02*
D03*
X119488Y249213D02*
D03*
X112795D02*
D03*
X782087Y235433D02*
D03*
X788779D02*
D03*
Y133071D02*
D03*
X782087D02*
D03*
X475000Y23425D02*
D03*
X481693D02*
D03*
X269094Y229528D02*
D03*
X262402D02*
D03*
X130118Y355512D02*
D03*
X136811D02*
D03*
X284055Y23425D02*
D03*
X290748D02*
D03*
D37*
X37402Y163976D02*
D03*
Y157283D02*
D03*
X59055Y358858D02*
D03*
Y352165D02*
D03*
X486221Y153386D02*
D03*
Y146693D02*
D03*
X584646Y183031D02*
D03*
Y189724D02*
D03*
X470472Y254528D02*
D03*
Y247835D02*
D03*
X572835Y284724D02*
D03*
Y291417D02*
D03*
X190945Y252559D02*
D03*
Y245866D02*
D03*
X207874Y352165D02*
D03*
Y358858D02*
D03*
X681102Y291929D02*
D03*
Y285236D02*
D03*
X687008Y183031D02*
D03*
Y189724D02*
D03*
X387795Y191535D02*
D03*
Y184843D02*
D03*
X116142Y245866D02*
D03*
Y252559D02*
D03*
X785433Y238779D02*
D03*
Y232087D02*
D03*
Y129724D02*
D03*
Y136417D02*
D03*
X478346Y26772D02*
D03*
Y20079D02*
D03*
X265748Y226181D02*
D03*
Y232874D02*
D03*
X133465Y358858D02*
D03*
Y352165D02*
D03*
X287402Y26772D02*
D03*
Y20079D02*
D03*
D38*
X9843Y19685D02*
D03*
X816929Y364173D02*
D03*
D39*
X88583Y285433D02*
D03*
X49213D02*
D03*
Y246063D02*
D03*
X596457Y194882D02*
D03*
X654724Y191732D02*
D03*
X198819Y364567D02*
D03*
X180315Y275984D02*
D03*
X301181Y31890D02*
D03*
X447244Y23228D02*
D03*
X512205Y158268D02*
D03*
X803150Y127953D02*
D03*
X704724Y181102D02*
D03*
X803150Y232283D02*
D03*
X696850Y282283D02*
D03*
X582677Y278346D02*
D03*
X503937Y141732D02*
D03*
X399606Y179134D02*
D03*
X493701Y15748D02*
D03*
X305118Y17717D02*
D03*
X54724Y157480D02*
D03*
X277559Y220866D02*
D03*
X203543Y241339D02*
D03*
X76772Y351969D02*
D03*
X659842Y174016D02*
D03*
X757480Y281496D02*
D03*
Y272638D02*
D03*
X702559Y282480D02*
D03*
Y274606D02*
D03*
X588976Y278346D02*
D03*
Y270472D02*
D03*
X448819Y285827D02*
D03*
X376378Y298819D02*
D03*
X405905Y169685D02*
D03*
Y182677D02*
D03*
X208268Y240158D02*
D03*
X283071Y220079D02*
D03*
Y212205D02*
D03*
X305118Y188976D02*
D03*
X312205Y273622D02*
D03*
Y261024D02*
D03*
X279528Y282283D02*
D03*
X132283Y225984D02*
D03*
Y236221D02*
D03*
X126378Y240158D02*
D03*
X201969Y232283D02*
D03*
X106299Y398819D02*
D03*
X253150Y325590D02*
D03*
X391339Y285827D02*
D03*
X389469Y282283D02*
D03*
X314961Y302362D02*
D03*
X17323Y277953D02*
D03*
Y260630D02*
D03*
X21260Y267717D02*
D03*
X33071Y337008D02*
D03*
X223622Y352362D02*
D03*
X151181Y342126D02*
D03*
X98425Y374016D02*
D03*
X366496Y338937D02*
D03*
X88583Y364173D02*
D03*
X167323D02*
D03*
X246063D02*
D03*
X167323Y403543D02*
D03*
X88583D02*
D03*
X49213Y324803D02*
D03*
X88583D02*
D03*
X127953D02*
D03*
X167323D02*
D03*
X206693D02*
D03*
X246063D02*
D03*
X250787Y243701D02*
D03*
X127953Y285433D02*
D03*
X191142Y344488D02*
D03*
X201969D02*
D03*
X148425Y351575D02*
D03*
X150591Y359252D02*
D03*
X167323Y206693D02*
D03*
X206693D02*
D03*
X246063D02*
D03*
X127953D02*
D03*
X88583D02*
D03*
X252953Y289370D02*
D03*
X442913Y246063D02*
D03*
X403543D02*
D03*
X364173D02*
D03*
X442913Y206693D02*
D03*
Y167323D02*
D03*
X438976Y204724D02*
D03*
Y196850D02*
D03*
X561024Y88583D02*
D03*
Y49213D02*
D03*
Y9843D02*
D03*
X442913D02*
D03*
X521654D02*
D03*
Y49213D02*
D03*
Y88583D02*
D03*
X482283D02*
D03*
X442913Y49213D02*
D03*
Y88583D02*
D03*
X482283Y206693D02*
D03*
X521654D02*
D03*
X555118Y178740D02*
D03*
Y164173D02*
D03*
X482283Y127953D02*
D03*
X521654D02*
D03*
X442913D02*
D03*
X443898Y286417D02*
D03*
Y290354D02*
D03*
X459941Y262697D02*
D03*
X487795Y248031D02*
D03*
X493110Y239173D02*
D03*
Y245079D02*
D03*
X757874Y246063D02*
D03*
X718504D02*
D03*
X679134D02*
D03*
X639764D02*
D03*
X600394D02*
D03*
X561024D02*
D03*
X521654D02*
D03*
X639764Y206693D02*
D03*
X757874D02*
D03*
X797244D02*
D03*
X836614Y167323D02*
D03*
X757874D02*
D03*
X718504D02*
D03*
X679134D02*
D03*
X639764D02*
D03*
X558661Y211417D02*
D03*
X561024Y167323D02*
D03*
Y127953D02*
D03*
X600394D02*
D03*
X639764D02*
D03*
X679134D02*
D03*
X718504D02*
D03*
X757874D02*
D03*
X836614D02*
D03*
Y88583D02*
D03*
X797244D02*
D03*
X757874D02*
D03*
X718504D02*
D03*
X679134D02*
D03*
X639764D02*
D03*
X600394D02*
D03*
X807579Y188484D02*
D03*
Y200295D02*
D03*
X659449Y197835D02*
D03*
X639764Y285433D02*
D03*
Y324803D02*
D03*
X836614Y364173D02*
D03*
X797244D02*
D03*
X757874Y324803D02*
D03*
X797244D02*
D03*
X836614D02*
D03*
X729331Y351378D02*
D03*
Y359252D02*
D03*
X729331Y285433D02*
D03*
Y273622D02*
D03*
X561024Y403543D02*
D03*
X600394D02*
D03*
X639764D02*
D03*
X679134D02*
D03*
X718504D02*
D03*
X797244D02*
D03*
X757874D02*
D03*
X508858Y326772D02*
D03*
X519685Y336614D02*
D03*
X526575Y343504D02*
D03*
X249213Y404724D02*
D03*
X9843Y403543D02*
D03*
Y364173D02*
D03*
Y324803D02*
D03*
X285433D02*
D03*
X324803D02*
D03*
X364173D02*
D03*
X521654Y285433D02*
D03*
X324803Y246063D02*
D03*
Y206693D02*
D03*
Y167323D02*
D03*
X285433D02*
D03*
X246063D02*
D03*
Y127953D02*
D03*
X285433D02*
D03*
X324803D02*
D03*
X364173D02*
D03*
X403543D02*
D03*
X757874Y49213D02*
D03*
X797244D02*
D03*
X836614D02*
D03*
X718504D02*
D03*
Y9843D02*
D03*
X679134D02*
D03*
Y49213D02*
D03*
X639764D02*
D03*
Y9843D02*
D03*
X600394D02*
D03*
Y49213D02*
D03*
X403543Y88583D02*
D03*
Y49213D02*
D03*
X364173Y9843D02*
D03*
Y88583D02*
D03*
Y49213D02*
D03*
X206693Y167323D02*
D03*
X167323D02*
D03*
X206693Y127953D02*
D03*
Y88583D02*
D03*
Y49213D02*
D03*
Y9843D02*
D03*
X167323D02*
D03*
Y49213D02*
D03*
Y88583D02*
D03*
Y127953D02*
D03*
X127953Y88583D02*
D03*
Y49213D02*
D03*
Y9843D02*
D03*
X88583D02*
D03*
Y88583D02*
D03*
X49213D02*
D03*
X88583Y49213D02*
D03*
X49213D02*
D03*
Y9843D02*
D03*
X9843Y49213D02*
D03*
Y88583D02*
D03*
X127953Y127953D02*
D03*
X88583D02*
D03*
X49213D02*
D03*
X9843D02*
D03*
X127953Y167323D02*
D03*
X9843Y285433D02*
D03*
Y246063D02*
D03*
Y167323D02*
D03*
X88583D02*
D03*
X9843Y206693D02*
D03*
X311024Y346457D02*
D03*
X322835D02*
D03*
X436024Y286417D02*
D03*
X428150D02*
D03*
X436024Y290354D02*
D03*
X321850Y188976D02*
D03*
X317913Y259842D02*
D03*
X252953Y383858D02*
D03*
X421260Y312992D02*
D03*
X411417D02*
D03*
X401575D02*
D03*
X391732D02*
D03*
X366142Y328740D02*
D03*
Y349410D02*
D03*
Y359252D02*
D03*
Y369094D02*
D03*
Y378937D02*
D03*
Y388779D02*
D03*
Y398622D02*
D03*
Y409449D02*
D03*
X457677D02*
D03*
X457362Y398937D02*
D03*
X457520Y388937D02*
D03*
X457677Y378937D02*
D03*
X457520Y368937D02*
D03*
X457362Y358937D02*
D03*
X457205Y348937D02*
D03*
X457323Y338937D02*
D03*
X457480Y328937D02*
D03*
X443898Y321850D02*
D03*
X297244Y408465D02*
D03*
X259842Y396654D02*
D03*
X413386Y263779D02*
D03*
X408465Y263779D02*
D03*
X503937Y375000D02*
D03*
X506890Y381890D02*
D03*
X509842Y388779D02*
D03*
X512795Y395669D02*
D03*
X515748Y402559D02*
D03*
X518701Y409449D02*
D03*
X285433Y364173D02*
D03*
M02*
