G04*
G04 #@! TF.GenerationSoftware,Altium Limited,CircuitStudio,1.5.2 (30)*
G04*
G04 Layer_Color=16770453*
%FSLAX25Y25*%
%MOIN*%
G70*
G01*
G75*
%ADD47R,0.11024X0.09134*%
%ADD48C,0.00000*%
%ADD49R,0.04685X0.03504*%
G04:AMPARAMS|DCode=50|XSize=23.23mil|YSize=23.23mil|CornerRadius=5.71mil|HoleSize=0mil|Usage=FLASHONLY|Rotation=270.000|XOffset=0mil|YOffset=0mil|HoleType=Round|Shape=RoundedRectangle|*
%AMROUNDEDRECTD50*
21,1,0.02323,0.01181,0,0,270.0*
21,1,0.01181,0.02323,0,0,270.0*
1,1,0.01142,-0.00591,-0.00591*
1,1,0.01142,-0.00591,0.00591*
1,1,0.01142,0.00591,0.00591*
1,1,0.01142,0.00591,-0.00591*
%
%ADD50ROUNDEDRECTD50*%
G04:AMPARAMS|DCode=51|XSize=60.63mil|YSize=23.23mil|CornerRadius=5.71mil|HoleSize=0mil|Usage=FLASHONLY|Rotation=180.000|XOffset=0mil|YOffset=0mil|HoleType=Round|Shape=RoundedRectangle|*
%AMROUNDEDRECTD51*
21,1,0.06063,0.01181,0,0,180.0*
21,1,0.04921,0.02323,0,0,180.0*
1,1,0.01142,-0.02461,0.00591*
1,1,0.01142,0.02461,0.00591*
1,1,0.01142,0.02461,-0.00591*
1,1,0.01142,-0.02461,-0.00591*
%
%ADD51ROUNDEDRECTD51*%
G04:AMPARAMS|DCode=52|XSize=29.13mil|YSize=38.98mil|CornerRadius=7.19mil|HoleSize=0mil|Usage=FLASHONLY|Rotation=180.000|XOffset=0mil|YOffset=0mil|HoleType=Round|Shape=RoundedRectangle|*
%AMROUNDEDRECTD52*
21,1,0.02913,0.02461,0,0,180.0*
21,1,0.01476,0.03898,0,0,180.0*
1,1,0.01437,-0.00738,0.01230*
1,1,0.01437,0.00738,0.01230*
1,1,0.01437,0.00738,-0.01230*
1,1,0.01437,-0.00738,-0.01230*
%
%ADD52ROUNDEDRECTD52*%
G04:AMPARAMS|DCode=53|XSize=29.13mil|YSize=38.98mil|CornerRadius=7.19mil|HoleSize=0mil|Usage=FLASHONLY|Rotation=270.000|XOffset=0mil|YOffset=0mil|HoleType=Round|Shape=RoundedRectangle|*
%AMROUNDEDRECTD53*
21,1,0.02913,0.02461,0,0,270.0*
21,1,0.01476,0.03898,0,0,270.0*
1,1,0.01437,-0.01230,-0.00738*
1,1,0.01437,-0.01230,0.00738*
1,1,0.01437,0.01230,0.00738*
1,1,0.01437,0.01230,-0.00738*
%
%ADD53ROUNDEDRECTD53*%
D47*
X24528Y202795D02*
D03*
X70079Y194055D02*
D03*
X46181Y397677D02*
D03*
X91732Y388937D02*
D03*
X473346Y192205D02*
D03*
X518898Y183465D02*
D03*
X617323Y219803D02*
D03*
X571772Y228543D02*
D03*
X457598Y293347D02*
D03*
X503150Y284606D02*
D03*
X605512Y321496D02*
D03*
X559961Y330236D02*
D03*
X178071Y291378D02*
D03*
X223622Y282638D02*
D03*
X240551Y388937D02*
D03*
X195000Y397677D02*
D03*
X668228Y330748D02*
D03*
X713779Y322008D02*
D03*
X719685Y219803D02*
D03*
X674134Y228543D02*
D03*
X374921Y230354D02*
D03*
X420472Y221614D02*
D03*
X148819Y282638D02*
D03*
X103268Y291378D02*
D03*
X772559Y277598D02*
D03*
X818110Y268858D02*
D03*
Y166496D02*
D03*
X772559Y175236D02*
D03*
X465472Y65591D02*
D03*
X511024Y56850D02*
D03*
X298425Y262953D02*
D03*
X252874Y271693D02*
D03*
X120590Y397677D02*
D03*
X166142Y388937D02*
D03*
X274528Y65591D02*
D03*
X320079Y56850D02*
D03*
D48*
X358268Y338583D02*
D03*
X523622Y354331D02*
D03*
X338583Y409449D02*
D03*
X523622Y347441D02*
D03*
X332283Y388583D02*
D03*
X523622Y340551D02*
D03*
X333071Y401181D02*
D03*
X523622Y333661D02*
D03*
Y326772D02*
D03*
Y319882D02*
D03*
Y409449D02*
D03*
X327756Y351378D02*
D03*
X523622Y402559D02*
D03*
Y395669D02*
D03*
X327756Y358268D02*
D03*
Y365158D02*
D03*
X523622Y388779D02*
D03*
Y381890D02*
D03*
X327756Y372047D02*
D03*
X523622Y375000D02*
D03*
Y368110D02*
D03*
X327756Y378937D02*
D03*
X523622Y361221D02*
D03*
X588976Y287205D02*
D03*
X699606Y291339D02*
D03*
X798425Y242913D02*
D03*
X609252Y188976D02*
D03*
X704724Y189331D02*
D03*
X491142Y253937D02*
D03*
X506890Y152559D02*
D03*
X491732Y33465D02*
D03*
X405905Y188976D02*
D03*
X81102Y358268D02*
D03*
X145669Y342520D02*
D03*
X225787Y358465D02*
D03*
X132283Y244094D02*
D03*
X208268Y250394D02*
D03*
X51575Y170866D02*
D03*
X304724Y26378D02*
D03*
X276772Y12598D02*
D03*
X800000Y140157D02*
D03*
X283071Y228346D02*
D03*
D49*
X47835Y163583D02*
D03*
Y157677D02*
D03*
X26969D02*
D03*
Y163583D02*
D03*
X69488Y358465D02*
D03*
Y352559D02*
D03*
X48622D02*
D03*
Y358465D02*
D03*
X496654Y152992D02*
D03*
Y147087D02*
D03*
X475787D02*
D03*
Y152992D02*
D03*
X574213Y189331D02*
D03*
Y183425D02*
D03*
X595079D02*
D03*
Y189331D02*
D03*
X480905Y254134D02*
D03*
Y248228D02*
D03*
X460039D02*
D03*
Y254134D02*
D03*
X562402Y291024D02*
D03*
Y285118D02*
D03*
X583268D02*
D03*
Y291024D02*
D03*
X201378Y252165D02*
D03*
Y246260D02*
D03*
X180512D02*
D03*
Y252165D02*
D03*
X197441Y358465D02*
D03*
Y352559D02*
D03*
X218307D02*
D03*
Y358465D02*
D03*
X691535Y291535D02*
D03*
Y285630D02*
D03*
X670669D02*
D03*
Y291535D02*
D03*
X676575Y189331D02*
D03*
Y183425D02*
D03*
X697441D02*
D03*
Y189331D02*
D03*
X398228Y191142D02*
D03*
Y185236D02*
D03*
X377362D02*
D03*
Y191142D02*
D03*
X105709Y252165D02*
D03*
Y246260D02*
D03*
X126575D02*
D03*
Y252165D02*
D03*
X795866Y238386D02*
D03*
Y232480D02*
D03*
X775000D02*
D03*
Y238386D02*
D03*
Y136024D02*
D03*
Y130118D02*
D03*
X795866D02*
D03*
Y136024D02*
D03*
X488779Y26378D02*
D03*
Y20472D02*
D03*
X467913D02*
D03*
Y26378D02*
D03*
X255315Y232480D02*
D03*
Y226575D02*
D03*
X276181D02*
D03*
Y232480D02*
D03*
X143898Y358465D02*
D03*
Y352559D02*
D03*
X123031D02*
D03*
Y358465D02*
D03*
X297835Y26378D02*
D03*
Y20472D02*
D03*
X276969D02*
D03*
Y26378D02*
D03*
D50*
X259842Y400492D02*
D03*
Y404626D02*
D03*
D51*
X266929Y404764D02*
D03*
Y399764D02*
D03*
Y394764D02*
D03*
Y389764D02*
D03*
Y384764D02*
D03*
Y379764D02*
D03*
X288189Y404764D02*
D03*
Y399764D02*
D03*
Y394764D02*
D03*
Y389764D02*
D03*
Y384764D02*
D03*
Y379764D02*
D03*
Y374764D02*
D03*
X266929D02*
D03*
D52*
X334646Y372047D02*
D03*
X340551D02*
D03*
D53*
X297244Y387795D02*
D03*
Y393701D02*
D03*
M02*
