G04*
G04 #@! TF.GenerationSoftware,Altium Limited,CircuitStudio,1.5.2 (30)*
G04*
G04 Layer_Color=16770453*
%FSLAX25Y25*%
%MOIN*%
G70*
G01*
G75*
%ADD47R,0.11024X0.09134*%
G04:AMPARAMS|DCode=48|XSize=29.13mil|YSize=38.98mil|CornerRadius=7.19mil|HoleSize=0mil|Usage=FLASHONLY|Rotation=270.000|XOffset=0mil|YOffset=0mil|HoleType=Round|Shape=RoundedRectangle|*
%AMROUNDEDRECTD48*
21,1,0.02913,0.02461,0,0,270.0*
21,1,0.01476,0.03898,0,0,270.0*
1,1,0.01437,-0.01230,-0.00738*
1,1,0.01437,-0.01230,0.00738*
1,1,0.01437,0.01230,0.00738*
1,1,0.01437,0.01230,-0.00738*
%
%ADD48ROUNDEDRECTD48*%
G04:AMPARAMS|DCode=49|XSize=29.13mil|YSize=38.98mil|CornerRadius=7.19mil|HoleSize=0mil|Usage=FLASHONLY|Rotation=180.000|XOffset=0mil|YOffset=0mil|HoleType=Round|Shape=RoundedRectangle|*
%AMROUNDEDRECTD49*
21,1,0.02913,0.02461,0,0,180.0*
21,1,0.01476,0.03898,0,0,180.0*
1,1,0.01437,-0.00738,0.01230*
1,1,0.01437,0.00738,0.01230*
1,1,0.01437,0.00738,-0.01230*
1,1,0.01437,-0.00738,-0.01230*
%
%ADD49ROUNDEDRECTD49*%
%ADD50C,0.00000*%
G04:AMPARAMS|DCode=51|XSize=60.63mil|YSize=23.23mil|CornerRadius=5.71mil|HoleSize=0mil|Usage=FLASHONLY|Rotation=180.000|XOffset=0mil|YOffset=0mil|HoleType=Round|Shape=RoundedRectangle|*
%AMROUNDEDRECTD51*
21,1,0.06063,0.01181,0,0,180.0*
21,1,0.04921,0.02323,0,0,180.0*
1,1,0.01142,-0.02461,0.00591*
1,1,0.01142,0.02461,0.00591*
1,1,0.01142,0.02461,-0.00591*
1,1,0.01142,-0.02461,-0.00591*
%
%ADD51ROUNDEDRECTD51*%
G04:AMPARAMS|DCode=52|XSize=23.23mil|YSize=23.23mil|CornerRadius=5.71mil|HoleSize=0mil|Usage=FLASHONLY|Rotation=270.000|XOffset=0mil|YOffset=0mil|HoleType=Round|Shape=RoundedRectangle|*
%AMROUNDEDRECTD52*
21,1,0.02323,0.01181,0,0,270.0*
21,1,0.01181,0.02323,0,0,270.0*
1,1,0.01142,-0.00591,-0.00591*
1,1,0.01142,-0.00591,0.00591*
1,1,0.01142,0.00591,0.00591*
1,1,0.01142,0.00591,-0.00591*
%
%ADD52ROUNDEDRECTD52*%
%ADD53R,0.04685X0.03504*%
D47*
X367520Y63346D02*
D03*
X321969Y72087D02*
D03*
X71575Y431339D02*
D03*
X117126Y422598D02*
D03*
X191535D02*
D03*
X145984Y431339D02*
D03*
X290472Y269724D02*
D03*
X336024Y260984D02*
D03*
X548425Y63386D02*
D03*
X502874Y72126D02*
D03*
X813898Y220512D02*
D03*
X859449Y211772D02*
D03*
Y314134D02*
D03*
X813898Y322874D02*
D03*
X77677Y320905D02*
D03*
X123228Y312165D02*
D03*
X444095Y239331D02*
D03*
X398543Y248071D02*
D03*
X711535Y258083D02*
D03*
X757087Y249342D02*
D03*
X751181Y351535D02*
D03*
X705630Y360276D02*
D03*
X220394Y431339D02*
D03*
X265945Y422598D02*
D03*
X232480Y312165D02*
D03*
X186929Y320905D02*
D03*
X597362Y359764D02*
D03*
X642913Y351024D02*
D03*
X536614Y314134D02*
D03*
X491063Y322874D02*
D03*
X609173Y258083D02*
D03*
X654724Y249342D02*
D03*
X552362Y212992D02*
D03*
X506811Y221732D02*
D03*
D48*
X326772Y423228D02*
D03*
Y417323D02*
D03*
D49*
X370079Y401575D02*
D03*
X364173D02*
D03*
D50*
X368110Y438976D02*
D03*
Y418307D02*
D03*
Y428150D02*
D03*
X357283Y380906D02*
D03*
Y387795D02*
D03*
Y394685D02*
D03*
Y401575D02*
D03*
X357283Y408465D02*
D03*
X101378Y391732D02*
D03*
X177165D02*
D03*
X250000D02*
D03*
X107283Y281496D02*
D03*
X520669Y283465D02*
D03*
X217520Y281496D02*
D03*
X319882Y230315D02*
D03*
X428150Y208661D02*
D03*
X626968Y320866D02*
D03*
X736221D02*
D03*
X843504Y283465D02*
D03*
X844488Y181102D02*
D03*
X351378Y32480D02*
D03*
X532480D02*
D03*
X536417Y182087D02*
D03*
X638779Y218504D02*
D03*
X741142D02*
D03*
X321850Y19685D02*
D03*
X553150Y383858D02*
D03*
Y397638D02*
D03*
Y390748D02*
D03*
Y376969D02*
D03*
Y370079D02*
D03*
Y363189D02*
D03*
Y356299D02*
D03*
Y349410D02*
D03*
Y404528D02*
D03*
Y411417D02*
D03*
Y418307D02*
D03*
Y425197D02*
D03*
Y432087D02*
D03*
Y438976D02*
D03*
D51*
X296457Y404291D02*
D03*
X317717D02*
D03*
Y409291D02*
D03*
Y414291D02*
D03*
Y419291D02*
D03*
Y424291D02*
D03*
Y429291D02*
D03*
Y434291D02*
D03*
X296457Y409291D02*
D03*
Y414291D02*
D03*
Y419291D02*
D03*
Y424291D02*
D03*
Y429291D02*
D03*
Y434291D02*
D03*
D52*
X289370Y434154D02*
D03*
Y430020D02*
D03*
X73819Y400689D02*
D03*
Y396555D02*
D03*
X147638Y400689D02*
D03*
Y396555D02*
D03*
X222441Y400689D02*
D03*
Y396555D02*
D03*
X79724Y290453D02*
D03*
Y286319D02*
D03*
X188976Y290453D02*
D03*
Y286319D02*
D03*
X292323Y239272D02*
D03*
Y235138D02*
D03*
X400591Y217618D02*
D03*
Y213484D02*
D03*
X493110Y292421D02*
D03*
Y288287D02*
D03*
X599409Y328839D02*
D03*
Y324705D02*
D03*
X707677Y329823D02*
D03*
Y325689D02*
D03*
X815945Y292421D02*
D03*
Y288287D02*
D03*
X323819Y41437D02*
D03*
Y37303D02*
D03*
X504921Y41437D02*
D03*
Y37303D02*
D03*
X508858Y191043D02*
D03*
Y186909D02*
D03*
X611221Y227461D02*
D03*
Y223327D02*
D03*
X713583Y227461D02*
D03*
Y223327D02*
D03*
X815945Y190059D02*
D03*
Y185925D02*
D03*
D53*
X324410Y32874D02*
D03*
Y26969D02*
D03*
X345276D02*
D03*
Y32874D02*
D03*
X94882Y392126D02*
D03*
Y386221D02*
D03*
X74016D02*
D03*
Y392126D02*
D03*
X148425D02*
D03*
Y386221D02*
D03*
X169291D02*
D03*
Y392126D02*
D03*
X313779Y230512D02*
D03*
Y224606D02*
D03*
X292913D02*
D03*
Y230512D02*
D03*
X505315Y32913D02*
D03*
Y27008D02*
D03*
X526181D02*
D03*
Y32913D02*
D03*
X837205Y181299D02*
D03*
Y175394D02*
D03*
X816339D02*
D03*
Y181299D02*
D03*
Y283661D02*
D03*
Y277756D02*
D03*
X837205D02*
D03*
Y283661D02*
D03*
X100984Y281693D02*
D03*
Y275787D02*
D03*
X80118D02*
D03*
Y281693D02*
D03*
X400984Y208858D02*
D03*
Y202953D02*
D03*
X421850D02*
D03*
Y208858D02*
D03*
X734842Y218870D02*
D03*
Y212965D02*
D03*
X713976D02*
D03*
Y218870D02*
D03*
X708071Y321063D02*
D03*
Y315158D02*
D03*
X728937D02*
D03*
Y321063D02*
D03*
X243701Y392126D02*
D03*
Y386221D02*
D03*
X222835D02*
D03*
Y392126D02*
D03*
X189370Y281693D02*
D03*
Y275787D02*
D03*
X210236D02*
D03*
Y281693D02*
D03*
X620669Y320551D02*
D03*
Y314646D02*
D03*
X599803D02*
D03*
Y320551D02*
D03*
X493504Y283661D02*
D03*
Y277756D02*
D03*
X514370D02*
D03*
Y283661D02*
D03*
X632480Y218870D02*
D03*
Y212965D02*
D03*
X611614D02*
D03*
Y218870D02*
D03*
X509252Y182520D02*
D03*
Y176614D02*
D03*
X530118D02*
D03*
Y182520D02*
D03*
M02*
