G04*
G04 #@! TF.GenerationSoftware,Altium Limited,CircuitStudio,1.5.2 (30)*
G04*
G04 Layer_Color=20142*
%FSLAX25Y25*%
%MOIN*%
G70*
G01*
G75*
%ADD28C,0.00394*%
G04:AMPARAMS|DCode=29|XSize=122.05mil|YSize=62.99mil|CornerRadius=16.73mil|HoleSize=0mil|Usage=FLASHONLY|Rotation=0.000|XOffset=0mil|YOffset=0mil|HoleType=Round|Shape=RoundedRectangle|*
%AMROUNDEDRECTD29*
21,1,0.12205,0.02953,0,0,0.0*
21,1,0.08858,0.06299,0,0,0.0*
1,1,0.03347,0.04429,-0.01476*
1,1,0.03347,-0.04429,-0.01476*
1,1,0.03347,-0.04429,0.01476*
1,1,0.03347,0.04429,0.01476*
%
%ADD29ROUNDEDRECTD29*%
G04:AMPARAMS|DCode=30|XSize=62.99mil|YSize=122.05mil|CornerRadius=16.73mil|HoleSize=0mil|Usage=FLASHONLY|Rotation=0.000|XOffset=0mil|YOffset=0mil|HoleType=Round|Shape=RoundedRectangle|*
%AMROUNDEDRECTD30*
21,1,0.06299,0.08858,0,0,0.0*
21,1,0.02953,0.12205,0,0,0.0*
1,1,0.03347,0.01476,-0.04429*
1,1,0.03347,-0.01476,-0.04429*
1,1,0.03347,-0.01476,0.04429*
1,1,0.03347,0.01476,0.04429*
%
%ADD30ROUNDEDRECTD30*%
%ADD31C,0.07874*%
G04:AMPARAMS|DCode=32|XSize=3.94mil|YSize=3.94mil|CornerRadius=0mil|HoleSize=0mil|Usage=FLASHONLY|Rotation=180.000|XOffset=0mil|YOffset=0mil|HoleType=Round|Shape=RoundedRectangle|*
%AMROUNDEDRECTD32*
21,1,0.00394,0.00394,0,0,180.0*
21,1,0.00394,0.00394,0,0,180.0*
1,1,0.00000,-0.00197,0.00197*
1,1,0.00000,0.00197,0.00197*
1,1,0.00000,0.00197,-0.00197*
1,1,0.00000,-0.00197,-0.00197*
%
%ADD32ROUNDEDRECTD32*%
G04:AMPARAMS|DCode=33|XSize=3.94mil|YSize=3.94mil|CornerRadius=0mil|HoleSize=0mil|Usage=FLASHONLY|Rotation=90.000|XOffset=0mil|YOffset=0mil|HoleType=Round|Shape=RoundedRectangle|*
%AMROUNDEDRECTD33*
21,1,0.00394,0.00394,0,0,90.0*
21,1,0.00394,0.00394,0,0,90.0*
1,1,0.00000,0.00197,0.00197*
1,1,0.00000,0.00197,-0.00197*
1,1,0.00000,-0.00197,-0.00197*
1,1,0.00000,-0.00197,0.00197*
%
%ADD33ROUNDEDRECTD33*%
%ADD34C,0.14567*%
%ADD35C,0.10630*%
%ADD36C,0.00394*%
%ADD37C,0.08268*%
%ADD38C,0.03543*%
G36*
X782065Y57920D02*
X782078D01*
X782119Y57879D01*
X782160Y57825D01*
X782174Y57784D01*
X782188Y57770D01*
X782229Y57702D01*
X782242Y57661D01*
X782256Y57633D01*
Y57620D01*
X782283Y57551D01*
X782311Y57497D01*
X782338Y57455D01*
Y57442D01*
X782379Y57373D01*
X782406Y57319D01*
X782434Y57278D01*
Y57264D01*
X782461Y57196D01*
X782475Y57127D01*
X782502Y57073D01*
Y57059D01*
X782529Y56991D01*
X782557Y56922D01*
X782584Y56881D01*
Y56868D01*
X782625Y56745D01*
X782666Y56635D01*
X782693Y56567D01*
X782707Y56553D01*
Y56540D01*
X782762Y56430D01*
X782789Y56321D01*
X782817Y56239D01*
X782830Y56225D01*
Y56212D01*
X782858Y56143D01*
X782871Y56075D01*
Y56020D01*
Y56006D01*
X782885Y55924D01*
X782899Y55870D01*
X782926Y55815D01*
Y55801D01*
X782953Y55719D01*
X782967Y55637D01*
X782994Y55583D01*
Y55569D01*
Y55555D01*
X783022Y55460D01*
X783035Y55391D01*
X783022Y55337D01*
Y55323D01*
X783008Y55268D01*
X782994Y55255D01*
X782953Y55214D01*
X782939Y55200D01*
X782926Y55186D01*
X782844Y55091D01*
X782817Y55063D01*
X782803Y55050D01*
X782707Y54968D01*
X782680Y54940D01*
X782666Y54927D01*
X782598Y54858D01*
X782529Y54790D01*
X782475Y54749D01*
X782461Y54735D01*
X782393Y54667D01*
X782324Y54598D01*
X782270Y54558D01*
X782256Y54544D01*
X782174Y54489D01*
X782106Y54448D01*
X782051Y54421D01*
X782024Y54407D01*
X781942Y54380D01*
X781873Y54339D01*
X781819Y54325D01*
X781791Y54311D01*
X781696Y54257D01*
X781614Y54216D01*
X781559Y54188D01*
X781531Y54175D01*
X781436Y54147D01*
X781354Y54134D01*
X781258D01*
X781162Y54147D01*
X781080Y54161D01*
X780930Y54216D01*
X780875Y54243D01*
X780834Y54257D01*
X780807Y54284D01*
X780793D01*
X780643Y54407D01*
X780520Y54517D01*
X780438Y54585D01*
X780424Y54598D01*
X780411Y54612D01*
X780137Y54899D01*
X780028Y55036D01*
X779932Y55159D01*
X779837Y55255D01*
X779782Y55350D01*
X779741Y55405D01*
X779727Y55419D01*
X779618Y55583D01*
X779495Y55733D01*
X779385Y55870D01*
X779290Y55993D01*
X779194Y56089D01*
X779126Y56157D01*
X779085Y56212D01*
X779071Y56225D01*
X778934Y56553D01*
X778893Y56594D01*
X778880Y56622D01*
Y56690D01*
Y56717D01*
X778866Y56786D01*
X778852Y56854D01*
X778880Y56977D01*
X778907Y57059D01*
X778921Y57073D01*
Y57086D01*
X779003Y57209D01*
X779085Y57292D01*
X779139Y57346D01*
X779167Y57360D01*
X779249Y57401D01*
X779262Y57415D01*
X779276D01*
X779344Y57469D01*
X779372Y57483D01*
Y57497D01*
X779413Y57486D01*
Y57483D01*
X779426D01*
X779413Y57486D01*
Y57497D01*
X779440D01*
X779467Y57510D01*
Y57524D01*
X779577D01*
X779659Y57538D01*
X779686Y57551D01*
X779700D01*
X779768Y57565D01*
X779823Y57579D01*
X779878D01*
X779946Y57592D01*
X780069D01*
X780288Y57633D01*
X780397Y57647D01*
X780479Y57661D01*
X780561Y57674D01*
X780616Y57688D01*
X780670D01*
X780903Y57729D01*
X781012Y57756D01*
X781108Y57770D01*
X781190Y57784D01*
X781245Y57797D01*
X781285Y57811D01*
X781299D01*
X781395Y57838D01*
X781491Y57852D01*
X781545Y57866D01*
X781572D01*
X781682Y57893D01*
X781764Y57907D01*
X781819Y57920D01*
X781846D01*
X781914Y57934D01*
X782037D01*
X782065Y57920D01*
D02*
G37*
G36*
X803397Y62696D02*
Y61896D01*
Y61096D01*
Y60296D01*
Y59496D01*
Y58696D01*
Y57896D01*
Y57096D01*
Y56296D01*
Y55496D01*
Y54696D01*
Y53896D01*
Y53096D01*
Y52296D01*
Y51496D01*
Y50696D01*
X806597D01*
Y51496D01*
Y52296D01*
Y53096D01*
Y53896D01*
X812997D01*
Y53096D01*
Y52296D01*
Y51496D01*
Y50696D01*
X809797D01*
Y49896D01*
Y49096D01*
Y48296D01*
Y47496D01*
Y46696D01*
Y45896D01*
Y45096D01*
Y44296D01*
Y43496D01*
Y42696D01*
Y41896D01*
Y41096D01*
X806597D01*
Y40296D01*
Y39496D01*
Y38696D01*
Y37896D01*
X809797D01*
Y37096D01*
Y36296D01*
Y35496D01*
Y34696D01*
X825797D01*
Y35496D01*
Y36296D01*
Y37096D01*
Y37896D01*
Y38696D01*
Y39496D01*
Y40296D01*
Y41096D01*
Y41896D01*
Y42696D01*
Y43496D01*
Y44296D01*
X828997D01*
Y43496D01*
Y42696D01*
Y41896D01*
Y41096D01*
X832197D01*
Y40296D01*
Y39496D01*
Y38696D01*
Y37896D01*
X828997D01*
Y37096D01*
Y36296D01*
Y35496D01*
Y34696D01*
X832197D01*
Y33896D01*
Y33096D01*
Y32296D01*
Y31496D01*
X800197D01*
Y32296D01*
Y33096D01*
Y33896D01*
Y34696D01*
Y35496D01*
Y36296D01*
Y37096D01*
Y37896D01*
Y38696D01*
Y39496D01*
Y40296D01*
Y41096D01*
Y41896D01*
Y42696D01*
Y43496D01*
Y44296D01*
Y45096D01*
Y45896D01*
Y46696D01*
Y47496D01*
Y48296D01*
Y49096D01*
Y49896D01*
Y50696D01*
Y51496D01*
Y52296D01*
Y53096D01*
Y53896D01*
Y54696D01*
Y55496D01*
Y56296D01*
Y57096D01*
Y57896D01*
Y58696D01*
Y59496D01*
Y60296D01*
Y61096D01*
Y61896D01*
Y62696D01*
Y63496D01*
X803397D01*
Y62696D01*
D02*
G37*
G36*
X785838Y59766D02*
X786056Y59752D01*
X786248Y59738D01*
X786384Y59725D01*
X786439D01*
X786480Y59711D01*
X786507D01*
X786644Y59684D01*
X786754Y59656D01*
X786835Y59643D01*
X786849Y59629D01*
X786863D01*
X786986Y59602D01*
X787095Y59561D01*
X787164Y59547D01*
X787177Y59533D01*
X787287D01*
X787314Y59520D01*
X787328D01*
X787382Y59506D01*
X787423Y59492D01*
X787437Y59479D01*
X787451Y59465D01*
X787492D01*
X787533Y59451D01*
X787546Y59438D01*
X787560D01*
X787628Y59397D01*
X787656Y59383D01*
X787738Y59342D01*
X787820Y59315D01*
X787874Y59301D01*
X787888Y59287D01*
X787970Y59260D01*
X788052Y59219D01*
X788107Y59205D01*
X788121Y59192D01*
X788189Y59137D01*
X788216Y59123D01*
X788284Y59096D01*
X788298Y59082D01*
Y59069D01*
X788367Y59014D01*
X788421Y59000D01*
X788435Y58987D01*
X788476Y58973D01*
X788503Y58959D01*
X788572Y58918D01*
X788626Y58864D01*
X788667Y58823D01*
X788681Y58809D01*
X788763Y58754D01*
X788831Y58713D01*
X788872Y58686D01*
X788886D01*
X788913Y58645D01*
X788954Y58604D01*
X788982Y58563D01*
X788995Y58549D01*
X789050Y58508D01*
X789091Y58481D01*
X789118Y58453D01*
X789132D01*
Y58426D01*
X789159Y58440D01*
X789351Y58207D01*
X789433Y58153D01*
X789488Y58071D01*
X789542Y57961D01*
X789570Y57948D01*
X789610Y57934D01*
X789624Y57907D01*
X789638Y57893D01*
X789665Y57852D01*
X789692Y57811D01*
Y57797D01*
Y57784D01*
X789775Y57674D01*
X789816Y57633D01*
X789829Y57620D01*
X789843Y57579D01*
Y57565D01*
Y57551D01*
X789898Y57524D01*
X789939Y57483D01*
X789952Y57442D01*
X789966Y57428D01*
X790007Y57360D01*
X790034Y57305D01*
X790062Y57278D01*
Y57264D01*
X790075Y57209D01*
X790089Y57196D01*
X790103Y57155D01*
Y57141D01*
Y57127D01*
X790144Y57100D01*
X790171Y57045D01*
X790198Y57004D01*
Y56991D01*
X790239Y56922D01*
X790253Y56868D01*
X790267Y56840D01*
Y56827D01*
X790335Y56649D01*
X790390Y56499D01*
X790417Y56444D01*
X790431Y56389D01*
X790444Y56362D01*
Y56348D01*
X790499Y56171D01*
X790513Y56020D01*
X790526Y55966D01*
Y55924D01*
X790540D01*
X790566Y55610D01*
X790567D01*
Y55596D01*
X790566Y55610D01*
X790540D01*
X790567Y55487D01*
Y55583D01*
X790581Y55487D01*
Y55405D01*
Y55337D01*
Y55323D01*
Y55309D01*
Y55200D01*
Y55104D01*
Y55050D01*
Y55022D01*
Y54954D01*
Y54927D01*
Y54913D01*
Y54872D01*
Y54858D01*
X790567Y54845D01*
Y54790D01*
Y54735D01*
X790554Y54694D01*
Y54681D01*
X790540Y54585D01*
X790526Y54558D01*
Y54544D01*
X790513Y54462D01*
X790485Y54380D01*
X790472Y54325D01*
Y54311D01*
X790458Y54243D01*
Y54175D01*
X790444Y54134D01*
Y54120D01*
X790431Y54024D01*
X790417Y53983D01*
Y53970D01*
X790403Y53929D01*
X790390Y53901D01*
X790376Y53888D01*
X790362D01*
Y53833D01*
Y53792D01*
X790349Y53765D01*
Y53751D01*
X790321Y53683D01*
X790308Y53655D01*
X790294Y53642D01*
X790267Y53560D01*
X790239Y53505D01*
X790226Y53450D01*
X790212Y53437D01*
X790185Y53368D01*
X790144Y53300D01*
X790130Y53259D01*
X790116Y53245D01*
X789952Y52931D01*
X789870Y52794D01*
X789788Y52671D01*
X789720Y52575D01*
X789665Y52493D01*
X789624Y52439D01*
X789610Y52425D01*
X789378Y52165D01*
X789269Y52042D01*
X789159Y51933D01*
X789064Y51851D01*
X788995Y51783D01*
X788941Y51741D01*
X788927Y51728D01*
X788818Y51646D01*
X788722Y51577D01*
X788654Y51523D01*
X788640Y51495D01*
X788626D01*
X788517Y51400D01*
X788421Y51331D01*
X788353Y51277D01*
X788339Y51249D01*
X788326D01*
X788284Y51208D01*
X788257Y51167D01*
X788243Y51140D01*
X788230Y51126D01*
X788216Y51072D01*
Y51031D01*
Y50990D01*
Y50976D01*
X788257Y50921D01*
X788284Y50867D01*
X788312Y50853D01*
X788326Y50839D01*
X788421Y50798D01*
X788449Y50785D01*
X788462D01*
X788599Y50744D01*
X788736Y50730D01*
X788790Y50716D01*
X788818Y50703D01*
X788859D01*
X789009Y50689D01*
X789146D01*
X789200Y50675D01*
X789269D01*
X789364Y50661D01*
X789405Y50648D01*
X789474D01*
X789515Y50661D01*
X789542Y50675D01*
X789556D01*
X789624Y50703D01*
X789692Y50730D01*
X789747Y50757D01*
X789761Y50771D01*
X789843Y50812D01*
X789911Y50826D01*
X789966D01*
X790007Y50880D01*
X790062Y50908D01*
X790103Y50935D01*
X790116D01*
X790198Y50962D01*
X790253Y50990D01*
X790294Y51017D01*
X790308D01*
X790472Y51099D01*
X790608Y51181D01*
X790649Y51208D01*
X790690Y51236D01*
X790718Y51249D01*
X790731D01*
X790882Y51345D01*
X791018Y51413D01*
X791073Y51454D01*
X791114Y51468D01*
X791128Y51495D01*
X791142D01*
X791224Y51550D01*
X791251Y51577D01*
X791265D01*
X791347Y51632D01*
X791374Y51660D01*
X791388D01*
X791442Y51673D01*
X791456Y51687D01*
X791497Y51714D01*
X791524D01*
X791552Y51755D01*
X791579Y51769D01*
X791634Y51796D01*
X791661Y51810D01*
X791770Y51892D01*
X791811Y51906D01*
X791825Y51919D01*
X791893Y51974D01*
X791962Y52001D01*
X792003Y52029D01*
X792016Y52042D01*
X792194Y52138D01*
X792372Y52220D01*
X792536Y52275D01*
X792686Y52316D01*
X792809Y52357D01*
X792919Y52370D01*
X792973Y52384D01*
X793192D01*
X793370Y52370D01*
X793547Y52329D01*
X793698Y52288D01*
X793821Y52234D01*
X793917Y52179D01*
X793971Y52152D01*
X793999Y52138D01*
X794217Y51987D01*
X794299Y51906D01*
X794381Y51824D01*
X794436Y51755D01*
X794477Y51714D01*
X794504Y51673D01*
X794518Y51660D01*
X794668Y51454D01*
X794791Y51263D01*
X794832Y51181D01*
X794860Y51126D01*
X794887Y51085D01*
Y51072D01*
X795051Y50716D01*
X795119Y50552D01*
X795174Y50402D01*
X795215Y50279D01*
X795243Y50183D01*
X795270Y50128D01*
Y50101D01*
X795366Y49746D01*
X795407Y49582D01*
X795448Y49418D01*
X795475Y49294D01*
X795489Y49199D01*
X795502Y49130D01*
Y49103D01*
X795530Y48980D01*
X795543Y48871D01*
X795557Y48789D01*
Y48775D01*
Y48761D01*
X795584Y48638D01*
X795598Y48529D01*
X795612Y48447D01*
Y48433D01*
Y48420D01*
Y48351D01*
X795625Y48283D01*
Y48228D01*
Y48215D01*
X795639Y48146D01*
Y48092D01*
Y48051D01*
Y48037D01*
X795666Y47996D01*
X795680Y47941D01*
Y47900D01*
Y47886D01*
Y47818D01*
Y47763D01*
Y47723D01*
Y47709D01*
Y47559D01*
Y47422D01*
Y47381D01*
Y47340D01*
Y47312D01*
Y47299D01*
Y47148D01*
Y47012D01*
Y46971D01*
Y46930D01*
X795653D01*
X795680Y46875D01*
X795653Y46547D01*
X795612Y46410D01*
X795639Y46356D01*
Y46342D01*
X795625Y46328D01*
X795612Y46314D01*
X795625Y46287D01*
Y46273D01*
Y46260D01*
X795612Y46246D01*
X795598Y46233D01*
X795612Y46205D01*
Y46191D01*
Y46178D01*
X795598D01*
X795584Y46082D01*
Y45959D01*
X795557Y45986D01*
X795584Y45904D01*
X795516Y45754D01*
X795502Y45481D01*
X795489D01*
Y45385D01*
X795461D01*
Y45371D01*
X795448D01*
X795461Y45317D01*
X795434D01*
Y45303D01*
Y45289D01*
Y45276D01*
X795448Y45235D01*
Y45221D01*
X795420D01*
Y45193D01*
Y45180D01*
X795407Y45193D01*
X795420Y45153D01*
X795407D01*
Y45139D01*
X795379D01*
X795407Y45084D01*
X795366D01*
Y45070D01*
X795379Y45043D01*
Y45030D01*
X795366D01*
X795379Y45016D01*
Y45002D01*
X795366D01*
Y44989D01*
Y44975D01*
Y44961D01*
X795352Y44989D01*
X795366Y44947D01*
X795325Y44906D01*
X795346D01*
X795352Y44920D01*
Y44906D01*
X795346D01*
X795325Y44852D01*
Y44866D01*
X795311D01*
X795325Y44811D01*
X795284Y44824D01*
Y44756D01*
X795270Y44770D01*
Y44701D01*
X795256Y44674D01*
Y44660D01*
Y44633D01*
X795243Y44592D01*
X795229Y44578D01*
X795215Y44565D01*
X795229D01*
X795188Y44524D01*
Y44483D01*
X795174D01*
Y44414D01*
X795160D01*
Y44428D01*
X795147Y44360D01*
X795133Y44332D01*
Y44319D01*
X795119Y44278D01*
X795106Y44264D01*
X795092Y44250D01*
X795079D01*
Y44209D01*
X795065Y44196D01*
X795079D01*
Y44182D01*
X795065D01*
Y44114D01*
X795038Y44100D01*
X795024Y44114D01*
X795038Y44086D01*
X795024Y44100D01*
Y44059D01*
X794997Y44086D01*
X794969Y43963D01*
Y43950D01*
X794955Y43936D01*
X794942Y43922D01*
Y43909D01*
Y43895D01*
X794928Y43909D01*
Y43854D01*
X794914Y43799D01*
X794901Y43772D01*
X794887Y43758D01*
X794860Y43717D01*
X794819Y43690D01*
X794805Y43663D01*
X794791D01*
Y43640D01*
X794764Y43594D01*
Y43567D01*
Y43553D01*
X794750Y43540D01*
X794737D01*
Y43512D01*
X794723Y43499D01*
Y43485D01*
X794709Y43457D01*
X794696Y43444D01*
X794668D01*
X794655Y43389D01*
X794641Y43362D01*
Y43348D01*
X794634D01*
X794641Y43362D01*
Y43375D01*
X794614Y43348D01*
X794634D01*
X794627Y43334D01*
X794600Y43293D01*
X794586Y43266D01*
X794545Y43198D01*
X794504Y43157D01*
X794477Y43129D01*
X794463Y43116D01*
X794422Y43061D01*
X794381Y43020D01*
X794368Y42965D01*
X794354Y42924D01*
X794340Y42897D01*
X794327Y42883D01*
X794258Y42801D01*
X794231Y42788D01*
X794217Y42774D01*
X794149Y42678D01*
X794081Y42596D01*
X794040Y42542D01*
X794026Y42514D01*
X793958Y42432D01*
X793903Y42364D01*
X793848Y42309D01*
X793834Y42296D01*
X793752Y42227D01*
X793725Y42213D01*
X793712Y42200D01*
X793684Y42173D01*
X793643Y42159D01*
X793616D01*
X793575Y42063D01*
X793520D01*
X793383Y41913D01*
X793315Y41885D01*
X793274Y41844D01*
X793260Y41831D01*
X793233D01*
Y41790D01*
X793151Y41749D01*
X793137Y41776D01*
X793096Y41708D01*
X793042Y41653D01*
X792987Y41626D01*
X792973Y41612D01*
X792891Y41571D01*
X792823Y41530D01*
X792768Y41516D01*
X792755Y41503D01*
X792686Y41448D01*
X792604Y41407D01*
X792563Y41380D01*
X792536Y41366D01*
X792454Y41325D01*
X792372Y41298D01*
X792317Y41284D01*
X792290Y41270D01*
X792221Y41243D01*
X792153Y41229D01*
X792112Y41216D01*
X792098D01*
X792030Y41188D01*
X791962Y41175D01*
X791921Y41161D01*
X791907Y41147D01*
X791811Y41106D01*
X791716Y41079D01*
X791661Y41052D01*
X791634Y41038D01*
X791538Y41010D01*
X791456Y40997D01*
X791401Y40983D01*
X791374D01*
Y40956D01*
X790813Y40792D01*
X790485Y40696D01*
X790376D01*
X790321Y40683D01*
X790294D01*
X790198Y40669D01*
X790130Y40641D01*
X790089Y40628D01*
X790075D01*
X789898Y40600D01*
X789747Y40573D01*
X789692D01*
X789638Y40559D01*
X789597D01*
X789433Y40546D01*
X789282Y40518D01*
X789214D01*
X789173Y40505D01*
X789132D01*
X789023Y40477D01*
X788968D01*
X788900Y40464D01*
X788859Y40450D01*
X788831Y40436D01*
X788818Y40423D01*
X788654D01*
X788613Y40436D01*
X788503D01*
X788435Y40423D01*
X788394Y40409D01*
X788367Y40395D01*
X788353Y40382D01*
X788326Y40395D01*
X788284D01*
X788257Y40382D01*
X788230D01*
X788148Y40395D01*
X787997D01*
X787915Y40382D01*
X787861Y40368D01*
X787792D01*
X787574Y40341D01*
X787464Y40327D01*
X787382Y40313D01*
X787300Y40300D01*
X787246D01*
X787205Y40286D01*
X787191D01*
X786972Y40259D01*
X786876Y40245D01*
X786781Y40231D01*
X786713D01*
X786658Y40218D01*
X786603D01*
X786507Y40204D01*
X786193D01*
X786138Y40190D01*
X786125D01*
X785906Y40177D01*
X785687Y40163D01*
X785482Y40149D01*
X785168D01*
X785045Y40136D01*
X784949D01*
X784525Y40122D01*
X784320D01*
X784142Y40108D01*
X783678D01*
X783596Y40122D01*
X783541Y40136D01*
X783514D01*
X783418Y40149D01*
X783309D01*
Y40177D01*
X783063D01*
X783035Y40190D01*
X783008D01*
X782953Y40204D01*
X782939Y40218D01*
X782926D01*
X782844Y40231D01*
X782598D01*
X782529Y40245D01*
X782324D01*
X782270Y40259D01*
X782229Y40272D01*
X782215Y40286D01*
X781983D01*
X781928Y40300D01*
X781887Y40313D01*
X781805D01*
X781764Y40327D01*
X781750D01*
X781682Y40335D01*
Y40341D01*
X781673Y40336D01*
X781682Y40335D01*
Y40327D01*
X781655D01*
X781673Y40336D01*
X781409Y40368D01*
X781381Y40395D01*
X781340Y40409D01*
X781231D01*
X781135Y40450D01*
X781039Y40477D01*
X780971Y40505D01*
X780944D01*
X780834Y40518D01*
X780739Y40532D01*
X780657D01*
X780643Y40573D01*
X780588Y40580D01*
Y40600D01*
X780562Y40583D01*
X780301Y40614D01*
X780260Y40628D01*
X780206Y40669D01*
X780137D01*
Y40696D01*
X780110D01*
X779495Y40929D01*
X779235Y40983D01*
X778374Y41393D01*
X778155Y41585D01*
X778087Y41626D01*
X778059Y41639D01*
X778087Y41680D01*
X778032Y41721D01*
X777977Y41762D01*
X777950Y41790D01*
X777936Y41803D01*
X777895Y41858D01*
X777854Y41913D01*
X777827Y41940D01*
X777813Y41954D01*
X777690Y42090D01*
X777595Y42227D01*
X777540Y42282D01*
X777513Y42309D01*
X777499Y42336D01*
X777485Y42350D01*
X777376Y42514D01*
X777280Y42651D01*
X777253Y42706D01*
X777225Y42747D01*
X777198Y42774D01*
Y42788D01*
X777034Y43061D01*
X776966Y43184D01*
X776911Y43293D01*
X776870Y43389D01*
X776829Y43457D01*
X776815Y43512D01*
X776802Y43526D01*
X776692Y43813D01*
X776638Y43950D01*
X776610Y44073D01*
X776569Y44182D01*
X776542Y44264D01*
X776528Y44319D01*
Y44332D01*
X776487Y44565D01*
X776460Y44811D01*
X776433Y45043D01*
Y45248D01*
Y45426D01*
Y45563D01*
Y45617D01*
Y45658D01*
Y45672D01*
Y45686D01*
X776460Y45945D01*
X776487Y46205D01*
X776528Y46424D01*
X776569Y46629D01*
X776610Y46793D01*
X776651Y46916D01*
X776665Y46998D01*
X776679Y47025D01*
X776747Y47217D01*
X776815Y47381D01*
X776843Y47435D01*
X776870Y47490D01*
X776884Y47517D01*
Y47531D01*
X776966Y47709D01*
X777034Y47873D01*
X777061Y47928D01*
X777089Y47982D01*
X777103Y48010D01*
Y48023D01*
X777130Y48092D01*
X777157Y48146D01*
X777184Y48201D01*
Y48215D01*
X777225Y48283D01*
X777280Y48338D01*
X777308Y48351D01*
X777321Y48365D01*
X777294Y48406D01*
X777567Y48816D01*
X777704Y48980D01*
X777813Y49130D01*
X777841Y49117D01*
Y49158D01*
X777882Y49226D01*
X777909Y49253D01*
Y49267D01*
X777950Y49308D01*
X777991Y49336D01*
X778018Y49349D01*
X778032D01*
X778046Y49404D01*
X778059Y49418D01*
X778087Y49445D01*
X778114Y49459D01*
X778141D01*
Y49486D01*
X778128D01*
X778278Y49595D01*
X778292Y49650D01*
X778360Y49677D01*
X778428Y49787D01*
X778470D01*
X778661Y49964D01*
X778893Y50156D01*
X778921Y50183D01*
X778948Y50210D01*
X778989Y50238D01*
X779030Y50251D01*
X779071D01*
Y50292D01*
X779276Y50429D01*
X779344Y50498D01*
X779358Y50511D01*
X779372D01*
X779440Y50552D01*
X779467Y50566D01*
X779563Y50621D01*
X779645Y50675D01*
X779700Y50730D01*
X779727Y50744D01*
X779837Y50812D01*
X779918Y50839D01*
X779973Y50853D01*
X780000D01*
X780028Y50894D01*
X780069Y50921D01*
X780096Y50935D01*
X780110D01*
X780178Y50962D01*
X780219Y50990D01*
X780247Y51003D01*
X780260D01*
X780370Y51072D01*
X780479Y51126D01*
X780547Y51167D01*
X780561Y51181D01*
X780575D01*
X780698Y51249D01*
X780793Y51318D01*
X780862Y51359D01*
X780889Y51372D01*
X780930Y51386D01*
X780971Y51413D01*
X780985Y51441D01*
X780998Y51454D01*
X781053Y51495D01*
X781080Y51509D01*
X781108Y51523D01*
X781121D01*
X781176Y51591D01*
X781204Y51618D01*
X781272Y51714D01*
X781299Y51741D01*
Y51755D01*
X781340Y51851D01*
Y51933D01*
Y52001D01*
Y52029D01*
X781313Y52138D01*
X781272Y52234D01*
X781231Y52288D01*
X781217Y52302D01*
X781190Y52357D01*
X781176Y52384D01*
X781162D01*
X781121Y52452D01*
X781108Y52466D01*
X781026Y52616D01*
X780834Y52917D01*
X780752Y53081D01*
X780739Y53149D01*
X780711Y53190D01*
X780684Y53232D01*
X780670Y53259D01*
Y53272D01*
X780657Y53341D01*
X780629Y53382D01*
X780616Y53409D01*
Y53423D01*
X780575Y53532D01*
X780534Y53628D01*
X780506Y53683D01*
X780493Y53710D01*
X780465Y53819D01*
X780424Y53929D01*
X780411Y53997D01*
X780397Y54011D01*
Y54024D01*
X780356Y54120D01*
X780342Y54161D01*
Y54175D01*
X780329Y54243D01*
X780315Y54298D01*
Y54339D01*
Y54352D01*
X780301Y54366D01*
Y54394D01*
X780288Y54421D01*
Y54435D01*
X780274Y54517D01*
Y54530D01*
Y54544D01*
X780397Y54448D01*
X780506Y54339D01*
X780588Y54257D01*
X780602Y54243D01*
X780616Y54229D01*
X780684Y54175D01*
X780752Y54120D01*
X780889Y54065D01*
X780944Y54038D01*
X780985D01*
X781012Y54024D01*
X781026D01*
X781204Y53997D01*
X781436D01*
X781450Y54011D01*
X781463D01*
X781614Y54065D01*
X781737Y54120D01*
X781791Y54147D01*
X781832Y54161D01*
X781860Y54175D01*
X781873D01*
X781955Y54216D01*
X782037Y54257D01*
X782092Y54270D01*
X782106Y54284D01*
X782201Y54339D01*
X782270Y54380D01*
X782324Y54407D01*
X782338Y54421D01*
X782420Y54489D01*
X782488Y54544D01*
X782543Y54585D01*
X782557Y54598D01*
X782639Y54681D01*
X782707Y54749D01*
X782748Y54790D01*
X782762Y54804D01*
X782830Y54858D01*
X782885Y54913D01*
X782912Y54954D01*
X782926Y54968D01*
X782981Y55036D01*
X783035Y55104D01*
X783063Y55145D01*
X783076Y55159D01*
X783117Y55186D01*
X783145Y55214D01*
X783186Y55268D01*
X783199Y55282D01*
Y55323D01*
X783186Y55350D01*
X783172Y55419D01*
X783158Y55446D01*
X783145Y55528D01*
X783131Y55596D01*
X783117Y55651D01*
X783104Y55665D01*
X783090Y55747D01*
X783076Y55815D01*
X783063Y55870D01*
Y55884D01*
X783035Y55952D01*
X783022Y56006D01*
X783008Y56047D01*
Y56061D01*
Y56129D01*
X782994Y56198D01*
X782981Y56239D01*
X782967Y56253D01*
X782939Y56348D01*
X782899Y56444D01*
X782885Y56499D01*
X782871Y56526D01*
X782830Y56635D01*
X782803Y56731D01*
X782775Y56799D01*
X782762Y56827D01*
X782707Y56950D01*
X782666Y57059D01*
X782639Y57141D01*
X782625Y57155D01*
Y57169D01*
X782571Y57292D01*
X782529Y57387D01*
X782475Y57455D01*
X782461Y57483D01*
X782420Y57565D01*
X782393Y57633D01*
X782379Y57688D01*
X782365Y57702D01*
X782338Y57784D01*
X782311Y57852D01*
X782283Y57893D01*
X782270Y57907D01*
X782229Y57961D01*
X782215Y57989D01*
X782201D01*
X782188Y58030D01*
X782160Y58043D01*
X782147Y58057D01*
X782092Y58084D01*
X781996D01*
X781942Y58071D01*
X781846D01*
X781709Y58057D01*
X781586Y58030D01*
X781504Y58016D01*
X781491Y58002D01*
X781477D01*
X781354Y57975D01*
X781245Y57948D01*
X781162Y57934D01*
X781149Y57920D01*
X781135D01*
X781491Y58399D01*
X781696Y58618D01*
X781709Y58631D01*
Y58645D01*
X781737Y58672D01*
X781750D01*
X781805Y58741D01*
X781832Y58754D01*
X781887Y58795D01*
X781914Y58809D01*
X781983Y58864D01*
X782051Y58891D01*
X782092Y58918D01*
X782106Y58932D01*
X782188Y58987D01*
X782270Y59028D01*
X782324Y59055D01*
X782338Y59069D01*
X782365Y59096D01*
X782406Y59123D01*
X782434Y59151D01*
X782447D01*
X782516Y59178D01*
X782557Y59205D01*
X782598D01*
X782639Y59246D01*
X782666Y59260D01*
X782693Y59274D01*
X782707D01*
X782762Y59287D01*
X782817D01*
X782844Y59301D01*
X782858D01*
X782981Y59356D01*
X783104Y59397D01*
X783186Y59424D01*
X783199Y59438D01*
X783213D01*
X783350Y59479D01*
X783473Y59506D01*
X783568Y59533D01*
X783596D01*
X783855Y59602D01*
X784115Y59670D01*
X784361Y59711D01*
X784580Y59738D01*
X784771Y59766D01*
X784922D01*
X784976Y59779D01*
X785592D01*
X785838Y59766D01*
D02*
G37*
G36*
X780588Y40580D02*
Y40573D01*
X780547D01*
X780562Y40583D01*
X780588Y40580D01*
D02*
G37*
G36*
X794791Y43635D02*
Y43640D01*
X794805Y43663D01*
X794791Y43635D01*
D02*
G37*
G36*
X816197Y46696D02*
Y45896D01*
Y45096D01*
Y44296D01*
X812997D01*
Y45096D01*
Y45896D01*
Y46696D01*
Y47496D01*
X816197D01*
Y46696D01*
D02*
G37*
G36*
Y62696D02*
Y61896D01*
Y61096D01*
Y60296D01*
Y59496D01*
Y58696D01*
Y57896D01*
Y57096D01*
X806597D01*
Y57896D01*
Y58696D01*
Y59496D01*
Y60296D01*
Y61096D01*
Y61896D01*
Y62696D01*
Y63496D01*
X809797D01*
Y62696D01*
Y61896D01*
Y61096D01*
Y60296D01*
X812997D01*
Y61096D01*
Y61896D01*
Y62696D01*
Y63496D01*
X816197D01*
Y62696D01*
D02*
G37*
G36*
X828997D02*
Y61896D01*
Y61096D01*
Y60296D01*
X832197D01*
Y59496D01*
Y58696D01*
Y57896D01*
Y57096D01*
X828997D01*
Y56296D01*
Y55496D01*
Y54696D01*
Y53896D01*
X832197D01*
Y53096D01*
Y52296D01*
Y51496D01*
Y50696D01*
X828997D01*
Y51496D01*
Y52296D01*
Y53096D01*
Y53896D01*
X822597D01*
Y53096D01*
Y52296D01*
Y51496D01*
Y50696D01*
X828997D01*
Y49896D01*
Y49096D01*
Y48296D01*
Y47496D01*
X832197D01*
Y46696D01*
Y45896D01*
Y45096D01*
Y44296D01*
X828997D01*
Y45096D01*
Y45896D01*
Y46696D01*
Y47496D01*
X822597D01*
Y46696D01*
Y45896D01*
Y45096D01*
Y44296D01*
X819397D01*
Y45096D01*
Y45896D01*
Y46696D01*
Y47496D01*
X816197D01*
Y48296D01*
Y49096D01*
Y49896D01*
Y50696D01*
X819397D01*
Y51496D01*
Y52296D01*
Y53096D01*
Y53896D01*
Y54696D01*
Y55496D01*
Y56296D01*
Y57096D01*
Y57896D01*
Y58696D01*
Y59496D01*
Y60296D01*
Y61096D01*
Y61896D01*
Y62696D01*
Y63496D01*
X822597D01*
Y62696D01*
Y61896D01*
Y61096D01*
Y60296D01*
X825797D01*
Y61096D01*
Y61896D01*
Y62696D01*
Y63496D01*
X828997D01*
Y62696D01*
D02*
G37*
G36*
X822597Y40296D02*
Y39496D01*
Y38696D01*
Y37896D01*
X812997D01*
Y38696D01*
Y39496D01*
Y40296D01*
Y41096D01*
X822597D01*
Y40296D01*
D02*
G37*
%LPC*%
G36*
X794737Y43526D02*
X794709D01*
Y43499D01*
X794737Y43526D01*
D02*
G37*
G36*
X806597Y37896D02*
X803397D01*
Y37096D01*
Y36296D01*
Y35496D01*
Y34696D01*
X806597D01*
Y35496D01*
Y36296D01*
Y37096D01*
Y37896D01*
D02*
G37*
G36*
X786630Y56922D02*
X786466D01*
X786412Y56909D01*
X786357Y56895D01*
X786316Y56881D01*
X786302D01*
X786207Y56854D01*
X786166Y56840D01*
X786152Y56827D01*
X786056Y56758D01*
X786015Y56731D01*
X786002Y56717D01*
X785961Y56676D01*
X785920Y56635D01*
X785906Y56608D01*
X785892Y56594D01*
X785810Y56485D01*
X785769Y56376D01*
X785728Y56253D01*
X785715Y56157D01*
Y56061D01*
Y55993D01*
X785728Y55938D01*
Y55924D01*
X785769Y55788D01*
X785810Y55678D01*
X785865Y55569D01*
X785920Y55473D01*
X785974Y55405D01*
X786015Y55350D01*
X786043Y55323D01*
X786056Y55309D01*
X786097Y55282D01*
X786111Y55268D01*
X786152D01*
X786179Y55255D01*
X786207Y55214D01*
X786220Y55200D01*
X786261Y55173D01*
X786275Y55159D01*
X786384D01*
X786425Y55132D01*
X786439Y55118D01*
X786466Y55104D01*
X786480Y55091D01*
X786535Y55104D01*
X786562D01*
X786617Y55118D01*
X786644Y55132D01*
X786767D01*
X786849Y55145D01*
X786876Y55159D01*
X786890D01*
X786959Y55173D01*
X786986Y55186D01*
X787054Y55241D01*
X787082Y55268D01*
X787177Y55337D01*
X787259Y55405D01*
X787300Y55460D01*
X787314Y55473D01*
X787382Y55569D01*
X787423Y55665D01*
X787437Y55747D01*
X787451Y55761D01*
Y55774D01*
X787478Y55938D01*
Y56089D01*
X787451Y56225D01*
X787410Y56348D01*
X787355Y56444D01*
X787314Y56526D01*
X787273Y56581D01*
X787259Y56594D01*
X787136Y56717D01*
X787000Y56813D01*
X786863Y56868D01*
X786740Y56909D01*
X786630Y56922D01*
D02*
G37*
G36*
X806597Y47496D02*
X803397D01*
Y46696D01*
Y45896D01*
Y45096D01*
Y44296D01*
X806597D01*
Y45096D01*
Y45896D01*
Y46696D01*
Y47496D01*
D02*
G37*
%LPD*%
D28*
X776575Y19487D02*
Y17651D01*
X777493Y16732D01*
X778411Y17651D01*
Y19487D01*
X779330Y16732D02*
X780248D01*
X779789D01*
Y19487D01*
X779330Y19028D01*
X781626Y16732D02*
Y17191D01*
X782085D01*
Y16732D01*
X781626D01*
X783921Y19028D02*
X784381Y19487D01*
X785299D01*
X785758Y19028D01*
Y17191D01*
X785299Y16732D01*
X784381D01*
X783921Y17191D01*
Y19028D01*
X778411Y9843D02*
X776575D01*
X778411Y11679D01*
Y12138D01*
X777952Y12598D01*
X777034D01*
X776575Y12138D01*
X779330D02*
X779789Y12598D01*
X780707D01*
X781167Y12138D01*
Y10302D01*
X780707Y9843D01*
X779789D01*
X779330Y10302D01*
Y12138D01*
X783921Y9843D02*
X782085D01*
X783921Y11679D01*
Y12138D01*
X783462Y12598D01*
X782544D01*
X782085Y12138D01*
X784840D02*
X785299Y12598D01*
X786217D01*
X786677Y12138D01*
Y11679D01*
X786217Y11220D01*
X785758D01*
X786217D01*
X786677Y10761D01*
Y10302D01*
X786217Y9843D01*
X785299D01*
X784840Y10302D01*
X787595Y11220D02*
X789432D01*
X790350Y12138D02*
X790809Y12598D01*
X791727D01*
X792187Y12138D01*
Y10302D01*
X791727Y9843D01*
X790809D01*
X790350Y10302D01*
Y12138D01*
X793105Y10302D02*
X793564Y9843D01*
X794482D01*
X794942Y10302D01*
Y12138D01*
X794482Y12598D01*
X793564D01*
X793105Y12138D01*
Y11679D01*
X793564Y11220D01*
X794942D01*
X798615Y9843D02*
X800452Y11679D01*
X805962Y12598D02*
X804125D01*
Y11220D01*
X805043D01*
X804125D01*
Y9843D01*
X806880Y11679D02*
Y9843D01*
Y10761D01*
X807339Y11220D01*
X807798Y11679D01*
X808257D01*
X811013Y9843D02*
X810094D01*
X809635Y10302D01*
Y11220D01*
X810094Y11679D01*
X811013D01*
X811472Y11220D01*
Y10761D01*
X809635D01*
X812390Y9843D02*
X813308D01*
X812849D01*
Y11679D01*
X812390D01*
X814686Y12598D02*
Y9843D01*
X816063D01*
X816523Y10302D01*
Y10761D01*
Y11220D01*
X816063Y11679D01*
X814686D01*
X817441D02*
Y10302D01*
X817900Y9843D01*
X819278D01*
Y11679D01*
X820196D02*
Y9843D01*
Y10761D01*
X820655Y11220D01*
X821114Y11679D01*
X821574D01*
X823869Y8924D02*
X824329D01*
X824788Y9383D01*
Y11679D01*
X823410D01*
X822951Y11220D01*
Y10302D01*
X823410Y9843D01*
X824788D01*
X776575Y23622D02*
Y26377D01*
X777493Y25459D01*
X778411Y26377D01*
Y23622D01*
X779330D02*
Y24081D01*
X779789D01*
Y23622D01*
X779330D01*
X781626Y26377D02*
X783462D01*
X782544D01*
Y23622D01*
X785758D02*
X784840D01*
X784381Y24081D01*
Y25000D01*
X784840Y25459D01*
X785758D01*
X786217Y25000D01*
Y24540D01*
X784381D01*
X787595Y25918D02*
Y25459D01*
X787136D01*
X788054D01*
X787595D01*
Y24081D01*
X788054Y23622D01*
X789891Y25459D02*
X790809D01*
X791268Y25000D01*
Y23622D01*
X789891D01*
X789432Y24081D01*
X789891Y24540D01*
X791268D01*
X792187Y25459D02*
Y23622D01*
Y24540D01*
X792646Y25000D01*
X793105Y25459D01*
X793564D01*
X796778Y26377D02*
Y23622D01*
X795401D01*
X794942Y24081D01*
Y25000D01*
X795401Y25459D01*
X796778D01*
X800452Y23622D02*
X802288Y25459D01*
X805962Y23622D02*
Y26377D01*
X807339D01*
X807798Y25918D01*
Y25000D01*
X807339Y24540D01*
X805962D01*
X808717Y23622D02*
Y24081D01*
X809176D01*
Y23622D01*
X808717D01*
X813768Y26377D02*
X815604D01*
X814686D01*
Y23622D01*
X816523Y25459D02*
Y23622D01*
Y24540D01*
X816982Y25000D01*
X817441Y25459D01*
X817900D01*
X819737D02*
X820655D01*
X821114Y25000D01*
Y23622D01*
X819737D01*
X819278Y24081D01*
X819737Y24540D01*
X821114D01*
X822033Y23622D02*
Y25459D01*
X823410D01*
X823869Y25000D01*
Y23622D01*
X778411Y32808D02*
X777952Y33267D01*
X777034D01*
X776575Y32808D01*
Y32348D01*
X777034Y31889D01*
X777952D01*
X778411Y31430D01*
Y30971D01*
X777952Y30512D01*
X777034D01*
X776575Y30971D01*
X779330Y30512D02*
X780248D01*
X779789D01*
Y33267D01*
X779330D01*
X781626Y30512D02*
X782544D01*
X782085D01*
Y32348D01*
X781626D01*
X783921Y30512D02*
Y32348D01*
X784381D01*
X784840Y31889D01*
Y30512D01*
Y31889D01*
X785299Y32348D01*
X785758Y31889D01*
Y30512D01*
X786677Y33267D02*
Y30512D01*
X788054D01*
X788513Y30971D01*
Y31430D01*
X788054Y31889D01*
X786677D01*
X788054D01*
X788513Y32348D01*
Y32808D01*
X788054Y33267D01*
X786677D01*
X789891Y30512D02*
X790809D01*
X791268Y30971D01*
Y31889D01*
X790809Y32348D01*
X789891D01*
X789432Y31889D01*
Y30971D01*
X789891Y30512D01*
X792187Y32348D02*
X794023Y30512D01*
X793105Y31430D01*
X794023Y32348D01*
X792187Y30512D01*
D29*
X404921Y438465D02*
D03*
X476968D02*
D03*
Y428465D02*
D03*
Y418465D02*
D03*
Y408465D02*
D03*
Y398465D02*
D03*
Y388465D02*
D03*
Y378465D02*
D03*
Y368465D02*
D03*
Y358465D02*
D03*
X404921D02*
D03*
Y368465D02*
D03*
Y378465D02*
D03*
Y388465D02*
D03*
Y398465D02*
D03*
Y408465D02*
D03*
Y418465D02*
D03*
Y428465D02*
D03*
D30*
X460945Y352362D02*
D03*
X450945D02*
D03*
X440945D02*
D03*
X430945D02*
D03*
X420945D02*
D03*
D31*
X59055Y19685D02*
D03*
D32*
X515748Y26614D02*
D03*
Y33307D02*
D03*
X334842Y26575D02*
D03*
Y33268D02*
D03*
X826772Y181693D02*
D03*
Y175000D02*
D03*
Y277362D02*
D03*
Y284055D02*
D03*
X718504Y314764D02*
D03*
Y321457D02*
D03*
X610236Y320945D02*
D03*
Y314252D02*
D03*
X724409Y219264D02*
D03*
Y212571D02*
D03*
X622047Y219264D02*
D03*
Y212571D02*
D03*
X503937Y277362D02*
D03*
Y284055D02*
D03*
X519685Y176221D02*
D03*
Y182913D02*
D03*
X411417Y202559D02*
D03*
Y209252D02*
D03*
X303346Y230906D02*
D03*
Y224213D02*
D03*
X199803Y275394D02*
D03*
Y282087D02*
D03*
X90551D02*
D03*
Y275394D02*
D03*
X233268Y392520D02*
D03*
Y385827D02*
D03*
X158858D02*
D03*
Y392520D02*
D03*
X84449D02*
D03*
Y385827D02*
D03*
D33*
X519095Y29961D02*
D03*
X512402D02*
D03*
X338189Y29921D02*
D03*
X331496D02*
D03*
X823425Y178347D02*
D03*
X830118D02*
D03*
Y280709D02*
D03*
X823425D02*
D03*
X721850Y318110D02*
D03*
X715158D02*
D03*
X606890Y317598D02*
D03*
X613583D02*
D03*
X721063Y215917D02*
D03*
X727756D02*
D03*
X618701D02*
D03*
X625394D02*
D03*
X507283Y280709D02*
D03*
X500591D02*
D03*
X523032Y179567D02*
D03*
X516339D02*
D03*
X414764Y205906D02*
D03*
X408071D02*
D03*
X300000Y227559D02*
D03*
X306693D02*
D03*
X203150Y278740D02*
D03*
X196457D02*
D03*
X87205D02*
D03*
X93898D02*
D03*
X229921Y389173D02*
D03*
X236614D02*
D03*
X162205D02*
D03*
X155512D02*
D03*
X81102D02*
D03*
X87795D02*
D03*
D34*
X515748Y71693D02*
D03*
X535433Y63425D02*
D03*
X334842Y71653D02*
D03*
X354528Y63386D02*
D03*
X846457Y211811D02*
D03*
X826772Y220079D02*
D03*
Y322441D02*
D03*
X846457Y314173D02*
D03*
X718504Y359842D02*
D03*
X738189Y351575D02*
D03*
X629921Y351063D02*
D03*
X610236Y359331D02*
D03*
X744095Y249382D02*
D03*
X724409Y257650D02*
D03*
X641732Y249382D02*
D03*
X622047Y257650D02*
D03*
X503937Y322441D02*
D03*
X523622Y314173D02*
D03*
X519685Y221299D02*
D03*
X539370Y213032D02*
D03*
X411417Y247638D02*
D03*
X431102Y239370D02*
D03*
X323031Y261024D02*
D03*
X303346Y269291D02*
D03*
X199803Y320472D02*
D03*
X219488Y312205D02*
D03*
X110236D02*
D03*
X90551Y320472D02*
D03*
X252953Y422638D02*
D03*
X233268Y430905D02*
D03*
X158858D02*
D03*
X178543Y422638D02*
D03*
X104134D02*
D03*
X84449Y430905D02*
D03*
D35*
X496063Y28189D02*
D03*
X315158Y28150D02*
D03*
X807087Y176575D02*
D03*
Y278937D02*
D03*
X698819Y316339D02*
D03*
X590551Y315827D02*
D03*
X704724Y214146D02*
D03*
X602362D02*
D03*
X484252Y278937D02*
D03*
X500000Y177795D02*
D03*
X391732Y204134D02*
D03*
X283661Y225787D02*
D03*
X180118Y276969D02*
D03*
X70866D02*
D03*
X213583Y387402D02*
D03*
X139173D02*
D03*
X64764D02*
D03*
D36*
X494095Y48465D02*
D03*
X537402D02*
D03*
X515748D02*
D03*
X313189Y48425D02*
D03*
X356496D02*
D03*
X334842D02*
D03*
X826772Y196850D02*
D03*
X848425D02*
D03*
X805118D02*
D03*
Y299213D02*
D03*
X848425D02*
D03*
X826772D02*
D03*
X696850Y336614D02*
D03*
X740158D02*
D03*
X718504D02*
D03*
X610236Y336102D02*
D03*
X631890D02*
D03*
X588583D02*
D03*
X724409Y234421D02*
D03*
X746063D02*
D03*
X702756D02*
D03*
X622047D02*
D03*
X643701D02*
D03*
X600394D02*
D03*
X482283Y299213D02*
D03*
X525591D02*
D03*
X503937D02*
D03*
X498032Y198071D02*
D03*
X541339D02*
D03*
X519685D02*
D03*
X389764Y224410D02*
D03*
X433071D02*
D03*
X411417D02*
D03*
X303346Y246063D02*
D03*
X325000D02*
D03*
X281693D02*
D03*
X178150Y297244D02*
D03*
X221457D02*
D03*
X199803D02*
D03*
X90551D02*
D03*
X112205D02*
D03*
X68898D02*
D03*
X233268Y407677D02*
D03*
X254921D02*
D03*
X211614D02*
D03*
X137205D02*
D03*
X180512D02*
D03*
X158858D02*
D03*
X84449D02*
D03*
X106102D02*
D03*
X62795D02*
D03*
D37*
X440945Y318898D02*
D03*
Y29528D02*
D03*
X852362Y419291D02*
D03*
X29528D02*
D03*
X852362Y29528D02*
D03*
X29528D02*
D03*
D38*
X538386Y356299D02*
D03*
X549213Y366142D02*
D03*
X556102Y373031D02*
D03*
X278740Y434252D02*
D03*
X118110Y393701D02*
D03*
X196850D02*
D03*
X275590D02*
D03*
X196850Y433071D02*
D03*
X118110D02*
D03*
X39370D02*
D03*
Y393701D02*
D03*
Y354331D02*
D03*
X78740D02*
D03*
X118110D02*
D03*
X157480D02*
D03*
X196850D02*
D03*
X236221D02*
D03*
X275590D02*
D03*
X314961D02*
D03*
X354331D02*
D03*
X393701D02*
D03*
X669291Y314961D02*
D03*
X551181D02*
D03*
X669291Y354331D02*
D03*
X590551Y433071D02*
D03*
X629921D02*
D03*
X669291D02*
D03*
X708661D02*
D03*
X748032D02*
D03*
X866142Y393701D02*
D03*
X826772D02*
D03*
Y433071D02*
D03*
X787402D02*
D03*
Y354331D02*
D03*
X826772D02*
D03*
X866142D02*
D03*
X787402Y275590D02*
D03*
X748032D02*
D03*
X708661D02*
D03*
X669291D02*
D03*
X629921D02*
D03*
X590551D02*
D03*
X551181D02*
D03*
X472441D02*
D03*
X433071D02*
D03*
X393701D02*
D03*
X354331D02*
D03*
X275590D02*
D03*
X236221D02*
D03*
X196850Y236221D02*
D03*
X236221D02*
D03*
X275590D02*
D03*
X354331D02*
D03*
X472441D02*
D03*
X511811D02*
D03*
X669291D02*
D03*
X708661D02*
D03*
X787402D02*
D03*
X826772D02*
D03*
X866142Y196850D02*
D03*
X787402D02*
D03*
X748032D02*
D03*
X708661D02*
D03*
X669291D02*
D03*
X551181Y236221D02*
D03*
X590551D02*
D03*
Y196850D02*
D03*
X584646Y208268D02*
D03*
Y193701D02*
D03*
X472441Y196850D02*
D03*
X433071D02*
D03*
X393701D02*
D03*
X354331D02*
D03*
X314961D02*
D03*
X275590D02*
D03*
Y157480D02*
D03*
X314961D02*
D03*
X354331D02*
D03*
X393701D02*
D03*
X433071D02*
D03*
X472441D02*
D03*
X511811D02*
D03*
X551181D02*
D03*
X590551D02*
D03*
X629921D02*
D03*
X669291D02*
D03*
X708661D02*
D03*
X748032D02*
D03*
X787402D02*
D03*
X866142D02*
D03*
X787402Y78740D02*
D03*
X826772D02*
D03*
X866142D02*
D03*
Y118110D02*
D03*
X826772D02*
D03*
X787402D02*
D03*
X748032D02*
D03*
Y78740D02*
D03*
Y39370D02*
D03*
X708661D02*
D03*
Y78740D02*
D03*
Y118110D02*
D03*
X669291D02*
D03*
Y78740D02*
D03*
Y39370D02*
D03*
X629921D02*
D03*
Y78740D02*
D03*
Y118110D02*
D03*
X590551D02*
D03*
Y78740D02*
D03*
Y39370D02*
D03*
X472441D02*
D03*
X551181D02*
D03*
Y78740D02*
D03*
Y118110D02*
D03*
X511811D02*
D03*
X472441Y78740D02*
D03*
Y118110D02*
D03*
X433071D02*
D03*
Y78740D02*
D03*
X393701Y39370D02*
D03*
Y118110D02*
D03*
Y78740D02*
D03*
X354331Y118110D02*
D03*
X275590D02*
D03*
X314961D02*
D03*
X275590Y39370D02*
D03*
Y78740D02*
D03*
X236221Y196850D02*
D03*
X196850D02*
D03*
X236221Y157480D02*
D03*
Y118110D02*
D03*
Y78740D02*
D03*
Y39370D02*
D03*
X196850D02*
D03*
Y78740D02*
D03*
Y118110D02*
D03*
Y157480D02*
D03*
X157480Y118110D02*
D03*
Y78740D02*
D03*
Y39370D02*
D03*
X118110D02*
D03*
Y118110D02*
D03*
X78740D02*
D03*
X118110Y78740D02*
D03*
X78740D02*
D03*
Y39370D02*
D03*
X39370Y78740D02*
D03*
Y118110D02*
D03*
X157480Y157480D02*
D03*
X118110D02*
D03*
X78740D02*
D03*
X39370D02*
D03*
X157480Y196850D02*
D03*
X118110Y275590D02*
D03*
X157480Y236221D02*
D03*
Y275590D02*
D03*
Y314961D02*
D03*
X39370D02*
D03*
Y275590D02*
D03*
Y196850D02*
D03*
X118110D02*
D03*
X78740D02*
D03*
X118110Y236221D02*
D03*
X78740D02*
D03*
X39370D02*
D03*
X636811Y300197D02*
D03*
X340551Y375984D02*
D03*
X352362D02*
D03*
X465551Y315945D02*
D03*
X457677D02*
D03*
X473425D02*
D03*
X465551Y319882D02*
D03*
X473425D02*
D03*
X481299D02*
D03*
X758858Y380906D02*
D03*
Y388779D02*
D03*
X758858Y314961D02*
D03*
Y303150D02*
D03*
X837106Y218012D02*
D03*
Y229823D02*
D03*
X688976Y214567D02*
D03*
Y227362D02*
D03*
X799213Y302165D02*
D03*
Y311024D02*
D03*
X468504Y234252D02*
D03*
Y226378D02*
D03*
X336614Y218504D02*
D03*
X351378D02*
D03*
X343504Y296260D02*
D03*
Y289370D02*
D03*
X347441D02*
D03*
Y313976D02*
D03*
X282480Y318898D02*
D03*
X134843Y299213D02*
D03*
X282480Y339567D02*
D03*
X134843Y341535D02*
D03*
X215551Y379921D02*
D03*
X226378D02*
D03*
X136811Y439961D02*
D03*
X282480Y413386D02*
D03*
X126969Y409449D02*
D03*
Y418307D02*
D03*
X144685Y437992D02*
D03*
X450787Y342520D02*
D03*
X440945D02*
D03*
X431102D02*
D03*
X421260D02*
D03*
X395669Y358268D02*
D03*
Y378937D02*
D03*
Y388779D02*
D03*
Y398622D02*
D03*
Y408465D02*
D03*
Y418307D02*
D03*
Y428150D02*
D03*
Y438976D02*
D03*
X487205D02*
D03*
X486890Y428465D02*
D03*
X487047Y418465D02*
D03*
X487205Y408465D02*
D03*
X487047Y398465D02*
D03*
X486890Y388465D02*
D03*
X486732Y378465D02*
D03*
X486850Y368465D02*
D03*
X487008Y358465D02*
D03*
X473425Y351378D02*
D03*
X326772Y437992D02*
D03*
X289370Y426181D02*
D03*
X100000Y386221D02*
D03*
X69980Y400689D02*
D03*
X144390D02*
D03*
X174409Y386221D02*
D03*
X218799Y400689D02*
D03*
X248819Y386221D02*
D03*
X76083Y290256D02*
D03*
X106102Y275787D02*
D03*
X185335Y290256D02*
D03*
X215354Y275787D02*
D03*
X288878Y239075D02*
D03*
X318898Y224606D02*
D03*
X396949Y217421D02*
D03*
X426968Y202953D02*
D03*
X505217Y191083D02*
D03*
X535236Y176614D02*
D03*
X489468Y292224D02*
D03*
X519488Y277756D02*
D03*
X595768Y329114D02*
D03*
X625787Y314646D02*
D03*
X350394Y26969D02*
D03*
X320374Y41437D02*
D03*
X531299Y27008D02*
D03*
X501279Y41476D02*
D03*
X637598Y212965D02*
D03*
X607579Y227433D02*
D03*
X739961Y212965D02*
D03*
X709941Y227433D02*
D03*
X842323Y175394D02*
D03*
X812303Y189862D02*
D03*
X842323Y277756D02*
D03*
X812303Y292224D02*
D03*
X734055Y315158D02*
D03*
X704035Y329626D02*
D03*
X309055Y302165D02*
D03*
X442913Y293307D02*
D03*
X437992Y293307D02*
D03*
X423228Y308071D02*
D03*
X428150D02*
D03*
X411417Y313976D02*
D03*
X533465Y404528D02*
D03*
X536417Y411417D02*
D03*
X539370Y418307D02*
D03*
X542323Y425197D02*
D03*
X545276Y432087D02*
D03*
X548228Y438976D02*
D03*
X220472Y265748D02*
D03*
Y276575D02*
D03*
X323819Y215551D02*
D03*
Y224410D02*
D03*
X436024Y192913D02*
D03*
Y203740D02*
D03*
X522638Y268701D02*
D03*
Y274606D02*
D03*
X636811Y308071D02*
D03*
X739173Y304134D02*
D03*
Y312008D02*
D03*
X180118Y376969D02*
D03*
Y388779D02*
D03*
X314961Y393701D02*
D03*
M02*
