G04*
G04 #@! TF.GenerationSoftware,Altium Limited,CircuitStudio,1.5.2 (30)*
G04*
G04 Layer_Color=8150272*
%FSLAX25Y25*%
%MOIN*%
G70*
G01*
G75*
%ADD32C,0.08268*%
%ADD33C,0.00394*%
%ADD34C,0.10630*%
%ADD35C,0.14567*%
G04:AMPARAMS|DCode=36|XSize=3.94mil|YSize=3.94mil|CornerRadius=0mil|HoleSize=0mil|Usage=FLASHONLY|Rotation=90.000|XOffset=0mil|YOffset=0mil|HoleType=Round|Shape=RoundedRectangle|*
%AMROUNDEDRECTD36*
21,1,0.00394,0.00394,0,0,90.0*
21,1,0.00394,0.00394,0,0,90.0*
1,1,0.00000,0.00197,0.00197*
1,1,0.00000,0.00197,-0.00197*
1,1,0.00000,-0.00197,-0.00197*
1,1,0.00000,-0.00197,0.00197*
%
%ADD36ROUNDEDRECTD36*%
G04:AMPARAMS|DCode=37|XSize=3.94mil|YSize=3.94mil|CornerRadius=0mil|HoleSize=0mil|Usage=FLASHONLY|Rotation=180.000|XOffset=0mil|YOffset=0mil|HoleType=Round|Shape=RoundedRectangle|*
%AMROUNDEDRECTD37*
21,1,0.00394,0.00394,0,0,180.0*
21,1,0.00394,0.00394,0,0,180.0*
1,1,0.00000,-0.00197,0.00197*
1,1,0.00000,0.00197,0.00197*
1,1,0.00000,0.00197,-0.00197*
1,1,0.00000,-0.00197,-0.00197*
%
%ADD37ROUNDEDRECTD37*%
%ADD38C,0.07874*%
%ADD39C,0.03543*%
%ADD40C,0.04331*%
%ADD41R,0.05118X0.03937*%
G04:AMPARAMS|DCode=42|XSize=155.51mil|YSize=102.36mil|CornerRadius=6.89mil|HoleSize=0mil|Usage=FLASHONLY|Rotation=0.000|XOffset=0mil|YOffset=0mil|HoleType=Round|Shape=RoundedRectangle|*
%AMROUNDEDRECTD42*
21,1,0.15551,0.08858,0,0,0.0*
21,1,0.14173,0.10236,0,0,0.0*
1,1,0.01378,0.07087,-0.04429*
1,1,0.01378,-0.07087,-0.04429*
1,1,0.01378,-0.07087,0.04429*
1,1,0.01378,0.07087,0.04429*
%
%ADD42ROUNDEDRECTD42*%
G04:AMPARAMS|DCode=43|XSize=27.56mil|YSize=27.56mil|CornerRadius=7.87mil|HoleSize=0mil|Usage=FLASHONLY|Rotation=270.000|XOffset=0mil|YOffset=0mil|HoleType=Round|Shape=RoundedRectangle|*
%AMROUNDEDRECTD43*
21,1,0.02756,0.01181,0,0,270.0*
21,1,0.01181,0.02756,0,0,270.0*
1,1,0.01575,-0.00591,-0.00591*
1,1,0.01575,-0.00591,0.00591*
1,1,0.01575,0.00591,0.00591*
1,1,0.01575,0.00591,-0.00591*
%
%ADD43ROUNDEDRECTD43*%
G04:AMPARAMS|DCode=44|XSize=64.96mil|YSize=27.56mil|CornerRadius=7.87mil|HoleSize=0mil|Usage=FLASHONLY|Rotation=180.000|XOffset=0mil|YOffset=0mil|HoleType=Round|Shape=RoundedRectangle|*
%AMROUNDEDRECTD44*
21,1,0.06496,0.01181,0,0,180.0*
21,1,0.04921,0.02756,0,0,180.0*
1,1,0.01575,-0.02461,0.00591*
1,1,0.01575,0.02461,0.00591*
1,1,0.01575,0.02461,-0.00591*
1,1,0.01575,-0.02461,-0.00591*
%
%ADD44ROUNDEDRECTD44*%
G04:AMPARAMS|DCode=45|XSize=33.47mil|YSize=43.31mil|CornerRadius=9.35mil|HoleSize=0mil|Usage=FLASHONLY|Rotation=180.000|XOffset=0mil|YOffset=0mil|HoleType=Round|Shape=RoundedRectangle|*
%AMROUNDEDRECTD45*
21,1,0.03347,0.02461,0,0,180.0*
21,1,0.01476,0.04331,0,0,180.0*
1,1,0.01870,-0.00738,0.01230*
1,1,0.01870,0.00738,0.01230*
1,1,0.01870,0.00738,-0.01230*
1,1,0.01870,-0.00738,-0.01230*
%
%ADD45ROUNDEDRECTD45*%
G04:AMPARAMS|DCode=46|XSize=33.47mil|YSize=43.31mil|CornerRadius=9.35mil|HoleSize=0mil|Usage=FLASHONLY|Rotation=270.000|XOffset=0mil|YOffset=0mil|HoleType=Round|Shape=RoundedRectangle|*
%AMROUNDEDRECTD46*
21,1,0.03347,0.02461,0,0,270.0*
21,1,0.01476,0.04331,0,0,270.0*
1,1,0.01870,-0.01230,-0.00738*
1,1,0.01870,-0.01230,0.00738*
1,1,0.01870,0.01230,0.00738*
1,1,0.01870,0.01230,-0.00738*
%
%ADD46ROUNDEDRECTD46*%
D32*
X474409Y389764D02*
D03*
X348425D02*
D03*
X411417Y0D02*
D03*
X822835Y389764D02*
D03*
X0D02*
D03*
X822835Y0D02*
D03*
X0D02*
D03*
D33*
X37402Y179134D02*
D03*
X59055D02*
D03*
X15748D02*
D03*
X59055Y374016D02*
D03*
X80709D02*
D03*
X37402D02*
D03*
X486221Y168543D02*
D03*
X507874D02*
D03*
X464567D02*
D03*
X562992Y204882D02*
D03*
X606299D02*
D03*
X584646D02*
D03*
X470472Y269685D02*
D03*
X492126D02*
D03*
X448819D02*
D03*
X551181Y306575D02*
D03*
X594488D02*
D03*
X572835D02*
D03*
X190945Y267717D02*
D03*
X212598D02*
D03*
X169291D02*
D03*
X186221Y374016D02*
D03*
X229528D02*
D03*
X207874D02*
D03*
X681102Y307087D02*
D03*
X702756D02*
D03*
X659449D02*
D03*
X665354Y204882D02*
D03*
X708661D02*
D03*
X687008D02*
D03*
X387795Y206693D02*
D03*
X409449D02*
D03*
X366142D02*
D03*
X94488Y267717D02*
D03*
X137795D02*
D03*
X116142D02*
D03*
X785433Y253937D02*
D03*
X807087D02*
D03*
X763779D02*
D03*
Y151575D02*
D03*
X807087D02*
D03*
X785433D02*
D03*
X478346Y41929D02*
D03*
X500000D02*
D03*
X456693D02*
D03*
X244094Y248031D02*
D03*
X287402D02*
D03*
X265748D02*
D03*
X133465Y374016D02*
D03*
X155118D02*
D03*
X111811D02*
D03*
X287402Y41929D02*
D03*
X309055D02*
D03*
X265748D02*
D03*
D34*
X17717Y158858D02*
D03*
X39370Y353740D02*
D03*
X466535Y148268D02*
D03*
X564961Y184606D02*
D03*
X450787Y249410D02*
D03*
X553150Y286299D02*
D03*
X171260Y247441D02*
D03*
X188189Y353740D02*
D03*
X661417Y286811D02*
D03*
X667323Y184606D02*
D03*
X368110Y186417D02*
D03*
X96457Y247441D02*
D03*
X765748Y233661D02*
D03*
Y131299D02*
D03*
X458661Y21654D02*
D03*
X246063Y227756D02*
D03*
X113779Y353740D02*
D03*
X267717Y21654D02*
D03*
D35*
X57087Y194095D02*
D03*
X37402Y202362D02*
D03*
X78740Y388976D02*
D03*
X59055Y397244D02*
D03*
X505905Y183504D02*
D03*
X486221Y191772D02*
D03*
X584646Y228110D02*
D03*
X604331Y219843D02*
D03*
X490158Y284646D02*
D03*
X470472Y292913D02*
D03*
X572835Y329803D02*
D03*
X592520Y321535D02*
D03*
X210630Y282677D02*
D03*
X190945Y290945D02*
D03*
X207874Y397244D02*
D03*
X227559Y388976D02*
D03*
X700787Y322047D02*
D03*
X681102Y330315D02*
D03*
X687008Y228110D02*
D03*
X706693Y219843D02*
D03*
X407480Y221654D02*
D03*
X387795Y229921D02*
D03*
X116142Y290945D02*
D03*
X135827Y282677D02*
D03*
X805118Y268898D02*
D03*
X785433Y277165D02*
D03*
Y174803D02*
D03*
X805118Y166535D02*
D03*
X498032Y56890D02*
D03*
X478346Y65158D02*
D03*
X265748Y271260D02*
D03*
X285433Y262992D02*
D03*
X153150Y388976D02*
D03*
X133465Y397244D02*
D03*
X307087Y56890D02*
D03*
X287402Y65158D02*
D03*
D36*
X34055Y160630D02*
D03*
X40748D02*
D03*
X55709Y355512D02*
D03*
X62402D02*
D03*
X482874Y150039D02*
D03*
X489567D02*
D03*
X587992Y186378D02*
D03*
X581299D02*
D03*
X467126Y251181D02*
D03*
X473819D02*
D03*
X576181Y288071D02*
D03*
X569488D02*
D03*
X187598Y249213D02*
D03*
X194291D02*
D03*
X211221Y355512D02*
D03*
X204528D02*
D03*
X677756Y288583D02*
D03*
X684449D02*
D03*
X690354Y186378D02*
D03*
X683661D02*
D03*
X384449Y188189D02*
D03*
X391142D02*
D03*
X119488Y249213D02*
D03*
X112795D02*
D03*
X782087Y235433D02*
D03*
X788779D02*
D03*
Y133071D02*
D03*
X782087D02*
D03*
X475000Y23425D02*
D03*
X481693D02*
D03*
X269094Y229528D02*
D03*
X262402D02*
D03*
X130118Y355512D02*
D03*
X136811D02*
D03*
X284055Y23425D02*
D03*
X290748D02*
D03*
D37*
X37402Y163976D02*
D03*
Y157283D02*
D03*
X59055Y358858D02*
D03*
Y352165D02*
D03*
X486221Y153386D02*
D03*
Y146693D02*
D03*
X584646Y183031D02*
D03*
Y189724D02*
D03*
X470472Y254528D02*
D03*
Y247835D02*
D03*
X572835Y284724D02*
D03*
Y291417D02*
D03*
X190945Y252559D02*
D03*
Y245866D02*
D03*
X207874Y352165D02*
D03*
Y358858D02*
D03*
X681102Y291929D02*
D03*
Y285236D02*
D03*
X687008Y183031D02*
D03*
Y189724D02*
D03*
X387795Y191535D02*
D03*
Y184843D02*
D03*
X116142Y245866D02*
D03*
Y252559D02*
D03*
X785433Y238779D02*
D03*
Y232087D02*
D03*
Y129724D02*
D03*
Y136417D02*
D03*
X478346Y26772D02*
D03*
Y20079D02*
D03*
X265748Y226181D02*
D03*
Y232874D02*
D03*
X133465Y358858D02*
D03*
Y352165D02*
D03*
X287402Y26772D02*
D03*
Y20079D02*
D03*
D38*
X9843Y19685D02*
D03*
X816929Y364173D02*
D03*
D39*
X88583Y285433D02*
D03*
X49213D02*
D03*
Y246063D02*
D03*
X596457Y194882D02*
D03*
X654724Y191732D02*
D03*
X198819Y364567D02*
D03*
X180315Y275984D02*
D03*
X301181Y31890D02*
D03*
X447244Y23228D02*
D03*
X512205Y158268D02*
D03*
X803150Y127953D02*
D03*
X704724Y181102D02*
D03*
X803150Y232283D02*
D03*
X696850Y282283D02*
D03*
X582677Y278346D02*
D03*
X503937Y141732D02*
D03*
X399606Y179134D02*
D03*
X493701Y15748D02*
D03*
X305118Y17717D02*
D03*
X54724Y157480D02*
D03*
X277559Y220866D02*
D03*
X203543Y241339D02*
D03*
X76772Y351969D02*
D03*
X659842Y174016D02*
D03*
X757480Y281496D02*
D03*
Y272638D02*
D03*
X702559Y282480D02*
D03*
Y274606D02*
D03*
X588976Y278346D02*
D03*
Y270472D02*
D03*
X448819Y285827D02*
D03*
X376378Y298819D02*
D03*
X405905Y169685D02*
D03*
Y182677D02*
D03*
X208268Y240158D02*
D03*
X283071Y220079D02*
D03*
Y212205D02*
D03*
X305118Y188976D02*
D03*
X312205Y273622D02*
D03*
Y261024D02*
D03*
X279528Y282283D02*
D03*
X132283Y225984D02*
D03*
Y236221D02*
D03*
X126378Y240158D02*
D03*
X201969Y232283D02*
D03*
X106299Y398819D02*
D03*
X253150Y325590D02*
D03*
X391339Y285827D02*
D03*
X389469Y282283D02*
D03*
X314961Y302362D02*
D03*
X17323Y277953D02*
D03*
Y260630D02*
D03*
X21260Y267717D02*
D03*
X33071Y337008D02*
D03*
X223622Y352362D02*
D03*
X151181Y342126D02*
D03*
X98425Y374016D02*
D03*
X366496Y338937D02*
D03*
X88583Y364173D02*
D03*
X167323D02*
D03*
X246063D02*
D03*
X167323Y403543D02*
D03*
X88583D02*
D03*
X49213Y324803D02*
D03*
X88583D02*
D03*
X127953D02*
D03*
X167323D02*
D03*
X206693D02*
D03*
X246063D02*
D03*
X250787Y243701D02*
D03*
X127953Y285433D02*
D03*
X191142Y344488D02*
D03*
X201969D02*
D03*
X148425Y351575D02*
D03*
X150591Y359252D02*
D03*
X167323Y206693D02*
D03*
X206693D02*
D03*
X246063D02*
D03*
X127953D02*
D03*
X88583D02*
D03*
X252953Y289370D02*
D03*
X442913Y246063D02*
D03*
X403543D02*
D03*
X364173D02*
D03*
X442913Y206693D02*
D03*
Y167323D02*
D03*
X438976Y204724D02*
D03*
Y196850D02*
D03*
X561024Y88583D02*
D03*
Y49213D02*
D03*
Y9843D02*
D03*
X442913D02*
D03*
X521654D02*
D03*
Y49213D02*
D03*
Y88583D02*
D03*
X482283D02*
D03*
X442913Y49213D02*
D03*
Y88583D02*
D03*
X482283Y206693D02*
D03*
X521654D02*
D03*
X555118Y178740D02*
D03*
Y164173D02*
D03*
X482283Y127953D02*
D03*
X521654D02*
D03*
X442913D02*
D03*
X443898Y286417D02*
D03*
Y290354D02*
D03*
X459941Y262697D02*
D03*
X487795Y248031D02*
D03*
X493110Y239173D02*
D03*
Y245079D02*
D03*
X757874Y246063D02*
D03*
X718504D02*
D03*
X679134D02*
D03*
X639764D02*
D03*
X600394D02*
D03*
X561024D02*
D03*
X521654D02*
D03*
X639764Y206693D02*
D03*
X757874D02*
D03*
X797244D02*
D03*
X836614Y167323D02*
D03*
X757874D02*
D03*
X718504D02*
D03*
X679134D02*
D03*
X639764D02*
D03*
X558661Y211417D02*
D03*
X561024Y167323D02*
D03*
Y127953D02*
D03*
X600394D02*
D03*
X639764D02*
D03*
X679134D02*
D03*
X718504D02*
D03*
X757874D02*
D03*
X836614D02*
D03*
Y88583D02*
D03*
X797244D02*
D03*
X757874D02*
D03*
X718504D02*
D03*
X679134D02*
D03*
X639764D02*
D03*
X600394D02*
D03*
X807579Y188484D02*
D03*
Y200295D02*
D03*
X659449Y197835D02*
D03*
X639764Y285433D02*
D03*
Y324803D02*
D03*
X836614Y364173D02*
D03*
X797244D02*
D03*
X757874Y324803D02*
D03*
X797244D02*
D03*
X836614D02*
D03*
X729331Y351378D02*
D03*
Y359252D02*
D03*
X729331Y285433D02*
D03*
Y273622D02*
D03*
X561024Y403543D02*
D03*
X600394D02*
D03*
X639764D02*
D03*
X679134D02*
D03*
X718504D02*
D03*
X797244D02*
D03*
X757874D02*
D03*
X508858Y326772D02*
D03*
X519685Y336614D02*
D03*
X526575Y343504D02*
D03*
X249213Y404724D02*
D03*
X9843Y403543D02*
D03*
Y364173D02*
D03*
Y324803D02*
D03*
X285433D02*
D03*
X324803D02*
D03*
X364173D02*
D03*
X521654Y285433D02*
D03*
X324803Y246063D02*
D03*
Y206693D02*
D03*
Y167323D02*
D03*
X285433D02*
D03*
X246063D02*
D03*
Y127953D02*
D03*
X285433D02*
D03*
X324803D02*
D03*
X364173D02*
D03*
X403543D02*
D03*
X757874Y49213D02*
D03*
X797244D02*
D03*
X836614D02*
D03*
X718504D02*
D03*
Y9843D02*
D03*
X679134D02*
D03*
Y49213D02*
D03*
X639764D02*
D03*
Y9843D02*
D03*
X600394D02*
D03*
Y49213D02*
D03*
X403543Y88583D02*
D03*
Y49213D02*
D03*
X364173Y9843D02*
D03*
Y88583D02*
D03*
Y49213D02*
D03*
X206693Y167323D02*
D03*
X167323D02*
D03*
X206693Y127953D02*
D03*
Y88583D02*
D03*
Y49213D02*
D03*
Y9843D02*
D03*
X167323D02*
D03*
Y49213D02*
D03*
Y88583D02*
D03*
Y127953D02*
D03*
X127953Y88583D02*
D03*
Y49213D02*
D03*
Y9843D02*
D03*
X88583D02*
D03*
Y88583D02*
D03*
X49213D02*
D03*
X88583Y49213D02*
D03*
X49213D02*
D03*
Y9843D02*
D03*
X9843Y49213D02*
D03*
Y88583D02*
D03*
X127953Y127953D02*
D03*
X88583D02*
D03*
X49213D02*
D03*
X9843D02*
D03*
X127953Y167323D02*
D03*
X9843Y285433D02*
D03*
Y246063D02*
D03*
Y167323D02*
D03*
X88583D02*
D03*
X9843Y206693D02*
D03*
X311024Y346457D02*
D03*
X322835D02*
D03*
X436024Y286417D02*
D03*
X428150D02*
D03*
X436024Y290354D02*
D03*
X321850Y188976D02*
D03*
X317913Y259842D02*
D03*
X252953Y383858D02*
D03*
X421260Y312992D02*
D03*
X411417D02*
D03*
X401575D02*
D03*
X391732D02*
D03*
X366142Y328740D02*
D03*
Y349410D02*
D03*
Y359252D02*
D03*
Y369094D02*
D03*
Y378937D02*
D03*
Y388779D02*
D03*
Y398622D02*
D03*
Y409449D02*
D03*
X457677D02*
D03*
X457362Y398937D02*
D03*
X457520Y388937D02*
D03*
X457677Y378937D02*
D03*
X457520Y368937D02*
D03*
X457362Y358937D02*
D03*
X457205Y348937D02*
D03*
X457323Y338937D02*
D03*
X457480Y328937D02*
D03*
X443898Y321850D02*
D03*
X297244Y408465D02*
D03*
X259842Y396654D02*
D03*
X413386Y263779D02*
D03*
X408465Y263779D02*
D03*
X503937Y375000D02*
D03*
X506890Y381890D02*
D03*
X509842Y388779D02*
D03*
X512795Y395669D02*
D03*
X515748Y402559D02*
D03*
X518701Y409449D02*
D03*
X285433Y364173D02*
D03*
D40*
X358268Y338583D02*
D03*
X523622Y354331D02*
D03*
X338583Y409449D02*
D03*
X523622Y347441D02*
D03*
X332283Y388583D02*
D03*
X523622Y340551D02*
D03*
X333071Y401181D02*
D03*
X523622Y333661D02*
D03*
Y326772D02*
D03*
Y319882D02*
D03*
Y409449D02*
D03*
X327756Y351378D02*
D03*
X523622Y402559D02*
D03*
Y395669D02*
D03*
X327756Y358268D02*
D03*
Y365158D02*
D03*
X523622Y388779D02*
D03*
Y381890D02*
D03*
X327756Y372047D02*
D03*
X523622Y375000D02*
D03*
Y368110D02*
D03*
X327756Y378937D02*
D03*
X523622Y361221D02*
D03*
X588976Y287205D02*
D03*
X699606Y291339D02*
D03*
X798425Y242913D02*
D03*
X609252Y188976D02*
D03*
X704724Y189331D02*
D03*
X491142Y253937D02*
D03*
X506890Y152559D02*
D03*
X491732Y33465D02*
D03*
X405905Y188976D02*
D03*
X81102Y358268D02*
D03*
X145669Y342520D02*
D03*
X225787Y358465D02*
D03*
X132283Y244094D02*
D03*
X208268Y250394D02*
D03*
X51575Y170866D02*
D03*
X304724Y26378D02*
D03*
X276772Y12598D02*
D03*
X800000Y140157D02*
D03*
X283071Y228346D02*
D03*
D41*
X47835Y163583D02*
D03*
Y157677D02*
D03*
X26969D02*
D03*
Y163583D02*
D03*
X69488Y358465D02*
D03*
Y352559D02*
D03*
X48622D02*
D03*
Y358465D02*
D03*
X496654Y152992D02*
D03*
Y147087D02*
D03*
X475787D02*
D03*
Y152992D02*
D03*
X574213Y189331D02*
D03*
Y183425D02*
D03*
X595079D02*
D03*
Y189331D02*
D03*
X480905Y254134D02*
D03*
Y248228D02*
D03*
X460039D02*
D03*
Y254134D02*
D03*
X562402Y291024D02*
D03*
Y285118D02*
D03*
X583268D02*
D03*
Y291024D02*
D03*
X201378Y252165D02*
D03*
Y246260D02*
D03*
X180512D02*
D03*
Y252165D02*
D03*
X197441Y358465D02*
D03*
Y352559D02*
D03*
X218307D02*
D03*
Y358465D02*
D03*
X691535Y291535D02*
D03*
Y285630D02*
D03*
X670669D02*
D03*
Y291535D02*
D03*
X676575Y189331D02*
D03*
Y183425D02*
D03*
X697441D02*
D03*
Y189331D02*
D03*
X398228Y191142D02*
D03*
Y185236D02*
D03*
X377362D02*
D03*
Y191142D02*
D03*
X105709Y252165D02*
D03*
Y246260D02*
D03*
X126575D02*
D03*
Y252165D02*
D03*
X795866Y238386D02*
D03*
Y232480D02*
D03*
X775000D02*
D03*
Y238386D02*
D03*
Y136024D02*
D03*
Y130118D02*
D03*
X795866D02*
D03*
Y136024D02*
D03*
X488779Y26378D02*
D03*
Y20472D02*
D03*
X467913D02*
D03*
Y26378D02*
D03*
X255315Y232480D02*
D03*
Y226575D02*
D03*
X276181D02*
D03*
Y232480D02*
D03*
X143898Y358465D02*
D03*
Y352559D02*
D03*
X123031D02*
D03*
Y358465D02*
D03*
X297835Y26378D02*
D03*
Y20472D02*
D03*
X276969D02*
D03*
Y26378D02*
D03*
D42*
X26181Y202756D02*
D03*
X68307Y194095D02*
D03*
X47835Y397638D02*
D03*
X89961Y388976D02*
D03*
X475000Y192165D02*
D03*
X517126Y183504D02*
D03*
X615551Y219843D02*
D03*
X573425Y228504D02*
D03*
X459252Y293307D02*
D03*
X501378Y284646D02*
D03*
X603740Y321535D02*
D03*
X561614Y330197D02*
D03*
X179724Y291339D02*
D03*
X221850Y282677D02*
D03*
X238779Y388976D02*
D03*
X196653Y397638D02*
D03*
X669882Y330709D02*
D03*
X712008Y322047D02*
D03*
X717913Y219843D02*
D03*
X675787Y228504D02*
D03*
X376575Y230315D02*
D03*
X418701Y221654D02*
D03*
X147047Y282677D02*
D03*
X104921Y291339D02*
D03*
X774213Y277559D02*
D03*
X816339Y268898D02*
D03*
Y166535D02*
D03*
X774213Y175197D02*
D03*
X467126Y65551D02*
D03*
X509252Y56890D02*
D03*
X296654Y262992D02*
D03*
X254528Y271654D02*
D03*
X122244Y397638D02*
D03*
X164370Y388976D02*
D03*
X276181Y65551D02*
D03*
X318307Y56890D02*
D03*
D43*
X259842Y400492D02*
D03*
Y404626D02*
D03*
D44*
X266929Y404764D02*
D03*
Y399764D02*
D03*
Y394764D02*
D03*
Y389764D02*
D03*
Y384764D02*
D03*
Y379764D02*
D03*
X288189Y404764D02*
D03*
Y399764D02*
D03*
Y394764D02*
D03*
Y389764D02*
D03*
Y384764D02*
D03*
Y379764D02*
D03*
Y374764D02*
D03*
X266929D02*
D03*
D45*
X334646Y372047D02*
D03*
X340551D02*
D03*
D46*
X297244Y387795D02*
D03*
Y393701D02*
D03*
M02*
