G04*
G04 #@! TF.GenerationSoftware,Altium Limited,CircuitStudio,1.5.2 (30)*
G04*
G04 Layer_Color=16770453*
%FSLAX25Y25*%
%MOIN*%
G70*
G01*
G75*
%ADD45R,0.04685X0.03504*%
G04:AMPARAMS|DCode=46|XSize=29.13mil|YSize=38.98mil|CornerRadius=7.19mil|HoleSize=0mil|Usage=FLASHONLY|Rotation=270.000|XOffset=0mil|YOffset=0mil|HoleType=Round|Shape=RoundedRectangle|*
%AMROUNDEDRECTD46*
21,1,0.02913,0.02461,0,0,270.0*
21,1,0.01476,0.03898,0,0,270.0*
1,1,0.01437,-0.01230,-0.00738*
1,1,0.01437,-0.01230,0.00738*
1,1,0.01437,0.01230,0.00738*
1,1,0.01437,0.01230,-0.00738*
%
%ADD46ROUNDEDRECTD46*%
G04:AMPARAMS|DCode=47|XSize=29.13mil|YSize=38.98mil|CornerRadius=7.19mil|HoleSize=0mil|Usage=FLASHONLY|Rotation=180.000|XOffset=0mil|YOffset=0mil|HoleType=Round|Shape=RoundedRectangle|*
%AMROUNDEDRECTD47*
21,1,0.02913,0.02461,0,0,180.0*
21,1,0.01476,0.03898,0,0,180.0*
1,1,0.01437,-0.00738,0.01230*
1,1,0.01437,0.00738,0.01230*
1,1,0.01437,0.00738,-0.01230*
1,1,0.01437,-0.00738,-0.01230*
%
%ADD47ROUNDEDRECTD47*%
%ADD48C,0.00000*%
G04:AMPARAMS|DCode=49|XSize=60.63mil|YSize=23.23mil|CornerRadius=5.71mil|HoleSize=0mil|Usage=FLASHONLY|Rotation=180.000|XOffset=0mil|YOffset=0mil|HoleType=Round|Shape=RoundedRectangle|*
%AMROUNDEDRECTD49*
21,1,0.06063,0.01181,0,0,180.0*
21,1,0.04921,0.02323,0,0,180.0*
1,1,0.01142,-0.02461,0.00591*
1,1,0.01142,0.02461,0.00591*
1,1,0.01142,0.02461,-0.00591*
1,1,0.01142,-0.02461,-0.00591*
%
%ADD49ROUNDEDRECTD49*%
G04:AMPARAMS|DCode=50|XSize=23.23mil|YSize=23.23mil|CornerRadius=5.71mil|HoleSize=0mil|Usage=FLASHONLY|Rotation=270.000|XOffset=0mil|YOffset=0mil|HoleType=Round|Shape=RoundedRectangle|*
%AMROUNDEDRECTD50*
21,1,0.02323,0.01181,0,0,270.0*
21,1,0.01181,0.02323,0,0,270.0*
1,1,0.01142,-0.00591,-0.00591*
1,1,0.01142,-0.00591,0.00591*
1,1,0.01142,0.00591,0.00591*
1,1,0.01142,0.00591,-0.00591*
%
%ADD50ROUNDEDRECTD50*%
D45*
X74016Y392126D02*
D03*
Y386221D02*
D03*
X94882D02*
D03*
Y392126D02*
D03*
X169291D02*
D03*
Y386221D02*
D03*
X148425D02*
D03*
Y392126D02*
D03*
X222835D02*
D03*
Y386221D02*
D03*
X243701D02*
D03*
Y392126D02*
D03*
X80118Y281693D02*
D03*
Y275787D02*
D03*
X100984D02*
D03*
Y281693D02*
D03*
X210236D02*
D03*
Y275787D02*
D03*
X189370D02*
D03*
Y281693D02*
D03*
X292913Y230512D02*
D03*
Y224606D02*
D03*
X313779D02*
D03*
Y230512D02*
D03*
X421850Y208858D02*
D03*
Y202953D02*
D03*
X400984D02*
D03*
Y208858D02*
D03*
X530118Y182520D02*
D03*
Y176614D02*
D03*
X509252D02*
D03*
Y182520D02*
D03*
X514370Y283661D02*
D03*
Y277756D02*
D03*
X493504D02*
D03*
Y283661D02*
D03*
X611614Y218870D02*
D03*
Y212965D02*
D03*
X632480D02*
D03*
Y218870D02*
D03*
X713976D02*
D03*
Y212965D02*
D03*
X734842D02*
D03*
Y218870D02*
D03*
X599803Y320551D02*
D03*
Y314646D02*
D03*
X620669D02*
D03*
Y320551D02*
D03*
X728937Y321063D02*
D03*
Y315158D02*
D03*
X708071D02*
D03*
Y321063D02*
D03*
X837205Y283661D02*
D03*
Y277756D02*
D03*
X816339D02*
D03*
Y283661D02*
D03*
Y181299D02*
D03*
Y175394D02*
D03*
X837205D02*
D03*
Y181299D02*
D03*
X345276Y32874D02*
D03*
Y26969D02*
D03*
X324410D02*
D03*
Y32874D02*
D03*
X526181Y32913D02*
D03*
Y27008D02*
D03*
X505315D02*
D03*
Y32913D02*
D03*
D46*
X326772Y423228D02*
D03*
Y417323D02*
D03*
D47*
X370079Y380906D02*
D03*
X364173D02*
D03*
X370079Y387795D02*
D03*
X364173D02*
D03*
X370079Y394685D02*
D03*
X364173D02*
D03*
X370079Y401575D02*
D03*
X364173D02*
D03*
X370079Y408465D02*
D03*
X364173D02*
D03*
X519685Y438976D02*
D03*
X513779D02*
D03*
X519685Y432087D02*
D03*
X513779D02*
D03*
X519685Y425197D02*
D03*
X513779D02*
D03*
X519685Y418307D02*
D03*
X513779D02*
D03*
X519685Y411417D02*
D03*
X513779D02*
D03*
X519685Y404528D02*
D03*
X513779D02*
D03*
X519685Y397638D02*
D03*
X513779D02*
D03*
X519685Y390748D02*
D03*
X513779D02*
D03*
Y383858D02*
D03*
X519685D02*
D03*
X513779Y376969D02*
D03*
X519685D02*
D03*
X513779Y370079D02*
D03*
X519685D02*
D03*
X513779Y363189D02*
D03*
X519685D02*
D03*
X513779Y356299D02*
D03*
X519685D02*
D03*
X513779Y349409D02*
D03*
X519685D02*
D03*
D48*
X368110Y438976D02*
D03*
Y418307D02*
D03*
Y428150D02*
D03*
X357283Y380906D02*
D03*
Y387795D02*
D03*
Y394685D02*
D03*
Y401575D02*
D03*
X357283Y408465D02*
D03*
X101378Y391732D02*
D03*
X177165D02*
D03*
X250000D02*
D03*
X107283Y281496D02*
D03*
X520669Y283465D02*
D03*
X217520Y281496D02*
D03*
X319882Y230315D02*
D03*
X428150Y208661D02*
D03*
X626968Y320866D02*
D03*
X736221D02*
D03*
X843504Y283465D02*
D03*
X844488Y181102D02*
D03*
X351378Y32480D02*
D03*
X532480D02*
D03*
X536417Y182087D02*
D03*
X638779Y218504D02*
D03*
X741142D02*
D03*
X321850Y19685D02*
D03*
X548228Y383858D02*
D03*
X543307Y438976D02*
D03*
X540354Y432087D02*
D03*
X537402Y425197D02*
D03*
X534449Y418307D02*
D03*
X531496Y411417D02*
D03*
X528543Y404528D02*
D03*
X548228Y397638D02*
D03*
Y390748D02*
D03*
Y376969D02*
D03*
Y370079D02*
D03*
X542323Y363189D02*
D03*
X535433Y356299D02*
D03*
X528543Y349410D02*
D03*
D49*
X296457Y404291D02*
D03*
X317717D02*
D03*
Y409291D02*
D03*
Y414291D02*
D03*
Y419291D02*
D03*
Y424291D02*
D03*
Y429291D02*
D03*
Y434291D02*
D03*
X296457Y409291D02*
D03*
Y414291D02*
D03*
Y419291D02*
D03*
Y424291D02*
D03*
Y429291D02*
D03*
Y434291D02*
D03*
D50*
X289370Y434154D02*
D03*
Y430020D02*
D03*
X326772Y434154D02*
D03*
Y430020D02*
D03*
X73819Y400689D02*
D03*
Y396555D02*
D03*
X147638Y400689D02*
D03*
Y396555D02*
D03*
X222441Y400689D02*
D03*
Y396555D02*
D03*
X79724Y290453D02*
D03*
Y286319D02*
D03*
X188976Y290453D02*
D03*
Y286319D02*
D03*
X292323Y239272D02*
D03*
Y235138D02*
D03*
X400591Y217618D02*
D03*
Y213484D02*
D03*
X493110Y292421D02*
D03*
Y288287D02*
D03*
X599409Y328839D02*
D03*
Y324705D02*
D03*
X707677Y329823D02*
D03*
Y325689D02*
D03*
X815945Y292421D02*
D03*
Y288287D02*
D03*
X323819Y41437D02*
D03*
Y37303D02*
D03*
X504921Y41437D02*
D03*
Y37303D02*
D03*
X508858Y191043D02*
D03*
Y186909D02*
D03*
X611221Y227461D02*
D03*
Y223327D02*
D03*
X713583Y227461D02*
D03*
Y223327D02*
D03*
X815945Y190059D02*
D03*
Y185925D02*
D03*
M02*
