G04*
G04 #@! TF.GenerationSoftware,Altium Limited,CircuitStudio,1.5.2 (30)*
G04*
G04 Layer_Color=16770453*
%FSLAX25Y25*%
%MOIN*%
G70*
G01*
G75*
%ADD47R,0.11024X0.09134*%
%ADD48R,0.04685X0.03504*%
%ADD49C,0.00000*%
G04:AMPARAMS|DCode=50|XSize=29.13mil|YSize=38.98mil|CornerRadius=7.19mil|HoleSize=0mil|Usage=FLASHONLY|Rotation=0.000|XOffset=0mil|YOffset=0mil|HoleType=Round|Shape=RoundedRectangle|*
%AMROUNDEDRECTD50*
21,1,0.02913,0.02461,0,0,0.0*
21,1,0.01476,0.03898,0,0,0.0*
1,1,0.01437,0.00738,-0.01230*
1,1,0.01437,-0.00738,-0.01230*
1,1,0.01437,-0.00738,0.01230*
1,1,0.01437,0.00738,0.01230*
%
%ADD50ROUNDEDRECTD50*%
G04:AMPARAMS|DCode=51|XSize=23.23mil|YSize=23.23mil|CornerRadius=5.71mil|HoleSize=0mil|Usage=FLASHONLY|Rotation=270.000|XOffset=0mil|YOffset=0mil|HoleType=Round|Shape=RoundedRectangle|*
%AMROUNDEDRECTD51*
21,1,0.02323,0.01181,0,0,270.0*
21,1,0.01181,0.02323,0,0,270.0*
1,1,0.01142,-0.00591,-0.00591*
1,1,0.01142,-0.00591,0.00591*
1,1,0.01142,0.00591,0.00591*
1,1,0.01142,0.00591,-0.00591*
%
%ADD51ROUNDEDRECTD51*%
G04:AMPARAMS|DCode=52|XSize=60.63mil|YSize=23.23mil|CornerRadius=5.71mil|HoleSize=0mil|Usage=FLASHONLY|Rotation=180.000|XOffset=0mil|YOffset=0mil|HoleType=Round|Shape=RoundedRectangle|*
%AMROUNDEDRECTD52*
21,1,0.06063,0.01181,0,0,180.0*
21,1,0.04921,0.02323,0,0,180.0*
1,1,0.01142,-0.02461,0.00591*
1,1,0.01142,0.02461,0.00591*
1,1,0.01142,0.02461,-0.00591*
1,1,0.01142,-0.02461,-0.00591*
%
%ADD52ROUNDEDRECTD52*%
G04:AMPARAMS|DCode=53|XSize=29.13mil|YSize=38.98mil|CornerRadius=7.19mil|HoleSize=0mil|Usage=FLASHONLY|Rotation=270.000|XOffset=0mil|YOffset=0mil|HoleType=Round|Shape=RoundedRectangle|*
%AMROUNDEDRECTD53*
21,1,0.02913,0.02461,0,0,270.0*
21,1,0.01476,0.03898,0,0,270.0*
1,1,0.01437,-0.01230,-0.00738*
1,1,0.01437,-0.01230,0.00738*
1,1,0.01437,0.01230,0.00738*
1,1,0.01437,0.01230,-0.00738*
%
%ADD53ROUNDEDRECTD53*%
D47*
X506811Y221732D02*
D03*
X552362Y212992D02*
D03*
X654724Y249342D02*
D03*
X609173Y258083D02*
D03*
X491063Y322874D02*
D03*
X536614Y314134D02*
D03*
X642913Y351024D02*
D03*
X597362Y359764D02*
D03*
X186929Y320905D02*
D03*
X232480Y312165D02*
D03*
X265945Y422598D02*
D03*
X220394Y431339D02*
D03*
X705630Y360276D02*
D03*
X751181Y351535D02*
D03*
X757087Y249342D02*
D03*
X711535Y258083D02*
D03*
X398543Y248071D02*
D03*
X444095Y239331D02*
D03*
X123228Y312165D02*
D03*
X77677Y320905D02*
D03*
X813898Y322874D02*
D03*
X859449Y314134D02*
D03*
Y211772D02*
D03*
X813898Y220512D02*
D03*
X502874Y72126D02*
D03*
X548425Y63386D02*
D03*
X336024Y260984D02*
D03*
X290472Y269724D02*
D03*
X145984Y431339D02*
D03*
X191535Y422598D02*
D03*
X117126D02*
D03*
X71575Y431339D02*
D03*
X321969Y72087D02*
D03*
X367520Y63346D02*
D03*
D48*
X530118Y182520D02*
D03*
Y176614D02*
D03*
X509252D02*
D03*
Y182520D02*
D03*
X611614Y218870D02*
D03*
Y212965D02*
D03*
X632480D02*
D03*
Y218870D02*
D03*
X514370Y283661D02*
D03*
Y277756D02*
D03*
X493504D02*
D03*
Y283661D02*
D03*
X599803Y320551D02*
D03*
Y314646D02*
D03*
X620669D02*
D03*
Y320551D02*
D03*
X210236Y281693D02*
D03*
Y275787D02*
D03*
X189370D02*
D03*
Y281693D02*
D03*
X222835Y392126D02*
D03*
Y386221D02*
D03*
X243701D02*
D03*
Y392126D02*
D03*
X728937Y321063D02*
D03*
Y315158D02*
D03*
X708071D02*
D03*
Y321063D02*
D03*
X713976Y218870D02*
D03*
Y212965D02*
D03*
X734842D02*
D03*
Y218870D02*
D03*
X421850Y208858D02*
D03*
Y202953D02*
D03*
X400984D02*
D03*
Y208858D02*
D03*
X80118Y281693D02*
D03*
Y275787D02*
D03*
X100984D02*
D03*
Y281693D02*
D03*
X837205Y283661D02*
D03*
Y277756D02*
D03*
X816339D02*
D03*
Y283661D02*
D03*
Y181299D02*
D03*
Y175394D02*
D03*
X837205D02*
D03*
Y181299D02*
D03*
X526181Y32913D02*
D03*
Y27008D02*
D03*
X505315D02*
D03*
Y32913D02*
D03*
X292913Y230512D02*
D03*
Y224606D02*
D03*
X313779D02*
D03*
Y230512D02*
D03*
X169291Y392126D02*
D03*
Y386221D02*
D03*
X148425D02*
D03*
Y392126D02*
D03*
X74016D02*
D03*
Y386221D02*
D03*
X94882D02*
D03*
Y392126D02*
D03*
X345276Y32874D02*
D03*
Y26969D02*
D03*
X324410D02*
D03*
Y32874D02*
D03*
D49*
X553150Y438976D02*
D03*
Y432087D02*
D03*
Y425197D02*
D03*
Y418307D02*
D03*
Y411417D02*
D03*
Y404528D02*
D03*
Y349410D02*
D03*
Y356299D02*
D03*
Y363189D02*
D03*
Y370079D02*
D03*
Y376969D02*
D03*
Y390748D02*
D03*
Y397638D02*
D03*
Y383858D02*
D03*
X321850Y19685D02*
D03*
X741142Y218504D02*
D03*
X638779D02*
D03*
X536417Y182087D02*
D03*
X532480Y32480D02*
D03*
X351378D02*
D03*
X844488Y181102D02*
D03*
X843504Y283465D02*
D03*
X736221Y320866D02*
D03*
X626968D02*
D03*
X428150Y208661D02*
D03*
X319882Y230315D02*
D03*
X217520Y281496D02*
D03*
X520669Y283465D02*
D03*
X107283Y281496D02*
D03*
X250000Y391732D02*
D03*
X177165D02*
D03*
X101378D02*
D03*
X357283Y408465D02*
D03*
X357283Y401575D02*
D03*
Y394685D02*
D03*
Y387795D02*
D03*
Y380906D02*
D03*
X368110Y428150D02*
D03*
Y418307D02*
D03*
Y438976D02*
D03*
D50*
X519685Y349409D02*
D03*
X513779D02*
D03*
X519685Y356299D02*
D03*
X513779D02*
D03*
X519685Y363189D02*
D03*
X513779D02*
D03*
X519685Y370079D02*
D03*
X513779D02*
D03*
X519685Y376969D02*
D03*
X513779D02*
D03*
X519685Y383858D02*
D03*
X513779D02*
D03*
Y390748D02*
D03*
X519685D02*
D03*
X513779Y397638D02*
D03*
X519685D02*
D03*
X513779Y404528D02*
D03*
X519685D02*
D03*
X513779Y411417D02*
D03*
X519685D02*
D03*
X513779Y418307D02*
D03*
X519685D02*
D03*
X513779Y425197D02*
D03*
X519685D02*
D03*
X513779Y432087D02*
D03*
X519685D02*
D03*
X513779Y438976D02*
D03*
X519685D02*
D03*
X364173Y408465D02*
D03*
X370079D02*
D03*
X364173Y401575D02*
D03*
X370079D02*
D03*
X364173Y394685D02*
D03*
X370079D02*
D03*
X364173Y387795D02*
D03*
X370079D02*
D03*
X364173Y380906D02*
D03*
X370079D02*
D03*
D51*
X815945Y185925D02*
D03*
Y190059D02*
D03*
X713583Y223327D02*
D03*
Y227461D02*
D03*
X611221Y223327D02*
D03*
Y227461D02*
D03*
X508858Y186909D02*
D03*
Y191043D02*
D03*
X504921Y37303D02*
D03*
Y41437D02*
D03*
X323819Y37303D02*
D03*
Y41437D02*
D03*
X815945Y288287D02*
D03*
Y292421D02*
D03*
X707677Y325689D02*
D03*
Y329823D02*
D03*
X599409Y324705D02*
D03*
Y328839D02*
D03*
X493110Y288287D02*
D03*
Y292421D02*
D03*
X400591Y213484D02*
D03*
Y217618D02*
D03*
X292323Y235138D02*
D03*
Y239272D02*
D03*
X188976Y286319D02*
D03*
Y290453D02*
D03*
X79724Y286319D02*
D03*
Y290453D02*
D03*
X222441Y396555D02*
D03*
Y400689D02*
D03*
X147638Y396555D02*
D03*
Y400689D02*
D03*
X73819Y396555D02*
D03*
Y400689D02*
D03*
X326772Y430020D02*
D03*
Y434154D02*
D03*
X289370Y430020D02*
D03*
Y434154D02*
D03*
D52*
X296457Y434291D02*
D03*
Y429291D02*
D03*
Y424291D02*
D03*
Y419291D02*
D03*
Y414291D02*
D03*
Y409291D02*
D03*
X317717Y434291D02*
D03*
Y429291D02*
D03*
Y424291D02*
D03*
Y419291D02*
D03*
Y414291D02*
D03*
Y409291D02*
D03*
Y404291D02*
D03*
X296457D02*
D03*
D53*
X326772Y417323D02*
D03*
Y423228D02*
D03*
M02*
