G04*
G04 #@! TF.GenerationSoftware,Altium Limited,CircuitStudio,1.5.2 (30)*
G04*
G04 Layer_Color=15065295*
%FSLAX25Y25*%
%MOIN*%
G70*
G01*
G75*
%ADD24C,0.00591*%
%ADD25C,0.01000*%
D24*
X476968Y351378D02*
Y354449D01*
X465158Y351378D02*
X476968D01*
X455000D02*
X456968D01*
X445000D02*
X446969D01*
X435000D02*
X436969D01*
X425000D02*
X426968D01*
X404921D02*
X416732D01*
X404921D02*
Y354449D01*
Y362480D02*
Y364449D01*
Y372480D02*
Y374449D01*
Y382480D02*
Y384449D01*
Y392480D02*
Y394449D01*
Y402480D02*
Y404449D01*
Y412480D02*
Y414449D01*
Y422480D02*
Y424449D01*
Y432480D02*
Y434449D01*
X476968Y362480D02*
Y364449D01*
Y372480D02*
Y374449D01*
Y382480D02*
Y384449D01*
Y392480D02*
Y394449D01*
Y402480D02*
Y404449D01*
Y412480D02*
Y414449D01*
Y422480D02*
Y424449D01*
Y432480D02*
Y434449D01*
X479331Y442717D02*
X484055D01*
Y437992D02*
Y442717D01*
X521654Y78386D02*
X545669D01*
X485827D02*
X509842D01*
X545669Y18543D02*
Y78386D01*
X485827Y18543D02*
Y78386D01*
Y18543D02*
X545669D01*
X340748Y78347D02*
X364764D01*
X304921D02*
X328937D01*
X364764Y18504D02*
Y78347D01*
X304921Y18504D02*
Y78347D01*
Y18504D02*
X364764D01*
X796850Y166929D02*
X856693D01*
X796850D02*
Y226772D01*
X856693Y166929D02*
Y226772D01*
X796850D02*
X820866D01*
X832677D02*
X856693D01*
X832677Y329134D02*
X856693D01*
X796850D02*
X820866D01*
X856693Y269291D02*
Y329134D01*
X796850Y269291D02*
Y329134D01*
Y269291D02*
X856693D01*
X724409Y366535D02*
X748425D01*
X688583D02*
X712598D01*
X748425Y306693D02*
Y366535D01*
X688583Y306693D02*
Y366535D01*
Y306693D02*
X748425D01*
X580315Y306181D02*
X640158D01*
X580315D02*
Y366024D01*
X640158Y306181D02*
Y366024D01*
X580315D02*
X604331D01*
X616142D02*
X640158D01*
X694488Y204500D02*
X754331D01*
X694488D02*
Y264342D01*
X754331Y204500D02*
Y264342D01*
X694488D02*
X718504D01*
X730315D02*
X754331D01*
X592126Y204500D02*
X651968D01*
X592126D02*
Y264342D01*
X651968Y204500D02*
Y264342D01*
X592126D02*
X616142D01*
X627953D02*
X651968D01*
X509842Y329134D02*
X533858D01*
X474016D02*
X498032D01*
X533858Y269291D02*
Y329134D01*
X474016Y269291D02*
Y329134D01*
Y269291D02*
X533858D01*
X525591Y227992D02*
X549606D01*
X489764D02*
X513779D01*
X549606Y168150D02*
Y227992D01*
X489764Y168150D02*
Y227992D01*
Y168150D02*
X549606D01*
X417323Y254331D02*
X441339D01*
X381496D02*
X405512D01*
X441339Y194488D02*
Y254331D01*
X381496Y194488D02*
Y254331D01*
Y194488D02*
X441339D01*
X273425Y216142D02*
X333268D01*
X273425D02*
Y275984D01*
X333268Y216142D02*
Y275984D01*
X273425D02*
X297441D01*
X309252D02*
X333268D01*
X205709Y327165D02*
X229724D01*
X169882D02*
X193898D01*
X229724Y267323D02*
Y327165D01*
X169882Y267323D02*
Y327165D01*
Y267323D02*
X229724D01*
X60630D02*
X120472D01*
X60630D02*
Y327165D01*
X120472Y267323D02*
Y327165D01*
X60630D02*
X84646D01*
X96457D02*
X120472D01*
X203346Y377756D02*
X263189D01*
X203346D02*
Y437598D01*
X263189Y377756D02*
Y437598D01*
X203346D02*
X227362D01*
X239173D02*
X263189D01*
X164764D02*
X188779D01*
X128937D02*
X152953D01*
X188779Y377756D02*
Y437598D01*
X128937Y377756D02*
Y437598D01*
Y377756D02*
X188779D01*
X54528D02*
X114370D01*
X54528D02*
Y437598D01*
X114370Y377756D02*
Y437598D01*
X54528D02*
X78543D01*
X90354D02*
X114370D01*
D25*
X325849Y14841D02*
X324849Y15841D01*
X322850D01*
X321850Y14841D01*
Y13841D01*
X322850Y12842D01*
X324849D01*
X325849Y11842D01*
Y10842D01*
X324849Y9843D01*
X322850D01*
X321850Y10842D01*
X327849Y15841D02*
Y9843D01*
X329848Y11842D01*
X331847Y9843D01*
Y15841D01*
X333846Y8843D02*
X337845D01*
X339845Y15841D02*
Y10842D01*
X340844Y9843D01*
X342844D01*
X343843Y10842D01*
Y15841D01*
X345843Y7843D02*
Y13841D01*
X348842D01*
X349841Y12842D01*
Y10842D01*
X348842Y9843D01*
X345843D01*
X73881Y374093D02*
X72881Y375093D01*
X70882D01*
X69882Y374093D01*
Y373093D01*
X70882Y372094D01*
X72881D01*
X73881Y371094D01*
Y370094D01*
X72881Y369094D01*
X70882D01*
X69882Y370094D01*
X75880Y375093D02*
Y369094D01*
X77879Y371094D01*
X79879Y369094D01*
Y375093D01*
X81878Y368095D02*
X85877D01*
X91875Y374093D02*
X90875Y375093D01*
X88876D01*
X87876Y374093D01*
Y373093D01*
X88876Y372094D01*
X90875D01*
X91875Y371094D01*
Y370094D01*
X90875Y369094D01*
X88876D01*
X87876Y370094D01*
X97873Y369094D02*
X93874D01*
X97873Y373093D01*
Y374093D01*
X96873Y375093D01*
X94874D01*
X93874Y374093D01*
X149668D02*
X148668Y375093D01*
X146669D01*
X145669Y374093D01*
Y373093D01*
X146669Y372094D01*
X148668D01*
X149668Y371094D01*
Y370094D01*
X148668Y369094D01*
X146669D01*
X145669Y370094D01*
X151667Y375093D02*
Y369094D01*
X153667Y371094D01*
X155666Y369094D01*
Y375093D01*
X157665Y368095D02*
X161664D01*
X167662Y374093D02*
X166663Y375093D01*
X164663D01*
X163663Y374093D01*
Y373093D01*
X164663Y372094D01*
X166663D01*
X167662Y371094D01*
Y370094D01*
X166663Y369094D01*
X164663D01*
X163663Y370094D01*
X169661Y369094D02*
X171661D01*
X170661D01*
Y375093D01*
X169661Y374093D01*
X287463Y212676D02*
X286464Y213675D01*
X284464D01*
X283465Y212676D01*
Y211676D01*
X284464Y210676D01*
X286464D01*
X287463Y209677D01*
Y208677D01*
X286464Y207677D01*
X284464D01*
X283465Y208677D01*
X289463Y213675D02*
Y207677D01*
X291462Y209677D01*
X293461Y207677D01*
Y213675D01*
X295461Y206678D02*
X299459D01*
X301459Y207677D02*
Y213675D01*
X304458D01*
X305457Y212676D01*
Y210676D01*
X304458Y209677D01*
X301459D01*
X303458D02*
X305457Y207677D01*
X307457D02*
X309456D01*
X308456D01*
Y211676D01*
X307457D01*
X314455Y205678D02*
X315454D01*
X316454Y206678D01*
Y211676D01*
X313455D01*
X312455Y210676D01*
Y208677D01*
X313455Y207677D01*
X316454D01*
X318453Y213675D02*
Y207677D01*
Y210676D01*
X319453Y211676D01*
X321452D01*
X322452Y210676D01*
Y207677D01*
X325451Y212676D02*
Y211676D01*
X324451D01*
X326451D01*
X325451D01*
Y208677D01*
X326451Y207677D01*
X506952Y14841D02*
X505952Y15841D01*
X503952D01*
X502953Y14841D01*
Y13841D01*
X503952Y12842D01*
X505952D01*
X506952Y11842D01*
Y10842D01*
X505952Y9843D01*
X503952D01*
X502953Y10842D01*
X508951Y15841D02*
Y9843D01*
X510950Y11842D01*
X512950Y9843D01*
Y15841D01*
X514949Y8843D02*
X518948D01*
X520947Y9843D02*
Y15841D01*
X523946D01*
X524946Y14841D01*
Y12842D01*
X523946Y11842D01*
X520947D01*
X522946D02*
X524946Y9843D01*
X526945Y14841D02*
X527945Y15841D01*
X529944D01*
X530944Y14841D01*
Y13841D01*
X529944Y12842D01*
X528944D01*
X529944D01*
X530944Y11842D01*
Y10842D01*
X529944Y9843D01*
X527945D01*
X526945Y10842D01*
X816991Y162479D02*
X815991Y163478D01*
X813992D01*
X812992Y162479D01*
Y161479D01*
X813992Y160479D01*
X815991D01*
X816991Y159480D01*
Y158480D01*
X815991Y157480D01*
X813992D01*
X812992Y158480D01*
X818990Y163478D02*
Y157480D01*
X820990Y159480D01*
X822989Y157480D01*
Y163478D01*
X824988Y156481D02*
X828987D01*
X830986Y157480D02*
Y163478D01*
X833985D01*
X834985Y162479D01*
Y160479D01*
X833985Y159480D01*
X830986D01*
X832986D02*
X834985Y157480D01*
X840983D02*
X836984D01*
X840983Y161479D01*
Y162479D01*
X839983Y163478D01*
X837984D01*
X836984Y162479D01*
X820928Y264841D02*
X819928Y265841D01*
X817929D01*
X816929Y264841D01*
Y263841D01*
X817929Y262842D01*
X819928D01*
X820928Y261842D01*
Y260842D01*
X819928Y259842D01*
X817929D01*
X816929Y260842D01*
X822927Y265841D02*
Y259842D01*
X824926Y261842D01*
X826926Y259842D01*
Y265841D01*
X828925Y258843D02*
X832924D01*
X834923Y259842D02*
Y265841D01*
X837922D01*
X838922Y264841D01*
Y262842D01*
X837922Y261842D01*
X834923D01*
X836923D02*
X838922Y259842D01*
X840921D02*
X842921D01*
X841921D01*
Y265841D01*
X840921Y264841D01*
X77818Y263857D02*
X76818Y264856D01*
X74819D01*
X73819Y263857D01*
Y262857D01*
X74819Y261857D01*
X76818D01*
X77818Y260858D01*
Y259858D01*
X76818Y258858D01*
X74819D01*
X73819Y259858D01*
X79817Y264856D02*
Y258858D01*
X81816Y260858D01*
X83816Y258858D01*
Y264856D01*
X85815Y257859D02*
X89814D01*
X91813Y264856D02*
Y258858D01*
X95812D01*
X100810D02*
X98811D01*
X97811Y259858D01*
Y261857D01*
X98811Y262857D01*
X100810D01*
X101810Y261857D01*
Y260858D01*
X97811D01*
X104809Y258858D02*
Y263857D01*
Y261857D01*
X103809D01*
X105808D01*
X104809D01*
Y263857D01*
X105808Y264856D01*
X109807Y263857D02*
Y262857D01*
X108808D01*
X110807D01*
X109807D01*
Y259858D01*
X110807Y258858D01*
X402621Y190038D02*
X401621Y191037D01*
X399622D01*
X398622Y190038D01*
Y189038D01*
X399622Y188038D01*
X401621D01*
X402621Y187039D01*
Y186039D01*
X401621Y185039D01*
X399622D01*
X398622Y186039D01*
X404620Y191037D02*
Y185039D01*
X406620Y187039D01*
X408619Y185039D01*
Y191037D01*
X410618Y184040D02*
X414617D01*
X416616Y191037D02*
Y185039D01*
X420615D01*
X422614Y190038D02*
X423614Y191037D01*
X425613D01*
X426613Y190038D01*
Y189038D01*
X425613Y188038D01*
X424614D01*
X425613D01*
X426613Y187039D01*
Y186039D01*
X425613Y185039D01*
X423614D01*
X422614Y186039D01*
X716597Y200865D02*
X715597Y201864D01*
X713598D01*
X712598Y200865D01*
Y199865D01*
X713598Y198865D01*
X715597D01*
X716597Y197865D01*
Y196866D01*
X715597Y195866D01*
X713598D01*
X712598Y196866D01*
X718597Y201864D02*
Y195866D01*
X720596Y197865D01*
X722595Y195866D01*
Y201864D01*
X724594Y194867D02*
X728593D01*
X730593Y201864D02*
Y195866D01*
X734591D01*
X740589D02*
X736591D01*
X740589Y199865D01*
Y200865D01*
X739590Y201864D01*
X737590D01*
X736591Y200865D01*
X710692Y303227D02*
X709692Y304226D01*
X707693D01*
X706693Y303227D01*
Y302227D01*
X707693Y301227D01*
X709692D01*
X710692Y300228D01*
Y299228D01*
X709692Y298228D01*
X707693D01*
X706693Y299228D01*
X712691Y304226D02*
Y298228D01*
X714690Y300228D01*
X716690Y298228D01*
Y304226D01*
X718689Y297229D02*
X722688D01*
X724687Y304226D02*
Y298228D01*
X728686D01*
X730685D02*
X732685D01*
X731685D01*
Y304226D01*
X730685Y303227D01*
X218566Y374093D02*
X217566Y375093D01*
X215567D01*
X214567Y374093D01*
Y373093D01*
X215567Y372094D01*
X217566D01*
X218566Y371094D01*
Y370094D01*
X217566Y369094D01*
X215567D01*
X214567Y370094D01*
X220565Y375093D02*
Y369094D01*
X222564Y371094D01*
X224564Y369094D01*
Y375093D01*
X226563Y368095D02*
X230562D01*
X232561Y375093D02*
Y369094D01*
Y372094D01*
X236560D01*
Y375093D01*
Y369094D01*
X239559D02*
X241558D01*
X242558Y370094D01*
Y372094D01*
X241558Y373093D01*
X239559D01*
X238559Y372094D01*
Y370094D01*
X239559Y369094D01*
X244557D02*
Y373093D01*
X245557D01*
X246557Y372094D01*
Y369094D01*
Y372094D01*
X247556Y373093D01*
X248556Y372094D01*
Y369094D01*
X253554D02*
X251555D01*
X250555Y370094D01*
Y372094D01*
X251555Y373093D01*
X253554D01*
X254554Y372094D01*
Y371094D01*
X250555D01*
X185101Y263857D02*
X184101Y264856D01*
X182102D01*
X181102Y263857D01*
Y262857D01*
X182102Y261857D01*
X184101D01*
X185101Y260858D01*
Y259858D01*
X184101Y258858D01*
X182102D01*
X181102Y259858D01*
X187100Y264856D02*
Y258858D01*
X189100Y260858D01*
X191099Y258858D01*
Y264856D01*
X193098Y257859D02*
X197097D01*
X199097Y264856D02*
Y258858D01*
X202096D01*
X203095Y259858D01*
Y263857D01*
X202096Y264856D01*
X199097D01*
X206094Y258858D02*
X208094D01*
X209093Y259858D01*
Y261857D01*
X208094Y262857D01*
X206094D01*
X205095Y261857D01*
Y259858D01*
X206094Y258858D01*
X211093Y262857D02*
Y259858D01*
X212092Y258858D01*
X213092Y259858D01*
X214092Y258858D01*
X215091Y259858D01*
Y262857D01*
X217091Y258858D02*
Y262857D01*
X220090D01*
X221089Y261857D01*
Y258858D01*
X601440Y302242D02*
X600440Y303242D01*
X598441D01*
X597441Y302242D01*
Y301243D01*
X598441Y300243D01*
X600440D01*
X601440Y299243D01*
Y298244D01*
X600440Y297244D01*
X598441D01*
X597441Y298244D01*
X603439Y303242D02*
Y297244D01*
X605438Y299243D01*
X607438Y297244D01*
Y303242D01*
X609437Y296244D02*
X613436D01*
X615435Y303242D02*
Y297244D01*
X618434D01*
X619434Y298244D01*
Y299243D01*
X618434Y300243D01*
X615435D01*
X618434D01*
X619434Y301243D01*
Y302242D01*
X618434Y303242D01*
X615435D01*
X624432Y297244D02*
Y303242D01*
X621433Y300243D01*
X625432D01*
X496125Y265825D02*
X495125Y266825D01*
X493126D01*
X492126Y265825D01*
Y264826D01*
X493126Y263826D01*
X495125D01*
X496125Y262826D01*
Y261826D01*
X495125Y260827D01*
X493126D01*
X492126Y261826D01*
X498124Y266825D02*
Y260827D01*
X500123Y262826D01*
X502123Y260827D01*
Y266825D01*
X504122Y259827D02*
X508121D01*
X510120Y266825D02*
Y260827D01*
X513119D01*
X514119Y261826D01*
Y262826D01*
X513119Y263826D01*
X510120D01*
X513119D01*
X514119Y264826D01*
Y265825D01*
X513119Y266825D01*
X510120D01*
X516118Y265825D02*
X517118Y266825D01*
X519117D01*
X520117Y265825D01*
Y264826D01*
X519117Y263826D01*
X518118D01*
X519117D01*
X520117Y262826D01*
Y261826D01*
X519117Y260827D01*
X517118D01*
X516118Y261826D01*
X613251Y200865D02*
X612251Y201864D01*
X610252D01*
X609252Y200865D01*
Y199865D01*
X610252Y198865D01*
X612251D01*
X613251Y197865D01*
Y196866D01*
X612251Y195866D01*
X610252D01*
X609252Y196866D01*
X615250Y201864D02*
Y195866D01*
X617249Y197865D01*
X619249Y195866D01*
Y201864D01*
X621248Y194867D02*
X625247D01*
X627246Y201864D02*
Y195866D01*
X630245D01*
X631245Y196866D01*
Y197865D01*
X630245Y198865D01*
X627246D01*
X630245D01*
X631245Y199865D01*
Y200865D01*
X630245Y201864D01*
X627246D01*
X637243Y195866D02*
X633244D01*
X637243Y199865D01*
Y200865D01*
X636243Y201864D01*
X634244D01*
X633244Y200865D01*
X512857Y164447D02*
X511857Y165447D01*
X509858D01*
X508858Y164447D01*
Y163447D01*
X509858Y162448D01*
X511857D01*
X512857Y161448D01*
Y160449D01*
X511857Y159449D01*
X509858D01*
X508858Y160449D01*
X514856Y165447D02*
Y159449D01*
X516856Y161448D01*
X518855Y159449D01*
Y165447D01*
X520854Y158449D02*
X524853D01*
X526853Y165447D02*
Y159449D01*
X529851D01*
X530851Y160449D01*
Y161448D01*
X529851Y162448D01*
X526853D01*
X529851D01*
X530851Y163447D01*
Y164447D01*
X529851Y165447D01*
X526853D01*
X532851Y159449D02*
X534850D01*
X533850D01*
Y165447D01*
X532851Y164447D01*
X388779Y347533D02*
X390779D01*
X389779D01*
Y341535D01*
X388779D01*
X390779D01*
X397777Y346534D02*
X396777Y347533D01*
X394778D01*
X393778Y346534D01*
Y342535D01*
X394778Y341535D01*
X396777D01*
X397777Y342535D01*
X399776Y341535D02*
X401775D01*
X400776D01*
Y347533D01*
X399776Y346534D01*
X404774D02*
X405774Y347533D01*
X407773D01*
X408773Y346534D01*
Y342535D01*
X407773Y341535D01*
X405774D01*
X404774Y342535D01*
Y346534D01*
X410772D02*
X411772Y347533D01*
X413771D01*
X414771Y346534D01*
Y342535D01*
X413771Y341535D01*
X411772D01*
X410772Y342535D01*
Y346534D01*
M02*
