G04*
G04 #@! TF.GenerationSoftware,Altium Limited,CircuitStudio,1.5.2 (30)*
G04*
G04 Layer_Physical_Order=2*
G04 Layer_Color=26367*
%FSLAX25Y25*%
%MOIN*%
G70*
G01*
G75*
%ADD12C,0.01181*%
%ADD13C,0.03937*%
%ADD14C,0.07874*%
%ADD15C,0.14173*%
%ADD16C,0.10236*%
%ADD17C,0.03150*%
G04:AMPARAMS|DCode=18|XSize=29.53mil|YSize=39.37mil|CornerRadius=7.38mil|HoleSize=0mil|Usage=FLASHONLY|Rotation=270.000|XOffset=0mil|YOffset=0mil|HoleType=Round|Shape=RoundedRectangle|*
%AMROUNDEDRECTD18*
21,1,0.02953,0.02461,0,0,270.0*
21,1,0.01476,0.03937,0,0,270.0*
1,1,0.01476,-0.01230,-0.00738*
1,1,0.01476,-0.01230,0.00738*
1,1,0.01476,0.01230,0.00738*
1,1,0.01476,0.01230,-0.00738*
%
%ADD18ROUNDEDRECTD18*%
G04:AMPARAMS|DCode=19|XSize=61.02mil|YSize=23.62mil|CornerRadius=5.91mil|HoleSize=0mil|Usage=FLASHONLY|Rotation=180.000|XOffset=0mil|YOffset=0mil|HoleType=Round|Shape=RoundedRectangle|*
%AMROUNDEDRECTD19*
21,1,0.06102,0.01181,0,0,180.0*
21,1,0.04921,0.02362,0,0,180.0*
1,1,0.01181,-0.02461,0.00591*
1,1,0.01181,0.02461,0.00591*
1,1,0.01181,0.02461,-0.00591*
1,1,0.01181,-0.02461,-0.00591*
%
%ADD19ROUNDEDRECTD19*%
G04:AMPARAMS|DCode=20|XSize=23.62mil|YSize=23.62mil|CornerRadius=5.91mil|HoleSize=0mil|Usage=FLASHONLY|Rotation=270.000|XOffset=0mil|YOffset=0mil|HoleType=Round|Shape=RoundedRectangle|*
%AMROUNDEDRECTD20*
21,1,0.02362,0.01181,0,0,270.0*
21,1,0.01181,0.02362,0,0,270.0*
1,1,0.01181,-0.00591,-0.00591*
1,1,0.01181,-0.00591,0.00591*
1,1,0.01181,0.00591,0.00591*
1,1,0.01181,0.00591,-0.00591*
%
%ADD20ROUNDEDRECTD20*%
G04:AMPARAMS|DCode=21|XSize=151.57mil|YSize=98.43mil|CornerRadius=4.92mil|HoleSize=0mil|Usage=FLASHONLY|Rotation=0.000|XOffset=0mil|YOffset=0mil|HoleType=Round|Shape=RoundedRectangle|*
%AMROUNDEDRECTD21*
21,1,0.15157,0.08858,0,0,0.0*
21,1,0.14173,0.09843,0,0,0.0*
1,1,0.00984,0.07087,-0.04429*
1,1,0.00984,-0.07087,-0.04429*
1,1,0.00984,-0.07087,0.04429*
1,1,0.00984,0.07087,0.04429*
%
%ADD21ROUNDEDRECTD21*%
%ADD22R,0.04724X0.03543*%
D12*
X288189Y399764D02*
X297874D01*
X298031Y399606D02*
X303543Y394094D01*
Y367717D02*
Y394094D01*
X300197Y364370D02*
X303543Y367717D01*
X297244Y364370D02*
X300197D01*
X297244Y358465D02*
X306102D01*
X319685Y372047D01*
X363189D01*
X485236Y340551D02*
X523622D01*
X457677Y312992D02*
X485236Y340551D01*
X484252Y319882D02*
X498032D01*
X500984Y246063D02*
Y263779D01*
X497047Y242126D02*
X500984Y246063D01*
X496654Y152559D02*
X506890D01*
X595079Y188976D02*
X609252D01*
X711260Y189331D02*
X715551Y185039D01*
Y143701D02*
Y185039D01*
X491142Y253937D02*
X493110Y251969D01*
X490945Y254134D02*
X491142Y253937D01*
X480905Y254134D02*
X490945D01*
X493110Y245079D02*
Y251969D01*
X200787Y239173D02*
X229331Y210630D01*
X320866Y358268D02*
X327756D01*
X496063Y333661D02*
X496063Y333661D01*
X259842Y396654D02*
Y400492D01*
X259980Y404764D02*
X266929D01*
X292323Y393701D02*
X297244D01*
X291260Y394764D02*
X292323Y393701D01*
X288189Y394764D02*
X291260D01*
X484252Y333661D02*
X496063D01*
X458661Y321850D02*
X484252Y347441D01*
X443898Y321850D02*
X458661D01*
X421260Y312992D02*
X457677D01*
X468504Y304134D02*
X484252Y319882D01*
X400591Y304134D02*
X468504D01*
X391732Y312992D02*
X400591Y304134D01*
X464567Y307087D02*
X484252Y326772D01*
X407480Y307087D02*
X464567D01*
X401575Y312992D02*
X407480Y307087D01*
X460630Y310039D02*
X484252Y333661D01*
X414370Y310039D02*
X460630D01*
X411417Y312992D02*
X414370Y310039D01*
X482874Y354331D02*
X484252D01*
X457480Y328937D02*
X482874Y354331D01*
X457323Y338937D02*
X479606Y361221D01*
X327756Y358268D02*
X357283D01*
X327756Y351378D02*
X351378D01*
X357283Y358268D02*
X366142Y349410D01*
X327756Y365158D02*
X360236D01*
X366142Y359252D01*
X363189Y372047D02*
X366142Y369094D01*
X338583Y409449D02*
X366142D01*
X304134D02*
X338583D01*
X302165Y411417D02*
X304134Y409449D01*
X270669Y411417D02*
X302165D01*
X266929Y407677D02*
X270669Y411417D01*
X266929Y404764D02*
Y407677D01*
X258858Y375000D02*
Y389764D01*
Y375000D02*
X263779Y370079D01*
X292323D01*
X297244Y375000D01*
Y387795D01*
X206890Y404528D02*
X239173D01*
X255906Y387795D01*
Y364173D02*
Y387795D01*
X237205Y411417D02*
X258858Y389764D01*
X24606Y326772D02*
Y397638D01*
X27559Y328740D02*
Y393701D01*
X408465Y263779D02*
X411417Y260827D01*
X413386Y263779D02*
X421260D01*
X417323Y271654D02*
X436024Y290354D01*
X314961Y362205D02*
X317913Y365158D01*
Y355315D02*
X320866Y358268D01*
X317913Y365158D02*
X327756D01*
X472441Y158504D02*
X475787Y155157D01*
X479331Y282283D02*
X486024Y275591D01*
X456693Y259646D02*
X459449Y256890D01*
X422244Y257874D02*
X436024Y244094D01*
X316929Y81890D02*
Y258858D01*
X317913Y259842D01*
X452756Y239173D02*
X493110D01*
X438976Y225394D02*
X452756Y239173D01*
X438976Y204724D02*
Y225394D01*
X435039Y200787D02*
X436024Y201772D01*
Y244094D01*
Y201772D02*
X437008Y200787D01*
X471417Y173268D02*
X474409D01*
X506890Y152559D02*
X515748D01*
X519685Y156496D01*
Y167323D01*
X523622Y171260D01*
X553150Y195866D02*
X555118Y193898D01*
X659449Y197835D02*
Y205709D01*
X631693Y233465D02*
X659449Y205709D01*
X609252Y188976D02*
X651968D01*
X804134Y218504D02*
X807579Y215059D01*
Y200295D02*
Y215059D01*
X792913Y192913D02*
X824803D01*
X837598Y205709D01*
Y295276D01*
X840551Y151575D02*
Y296260D01*
X843504Y150591D02*
Y297244D01*
X694882Y228122D02*
Y254921D01*
X713583Y273622D01*
X729331D01*
X772638Y368110D02*
X843504Y297244D01*
X479606Y361221D02*
X535433D01*
X539370Y365158D01*
X771654D01*
X840551Y296260D01*
X529528Y347441D02*
X541339Y359252D01*
X484252Y347441D02*
X529528D01*
X540354Y362205D02*
X770669D01*
X837598Y295276D01*
X541339Y359252D02*
X729331D01*
X556102Y333661D02*
X559961Y329803D01*
X496063Y333661D02*
X512795D01*
X556102D01*
X729331Y300197D02*
X729331Y285433D01*
X729331Y300197D02*
Y351378D01*
X421260Y263779D02*
X443898Y286417D01*
X273622Y346457D02*
X311024D01*
X255906Y364173D02*
X273622Y346457D01*
X322835D02*
X327756Y351378D01*
Y351378D01*
X544291Y356299D02*
X760827D01*
X495079Y181142D02*
X501811Y174409D01*
X555118Y178740D02*
Y193898D01*
X249213Y404724D02*
X249311Y404626D01*
X259842D01*
X518701Y409449D02*
X523622D01*
X515748Y402559D02*
X523622D01*
X512795Y395669D02*
X523622D01*
X509842Y388779D02*
X523622D01*
X506890Y381890D02*
X523622D01*
X503937Y375000D02*
X523622D01*
X484252Y354331D02*
X532480D01*
X540354Y362205D01*
X523622Y340551D02*
X526575Y343504D01*
X484252Y326772D02*
X508858D01*
X519685Y336614D02*
X520177Y337106D01*
X525098D01*
X544291Y356299D01*
X508858Y326772D02*
X523622D01*
X454921Y257874D02*
X456693Y259646D01*
X422244Y257874D02*
X454921D01*
X362205Y328740D02*
X366142D01*
X24606Y397638D02*
X37402Y410433D01*
X27559Y393701D02*
X31496Y397638D01*
X187992Y379921D02*
X195866Y387795D01*
X211614D01*
X219488Y379921D01*
X249016D01*
X252953Y383858D01*
X145079Y379921D02*
X187992D01*
X120079Y387795D02*
X137205D01*
X145079Y379921D01*
X98425Y366142D02*
Y374016D01*
X90551Y358268D02*
X98425Y366142D01*
X106299Y403543D02*
X114173Y411417D01*
X237205D01*
X70669Y379921D02*
X112205D01*
X120079Y387795D01*
X65158Y385433D02*
X70669Y379921D01*
X46457Y380315D02*
X51575Y385433D01*
X65158D01*
X46457Y360630D02*
Y380315D01*
Y360630D02*
X48622Y358465D01*
X120079Y361417D02*
X123031Y358465D01*
X120079Y361417D02*
Y387795D01*
X48622Y346654D02*
X52756Y342520D01*
X151181D01*
X48622Y346654D02*
X48622Y352559D01*
X124409Y346457D02*
X189173D01*
X123031Y347835D02*
X124409Y346457D01*
X123031Y347835D02*
Y352559D01*
X149803Y358465D02*
X150591Y359252D01*
X143898Y358465D02*
X149803D01*
X189173Y346457D02*
X191142Y344488D01*
X195866Y360039D02*
Y387795D01*
Y360039D02*
X197441Y358465D01*
Y341142D02*
Y352559D01*
X193307Y337008D02*
X197441Y341142D01*
X33071Y337008D02*
X193307D01*
X201969Y344488D02*
X224410D01*
X228346Y348425D01*
Y355906D01*
X225787Y358465D02*
X228346Y355906D01*
X218307Y358465D02*
X225787D01*
X218504Y352362D02*
X223622D01*
X47244Y186614D02*
X51575Y182283D01*
Y167323D02*
Y182283D01*
X47835Y163583D02*
X51575Y167323D01*
X23622Y166929D02*
X26969Y163583D01*
X23622Y166929D02*
Y183858D01*
X21260Y245669D02*
Y267717D01*
X47244Y186614D02*
Y219685D01*
X21260Y245669D02*
X47244Y219685D01*
X417323Y275590D02*
X428150Y286417D01*
X13780Y193701D02*
X23622Y183858D01*
X13780Y193701D02*
Y266929D01*
X26181Y202756D02*
Y229331D01*
X17323Y238189D02*
X26181Y229331D01*
X17323Y238189D02*
Y260630D01*
X104921Y291339D02*
Y306496D01*
X314961Y302362D02*
Y362205D01*
X389469Y282283D02*
X389961D01*
X393307Y279528D02*
X395669Y281890D01*
Y287795D01*
X370866Y312598D02*
X395669Y287795D01*
X370866Y312598D02*
Y334567D01*
X366496Y338937D02*
X370866Y334567D01*
X252756Y383661D02*
X252953Y383858D01*
X252756Y383661D02*
X253150Y383268D01*
Y325590D02*
Y383268D01*
X377953Y279528D02*
X393307D01*
X375984Y275590D02*
X417323D01*
X27559Y328740D02*
X35433Y320866D01*
X251969D01*
X24606Y326772D02*
X32874Y318504D01*
X250394D01*
X104921Y306496D02*
X112205Y313779D01*
X247244D01*
X179724Y300394D02*
X190748Y311417D01*
X179724Y291339D02*
Y300394D01*
X31496Y397638D02*
X47835D01*
X106299Y398819D02*
Y403543D01*
X111417Y397638D02*
X122244D01*
X108268Y394488D02*
X111417Y397638D01*
X103937Y394488D02*
X108268D01*
X100000Y398425D02*
X103937Y394488D01*
X100000Y398425D02*
Y407677D01*
X97244Y410433D02*
X100000Y407677D01*
X37402Y410433D02*
X97244D01*
X17323Y277953D02*
Y307480D01*
X25984Y316142D01*
X248819D01*
X237402Y273819D02*
X252953Y289370D01*
X203740Y273819D02*
X237402D01*
X198031Y279528D02*
X203740Y273819D01*
X128347Y273622D02*
X158661D01*
X121653Y280315D02*
X128347Y273622D01*
X109055Y280315D02*
X121653D01*
X103150Y274410D02*
X109055Y280315D01*
X103150Y254724D02*
Y274410D01*
Y254724D02*
X105709Y252165D01*
X26969Y152165D02*
Y157677D01*
Y152165D02*
X29921Y149213D01*
X125591D01*
X132283Y155905D01*
X126575Y252165D02*
X129724D01*
X132283Y249606D01*
X105709Y243110D02*
Y246260D01*
Y243110D02*
X116535Y232283D01*
X201969D01*
X132283Y236221D02*
Y249606D01*
Y155905D02*
Y225984D01*
X69685Y358268D02*
X81102D01*
X90551D01*
X182874Y239173D02*
X200787D01*
X180512Y241535D02*
X182874Y239173D01*
X180512Y241535D02*
Y246260D01*
X158661Y273622D02*
X164567Y279528D01*
X176772Y255906D02*
X180512Y252165D01*
X176772Y255906D02*
Y279528D01*
X164567D02*
X176772D01*
X198031D01*
X237402Y243701D02*
X244094Y237008D01*
X250787D01*
X255315Y232480D01*
X317913Y307677D02*
Y355315D01*
Y307677D02*
X326969Y298622D01*
X251969Y320866D02*
X277165Y295669D01*
X381496D01*
X391339Y285827D01*
X250394Y318504D02*
X276378Y292520D01*
X379232D01*
X389469Y282283D01*
X248819Y316142D02*
X275590Y289370D01*
X368110D01*
X377953Y279528D01*
X247244Y313779D02*
X275590Y285433D01*
X366142D01*
X375984Y275590D01*
X303543D02*
X308661Y270472D01*
X312205Y261024D02*
X313386Y259842D01*
X255315Y218701D02*
Y226575D01*
Y218701D02*
X257874Y216142D01*
X300787D01*
X305118Y211811D01*
Y188976D02*
Y211811D01*
X237402Y243701D02*
Y260630D01*
Y273819D01*
Y260630D02*
X272047D01*
X280315Y252362D01*
X283071Y210630D02*
Y212205D01*
Y220079D02*
Y229134D01*
X279724Y232480D02*
X283071Y229134D01*
X276181Y232480D02*
X279724D01*
X229331Y210630D02*
X283071D01*
X208268Y240158D02*
Y250394D01*
X201378Y252165D02*
X206102D01*
X208268Y250000D01*
X280315Y245276D02*
Y252362D01*
Y245276D02*
X310236Y215354D01*
Y89764D02*
Y215354D01*
X299213Y78740D02*
X310236Y89764D01*
X267717Y78740D02*
X299213D01*
X263386Y74410D02*
X267717Y78740D01*
X263386Y59055D02*
Y74410D01*
Y59055D02*
X273622Y48819D01*
Y29724D02*
Y48819D01*
Y29724D02*
X276969Y26378D01*
X287402Y65158D02*
X296260D01*
X313386Y82284D01*
Y259842D01*
X316929Y81890D02*
X333268Y65551D01*
X467126D01*
X276969Y12795D02*
Y20472D01*
X432677Y26378D02*
X447244Y11811D01*
X464961D01*
X467913Y14764D01*
Y20472D01*
X297835Y26378D02*
X304724D01*
X432677D01*
X273622Y48819D02*
X275984D01*
X281102Y53937D01*
X295276D01*
X300787Y48425D01*
Y40551D02*
Y48425D01*
Y40551D02*
X309842Y31496D01*
X462795D01*
X467913Y26378D01*
X377362Y178150D02*
Y185236D01*
X438976Y181496D02*
Y196850D01*
X377362Y178150D02*
X380315Y175197D01*
X432677D01*
X438976Y181496D01*
X321850Y188976D02*
X340748Y170079D01*
X405512D02*
X405905Y169685D01*
X340748Y170079D02*
X405512D01*
X398228Y191142D02*
X403740D01*
X405905Y188976D01*
Y182677D02*
Y188976D01*
X374803Y193701D02*
X377362Y191142D01*
X394094Y218898D02*
X401575Y211417D01*
X374803Y193701D02*
Y213779D01*
X379921Y218898D01*
X394094D01*
X401575Y204724D02*
Y211417D01*
Y204724D02*
X405512Y200787D01*
X435039D01*
X326969Y298622D02*
X327165Y298819D01*
X376378D01*
X419291Y269685D02*
X436024Y286417D01*
X420079Y266535D02*
X443898Y290354D01*
X411417Y260827D02*
X423819D01*
X448819Y285827D01*
X456693Y259646D02*
Y274409D01*
X464567Y282283D01*
X479331D01*
X459449Y255512D02*
Y256890D01*
X463386Y242126D02*
X497047D01*
X460630Y244882D02*
X463386Y242126D01*
X460630Y244882D02*
Y247441D01*
X461417Y248228D01*
X546063Y293307D02*
X549291Y296535D01*
X560551D01*
X486024Y275591D02*
X542520D01*
X546063Y279134D01*
Y293307D01*
X580315Y318504D02*
X586339Y312480D01*
X587795Y330709D02*
X669882D01*
X500984Y263779D02*
X507874Y270669D01*
X588976D01*
X585039Y291142D02*
X588976Y287205D01*
Y278346D02*
Y287205D01*
Y287795D01*
X560551Y296535D02*
X562402Y294685D01*
Y291024D02*
Y294685D01*
Y278150D02*
Y285118D01*
Y278150D02*
X565945Y274606D01*
X702559D01*
X496654Y321260D02*
X498032Y319882D01*
X496654Y321260D02*
X578346D01*
X587795Y330709D01*
X565748Y318504D02*
X580315D01*
X560551Y313307D02*
X565748Y318504D01*
X560551Y296535D02*
Y313307D01*
X667598Y312480D02*
X674803Y319685D01*
X586339Y312480D02*
X667598D01*
Y300709D02*
X670669Y297638D01*
X667598Y300709D02*
Y312480D01*
X670669Y291535D02*
Y297638D01*
Y280906D02*
Y285630D01*
X699606Y291339D02*
X702559Y288386D01*
X692520Y291339D02*
X699606D01*
X702559Y282480D02*
Y288386D01*
X670669Y280906D02*
X673228Y278346D01*
X674803Y319685D02*
X689370D01*
X694882Y314173D01*
X724016Y281496D02*
X757480D01*
X707480Y298031D02*
X724016Y281496D01*
X694882Y303543D02*
Y314173D01*
Y303543D02*
X700394Y298031D01*
X707480D01*
X757480Y271654D02*
Y272638D01*
Y271654D02*
X773228Y255906D01*
Y240158D02*
Y255906D01*
Y240158D02*
X775000Y238386D01*
X795866D02*
X798425Y240945D01*
X673228Y278346D02*
X758661D01*
X798425Y240945D02*
Y261417D01*
X758661Y278346D02*
X769685Y267323D01*
X792520D01*
X798425Y261417D01*
X785433Y277165D02*
Y331693D01*
X760827Y356299D02*
X785433Y331693D01*
X775197Y225197D02*
Y232677D01*
Y225197D02*
X781890Y218504D01*
X804134D01*
X785433Y185433D02*
X792913Y192913D01*
X785433Y174803D02*
Y185433D01*
X763386Y166732D02*
X772047Y158071D01*
X763386Y166732D02*
Y208661D01*
X761248Y210799D02*
X763386Y208661D01*
X715551Y143701D02*
X735630Y123622D01*
X809449Y116535D02*
X843504Y150591D01*
X809449Y120472D02*
X840551Y151575D01*
X735630Y123622D02*
X772835D01*
X775000Y125787D01*
Y130118D01*
X772047Y138976D02*
Y158071D01*
Y138976D02*
X775000Y136024D01*
X807579Y184744D02*
Y188484D01*
X795669Y172835D02*
X807579Y184744D01*
X795866Y136024D02*
X796457Y136614D01*
X800000Y140157D01*
X795669Y160236D02*
Y172835D01*
Y160236D02*
X800000Y155905D01*
Y140157D02*
Y155905D01*
X697441Y189331D02*
X704724D01*
X711260D01*
X694488Y217717D02*
X701405Y210799D01*
X761248D01*
X677559Y217717D02*
X694488D01*
X673622Y213779D02*
X677559Y217717D01*
X673622Y199606D02*
Y213779D01*
X668898Y194882D02*
X673622Y199606D01*
X668898Y194882D02*
X674016D01*
X676575Y192323D01*
Y189331D02*
Y192323D01*
X659842Y174016D02*
X713386Y120472D01*
X809449D01*
X651968Y188976D02*
X663386Y177559D01*
X673228D01*
X676575Y180905D01*
Y183425D01*
X555118Y164173D02*
X664173D01*
X711811Y116535D01*
X809449D01*
X599606Y198031D02*
X602783Y194854D01*
X668898D01*
X590551Y217717D02*
X599606Y208661D01*
Y198031D02*
Y208661D01*
X576772Y217717D02*
X590551D01*
X571654Y212598D02*
X576772Y217717D01*
X571654Y193772D02*
Y212598D01*
X572764Y193772D02*
X574213Y192323D01*
Y189331D02*
Y192323D01*
X501811Y174409D02*
X555905D01*
X562669Y193772D02*
X572764D01*
X555905Y174409D02*
X558268Y176772D01*
Y189370D01*
X562669Y193772D01*
X523622Y171260D02*
X568110D01*
X574213Y177362D01*
Y183425D01*
X590000Y233465D02*
X631693D01*
X584646Y228110D02*
X590000Y233465D01*
X464567Y180118D02*
X471417Y173268D01*
X437008Y200787D02*
X461811D01*
X464567Y198031D01*
Y180118D02*
Y198031D01*
X490315Y195866D02*
X553150D01*
X486221Y191772D02*
X490315Y195866D01*
X482323Y181142D02*
X495079D01*
X472441Y158504D02*
Y171260D01*
X482323Y181142D01*
X475787Y152992D02*
Y155157D01*
X475984Y144095D02*
X487795Y132283D01*
X475984Y144095D02*
Y147087D01*
X487795Y52756D02*
Y132283D01*
Y52756D02*
X491732Y48819D01*
Y29331D02*
Y48819D01*
X488779Y26378D02*
X491732Y29331D01*
X13780Y266929D02*
X21260Y274410D01*
X103150D01*
X354331Y336614D02*
X362205Y328740D01*
X354331Y336614D02*
Y348425D01*
X351378Y351378D02*
X354331Y348425D01*
X190748Y311417D02*
X244882D01*
X277953Y278346D01*
X252953Y289370D02*
X262598D01*
X276378Y275590D01*
X303543D01*
X312205Y273622D02*
X312992Y274410D01*
X308661Y270472D02*
X362598D01*
X375197Y257874D01*
X422244D01*
X279528Y282283D02*
X364173D01*
X374803Y271654D01*
X417323D01*
X277953Y278346D02*
X363386D01*
X372047Y269685D01*
X419291D01*
X312992Y274410D02*
X362992D01*
X370866Y266535D01*
X420079D01*
X457677Y409449D02*
X460827Y412598D01*
X457362Y398937D02*
X465906Y407480D01*
X457520Y388937D02*
Y393347D01*
X518110Y368110D02*
X772638D01*
X514961Y364961D02*
X518110Y368110D01*
X473228Y364961D02*
X514961D01*
X457205Y348937D02*
X473228Y364961D01*
X503937Y375000D02*
X503937D01*
X498130Y369193D02*
X503937Y375000D01*
X467618Y369193D02*
X498130D01*
X457362Y358937D02*
X467618Y369193D01*
X503937Y381890D02*
X506890D01*
X457677Y378937D02*
X460236Y376378D01*
X457520Y368937D02*
X461811Y373228D01*
X495276D01*
X503937Y381890D01*
X460236Y376378D02*
X491339D01*
X503740Y388779D01*
X509842D01*
X490158Y395669D02*
X512795D01*
X465906Y407480D02*
X485039D01*
X489961Y402559D01*
X515748D01*
X460827Y412598D02*
X487402D01*
X490551Y409449D01*
X518701D01*
X457520Y393347D02*
X468110Y403937D01*
X481890D01*
X490158Y395669D01*
X357874Y375590D02*
X361221Y378937D01*
X366142D01*
X327756D02*
X339173D01*
X342520Y375590D01*
X357874D01*
X332283Y388583D02*
Y394094D01*
X342520Y404331D01*
X354724D01*
X363386Y395669D01*
Y391535D02*
Y395669D01*
Y391535D02*
X366142Y388779D01*
X358622Y338937D02*
X366496D01*
D13*
X283071Y228346D02*
D03*
X800000Y140157D02*
D03*
X276772Y12598D02*
D03*
X304724Y26378D02*
D03*
X51575Y170866D02*
D03*
X208268Y250394D02*
D03*
X132283Y244094D02*
D03*
X225787Y358465D02*
D03*
X145669Y342520D02*
D03*
X81102Y358268D02*
D03*
X405905Y188976D02*
D03*
X491732Y33465D02*
D03*
X506890Y152559D02*
D03*
X491142Y253937D02*
D03*
X704724Y189331D02*
D03*
X609252Y188976D02*
D03*
X798425Y242913D02*
D03*
X699606Y291339D02*
D03*
X588976Y287205D02*
D03*
X523622Y361221D02*
D03*
X327756Y378937D02*
D03*
X523622Y368110D02*
D03*
Y375000D02*
D03*
X298031Y399606D02*
D03*
X523622Y381890D02*
D03*
Y388779D02*
D03*
X327756Y365158D02*
D03*
Y358268D02*
D03*
X523622Y395669D02*
D03*
Y402559D02*
D03*
X327756Y351378D02*
D03*
X523622Y409449D02*
D03*
Y319882D02*
D03*
Y326772D02*
D03*
Y333661D02*
D03*
X333071Y401181D02*
D03*
X523622Y340551D02*
D03*
X332283Y388583D02*
D03*
X523622Y347441D02*
D03*
X338583Y409449D02*
D03*
X523622Y354331D02*
D03*
X358268Y338583D02*
D03*
X816929Y364173D02*
D03*
X9843Y19685D02*
D03*
D14*
X0Y0D02*
D03*
X822835D02*
D03*
X0Y389764D02*
D03*
X822835D02*
D03*
X411417Y0D02*
D03*
X348425Y389764D02*
D03*
X474409D02*
D03*
D15*
X287402Y65158D02*
D03*
X307087Y56890D02*
D03*
X133465Y397244D02*
D03*
X153150Y388976D02*
D03*
X285433Y262992D02*
D03*
X265748Y271260D02*
D03*
X478346Y65158D02*
D03*
X498032Y56890D02*
D03*
X805118Y166535D02*
D03*
X785433Y174803D02*
D03*
Y277165D02*
D03*
X805118Y268898D02*
D03*
X135827Y282677D02*
D03*
X116142Y290945D02*
D03*
X387795Y229921D02*
D03*
X407480Y221654D02*
D03*
X706693Y219843D02*
D03*
X687008Y228110D02*
D03*
X681102Y330315D02*
D03*
X700787Y322047D02*
D03*
X227559Y388976D02*
D03*
X207874Y397244D02*
D03*
X190945Y290945D02*
D03*
X210630Y282677D02*
D03*
X592520Y321535D02*
D03*
X572835Y329803D02*
D03*
X470472Y292913D02*
D03*
X490158Y284646D02*
D03*
X604331Y219843D02*
D03*
X584646Y228110D02*
D03*
X486221Y191772D02*
D03*
X505905Y183504D02*
D03*
X59055Y397244D02*
D03*
X78740Y388976D02*
D03*
X37402Y202362D02*
D03*
X57087Y194095D02*
D03*
D16*
X267717Y21654D02*
D03*
X113779Y353740D02*
D03*
X246063Y227756D02*
D03*
X458661Y21654D02*
D03*
X765748Y131299D02*
D03*
Y233661D02*
D03*
X96457Y247441D02*
D03*
X368110Y186417D02*
D03*
X667323Y184606D02*
D03*
X661417Y286811D02*
D03*
X188189Y353740D02*
D03*
X171260Y247441D02*
D03*
X553150Y286299D02*
D03*
X450787Y249410D02*
D03*
X564961Y184606D02*
D03*
X466535Y148268D02*
D03*
X39370Y353740D02*
D03*
X17717Y158858D02*
D03*
D17*
X285433Y364173D02*
D03*
X518701Y409449D02*
D03*
X515748Y402559D02*
D03*
X512795Y395669D02*
D03*
X509842Y388779D02*
D03*
X506890Y381890D02*
D03*
X503937Y375000D02*
D03*
X408465Y263779D02*
D03*
X413386Y263779D02*
D03*
X259842Y396654D02*
D03*
X277953Y404331D02*
D03*
X443898Y321850D02*
D03*
X457480Y328937D02*
D03*
X457323Y338937D02*
D03*
X457205Y348937D02*
D03*
X457362Y358937D02*
D03*
X457520Y368937D02*
D03*
X457677Y378937D02*
D03*
X457520Y388937D02*
D03*
X457362Y398937D02*
D03*
X457677Y409449D02*
D03*
X366142D02*
D03*
Y398622D02*
D03*
Y388779D02*
D03*
Y378937D02*
D03*
Y369094D02*
D03*
Y359252D02*
D03*
Y349410D02*
D03*
Y328740D02*
D03*
X391732Y312992D02*
D03*
X401575D02*
D03*
X411417D02*
D03*
X421260D02*
D03*
X252953Y383858D02*
D03*
X317913Y259842D02*
D03*
X321850Y188976D02*
D03*
X436024Y290354D02*
D03*
X428150Y286417D02*
D03*
X436024D02*
D03*
X322835Y346457D02*
D03*
X311024D02*
D03*
X9843Y206693D02*
D03*
X88583Y167323D02*
D03*
X9843D02*
D03*
Y246063D02*
D03*
Y285433D02*
D03*
X127953Y167323D02*
D03*
X9843Y127953D02*
D03*
X49213D02*
D03*
X88583D02*
D03*
X127953D02*
D03*
X9843Y88583D02*
D03*
Y49213D02*
D03*
X49213Y9843D02*
D03*
Y49213D02*
D03*
X88583D02*
D03*
X49213Y88583D02*
D03*
X88583D02*
D03*
Y9843D02*
D03*
X127953D02*
D03*
Y49213D02*
D03*
Y88583D02*
D03*
X167323Y127953D02*
D03*
Y88583D02*
D03*
Y49213D02*
D03*
Y9843D02*
D03*
X206693D02*
D03*
Y49213D02*
D03*
Y88583D02*
D03*
Y127953D02*
D03*
X167323Y167323D02*
D03*
X206693D02*
D03*
X364173Y49213D02*
D03*
Y88583D02*
D03*
Y9843D02*
D03*
X403543Y49213D02*
D03*
Y88583D02*
D03*
X600394Y49213D02*
D03*
Y9843D02*
D03*
X639764D02*
D03*
Y49213D02*
D03*
X679134D02*
D03*
Y9843D02*
D03*
X718504D02*
D03*
Y49213D02*
D03*
X836614D02*
D03*
X797244D02*
D03*
X757874D02*
D03*
X403543Y127953D02*
D03*
X364173D02*
D03*
X324803D02*
D03*
X285433D02*
D03*
X246063D02*
D03*
Y167323D02*
D03*
X285433D02*
D03*
X324803D02*
D03*
Y206693D02*
D03*
Y246063D02*
D03*
X521654Y285433D02*
D03*
X364173Y324803D02*
D03*
X324803D02*
D03*
X285433D02*
D03*
X9843D02*
D03*
Y364173D02*
D03*
Y403543D02*
D03*
X249213Y404724D02*
D03*
X526575Y343504D02*
D03*
X519685Y336614D02*
D03*
X508858Y326772D02*
D03*
X757874Y403543D02*
D03*
X797244D02*
D03*
X718504D02*
D03*
X679134D02*
D03*
X639764D02*
D03*
X600394D02*
D03*
X561024D02*
D03*
X729331Y273622D02*
D03*
Y285433D02*
D03*
X729331Y359252D02*
D03*
Y351378D02*
D03*
X836614Y324803D02*
D03*
X797244D02*
D03*
X757874D02*
D03*
X797244Y364173D02*
D03*
X836614D02*
D03*
X639764Y324803D02*
D03*
Y285433D02*
D03*
X659449Y197835D02*
D03*
X807579Y200295D02*
D03*
Y188484D02*
D03*
X600394Y88583D02*
D03*
X639764D02*
D03*
X679134D02*
D03*
X718504D02*
D03*
X757874D02*
D03*
X797244D02*
D03*
X836614D02*
D03*
Y127953D02*
D03*
X757874D02*
D03*
X718504D02*
D03*
X679134D02*
D03*
X639764D02*
D03*
X600394D02*
D03*
X561024D02*
D03*
Y167323D02*
D03*
X558661Y211417D02*
D03*
X639764Y167323D02*
D03*
X679134D02*
D03*
X718504D02*
D03*
X757874D02*
D03*
X836614D02*
D03*
X797244Y206693D02*
D03*
X757874D02*
D03*
X639764D02*
D03*
X521654Y246063D02*
D03*
X561024D02*
D03*
X600394D02*
D03*
X639764D02*
D03*
X679134D02*
D03*
X718504D02*
D03*
X757874D02*
D03*
X493110Y245079D02*
D03*
Y239173D02*
D03*
X487795Y248031D02*
D03*
X459941Y262697D02*
D03*
X443898Y290354D02*
D03*
Y286417D02*
D03*
X442913Y127953D02*
D03*
X521654D02*
D03*
X482283D02*
D03*
X555118Y164173D02*
D03*
Y178740D02*
D03*
X521654Y206693D02*
D03*
X482283D02*
D03*
X442913Y88583D02*
D03*
Y49213D02*
D03*
X482283Y88583D02*
D03*
X521654D02*
D03*
Y49213D02*
D03*
Y9843D02*
D03*
X442913D02*
D03*
X561024D02*
D03*
Y49213D02*
D03*
Y88583D02*
D03*
X438976Y196850D02*
D03*
Y204724D02*
D03*
X442913Y167323D02*
D03*
Y206693D02*
D03*
X364173Y246063D02*
D03*
X403543D02*
D03*
X442913D02*
D03*
X252953Y289370D02*
D03*
X88583Y206693D02*
D03*
X127953D02*
D03*
X246063D02*
D03*
X206693D02*
D03*
X167323D02*
D03*
X150591Y359252D02*
D03*
X148425Y351575D02*
D03*
X201969Y344488D02*
D03*
X191142D02*
D03*
X127953Y285433D02*
D03*
X250787Y243701D02*
D03*
X246063Y324803D02*
D03*
X206693D02*
D03*
X167323D02*
D03*
X127953D02*
D03*
X88583D02*
D03*
X49213D02*
D03*
X88583Y403543D02*
D03*
X167323D02*
D03*
X246063Y364173D02*
D03*
X167323D02*
D03*
X88583D02*
D03*
X366496Y338937D02*
D03*
X98425Y374016D02*
D03*
X151181Y342126D02*
D03*
X223622Y352362D02*
D03*
X33071Y337008D02*
D03*
X21260Y267717D02*
D03*
X17323Y260630D02*
D03*
Y277953D02*
D03*
X314961Y302362D02*
D03*
X389469Y282283D02*
D03*
X391339Y285827D02*
D03*
X253150Y325590D02*
D03*
X106299Y398819D02*
D03*
X201969Y232283D02*
D03*
X126378Y240158D02*
D03*
X132283Y236221D02*
D03*
Y225984D02*
D03*
X279528Y282283D02*
D03*
X312205Y261024D02*
D03*
Y273622D02*
D03*
X305118Y188976D02*
D03*
X283071Y212205D02*
D03*
Y220079D02*
D03*
X208268Y240158D02*
D03*
X405905Y182677D02*
D03*
Y169685D02*
D03*
X376378Y298819D02*
D03*
X448819Y285827D02*
D03*
X588976Y270472D02*
D03*
Y278346D02*
D03*
X702559Y274606D02*
D03*
Y282480D02*
D03*
X757480Y272638D02*
D03*
Y281496D02*
D03*
X659842Y174016D02*
D03*
X76772Y351969D02*
D03*
X203543Y241339D02*
D03*
X277559Y220866D02*
D03*
X54724Y157480D02*
D03*
X305118Y17717D02*
D03*
X493701Y15748D02*
D03*
X399606Y179134D02*
D03*
X503937Y141732D02*
D03*
X582677Y278346D02*
D03*
X696850Y282283D02*
D03*
X803150Y232283D02*
D03*
X704724Y181102D02*
D03*
X803150Y127953D02*
D03*
X512205Y158268D02*
D03*
X447244Y23228D02*
D03*
X301181Y31890D02*
D03*
X180315Y275984D02*
D03*
X198819Y364567D02*
D03*
X654724Y191732D02*
D03*
X596457Y194882D02*
D03*
X49213Y246063D02*
D03*
Y285433D02*
D03*
X88583D02*
D03*
D18*
X297244Y393701D02*
D03*
Y387795D02*
D03*
Y358465D02*
D03*
Y364370D02*
D03*
D19*
X266929Y374764D02*
D03*
X288189D02*
D03*
Y379764D02*
D03*
Y384764D02*
D03*
Y389764D02*
D03*
Y394764D02*
D03*
Y399764D02*
D03*
Y404764D02*
D03*
X266929Y379764D02*
D03*
Y384764D02*
D03*
Y389764D02*
D03*
Y394764D02*
D03*
Y399764D02*
D03*
Y404764D02*
D03*
D20*
X259842Y404626D02*
D03*
Y400492D02*
D03*
D21*
X318307Y56890D02*
D03*
X276181Y65551D02*
D03*
X164370Y388976D02*
D03*
X122244Y397638D02*
D03*
X254528Y271654D02*
D03*
X296654Y262992D02*
D03*
X509252Y56890D02*
D03*
X467126Y65551D02*
D03*
X774213Y175197D02*
D03*
X816339Y166535D02*
D03*
Y268898D02*
D03*
X774213Y277559D02*
D03*
X104921Y291339D02*
D03*
X147047Y282677D02*
D03*
X418701Y221654D02*
D03*
X376575Y230315D02*
D03*
X675787Y228504D02*
D03*
X717913Y219843D02*
D03*
X712008Y322047D02*
D03*
X669882Y330709D02*
D03*
X196653Y397638D02*
D03*
X238779Y388976D02*
D03*
X221850Y282677D02*
D03*
X179724Y291339D02*
D03*
X561614Y330197D02*
D03*
X603740Y321535D02*
D03*
X501378Y284646D02*
D03*
X459252Y293307D02*
D03*
X573425Y228504D02*
D03*
X615551Y219843D02*
D03*
X517126Y183504D02*
D03*
X475000Y192165D02*
D03*
X89961Y388976D02*
D03*
X47835Y397638D02*
D03*
X68307Y194095D02*
D03*
X26181Y202756D02*
D03*
D22*
X276969Y26378D02*
D03*
Y20472D02*
D03*
X297835D02*
D03*
Y26378D02*
D03*
X123031Y358465D02*
D03*
Y352559D02*
D03*
X143898D02*
D03*
Y358465D02*
D03*
X276181Y232480D02*
D03*
Y226575D02*
D03*
X255315D02*
D03*
Y232480D02*
D03*
X467913Y26378D02*
D03*
Y20472D02*
D03*
X488779D02*
D03*
Y26378D02*
D03*
X795866Y136024D02*
D03*
Y130118D02*
D03*
X775000D02*
D03*
Y136024D02*
D03*
Y238386D02*
D03*
Y232480D02*
D03*
X795866D02*
D03*
Y238386D02*
D03*
X126575Y252165D02*
D03*
Y246260D02*
D03*
X105709D02*
D03*
Y252165D02*
D03*
X377362Y191142D02*
D03*
Y185236D02*
D03*
X398228D02*
D03*
Y191142D02*
D03*
X697441Y189331D02*
D03*
Y183425D02*
D03*
X676575D02*
D03*
Y189331D02*
D03*
X670669Y291535D02*
D03*
Y285630D02*
D03*
X691535D02*
D03*
Y291535D02*
D03*
X218307Y358465D02*
D03*
Y352559D02*
D03*
X197441D02*
D03*
Y358465D02*
D03*
X180512Y252165D02*
D03*
Y246260D02*
D03*
X201378D02*
D03*
Y252165D02*
D03*
X583268Y291024D02*
D03*
Y285118D02*
D03*
X562402D02*
D03*
Y291024D02*
D03*
X460039Y254134D02*
D03*
Y248228D02*
D03*
X480905D02*
D03*
Y254134D02*
D03*
X595079Y189331D02*
D03*
Y183425D02*
D03*
X574213D02*
D03*
Y189331D02*
D03*
X475787Y152992D02*
D03*
Y147087D02*
D03*
X496654D02*
D03*
Y152992D02*
D03*
X48622Y358465D02*
D03*
Y352559D02*
D03*
X69488D02*
D03*
Y358465D02*
D03*
X26969Y163583D02*
D03*
Y157677D02*
D03*
X47835D02*
D03*
Y163583D02*
D03*
M02*
