G04*
G04 #@! TF.GenerationSoftware,Altium Limited,CircuitStudio,1.5.2 (30)*
G04*
G04 Layer_Color=8150272*
%FSLAX25Y25*%
%MOIN*%
G70*
G01*
G75*
%ADD32C,0.00394*%
%ADD33C,0.10630*%
%ADD34C,0.14567*%
G04:AMPARAMS|DCode=35|XSize=3.94mil|YSize=3.94mil|CornerRadius=0mil|HoleSize=0mil|Usage=FLASHONLY|Rotation=90.000|XOffset=0mil|YOffset=0mil|HoleType=Round|Shape=RoundedRectangle|*
%AMROUNDEDRECTD35*
21,1,0.00394,0.00394,0,0,90.0*
21,1,0.00394,0.00394,0,0,90.0*
1,1,0.00000,0.00197,0.00197*
1,1,0.00000,0.00197,-0.00197*
1,1,0.00000,-0.00197,-0.00197*
1,1,0.00000,-0.00197,0.00197*
%
%ADD35ROUNDEDRECTD35*%
G04:AMPARAMS|DCode=36|XSize=3.94mil|YSize=3.94mil|CornerRadius=0mil|HoleSize=0mil|Usage=FLASHONLY|Rotation=180.000|XOffset=0mil|YOffset=0mil|HoleType=Round|Shape=RoundedRectangle|*
%AMROUNDEDRECTD36*
21,1,0.00394,0.00394,0,0,180.0*
21,1,0.00394,0.00394,0,0,180.0*
1,1,0.00000,-0.00197,0.00197*
1,1,0.00000,0.00197,0.00197*
1,1,0.00000,0.00197,-0.00197*
1,1,0.00000,-0.00197,-0.00197*
%
%ADD36ROUNDEDRECTD36*%
%ADD37C,0.07874*%
%ADD38C,0.08268*%
%ADD39C,0.03543*%
%ADD40R,0.05118X0.03937*%
G04:AMPARAMS|DCode=41|XSize=155.51mil|YSize=102.36mil|CornerRadius=6.89mil|HoleSize=0mil|Usage=FLASHONLY|Rotation=0.000|XOffset=0mil|YOffset=0mil|HoleType=Round|Shape=RoundedRectangle|*
%AMROUNDEDRECTD41*
21,1,0.15551,0.08858,0,0,0.0*
21,1,0.14173,0.10236,0,0,0.0*
1,1,0.01378,0.07087,-0.04429*
1,1,0.01378,-0.07087,-0.04429*
1,1,0.01378,-0.07087,0.04429*
1,1,0.01378,0.07087,0.04429*
%
%ADD41ROUNDEDRECTD41*%
%ADD42C,0.04331*%
G04:AMPARAMS|DCode=43|XSize=33.47mil|YSize=43.31mil|CornerRadius=9.35mil|HoleSize=0mil|Usage=FLASHONLY|Rotation=0.000|XOffset=0mil|YOffset=0mil|HoleType=Round|Shape=RoundedRectangle|*
%AMROUNDEDRECTD43*
21,1,0.03347,0.02461,0,0,0.0*
21,1,0.01476,0.04331,0,0,0.0*
1,1,0.01870,0.00738,-0.01230*
1,1,0.01870,-0.00738,-0.01230*
1,1,0.01870,-0.00738,0.01230*
1,1,0.01870,0.00738,0.01230*
%
%ADD43ROUNDEDRECTD43*%
G04:AMPARAMS|DCode=44|XSize=27.56mil|YSize=27.56mil|CornerRadius=7.87mil|HoleSize=0mil|Usage=FLASHONLY|Rotation=270.000|XOffset=0mil|YOffset=0mil|HoleType=Round|Shape=RoundedRectangle|*
%AMROUNDEDRECTD44*
21,1,0.02756,0.01181,0,0,270.0*
21,1,0.01181,0.02756,0,0,270.0*
1,1,0.01575,-0.00591,-0.00591*
1,1,0.01575,-0.00591,0.00591*
1,1,0.01575,0.00591,0.00591*
1,1,0.01575,0.00591,-0.00591*
%
%ADD44ROUNDEDRECTD44*%
G04:AMPARAMS|DCode=45|XSize=64.96mil|YSize=27.56mil|CornerRadius=7.87mil|HoleSize=0mil|Usage=FLASHONLY|Rotation=180.000|XOffset=0mil|YOffset=0mil|HoleType=Round|Shape=RoundedRectangle|*
%AMROUNDEDRECTD45*
21,1,0.06496,0.01181,0,0,180.0*
21,1,0.04921,0.02756,0,0,180.0*
1,1,0.01575,-0.02461,0.00591*
1,1,0.01575,0.02461,0.00591*
1,1,0.01575,0.02461,-0.00591*
1,1,0.01575,-0.02461,-0.00591*
%
%ADD45ROUNDEDRECTD45*%
G04:AMPARAMS|DCode=46|XSize=33.47mil|YSize=43.31mil|CornerRadius=9.35mil|HoleSize=0mil|Usage=FLASHONLY|Rotation=270.000|XOffset=0mil|YOffset=0mil|HoleType=Round|Shape=RoundedRectangle|*
%AMROUNDEDRECTD46*
21,1,0.03347,0.02461,0,0,270.0*
21,1,0.01476,0.04331,0,0,270.0*
1,1,0.01870,-0.01230,-0.00738*
1,1,0.01870,-0.01230,0.00738*
1,1,0.01870,0.01230,0.00738*
1,1,0.01870,0.01230,-0.00738*
%
%ADD46ROUNDEDRECTD46*%
D32*
X519685Y198071D02*
D03*
X541339D02*
D03*
X498032D02*
D03*
X600394Y234421D02*
D03*
X643701D02*
D03*
X622047D02*
D03*
X503937Y299213D02*
D03*
X525591D02*
D03*
X482283D02*
D03*
X588583Y336102D02*
D03*
X631890D02*
D03*
X610236D02*
D03*
X199803Y297244D02*
D03*
X221457D02*
D03*
X178150D02*
D03*
X211614Y407677D02*
D03*
X254921D02*
D03*
X233268D02*
D03*
X718504Y336614D02*
D03*
X740158D02*
D03*
X696850D02*
D03*
X702756Y234421D02*
D03*
X746063D02*
D03*
X724409D02*
D03*
X411417Y224410D02*
D03*
X433071D02*
D03*
X389764D02*
D03*
X68898Y297244D02*
D03*
X112205D02*
D03*
X90551D02*
D03*
X826772Y299213D02*
D03*
X848425D02*
D03*
X805118D02*
D03*
Y196850D02*
D03*
X848425D02*
D03*
X826772D02*
D03*
X515748Y48465D02*
D03*
X537402D02*
D03*
X494095D02*
D03*
X281693Y246063D02*
D03*
X325000D02*
D03*
X303346D02*
D03*
X158858Y407677D02*
D03*
X180512D02*
D03*
X137205D02*
D03*
X62795D02*
D03*
X106102D02*
D03*
X84449D02*
D03*
X334842Y48425D02*
D03*
X356496D02*
D03*
X313189D02*
D03*
D33*
X500000Y177795D02*
D03*
X602362Y214146D02*
D03*
X484252Y278937D02*
D03*
X590551Y315827D02*
D03*
X180118Y276969D02*
D03*
X213583Y387402D02*
D03*
X698819Y316339D02*
D03*
X704724Y214146D02*
D03*
X391732Y204134D02*
D03*
X70866Y276969D02*
D03*
X807087Y278937D02*
D03*
Y176575D02*
D03*
X496063Y28189D02*
D03*
X283661Y225787D02*
D03*
X139173Y387402D02*
D03*
X64764D02*
D03*
X315158Y28150D02*
D03*
D34*
X539370Y213032D02*
D03*
X519685Y221299D02*
D03*
X622047Y257650D02*
D03*
X641732Y249382D02*
D03*
X523622Y314173D02*
D03*
X503937Y322441D02*
D03*
X610236Y359331D02*
D03*
X629921Y351063D02*
D03*
X219488Y312205D02*
D03*
X199803Y320472D02*
D03*
X233268Y430905D02*
D03*
X252953Y422638D02*
D03*
X738189Y351575D02*
D03*
X718504Y359842D02*
D03*
X724409Y257650D02*
D03*
X744095Y249382D02*
D03*
X431102Y239370D02*
D03*
X411417Y247638D02*
D03*
X90551Y320472D02*
D03*
X110236Y312205D02*
D03*
X846457Y314173D02*
D03*
X826772Y322441D02*
D03*
Y220079D02*
D03*
X846457Y211811D02*
D03*
X535433Y63425D02*
D03*
X515748Y71693D02*
D03*
X303346Y269291D02*
D03*
X323031Y261024D02*
D03*
X178543Y422638D02*
D03*
X158858Y430905D02*
D03*
X84449D02*
D03*
X104134Y422638D02*
D03*
X354528Y63386D02*
D03*
X334842Y71653D02*
D03*
D35*
X516339Y179567D02*
D03*
X523032D02*
D03*
X625394Y215917D02*
D03*
X618701D02*
D03*
X500591Y280709D02*
D03*
X507283D02*
D03*
X613583Y317598D02*
D03*
X606890D02*
D03*
X196457Y278740D02*
D03*
X203150D02*
D03*
X236614Y389173D02*
D03*
X229921D02*
D03*
X715158Y318110D02*
D03*
X721850D02*
D03*
X727756Y215917D02*
D03*
X721063D02*
D03*
X408071Y205906D02*
D03*
X414764D02*
D03*
X93898Y278740D02*
D03*
X87205D02*
D03*
X823425Y280709D02*
D03*
X830118D02*
D03*
Y178347D02*
D03*
X823425D02*
D03*
X512402Y29961D02*
D03*
X519095D02*
D03*
X306693Y227559D02*
D03*
X300000D02*
D03*
X155512Y389173D02*
D03*
X162205D02*
D03*
X87795D02*
D03*
X81102D02*
D03*
X331496Y29921D02*
D03*
X338189D02*
D03*
D36*
X519685Y182913D02*
D03*
Y176221D02*
D03*
X622047Y212571D02*
D03*
Y219264D02*
D03*
X503937Y284055D02*
D03*
Y277362D02*
D03*
X610236Y314252D02*
D03*
Y320945D02*
D03*
X199803Y282087D02*
D03*
Y275394D02*
D03*
X233268Y385827D02*
D03*
Y392520D02*
D03*
X718504Y321457D02*
D03*
Y314764D02*
D03*
X724409Y212571D02*
D03*
Y219264D02*
D03*
X411417Y209252D02*
D03*
Y202559D02*
D03*
X90551Y275394D02*
D03*
Y282087D02*
D03*
X826772Y284055D02*
D03*
Y277362D02*
D03*
Y175000D02*
D03*
Y181693D02*
D03*
X515748Y33307D02*
D03*
Y26614D02*
D03*
X303346Y224213D02*
D03*
Y230906D02*
D03*
X158858Y392520D02*
D03*
Y385827D02*
D03*
X84449D02*
D03*
Y392520D02*
D03*
X334842Y33268D02*
D03*
Y26575D02*
D03*
D37*
X59055Y19685D02*
D03*
D38*
X440945Y318898D02*
D03*
Y29528D02*
D03*
X852362Y419291D02*
D03*
X29528D02*
D03*
X852362Y29528D02*
D03*
X29528D02*
D03*
D39*
X143780Y400630D02*
D03*
X538386Y356299D02*
D03*
X549213Y366142D02*
D03*
X556102Y373031D02*
D03*
X278740Y434252D02*
D03*
X118110Y393701D02*
D03*
X196850D02*
D03*
X275590D02*
D03*
X196850Y433071D02*
D03*
X118110D02*
D03*
X39370D02*
D03*
Y393701D02*
D03*
Y354331D02*
D03*
X78740D02*
D03*
X118110D02*
D03*
X157480D02*
D03*
X196850D02*
D03*
X236221D02*
D03*
X275590D02*
D03*
X314961D02*
D03*
X354331D02*
D03*
X393701D02*
D03*
X669291Y314961D02*
D03*
X551181D02*
D03*
X669291Y354331D02*
D03*
X590551Y433071D02*
D03*
X629921D02*
D03*
X669291D02*
D03*
X708661D02*
D03*
X748032D02*
D03*
X866142Y393701D02*
D03*
X826772D02*
D03*
Y433071D02*
D03*
X787402D02*
D03*
Y354331D02*
D03*
X826772D02*
D03*
X866142D02*
D03*
X787402Y275590D02*
D03*
X748032D02*
D03*
X708661D02*
D03*
X669291D02*
D03*
X629921D02*
D03*
X590551D02*
D03*
X551181D02*
D03*
X472441D02*
D03*
X433071D02*
D03*
X393701D02*
D03*
X354331D02*
D03*
X275590D02*
D03*
X236221D02*
D03*
X196850Y236221D02*
D03*
X236221D02*
D03*
X275590D02*
D03*
X354331D02*
D03*
X472441D02*
D03*
X511811D02*
D03*
X669291D02*
D03*
X708661D02*
D03*
X787402D02*
D03*
X826772D02*
D03*
X866142Y196850D02*
D03*
X787402D02*
D03*
X748032D02*
D03*
X708661D02*
D03*
X669291D02*
D03*
X551181Y236221D02*
D03*
X590551D02*
D03*
Y196850D02*
D03*
X584646Y208268D02*
D03*
Y193701D02*
D03*
X472441Y196850D02*
D03*
X433071D02*
D03*
X393701D02*
D03*
X354331D02*
D03*
X314961D02*
D03*
X275590D02*
D03*
Y157480D02*
D03*
X314961D02*
D03*
X354331D02*
D03*
X393701D02*
D03*
X433071D02*
D03*
X472441D02*
D03*
X511811D02*
D03*
X551181D02*
D03*
X590551D02*
D03*
X629921D02*
D03*
X669291D02*
D03*
X708661D02*
D03*
X748032D02*
D03*
X787402D02*
D03*
X866142D02*
D03*
X787402Y78740D02*
D03*
X826772D02*
D03*
X866142D02*
D03*
Y118110D02*
D03*
X826772D02*
D03*
X787402D02*
D03*
X748032D02*
D03*
Y78740D02*
D03*
Y39370D02*
D03*
X708661D02*
D03*
Y78740D02*
D03*
Y118110D02*
D03*
X669291D02*
D03*
Y78740D02*
D03*
Y39370D02*
D03*
X629921D02*
D03*
Y78740D02*
D03*
Y118110D02*
D03*
X590551D02*
D03*
Y78740D02*
D03*
Y39370D02*
D03*
X472441D02*
D03*
X551181D02*
D03*
Y78740D02*
D03*
Y118110D02*
D03*
X511811D02*
D03*
X472441Y78740D02*
D03*
Y118110D02*
D03*
X433071D02*
D03*
Y78740D02*
D03*
X393701Y39370D02*
D03*
Y118110D02*
D03*
Y78740D02*
D03*
X354331Y118110D02*
D03*
X275590D02*
D03*
X314961D02*
D03*
X275590Y39370D02*
D03*
Y78740D02*
D03*
X236221Y196850D02*
D03*
X196850D02*
D03*
X236221Y157480D02*
D03*
Y118110D02*
D03*
Y78740D02*
D03*
Y39370D02*
D03*
X196850D02*
D03*
Y78740D02*
D03*
Y118110D02*
D03*
Y157480D02*
D03*
X157480Y118110D02*
D03*
Y78740D02*
D03*
Y39370D02*
D03*
X118110D02*
D03*
Y118110D02*
D03*
X78740D02*
D03*
X118110Y78740D02*
D03*
X78740D02*
D03*
Y39370D02*
D03*
X39370Y78740D02*
D03*
Y118110D02*
D03*
X157480Y157480D02*
D03*
X118110D02*
D03*
X78740D02*
D03*
X39370D02*
D03*
X157480Y196850D02*
D03*
X118110Y275590D02*
D03*
X157480Y236221D02*
D03*
Y275590D02*
D03*
Y314961D02*
D03*
X39370D02*
D03*
Y275590D02*
D03*
Y196850D02*
D03*
X118110D02*
D03*
X78740D02*
D03*
X118110Y236221D02*
D03*
X78740D02*
D03*
X39370D02*
D03*
X636811Y300197D02*
D03*
X340551Y375984D02*
D03*
X352362D02*
D03*
X465551Y315945D02*
D03*
X457677D02*
D03*
X473425D02*
D03*
X465551Y319882D02*
D03*
X473425D02*
D03*
X481299D02*
D03*
X758858Y380906D02*
D03*
Y388779D02*
D03*
X758858Y314961D02*
D03*
Y303150D02*
D03*
X837106Y218012D02*
D03*
Y229823D02*
D03*
X688976Y214567D02*
D03*
Y227362D02*
D03*
X799213Y302165D02*
D03*
Y311024D02*
D03*
X468504Y234252D02*
D03*
Y226378D02*
D03*
X336614Y218504D02*
D03*
X351378D02*
D03*
X343504Y296260D02*
D03*
Y289370D02*
D03*
X347441D02*
D03*
Y313976D02*
D03*
X282480Y318898D02*
D03*
X134843Y299213D02*
D03*
X282480Y339567D02*
D03*
X134843Y341535D02*
D03*
X215551Y379921D02*
D03*
X226378D02*
D03*
X136811Y439961D02*
D03*
X282480Y413386D02*
D03*
X126969Y409449D02*
D03*
Y418307D02*
D03*
X144685Y437992D02*
D03*
X450787Y342520D02*
D03*
X440945D02*
D03*
X431102D02*
D03*
X421260D02*
D03*
X395669Y358268D02*
D03*
Y378937D02*
D03*
Y388779D02*
D03*
Y398622D02*
D03*
Y408465D02*
D03*
Y418307D02*
D03*
Y428150D02*
D03*
Y438976D02*
D03*
X487205D02*
D03*
X486890Y428465D02*
D03*
X487047Y418465D02*
D03*
X487205Y408465D02*
D03*
X487047Y398465D02*
D03*
X486890Y388465D02*
D03*
X486732Y378465D02*
D03*
X486850Y368465D02*
D03*
X487008Y358465D02*
D03*
X473425Y351378D02*
D03*
X326772Y437992D02*
D03*
X289370Y426181D02*
D03*
X100000Y386221D02*
D03*
X69980Y400689D02*
D03*
X174409Y386221D02*
D03*
X218799Y400689D02*
D03*
X248819Y386221D02*
D03*
X76083Y290256D02*
D03*
X106102Y275787D02*
D03*
X185335Y290256D02*
D03*
X215354Y275787D02*
D03*
X288878Y239075D02*
D03*
X318898Y224606D02*
D03*
X396949Y217421D02*
D03*
X426968Y202953D02*
D03*
X505217Y191083D02*
D03*
X535236Y176614D02*
D03*
X489468Y292224D02*
D03*
X519488Y277756D02*
D03*
X595768Y329114D02*
D03*
X625787Y314646D02*
D03*
X350394Y26969D02*
D03*
X320374Y41437D02*
D03*
X531299Y27008D02*
D03*
X501279Y41476D02*
D03*
X637598Y212965D02*
D03*
X607579Y227433D02*
D03*
X739961Y212965D02*
D03*
X709941Y227433D02*
D03*
X842323Y175394D02*
D03*
X812303Y189862D02*
D03*
X842323Y277756D02*
D03*
X812303Y292224D02*
D03*
X734055Y315158D02*
D03*
X704035Y329626D02*
D03*
X309055Y302165D02*
D03*
X442913Y293307D02*
D03*
X437992Y293307D02*
D03*
X423228Y308071D02*
D03*
X428150D02*
D03*
X411417Y313976D02*
D03*
X533465Y404528D02*
D03*
X536417Y411417D02*
D03*
X539370Y418307D02*
D03*
X542323Y425197D02*
D03*
X545276Y432087D02*
D03*
X548228Y438976D02*
D03*
X220472Y265748D02*
D03*
Y276575D02*
D03*
X323819Y215551D02*
D03*
Y224410D02*
D03*
X436024Y192913D02*
D03*
Y203740D02*
D03*
X522638Y268701D02*
D03*
Y274606D02*
D03*
X636811Y308071D02*
D03*
X739173Y304134D02*
D03*
Y312008D02*
D03*
X180118Y376969D02*
D03*
Y388779D02*
D03*
X314961Y393701D02*
D03*
D40*
X530118Y182520D02*
D03*
Y176614D02*
D03*
X509252D02*
D03*
Y182520D02*
D03*
X611614Y218870D02*
D03*
Y212965D02*
D03*
X632480D02*
D03*
Y218870D02*
D03*
X514370Y283661D02*
D03*
Y277756D02*
D03*
X493504D02*
D03*
Y283661D02*
D03*
X599803Y320551D02*
D03*
Y314646D02*
D03*
X620669D02*
D03*
Y320551D02*
D03*
X210236Y281693D02*
D03*
Y275787D02*
D03*
X189370D02*
D03*
Y281693D02*
D03*
X222835Y392126D02*
D03*
Y386221D02*
D03*
X243701D02*
D03*
Y392126D02*
D03*
X728937Y321063D02*
D03*
Y315158D02*
D03*
X708071D02*
D03*
Y321063D02*
D03*
X713976Y218870D02*
D03*
Y212965D02*
D03*
X734842D02*
D03*
Y218870D02*
D03*
X421850Y208858D02*
D03*
Y202953D02*
D03*
X400984D02*
D03*
Y208858D02*
D03*
X80118Y281693D02*
D03*
Y275787D02*
D03*
X100984D02*
D03*
Y281693D02*
D03*
X837205Y283661D02*
D03*
Y277756D02*
D03*
X816339D02*
D03*
Y283661D02*
D03*
Y181299D02*
D03*
Y175394D02*
D03*
X837205D02*
D03*
Y181299D02*
D03*
X526181Y32913D02*
D03*
Y27008D02*
D03*
X505315D02*
D03*
Y32913D02*
D03*
X292913Y230512D02*
D03*
Y224606D02*
D03*
X313779D02*
D03*
Y230512D02*
D03*
X169291Y392126D02*
D03*
Y386221D02*
D03*
X148425D02*
D03*
Y392126D02*
D03*
X74016D02*
D03*
Y386221D02*
D03*
X94882D02*
D03*
Y392126D02*
D03*
X345276Y32874D02*
D03*
Y26969D02*
D03*
X324410D02*
D03*
Y32874D02*
D03*
D41*
X508465Y221693D02*
D03*
X550591Y213032D02*
D03*
X652953Y249382D02*
D03*
X610827Y258043D02*
D03*
X492717Y322835D02*
D03*
X534842Y314173D02*
D03*
X641142Y351063D02*
D03*
X599016Y359724D02*
D03*
X188583Y320866D02*
D03*
X230709Y312205D02*
D03*
X264173Y422638D02*
D03*
X222047Y431299D02*
D03*
X707283Y360236D02*
D03*
X749409Y351575D02*
D03*
X755315Y249382D02*
D03*
X713189Y258043D02*
D03*
X400197Y248031D02*
D03*
X442323Y239370D02*
D03*
X121457Y312205D02*
D03*
X79331Y320866D02*
D03*
X815551Y322835D02*
D03*
X857677Y314173D02*
D03*
Y211811D02*
D03*
X815551Y220472D02*
D03*
X504528Y72087D02*
D03*
X546654Y63425D02*
D03*
X334252Y261024D02*
D03*
X292126Y269685D02*
D03*
X147638Y431299D02*
D03*
X189764Y422638D02*
D03*
X115354D02*
D03*
X73228Y431299D02*
D03*
X323622Y72047D02*
D03*
X365748Y63386D02*
D03*
D42*
X553150Y438976D02*
D03*
Y432087D02*
D03*
Y425197D02*
D03*
Y418307D02*
D03*
Y411417D02*
D03*
Y404528D02*
D03*
Y349410D02*
D03*
Y356299D02*
D03*
Y363189D02*
D03*
Y370079D02*
D03*
Y376969D02*
D03*
Y390748D02*
D03*
Y397638D02*
D03*
Y383858D02*
D03*
X321850Y19685D02*
D03*
X741142Y218504D02*
D03*
X638779D02*
D03*
X536417Y182087D02*
D03*
X532480Y32480D02*
D03*
X351378D02*
D03*
X844488Y181102D02*
D03*
X843504Y283465D02*
D03*
X736221Y320866D02*
D03*
X626968D02*
D03*
X428150Y208661D02*
D03*
X319882Y230315D02*
D03*
X217520Y281496D02*
D03*
X520669Y283465D02*
D03*
X107283Y281496D02*
D03*
X250000Y391732D02*
D03*
X177165D02*
D03*
X101378D02*
D03*
X357283Y408465D02*
D03*
X357283Y401575D02*
D03*
Y394685D02*
D03*
Y387795D02*
D03*
Y380906D02*
D03*
X368110Y428150D02*
D03*
Y418307D02*
D03*
Y438976D02*
D03*
D43*
X519685Y349409D02*
D03*
X513779D02*
D03*
X519685Y356299D02*
D03*
X513779D02*
D03*
X519685Y363189D02*
D03*
X513779D02*
D03*
X519685Y370079D02*
D03*
X513779D02*
D03*
X519685Y376969D02*
D03*
X513779D02*
D03*
X519685Y383858D02*
D03*
X513779D02*
D03*
Y390748D02*
D03*
X519685D02*
D03*
X513779Y397638D02*
D03*
X519685D02*
D03*
X513779Y404528D02*
D03*
X519685D02*
D03*
X513779Y411417D02*
D03*
X519685D02*
D03*
X513779Y418307D02*
D03*
X519685D02*
D03*
X513779Y425197D02*
D03*
X519685D02*
D03*
X513779Y432087D02*
D03*
X519685D02*
D03*
X513779Y438976D02*
D03*
X519685D02*
D03*
X364173Y408465D02*
D03*
X370079D02*
D03*
X364173Y401575D02*
D03*
X370079D02*
D03*
X364173Y394685D02*
D03*
X370079D02*
D03*
X364173Y387795D02*
D03*
X370079D02*
D03*
X364173Y380906D02*
D03*
X370079D02*
D03*
D44*
X815945Y185925D02*
D03*
Y190059D02*
D03*
X713583Y223327D02*
D03*
Y227461D02*
D03*
X611221Y223327D02*
D03*
Y227461D02*
D03*
X508858Y186909D02*
D03*
Y191043D02*
D03*
X504921Y37303D02*
D03*
Y41437D02*
D03*
X323819Y37303D02*
D03*
Y41437D02*
D03*
X815945Y288287D02*
D03*
Y292421D02*
D03*
X707677Y325689D02*
D03*
Y329823D02*
D03*
X599409Y324705D02*
D03*
Y328839D02*
D03*
X493110Y288287D02*
D03*
Y292421D02*
D03*
X400591Y213484D02*
D03*
Y217618D02*
D03*
X292323Y235138D02*
D03*
Y239272D02*
D03*
X188976Y286319D02*
D03*
Y290453D02*
D03*
X79724Y286319D02*
D03*
Y290453D02*
D03*
X222441Y396555D02*
D03*
Y400689D02*
D03*
X147638Y396555D02*
D03*
Y400689D02*
D03*
X73819Y396555D02*
D03*
Y400689D02*
D03*
X326772Y430020D02*
D03*
Y434154D02*
D03*
X289370Y430020D02*
D03*
Y434154D02*
D03*
D45*
X296457Y434291D02*
D03*
Y429291D02*
D03*
Y424291D02*
D03*
Y419291D02*
D03*
Y414291D02*
D03*
Y409291D02*
D03*
X317717Y434291D02*
D03*
Y429291D02*
D03*
Y424291D02*
D03*
Y419291D02*
D03*
Y414291D02*
D03*
Y409291D02*
D03*
Y404291D02*
D03*
X296457D02*
D03*
D46*
X326772Y417323D02*
D03*
Y423228D02*
D03*
M02*
