G04*
G04 #@! TF.GenerationSoftware,Altium Limited,CircuitStudio,1.5.2 (30)*
G04*
G04 Layer_Color=15065295*
%FSLAX25Y25*%
%MOIN*%
G70*
G01*
G75*
%ADD23C,0.00591*%
%ADD24C,0.01000*%
D23*
X454528Y408465D02*
Y413189D01*
X449803D02*
X454528D01*
X447441Y402953D02*
Y404921D01*
Y392953D02*
Y394921D01*
Y382953D02*
Y384921D01*
Y372953D02*
Y374921D01*
Y362953D02*
Y364921D01*
Y352953D02*
Y354921D01*
Y342953D02*
Y344921D01*
Y332953D02*
Y334921D01*
X375394Y402953D02*
Y404921D01*
Y392953D02*
Y394921D01*
Y382953D02*
Y384921D01*
Y372953D02*
Y374921D01*
Y362953D02*
Y364921D01*
Y352953D02*
Y354921D01*
Y342953D02*
Y344921D01*
Y332953D02*
Y334921D01*
Y321850D02*
Y324921D01*
Y321850D02*
X387205D01*
X395472D02*
X397441D01*
X405472D02*
X407441D01*
X415472D02*
X417441D01*
X425472D02*
X427441D01*
X435630D02*
X447441D01*
Y324921D01*
X293307Y71850D02*
X317323D01*
X257480D02*
X281496D01*
X317323Y12008D02*
Y71850D01*
X257480Y12008D02*
Y71850D01*
Y12008D02*
X317323D01*
X139370Y403937D02*
X163386D01*
X103543D02*
X127559D01*
X163386Y344094D02*
Y403937D01*
X103543Y344094D02*
Y403937D01*
Y344094D02*
X163386D01*
X235827Y218110D02*
X295669D01*
X235827D02*
Y277953D01*
X295669Y218110D02*
Y277953D01*
X235827D02*
X259842D01*
X271654D02*
X295669D01*
X484252Y71850D02*
X508268D01*
X448425D02*
X472441D01*
X508268Y12008D02*
Y71850D01*
X448425Y12008D02*
Y71850D01*
Y12008D02*
X508268D01*
X755512Y121653D02*
X815354D01*
X755512D02*
Y181496D01*
X815354Y121653D02*
Y181496D01*
X755512D02*
X779528D01*
X791339D02*
X815354D01*
X791339Y283858D02*
X815354D01*
X755512D02*
X779528D01*
X815354Y224016D02*
Y283858D01*
X755512Y224016D02*
Y283858D01*
Y224016D02*
X815354D01*
X86221Y237795D02*
X146063D01*
X86221D02*
Y297638D01*
X146063Y237795D02*
Y297638D01*
X86221D02*
X110236D01*
X122047D02*
X146063D01*
X393701Y236614D02*
X417717D01*
X357874D02*
X381890D01*
X417717Y176772D02*
Y236614D01*
X357874Y176772D02*
Y236614D01*
Y176772D02*
X417717D01*
X657087Y174961D02*
X716929D01*
X657087D02*
Y234803D01*
X716929Y174961D02*
Y234803D01*
X657087D02*
X681102D01*
X692913D02*
X716929D01*
X687008Y337008D02*
X711024D01*
X651181D02*
X675197D01*
X711024Y277165D02*
Y337008D01*
X651181Y277165D02*
Y337008D01*
Y277165D02*
X711024D01*
X177953Y344094D02*
X237795D01*
X177953D02*
Y403937D01*
X237795Y344094D02*
Y403937D01*
X177953D02*
X201969D01*
X213779D02*
X237795D01*
X196850Y297638D02*
X220866D01*
X161024D02*
X185039D01*
X220866Y237795D02*
Y297638D01*
X161024Y237795D02*
Y297638D01*
Y237795D02*
X220866D01*
X542913Y276654D02*
X602756D01*
X542913D02*
Y336496D01*
X602756Y276654D02*
Y336496D01*
X542913D02*
X566929D01*
X578740D02*
X602756D01*
X476378Y299606D02*
X500394D01*
X440551D02*
X464567D01*
X500394Y239764D02*
Y299606D01*
X440551Y239764D02*
Y299606D01*
Y239764D02*
X500394D01*
X554724Y174961D02*
X614567D01*
X554724D02*
Y234803D01*
X614567Y174961D02*
Y234803D01*
X554724D02*
X578740D01*
X590551D02*
X614567D01*
X492126Y198465D02*
X516142D01*
X456299D02*
X480315D01*
X516142Y138622D02*
Y198465D01*
X456299Y138622D02*
Y198465D01*
Y138622D02*
X516142D01*
X64961Y403937D02*
X88976D01*
X29134D02*
X53150D01*
X88976Y344094D02*
Y403937D01*
X29134Y344094D02*
Y403937D01*
Y344094D02*
X88976D01*
X43307Y209055D02*
X67323D01*
X7480D02*
X31496D01*
X67323Y149213D02*
Y209055D01*
X7480Y149213D02*
Y209055D01*
Y149213D02*
X67323D01*
D24*
X479392Y134920D02*
X478393Y135919D01*
X476393D01*
X475394Y134920D01*
Y133920D01*
X476393Y132920D01*
X478393D01*
X479392Y131921D01*
Y130921D01*
X478393Y129921D01*
X476393D01*
X475394Y130921D01*
X481392Y135919D02*
Y129921D01*
X483391Y131921D01*
X485391Y129921D01*
Y135919D01*
X487390Y128922D02*
X491389D01*
X493388Y135919D02*
Y129921D01*
X496387D01*
X497387Y130921D01*
Y131921D01*
X496387Y132920D01*
X493388D01*
X496387D01*
X497387Y133920D01*
Y134920D01*
X496387Y135919D01*
X493388D01*
X499386Y129921D02*
X501385D01*
X500386D01*
Y135919D01*
X499386Y134920D01*
X575849Y171325D02*
X574849Y172325D01*
X572850D01*
X571850Y171325D01*
Y170326D01*
X572850Y169326D01*
X574849D01*
X575849Y168326D01*
Y167326D01*
X574849Y166327D01*
X572850D01*
X571850Y167326D01*
X577848Y172325D02*
Y166327D01*
X579848Y168326D01*
X581847Y166327D01*
Y172325D01*
X583847Y165327D02*
X587845D01*
X589845Y172325D02*
Y166327D01*
X592844D01*
X593843Y167326D01*
Y168326D01*
X592844Y169326D01*
X589845D01*
X592844D01*
X593843Y170326D01*
Y171325D01*
X592844Y172325D01*
X589845D01*
X599841Y166327D02*
X595843D01*
X599841Y170326D01*
Y171325D01*
X598842Y172325D01*
X596842D01*
X595843Y171325D01*
X462660Y236298D02*
X461660Y237297D01*
X459661D01*
X458661Y236298D01*
Y235298D01*
X459661Y234298D01*
X461660D01*
X462660Y233299D01*
Y232299D01*
X461660Y231299D01*
X459661D01*
X458661Y232299D01*
X464660Y237297D02*
Y231299D01*
X466659Y233299D01*
X468658Y231299D01*
Y237297D01*
X470657Y230299D02*
X474656D01*
X476656Y237297D02*
Y231299D01*
X479655D01*
X480654Y232299D01*
Y233299D01*
X479655Y234298D01*
X476656D01*
X479655D01*
X480654Y235298D01*
Y236298D01*
X479655Y237297D01*
X476656D01*
X482654Y236298D02*
X483653Y237297D01*
X485653D01*
X486652Y236298D01*
Y235298D01*
X485653Y234298D01*
X484653D01*
X485653D01*
X486652Y233299D01*
Y232299D01*
X485653Y231299D01*
X483653D01*
X482654Y232299D01*
X564038Y272715D02*
X563038Y273715D01*
X561039D01*
X560039Y272715D01*
Y271715D01*
X561039Y270716D01*
X563038D01*
X564038Y269716D01*
Y268716D01*
X563038Y267717D01*
X561039D01*
X560039Y268716D01*
X566037Y273715D02*
Y267717D01*
X568037Y269716D01*
X570036Y267717D01*
Y273715D01*
X572036Y266717D02*
X576034D01*
X578034Y273715D02*
Y267717D01*
X581033D01*
X582032Y268716D01*
Y269716D01*
X581033Y270716D01*
X578034D01*
X581033D01*
X582032Y271715D01*
Y272715D01*
X581033Y273715D01*
X578034D01*
X587031Y267717D02*
Y273715D01*
X584032Y270716D01*
X588030D01*
X176243Y234329D02*
X175243Y235329D01*
X173244D01*
X172244Y234329D01*
Y233329D01*
X173244Y232330D01*
X175243D01*
X176243Y231330D01*
Y230330D01*
X175243Y229331D01*
X173244D01*
X172244Y230330D01*
X178242Y235329D02*
Y229331D01*
X180242Y231330D01*
X182241Y229331D01*
Y235329D01*
X184240Y228331D02*
X188239D01*
X190238Y235329D02*
Y229331D01*
X193237D01*
X194237Y230330D01*
Y234329D01*
X193237Y235329D01*
X190238D01*
X197236Y229331D02*
X199235D01*
X200235Y230330D01*
Y232330D01*
X199235Y233329D01*
X197236D01*
X196236Y232330D01*
Y230330D01*
X197236Y229331D01*
X202234Y233329D02*
Y230330D01*
X203234Y229331D01*
X204234Y230330D01*
X205233Y229331D01*
X206233Y230330D01*
Y233329D01*
X208232Y229331D02*
Y233329D01*
X211231D01*
X212231Y232330D01*
Y229331D01*
X193172Y340431D02*
X192172Y341431D01*
X190173D01*
X189173Y340431D01*
Y339432D01*
X190173Y338432D01*
X192172D01*
X193172Y337432D01*
Y336433D01*
X192172Y335433D01*
X190173D01*
X189173Y336433D01*
X195171Y341431D02*
Y335433D01*
X197171Y337432D01*
X199170Y335433D01*
Y341431D01*
X201169Y334433D02*
X205168D01*
X207167Y341431D02*
Y335433D01*
Y338432D01*
X211166D01*
Y341431D01*
Y335433D01*
X214165D02*
X216164D01*
X217164Y336433D01*
Y338432D01*
X216164Y339432D01*
X214165D01*
X213165Y338432D01*
Y336433D01*
X214165Y335433D01*
X219163D02*
Y339432D01*
X220163D01*
X221163Y338432D01*
Y335433D01*
Y338432D01*
X222163Y339432D01*
X223162Y338432D01*
Y335433D01*
X228161D02*
X226161D01*
X225162Y336433D01*
Y338432D01*
X226161Y339432D01*
X228161D01*
X229160Y338432D01*
Y337432D01*
X225162D01*
X673290Y273699D02*
X672290Y274699D01*
X670291D01*
X669291Y273699D01*
Y272699D01*
X670291Y271700D01*
X672290D01*
X673290Y270700D01*
Y269701D01*
X672290Y268701D01*
X670291D01*
X669291Y269701D01*
X675289Y274699D02*
Y268701D01*
X677289Y270700D01*
X679288Y268701D01*
Y274699D01*
X681287Y267701D02*
X685286D01*
X687286Y274699D02*
Y268701D01*
X691284D01*
X693284D02*
X695283D01*
X694283D01*
Y274699D01*
X693284Y273699D01*
X679196Y171325D02*
X678196Y172325D01*
X676196D01*
X675197Y171325D01*
Y170326D01*
X676196Y169326D01*
X678196D01*
X679196Y168326D01*
Y167326D01*
X678196Y166327D01*
X676196D01*
X675197Y167326D01*
X681195Y172325D02*
Y166327D01*
X683194Y168326D01*
X685194Y166327D01*
Y172325D01*
X687193Y165327D02*
X691192D01*
X693191Y172325D02*
Y166327D01*
X697190D01*
X703188D02*
X699189D01*
X703188Y170326D01*
Y171325D01*
X702188Y172325D01*
X700189D01*
X699189Y171325D01*
X378999Y172321D02*
X377999Y173321D01*
X376000D01*
X375000Y172321D01*
Y171321D01*
X376000Y170322D01*
X377999D01*
X378999Y169322D01*
Y168323D01*
X377999Y167323D01*
X376000D01*
X375000Y168323D01*
X380998Y173321D02*
Y167323D01*
X382997Y169322D01*
X384997Y167323D01*
Y173321D01*
X386996Y166323D02*
X390995D01*
X392994Y173321D02*
Y167323D01*
X396993D01*
X398992Y172321D02*
X399992Y173321D01*
X401991D01*
X402991Y172321D01*
Y171321D01*
X401991Y170322D01*
X400992D01*
X401991D01*
X402991Y169322D01*
Y168323D01*
X401991Y167323D01*
X399992D01*
X398992Y168323D01*
X103408Y234329D02*
X102409Y235329D01*
X100409D01*
X99410Y234329D01*
Y233329D01*
X100409Y232330D01*
X102409D01*
X103408Y231330D01*
Y230330D01*
X102409Y229331D01*
X100409D01*
X99410Y230330D01*
X105408Y235329D02*
Y229331D01*
X107407Y231330D01*
X109406Y229331D01*
Y235329D01*
X111406Y228331D02*
X115404D01*
X117404Y235329D02*
Y229331D01*
X121402D01*
X126401D02*
X124401D01*
X123402Y230330D01*
Y232330D01*
X124401Y233329D01*
X126401D01*
X127400Y232330D01*
Y231330D01*
X123402D01*
X130399Y229331D02*
Y234329D01*
Y232330D01*
X129400D01*
X131399D01*
X130399D01*
Y234329D01*
X131399Y235329D01*
X135398Y234329D02*
Y233329D01*
X134398D01*
X136398D01*
X135398D01*
Y230330D01*
X136398Y229331D01*
X779589Y219565D02*
X778590Y220565D01*
X776590D01*
X775591Y219565D01*
Y218566D01*
X776590Y217566D01*
X778590D01*
X779589Y216566D01*
Y215567D01*
X778590Y214567D01*
X776590D01*
X775591Y215567D01*
X781589Y220565D02*
Y214567D01*
X783588Y216566D01*
X785587Y214567D01*
Y220565D01*
X787587Y213567D02*
X791585D01*
X793585Y214567D02*
Y220565D01*
X796584D01*
X797583Y219565D01*
Y217566D01*
X796584Y216566D01*
X793585D01*
X795584D02*
X797583Y214567D01*
X799583D02*
X801582D01*
X800583D01*
Y220565D01*
X799583Y219565D01*
X775652Y117203D02*
X774653Y118203D01*
X772653D01*
X771654Y117203D01*
Y116203D01*
X772653Y115204D01*
X774653D01*
X775652Y114204D01*
Y113204D01*
X774653Y112205D01*
X772653D01*
X771654Y113204D01*
X777652Y118203D02*
Y112205D01*
X779651Y114204D01*
X781650Y112205D01*
Y118203D01*
X783650Y111205D02*
X787648D01*
X789648Y112205D02*
Y118203D01*
X792647D01*
X793646Y117203D01*
Y115204D01*
X792647Y114204D01*
X789648D01*
X791647D02*
X793646Y112205D01*
X799645D02*
X795646D01*
X799645Y116203D01*
Y117203D01*
X798645Y118203D01*
X796645D01*
X795646Y117203D01*
X469550Y8305D02*
X468550Y9305D01*
X466551D01*
X465551Y8305D01*
Y7306D01*
X466551Y6306D01*
X468550D01*
X469550Y5306D01*
Y4307D01*
X468550Y3307D01*
X466551D01*
X465551Y4307D01*
X471549Y9305D02*
Y3307D01*
X473549Y5306D01*
X475548Y3307D01*
Y9305D01*
X477547Y2307D02*
X481546D01*
X483545Y3307D02*
Y9305D01*
X486544D01*
X487544Y8305D01*
Y6306D01*
X486544Y5306D01*
X483545D01*
X485545D02*
X487544Y3307D01*
X489543Y8305D02*
X490543Y9305D01*
X492543D01*
X493542Y8305D01*
Y7306D01*
X492543Y6306D01*
X491543D01*
X492543D01*
X493542Y5306D01*
Y4307D01*
X492543Y3307D01*
X490543D01*
X489543Y4307D01*
X249865Y214644D02*
X248865Y215644D01*
X246866D01*
X245866Y214644D01*
Y213644D01*
X246866Y212645D01*
X248865D01*
X249865Y211645D01*
Y210645D01*
X248865Y209646D01*
X246866D01*
X245866Y210645D01*
X251864Y215644D02*
Y209646D01*
X253864Y211645D01*
X255863Y209646D01*
Y215644D01*
X257862Y208646D02*
X261861D01*
X263860Y209646D02*
Y215644D01*
X266859D01*
X267859Y214644D01*
Y212645D01*
X266859Y211645D01*
X263860D01*
X265860D02*
X267859Y209646D01*
X269858D02*
X271858D01*
X270858D01*
Y213644D01*
X269858D01*
X276856Y207646D02*
X277856D01*
X278855Y208646D01*
Y213644D01*
X275856D01*
X274857Y212645D01*
Y210645D01*
X275856Y209646D01*
X278855D01*
X280855Y215644D02*
Y209646D01*
Y212645D01*
X281855Y213644D01*
X283854D01*
X284854Y212645D01*
Y209646D01*
X287853Y214644D02*
Y213644D01*
X286853D01*
X288852D01*
X287853D01*
Y210645D01*
X288852Y209646D01*
X124274Y340431D02*
X123275Y341431D01*
X121275D01*
X120276Y340431D01*
Y339432D01*
X121275Y338432D01*
X123275D01*
X124274Y337432D01*
Y336433D01*
X123275Y335433D01*
X121275D01*
X120276Y336433D01*
X126274Y341431D02*
Y335433D01*
X128273Y337432D01*
X130272Y335433D01*
Y341431D01*
X132272Y334433D02*
X136270D01*
X142269Y340431D02*
X141269Y341431D01*
X139269D01*
X138270Y340431D01*
Y339432D01*
X139269Y338432D01*
X141269D01*
X142269Y337432D01*
Y336433D01*
X141269Y335433D01*
X139269D01*
X138270Y336433D01*
X144268Y335433D02*
X146267D01*
X145267D01*
Y341431D01*
X144268Y340431D01*
X278408Y8345D02*
X277409Y9345D01*
X275409D01*
X274409Y8345D01*
Y7345D01*
X275409Y6346D01*
X277409D01*
X278408Y5346D01*
Y4346D01*
X277409Y3347D01*
X275409D01*
X274409Y4346D01*
X280408Y9345D02*
Y3347D01*
X282407Y5346D01*
X284406Y3347D01*
Y9345D01*
X286406Y2347D02*
X290404D01*
X292404Y9345D02*
Y4346D01*
X293403Y3347D01*
X295403D01*
X296402Y4346D01*
Y9345D01*
X298402Y1347D02*
Y7345D01*
X301401D01*
X302400Y6346D01*
Y4346D01*
X301401Y3347D01*
X298402D01*
X48487Y340431D02*
X47487Y341431D01*
X45488D01*
X44488Y340431D01*
Y339432D01*
X45488Y338432D01*
X47487D01*
X48487Y337432D01*
Y336433D01*
X47487Y335433D01*
X45488D01*
X44488Y336433D01*
X50486Y341431D02*
Y335433D01*
X52486Y337432D01*
X54485Y335433D01*
Y341431D01*
X56484Y334433D02*
X60483D01*
X66481Y340431D02*
X65481Y341431D01*
X63482D01*
X62482Y340431D01*
Y339432D01*
X63482Y338432D01*
X65481D01*
X66481Y337432D01*
Y336433D01*
X65481Y335433D01*
X63482D01*
X62482Y336433D01*
X72479Y335433D02*
X68480D01*
X72479Y339432D01*
Y340431D01*
X71479Y341431D01*
X69480D01*
X68480Y340431D01*
X24865Y145156D02*
X23865Y146156D01*
X21866D01*
X20866Y145156D01*
Y144156D01*
X21866Y143157D01*
X23865D01*
X24865Y142157D01*
Y141157D01*
X23865Y140157D01*
X21866D01*
X20866Y141157D01*
X26864Y146156D02*
Y140157D01*
X28863Y142157D01*
X30863Y140157D01*
Y146156D01*
X32862Y139158D02*
X36861D01*
X38860Y140157D02*
Y144156D01*
X40860Y146156D01*
X42859Y144156D01*
Y140157D01*
Y143157D01*
X38860D01*
X48857Y140157D02*
X44858D01*
X48857Y144156D01*
Y145156D01*
X47857Y146156D01*
X45858D01*
X44858Y145156D01*
M02*
