G04*
G04 #@! TF.GenerationSoftware,Altium Limited,CircuitStudio,1.5.2 (30)*
G04*
G04 Layer_Physical_Order=2*
G04 Layer_Color=16765976*
%FSLAX25Y25*%
%MOIN*%
G70*
G01*
G75*
%ADD14C,0.14173*%
%ADD17C,0.03150*%
G36*
X408949Y444882D02*
X409449Y444882D01*
X409936Y444852D01*
X410477Y444781D01*
X411434Y444384D01*
X412257Y443753D01*
X412888Y442930D01*
X413284Y441973D01*
X413420Y440945D01*
X413386Y364173D01*
X413386Y364173D01*
X413352D01*
X413487Y363145D01*
X413884Y362188D01*
X414515Y361365D01*
X415337Y360734D01*
X416295Y360338D01*
X417323Y360202D01*
X464533Y360236D01*
X464567Y360202D01*
Y360202D01*
X465595Y360338D01*
X466552Y360734D01*
X467375Y361365D01*
X468006Y362188D01*
X468403Y363145D01*
X468538Y364173D01*
X468504Y440945D01*
Y440945D01*
X468474Y440979D01*
X468605Y441973D01*
X469002Y442930D01*
X469633Y443753D01*
X470456Y444384D01*
X471413Y444781D01*
X472407Y444911D01*
X472441Y444882D01*
Y444882D01*
X852362D01*
Y444882D01*
X852402Y444920D01*
X855232Y444761D01*
X858066Y444280D01*
X860828Y443484D01*
X863483Y442384D01*
X865999Y440994D01*
X868343Y439330D01*
X870486Y437415D01*
X872401Y435272D01*
X874065Y432928D01*
X875455Y430412D01*
X876555Y427757D01*
X877350Y424995D01*
X877832Y422161D01*
X877991Y419332D01*
X877953Y419291D01*
X877953D01*
Y29528D01*
X877953D01*
X877991Y29487D01*
X877832Y26658D01*
X877350Y23824D01*
X876555Y21062D01*
X875455Y18407D01*
X874065Y15891D01*
X872401Y13547D01*
X870486Y11404D01*
X868343Y9488D01*
X865999Y7825D01*
X863483Y6435D01*
X860828Y5335D01*
X858066Y4539D01*
X855232Y4058D01*
X852362Y3897D01*
X30028Y3937D01*
X29528Y3937D01*
X29033Y3924D01*
X26658Y4058D01*
X23824Y4539D01*
X21062Y5335D01*
X18407Y6435D01*
X15891Y7825D01*
X13547Y9488D01*
X11404Y11404D01*
X9488Y13547D01*
X7825Y15891D01*
X6435Y18407D01*
X5335Y21062D01*
X4539Y23824D01*
X4058Y26658D01*
X3897Y29528D01*
X3937Y419291D01*
X3937D01*
X3899Y419332D01*
X4058Y422161D01*
X4539Y424995D01*
X5335Y427757D01*
X6435Y430412D01*
X7825Y432928D01*
X9488Y435272D01*
X11404Y437415D01*
X13547Y439330D01*
X15891Y440994D01*
X18407Y442384D01*
X21062Y443484D01*
X23824Y444280D01*
X26658Y444761D01*
X29528Y444922D01*
X408949Y444882D01*
D02*
G37*
%LPC*%
G36*
X724409Y265166D02*
X722943Y265022D01*
X721533Y264594D01*
X720233Y263899D01*
X719095Y262965D01*
X718160Y261826D01*
X717465Y260526D01*
X717037Y259116D01*
X716893Y257650D01*
X717037Y256183D01*
X717465Y254773D01*
X718160Y253474D01*
X719095Y252335D01*
X720233Y251400D01*
X721533Y250705D01*
X722943Y250277D01*
X724409Y250133D01*
X725876Y250277D01*
X727286Y250705D01*
X728585Y251400D01*
X729724Y252335D01*
X730659Y253474D01*
X731354Y254773D01*
X731781Y256183D01*
X731926Y257650D01*
X731781Y259116D01*
X731354Y260526D01*
X730659Y261826D01*
X729724Y262965D01*
X728585Y263899D01*
X727286Y264594D01*
X725876Y265022D01*
X724409Y265166D01*
D02*
G37*
G36*
X640945Y257019D02*
X640227Y256948D01*
X638780Y256509D01*
X637446Y255796D01*
X636277Y254837D01*
X635318Y253668D01*
X634605Y252334D01*
X634166Y250887D01*
X634095Y250169D01*
X640945D01*
Y257019D01*
D02*
G37*
G36*
X642520D02*
Y250169D01*
X649369D01*
X649298Y250887D01*
X648859Y252334D01*
X648146Y253668D01*
X647187Y254837D01*
X646018Y255796D01*
X644684Y256509D01*
X643237Y256948D01*
X642520Y257019D01*
D02*
G37*
G36*
X622047Y265166D02*
X620581Y265022D01*
X619171Y264594D01*
X617871Y263899D01*
X616732Y262965D01*
X615798Y261826D01*
X615103Y260526D01*
X614675Y259116D01*
X614531Y257650D01*
X614675Y256183D01*
X615103Y254773D01*
X615798Y253474D01*
X616732Y252335D01*
X617871Y251400D01*
X619171Y250705D01*
X620581Y250277D01*
X622047Y250133D01*
X623514Y250277D01*
X624924Y250705D01*
X626223Y251400D01*
X627362Y252335D01*
X628297Y253474D01*
X628992Y254773D01*
X629419Y256183D01*
X629564Y257650D01*
X629419Y259116D01*
X628992Y260526D01*
X628297Y261826D01*
X627362Y262965D01*
X626223Y263899D01*
X624924Y264594D01*
X623514Y265022D01*
X622047Y265166D01*
D02*
G37*
G36*
X751731Y248594D02*
X744882D01*
Y241745D01*
X745600Y241816D01*
X747047Y242255D01*
X748380Y242968D01*
X749549Y243927D01*
X750509Y245096D01*
X751222Y246430D01*
X751661Y247877D01*
X751731Y248594D01*
D02*
G37*
G36*
X281693Y250233D02*
X280614Y250090D01*
X279608Y249674D01*
X278745Y249011D01*
X278082Y248148D01*
X277665Y247142D01*
X277523Y246063D01*
X277665Y244984D01*
X278082Y243978D01*
X278745Y243115D01*
X279608Y242452D01*
X280614Y242036D01*
X281693Y241894D01*
X282772Y242036D01*
X283778Y242452D01*
X284641Y243115D01*
X285304Y243978D01*
X285720Y244984D01*
X285862Y246063D01*
X285720Y247142D01*
X285304Y248148D01*
X284641Y249011D01*
X283778Y249674D01*
X282772Y250090D01*
X281693Y250233D01*
D02*
G37*
G36*
X325000D02*
X323921Y250090D01*
X322915Y249674D01*
X322052Y249011D01*
X321389Y248148D01*
X320973Y247142D01*
X320830Y246063D01*
X320973Y244984D01*
X321389Y243978D01*
X322052Y243115D01*
X322915Y242452D01*
X323921Y242036D01*
X325000Y241894D01*
X326079Y242036D01*
X327085Y242452D01*
X327948Y243115D01*
X328611Y243978D01*
X329027Y244984D01*
X329170Y246063D01*
X329027Y247142D01*
X328611Y248148D01*
X327948Y249011D01*
X327085Y249674D01*
X326079Y250090D01*
X325000Y250233D01*
D02*
G37*
G36*
X743307Y257019D02*
X742590Y256948D01*
X741142Y256509D01*
X739809Y255796D01*
X738640Y254837D01*
X737680Y253668D01*
X736967Y252334D01*
X736528Y250887D01*
X736458Y250169D01*
X743307D01*
Y257019D01*
D02*
G37*
G36*
X322244Y268660D02*
X321527Y268590D01*
X320079Y268151D01*
X318746Y267438D01*
X317577Y266478D01*
X316617Y265310D01*
X315904Y263976D01*
X315465Y262529D01*
X315395Y261811D01*
X322244D01*
Y268660D01*
D02*
G37*
G36*
X323819D02*
Y261811D01*
X330668D01*
X330598Y262529D01*
X330159Y263976D01*
X329446Y265310D01*
X328486Y266478D01*
X327317Y267438D01*
X325984Y268151D01*
X324536Y268590D01*
X323819Y268660D01*
D02*
G37*
G36*
X220472Y267755D02*
X219704Y267602D01*
X219053Y267167D01*
X218618Y266516D01*
X218465Y265748D01*
X218618Y264980D01*
X219053Y264329D01*
X219704Y263894D01*
X220472Y263741D01*
X221240Y263894D01*
X221892Y264329D01*
X222327Y264980D01*
X222480Y265748D01*
X222327Y266516D01*
X221892Y267167D01*
X221240Y267602D01*
X220472Y267755D01*
D02*
G37*
G36*
X303346Y276808D02*
X301880Y276663D01*
X300470Y276236D01*
X299170Y275541D01*
X298031Y274606D01*
X297097Y273467D01*
X296402Y272168D01*
X295974Y270758D01*
X295830Y269291D01*
X295974Y267825D01*
X296402Y266415D01*
X297097Y265115D01*
X298031Y263976D01*
X299170Y263042D01*
X300470Y262347D01*
X301880Y261919D01*
X303346Y261775D01*
X304813Y261919D01*
X306223Y262347D01*
X307522Y263042D01*
X308661Y263976D01*
X309596Y265115D01*
X310291Y266415D01*
X310718Y267825D01*
X310863Y269291D01*
X310718Y270758D01*
X310291Y272168D01*
X309596Y273467D01*
X308661Y274606D01*
X307522Y275541D01*
X306223Y276236D01*
X304813Y276663D01*
X303346Y276808D01*
D02*
G37*
G36*
X744882Y257019D02*
Y250169D01*
X751731D01*
X751661Y250887D01*
X751222Y252334D01*
X750509Y253668D01*
X749549Y254837D01*
X748380Y255796D01*
X747047Y256509D01*
X745600Y256948D01*
X744882Y257019D01*
D02*
G37*
G36*
X322244Y260236D02*
X315395D01*
X315465Y259519D01*
X315904Y258071D01*
X316617Y256738D01*
X317577Y255569D01*
X318746Y254609D01*
X320079Y253896D01*
X321527Y253457D01*
X322244Y253387D01*
Y260236D01*
D02*
G37*
G36*
X330668D02*
X323819D01*
Y253387D01*
X324536Y253457D01*
X325984Y253896D01*
X327317Y254609D01*
X328486Y255569D01*
X329446Y256738D01*
X330159Y258071D01*
X330598Y259519D01*
X330668Y260236D01*
D02*
G37*
G36*
X746063Y238591D02*
X744984Y238449D01*
X743978Y238032D01*
X743115Y237370D01*
X742452Y236506D01*
X742035Y235500D01*
X741893Y234421D01*
X742035Y233342D01*
X742452Y232336D01*
X743115Y231473D01*
X743978Y230810D01*
X744984Y230394D01*
X746063Y230252D01*
X747142Y230394D01*
X748148Y230810D01*
X749011Y231473D01*
X749674Y232336D01*
X750090Y233342D01*
X750233Y234421D01*
X750090Y235500D01*
X749674Y236506D01*
X749011Y237370D01*
X748148Y238032D01*
X747142Y238449D01*
X746063Y238591D01*
D02*
G37*
G36*
X393701Y241780D02*
X392262Y241590D01*
X390921Y241035D01*
X389770Y240152D01*
X388886Y239000D01*
X388331Y237659D01*
X388141Y236221D01*
X388331Y234782D01*
X388886Y233441D01*
X389770Y232289D01*
X390921Y231406D01*
X392262Y230851D01*
X393701Y230661D01*
X395140Y230851D01*
X396480Y231406D01*
X397632Y232289D01*
X398515Y233441D01*
X399071Y234782D01*
X399260Y236221D01*
X399071Y237659D01*
X398515Y239000D01*
X397632Y240152D01*
X396480Y241035D01*
X395140Y241590D01*
X393701Y241780D01*
D02*
G37*
G36*
X430315Y238583D02*
X423466D01*
X423536Y237865D01*
X423975Y236418D01*
X424688Y235084D01*
X425647Y233915D01*
X426817Y232956D01*
X428150Y232243D01*
X429597Y231804D01*
X430315Y231733D01*
Y238583D01*
D02*
G37*
G36*
X702756Y238591D02*
X701677Y238449D01*
X700671Y238032D01*
X699808Y237370D01*
X699145Y236506D01*
X698729Y235500D01*
X698586Y234421D01*
X698729Y233342D01*
X699145Y232336D01*
X699808Y231473D01*
X700671Y230810D01*
X701677Y230394D01*
X702756Y230252D01*
X703835Y230394D01*
X704841Y230810D01*
X705704Y231473D01*
X706367Y232336D01*
X706783Y233342D01*
X706925Y234421D01*
X706783Y235500D01*
X706367Y236506D01*
X705704Y237370D01*
X704841Y238032D01*
X703835Y238449D01*
X702756Y238591D01*
D02*
G37*
G36*
X323819Y226416D02*
X323051Y226264D01*
X322400Y225829D01*
X321965Y225178D01*
X321812Y224410D01*
X321965Y223641D01*
X322400Y222990D01*
X323051Y222555D01*
X323819Y222402D01*
X324587Y222555D01*
X325238Y222990D01*
X325673Y223641D01*
X325826Y224410D01*
X325673Y225178D01*
X325238Y225829D01*
X324587Y226264D01*
X323819Y226416D01*
D02*
G37*
G36*
X600394Y238591D02*
X599314Y238449D01*
X598309Y238032D01*
X597445Y237370D01*
X596783Y236506D01*
X596366Y235500D01*
X596224Y234421D01*
X596366Y233342D01*
X596783Y232336D01*
X597445Y231473D01*
X598309Y230810D01*
X599314Y230394D01*
X600394Y230252D01*
X601473Y230394D01*
X602479Y230810D01*
X603342Y231473D01*
X604005Y232336D01*
X604421Y233342D01*
X604563Y234421D01*
X604421Y235500D01*
X604005Y236506D01*
X603342Y237370D01*
X602479Y238032D01*
X601473Y238449D01*
X600394Y238591D01*
D02*
G37*
G36*
X643701D02*
X642622Y238449D01*
X641616Y238032D01*
X640753Y237370D01*
X640090Y236506D01*
X639673Y235500D01*
X639531Y234421D01*
X639673Y233342D01*
X640090Y232336D01*
X640753Y231473D01*
X641616Y230810D01*
X642622Y230394D01*
X643701Y230252D01*
X644780Y230394D01*
X645786Y230810D01*
X646649Y231473D01*
X647312Y232336D01*
X647728Y233342D01*
X647870Y234421D01*
X647728Y235500D01*
X647312Y236506D01*
X646649Y237370D01*
X645786Y238032D01*
X644780Y238449D01*
X643701Y238591D01*
D02*
G37*
G36*
X438739Y238583D02*
X431890D01*
Y231733D01*
X432607Y231804D01*
X434055Y232243D01*
X435388Y232956D01*
X436557Y233915D01*
X437517Y235084D01*
X438229Y236418D01*
X438668Y237865D01*
X438739Y238583D01*
D02*
G37*
G36*
X640945Y248594D02*
X634095D01*
X634166Y247877D01*
X634605Y246430D01*
X635318Y245096D01*
X636277Y243927D01*
X637446Y242968D01*
X638780Y242255D01*
X640227Y241816D01*
X640945Y241745D01*
Y248594D01*
D02*
G37*
G36*
X649369D02*
X642520D01*
Y241745D01*
X643237Y241816D01*
X644684Y242255D01*
X646018Y242968D01*
X647187Y243927D01*
X648146Y245096D01*
X648859Y246430D01*
X649298Y247877D01*
X649369Y248594D01*
D02*
G37*
G36*
X743307D02*
X736458D01*
X736528Y247877D01*
X736967Y246430D01*
X737680Y245096D01*
X738640Y243927D01*
X739809Y242968D01*
X741142Y242255D01*
X742590Y241816D01*
X743307Y241745D01*
Y248594D01*
D02*
G37*
G36*
X431890Y247007D02*
Y240158D01*
X438739D01*
X438668Y240875D01*
X438229Y242322D01*
X437517Y243656D01*
X436557Y244825D01*
X435388Y245784D01*
X434055Y246497D01*
X432607Y246936D01*
X431890Y247007D01*
D02*
G37*
G36*
X288878Y236948D02*
X288110Y236795D01*
X287459Y236360D01*
X287024Y235709D01*
X286871Y234941D01*
X287024Y234173D01*
X287459Y233522D01*
X288110Y233087D01*
X288878Y232934D01*
X289646Y233087D01*
X290297Y233522D01*
X290732Y234173D01*
X290885Y234941D01*
X290732Y235709D01*
X290297Y236360D01*
X289646Y236795D01*
X288878Y236948D01*
D02*
G37*
G36*
X411417Y255154D02*
X409951Y255010D01*
X408541Y254582D01*
X407241Y253888D01*
X406102Y252953D01*
X405168Y251814D01*
X404473Y250514D01*
X404045Y249104D01*
X403901Y247638D01*
X404045Y246171D01*
X404473Y244761D01*
X405168Y243462D01*
X406102Y242323D01*
X407241Y241388D01*
X408541Y240693D01*
X409951Y240266D01*
X411417Y240121D01*
X412884Y240266D01*
X414294Y240693D01*
X415593Y241388D01*
X416732Y242323D01*
X417667Y243462D01*
X418362Y244761D01*
X418789Y246171D01*
X418934Y247638D01*
X418789Y249104D01*
X418362Y250514D01*
X417667Y251814D01*
X416732Y252953D01*
X415593Y253888D01*
X414294Y254582D01*
X412884Y255010D01*
X411417Y255154D01*
D02*
G37*
G36*
X430315Y247007D02*
X429597Y246936D01*
X428150Y246497D01*
X426817Y245784D01*
X425647Y244825D01*
X424688Y243656D01*
X423975Y242322D01*
X423536Y240875D01*
X423466Y240158D01*
X430315D01*
Y247007D01*
D02*
G37*
G36*
X112205Y301414D02*
X111126Y301272D01*
X110120Y300855D01*
X109256Y300192D01*
X108594Y299329D01*
X108177Y298323D01*
X108035Y297244D01*
X108177Y296165D01*
X108594Y295159D01*
X109256Y294296D01*
X110120Y293633D01*
X111126Y293217D01*
X112205Y293075D01*
X113284Y293217D01*
X114289Y293633D01*
X115153Y294296D01*
X115816Y295159D01*
X116232Y296165D01*
X116374Y297244D01*
X116232Y298323D01*
X115816Y299329D01*
X115153Y300192D01*
X114289Y300855D01*
X113284Y301272D01*
X112205Y301414D01*
D02*
G37*
G36*
X178150D02*
X177070Y301272D01*
X176065Y300855D01*
X175201Y300192D01*
X174539Y299329D01*
X174122Y298323D01*
X173980Y297244D01*
X174122Y296165D01*
X174539Y295159D01*
X175201Y294296D01*
X176065Y293633D01*
X177070Y293217D01*
X178150Y293075D01*
X179229Y293217D01*
X180234Y293633D01*
X181098Y294296D01*
X181761Y295159D01*
X182177Y296165D01*
X182319Y297244D01*
X182177Y298323D01*
X181761Y299329D01*
X181098Y300192D01*
X180234Y300855D01*
X179229Y301272D01*
X178150Y301414D01*
D02*
G37*
G36*
X221457D02*
X220377Y301272D01*
X219372Y300855D01*
X218508Y300192D01*
X217846Y299329D01*
X217429Y298323D01*
X217287Y297244D01*
X217429Y296165D01*
X217846Y295159D01*
X218508Y294296D01*
X219372Y293633D01*
X220377Y293217D01*
X221457Y293075D01*
X222536Y293217D01*
X223541Y293633D01*
X224405Y294296D01*
X225068Y295159D01*
X225484Y296165D01*
X225626Y297244D01*
X225484Y298323D01*
X225068Y299329D01*
X224405Y300192D01*
X223541Y300855D01*
X222536Y301272D01*
X221457Y301414D01*
D02*
G37*
G36*
X68898D02*
X67818Y301272D01*
X66813Y300855D01*
X65949Y300192D01*
X65287Y299329D01*
X64870Y298323D01*
X64728Y297244D01*
X64870Y296165D01*
X65287Y295159D01*
X65949Y294296D01*
X66813Y293633D01*
X67818Y293217D01*
X68898Y293075D01*
X69977Y293217D01*
X70982Y293633D01*
X71846Y294296D01*
X72509Y295159D01*
X72925Y296165D01*
X73067Y297244D01*
X72925Y298323D01*
X72509Y299329D01*
X71846Y300192D01*
X70982Y300855D01*
X69977Y301272D01*
X68898Y301414D01*
D02*
G37*
G36*
X344488Y292361D02*
X343720Y292209D01*
X343069Y291774D01*
X342634Y291122D01*
X342481Y290354D01*
X342634Y289586D01*
X343069Y288935D01*
X343720Y288500D01*
X344488Y288347D01*
X345256Y288500D01*
X345907Y288935D01*
X346342Y289586D01*
X346495Y290354D01*
X346342Y291122D01*
X345907Y291774D01*
X345256Y292209D01*
X344488Y292361D01*
D02*
G37*
G36*
X437992Y295314D02*
X437224Y295161D01*
X436573Y294726D01*
X436138Y294075D01*
X435985Y293307D01*
X436138Y292539D01*
X436573Y291888D01*
X437224Y291453D01*
X437992Y291300D01*
X438760Y291453D01*
X439411Y291888D01*
X439846Y292539D01*
X439999Y293307D01*
X439846Y294075D01*
X439411Y294726D01*
X438760Y295161D01*
X437992Y295314D01*
D02*
G37*
G36*
X442913Y295314D02*
X442145Y295161D01*
X441494Y294726D01*
X441059Y294075D01*
X440906Y293307D01*
X441059Y292539D01*
X441494Y291888D01*
X442145Y291453D01*
X442913Y291300D01*
X443681Y291453D01*
X444333Y291888D01*
X444768Y292539D01*
X444920Y293307D01*
X444768Y294075D01*
X444333Y294726D01*
X443681Y295161D01*
X442913Y295314D01*
D02*
G37*
G36*
X482283Y303382D02*
X481204Y303240D01*
X480199Y302823D01*
X479335Y302161D01*
X478673Y301297D01*
X478256Y300292D01*
X478114Y299213D01*
X478256Y298133D01*
X478673Y297128D01*
X479335Y296264D01*
X480199Y295602D01*
X481204Y295185D01*
X482283Y295043D01*
X483363Y295185D01*
X484368Y295602D01*
X485232Y296264D01*
X485894Y297128D01*
X486311Y298133D01*
X486453Y299213D01*
X486311Y300292D01*
X485894Y301297D01*
X485232Y302161D01*
X484368Y302823D01*
X483363Y303240D01*
X482283Y303382D01*
D02*
G37*
G36*
X309055Y304172D02*
X308287Y304020D01*
X307636Y303585D01*
X307201Y302933D01*
X307048Y302165D01*
X307201Y301397D01*
X307636Y300746D01*
X308287Y300311D01*
X309055Y300158D01*
X309823Y300311D01*
X310474Y300746D01*
X310909Y301397D01*
X311062Y302165D01*
X310909Y302933D01*
X310474Y303585D01*
X309823Y304020D01*
X309055Y304172D01*
D02*
G37*
G36*
X739173Y306141D02*
X738405Y305988D01*
X737754Y305553D01*
X737319Y304902D01*
X737166Y304134D01*
X737319Y303366D01*
X737754Y302715D01*
X738405Y302280D01*
X739173Y302127D01*
X739941Y302280D01*
X740592Y302715D01*
X741027Y303366D01*
X741180Y304134D01*
X741027Y304902D01*
X740592Y305553D01*
X739941Y305988D01*
X739173Y306141D01*
D02*
G37*
G36*
X109449Y311417D02*
X102600D01*
X102670Y310700D01*
X103109Y309253D01*
X103822Y307919D01*
X104781Y306750D01*
X105950Y305790D01*
X107284Y305078D01*
X108731Y304639D01*
X109449Y304568D01*
Y311417D01*
D02*
G37*
G36*
X630905Y302204D02*
X630137Y302051D01*
X629486Y301616D01*
X629051Y300965D01*
X628898Y300197D01*
X629051Y299429D01*
X629486Y298778D01*
X630137Y298343D01*
X630905Y298190D01*
X631674Y298343D01*
X632325Y298778D01*
X632760Y299429D01*
X632913Y300197D01*
X632760Y300965D01*
X632325Y301616D01*
X631674Y302051D01*
X630905Y302204D01*
D02*
G37*
G36*
X525591Y303382D02*
X524511Y303240D01*
X523506Y302823D01*
X522642Y302161D01*
X521980Y301297D01*
X521563Y300292D01*
X521421Y299213D01*
X521563Y298133D01*
X521980Y297128D01*
X522642Y296264D01*
X523506Y295602D01*
X524511Y295185D01*
X525591Y295043D01*
X526670Y295185D01*
X527675Y295602D01*
X528539Y296264D01*
X529202Y297128D01*
X529618Y298133D01*
X529760Y299213D01*
X529618Y300292D01*
X529202Y301297D01*
X528539Y302161D01*
X527675Y302823D01*
X526670Y303240D01*
X525591Y303382D01*
D02*
G37*
G36*
X805118D02*
X804039Y303240D01*
X803033Y302823D01*
X802170Y302161D01*
X801507Y301297D01*
X801091Y300292D01*
X800949Y299213D01*
X801091Y298133D01*
X801507Y297128D01*
X802170Y296264D01*
X803033Y295602D01*
X804039Y295185D01*
X805118Y295043D01*
X806197Y295185D01*
X807203Y295602D01*
X808066Y296264D01*
X808729Y297128D01*
X809146Y298133D01*
X809288Y299213D01*
X809146Y300292D01*
X808729Y301297D01*
X808066Y302161D01*
X807203Y302823D01*
X806197Y303240D01*
X805118Y303382D01*
D02*
G37*
G36*
X848425D02*
X847346Y303240D01*
X846340Y302823D01*
X845477Y302161D01*
X844814Y301297D01*
X844398Y300292D01*
X844256Y299213D01*
X844398Y298133D01*
X844814Y297128D01*
X845477Y296264D01*
X846340Y295602D01*
X847346Y295185D01*
X848425Y295043D01*
X849504Y295185D01*
X850510Y295602D01*
X851373Y296264D01*
X852036Y297128D01*
X852453Y298133D01*
X852595Y299213D01*
X852453Y300292D01*
X852036Y301297D01*
X851373Y302161D01*
X850510Y302823D01*
X849504Y303240D01*
X848425Y303382D01*
D02*
G37*
G36*
X180118Y282528D02*
X178679Y282338D01*
X177338Y281783D01*
X176187Y280900D01*
X175303Y279748D01*
X174748Y278407D01*
X174559Y276969D01*
X174748Y275530D01*
X175303Y274189D01*
X176187Y273037D01*
X177338Y272154D01*
X178679Y271599D01*
X180118Y271409D01*
X181557Y271599D01*
X182898Y272154D01*
X184049Y273037D01*
X184933Y274189D01*
X185488Y275530D01*
X185678Y276969D01*
X185488Y278407D01*
X184933Y279748D01*
X184049Y280900D01*
X182898Y281783D01*
X181557Y282338D01*
X180118Y282528D01*
D02*
G37*
G36*
X522638Y276613D02*
X521870Y276461D01*
X521219Y276026D01*
X520784Y275374D01*
X520631Y274606D01*
X520784Y273838D01*
X521219Y273187D01*
X521870Y272752D01*
X522638Y272599D01*
X523406Y272752D01*
X524057Y273187D01*
X524492Y273838D01*
X524645Y274606D01*
X524492Y275374D01*
X524057Y276026D01*
X523406Y276461D01*
X522638Y276613D01*
D02*
G37*
G36*
X503937Y309579D02*
X502315Y309452D01*
X500734Y309072D01*
X499231Y308449D01*
X497844Y307599D01*
X496607Y306543D01*
X495550Y305306D01*
X494700Y303919D01*
X494078Y302416D01*
X493698Y300834D01*
X493570Y299213D01*
X493698Y297591D01*
X494078Y296009D01*
X494700Y294506D01*
X495550Y293119D01*
X496607Y291882D01*
X497844Y290826D01*
X499231Y289976D01*
X500734Y289353D01*
X502315Y288974D01*
X502956Y288923D01*
X502936Y288423D01*
X500591D01*
X499460Y288274D01*
X498407Y287838D01*
X497502Y287144D01*
Y287144D01*
X497502D01*
X496808Y286239D01*
X496371Y285186D01*
X496222Y284055D01*
Y277362D01*
X496371Y276232D01*
X496808Y275178D01*
X497502Y274273D01*
X498407Y273579D01*
X499460Y273143D01*
X500591Y272994D01*
X507283D01*
X508414Y273143D01*
X509468Y273579D01*
X510372Y274273D01*
X511066Y275178D01*
X511503Y276232D01*
X511652Y277362D01*
Y284055D01*
X511503Y285186D01*
X511066Y286239D01*
X510372Y287144D01*
X510372D01*
Y287144D01*
X509468Y287838D01*
X508414Y288274D01*
X507283Y288423D01*
X504938D01*
X504918Y288923D01*
X505559Y288974D01*
X507140Y289353D01*
X508643Y289976D01*
X510030Y290826D01*
X511267Y291882D01*
X512324Y293119D01*
X513174Y294506D01*
X513796Y296009D01*
X514176Y297591D01*
X514304Y299213D01*
X514176Y300834D01*
X513796Y302416D01*
X513174Y303919D01*
X512324Y305306D01*
X511267Y306543D01*
X510030Y307599D01*
X508643Y308449D01*
X507140Y309072D01*
X505559Y309452D01*
X503937Y309579D01*
D02*
G37*
G36*
X70866Y282528D02*
X69427Y282338D01*
X68086Y281783D01*
X66935Y280900D01*
X66052Y279748D01*
X65496Y278407D01*
X65307Y276969D01*
X65496Y275530D01*
X66052Y274189D01*
X66935Y273037D01*
X68086Y272154D01*
X69427Y271599D01*
X70866Y271409D01*
X72305Y271599D01*
X73646Y272154D01*
X74797Y273037D01*
X75681Y274189D01*
X76236Y275530D01*
X76425Y276969D01*
X76236Y278407D01*
X75681Y279748D01*
X74797Y280900D01*
X73646Y281783D01*
X72305Y282338D01*
X70866Y282528D01*
D02*
G37*
G36*
X522638Y270708D02*
X521870Y270555D01*
X521219Y270120D01*
X520784Y269469D01*
X520631Y268701D01*
X520784Y267933D01*
X521219Y267282D01*
X521870Y266846D01*
X522638Y266694D01*
X523406Y266846D01*
X524057Y267282D01*
X524492Y267933D01*
X524645Y268701D01*
X524492Y269469D01*
X524057Y270120D01*
X523406Y270555D01*
X522638Y270708D01*
D02*
G37*
G36*
X90551Y307611D02*
X88929Y307483D01*
X87348Y307103D01*
X85845Y306481D01*
X84458Y305631D01*
X83221Y304574D01*
X82164Y303337D01*
X81314Y301950D01*
X80692Y300448D01*
X80312Y298866D01*
X80185Y297244D01*
X80312Y295622D01*
X80692Y294041D01*
X81314Y292538D01*
X82164Y291151D01*
X83221Y289914D01*
X84458Y288857D01*
X85845Y288007D01*
X87348Y287385D01*
X88929Y287005D01*
X89570Y286955D01*
X89551Y286455D01*
X87205D01*
X86074Y286306D01*
X85021Y285870D01*
X84116Y285175D01*
Y285175D01*
X84116D01*
X83422Y284271D01*
X82986Y283217D01*
X82837Y282087D01*
Y275394D01*
X82986Y274263D01*
X83422Y273210D01*
X84116Y272305D01*
X85021Y271611D01*
X86074Y271175D01*
X87205Y271026D01*
X93898D01*
X95028Y271175D01*
X96082Y271611D01*
X96986Y272305D01*
X97680Y273210D01*
X98117Y274263D01*
X98266Y275394D01*
Y282087D01*
X98117Y283217D01*
X97680Y284271D01*
X96986Y285175D01*
X96986D01*
Y285175D01*
X96082Y285870D01*
X95028Y286306D01*
X93898Y286455D01*
X91552D01*
X91532Y286955D01*
X92173Y287005D01*
X93755Y287385D01*
X95258Y288007D01*
X96645Y288857D01*
X97882Y289914D01*
X98938Y291151D01*
X99788Y292538D01*
X100410Y294041D01*
X100790Y295622D01*
X100918Y297244D01*
X100790Y298866D01*
X100410Y300448D01*
X99788Y301950D01*
X98938Y303337D01*
X97882Y304574D01*
X96645Y305631D01*
X95258Y306481D01*
X93755Y307103D01*
X92173Y307483D01*
X90551Y307611D01*
D02*
G37*
G36*
X199803D02*
X198181Y307483D01*
X196600Y307103D01*
X195097Y306481D01*
X193710Y305631D01*
X192473Y304574D01*
X191416Y303337D01*
X190566Y301950D01*
X189944Y300448D01*
X189564Y298866D01*
X189437Y297244D01*
X189564Y295622D01*
X189944Y294041D01*
X190566Y292538D01*
X191416Y291151D01*
X192473Y289914D01*
X193710Y288857D01*
X195097Y288007D01*
X196600Y287385D01*
X198181Y287005D01*
X198822Y286955D01*
X198803Y286455D01*
X196457D01*
X195326Y286306D01*
X194273Y285870D01*
X193368Y285175D01*
Y285175D01*
X193368D01*
X192674Y284271D01*
X192237Y283217D01*
X192089Y282087D01*
Y275394D01*
X192237Y274263D01*
X192674Y273210D01*
X193368Y272305D01*
X194273Y271611D01*
X195326Y271175D01*
X196457Y271026D01*
X203150D01*
X204280Y271175D01*
X205334Y271611D01*
X206238Y272305D01*
X206932Y273210D01*
X207369Y274263D01*
X207518Y275394D01*
Y282087D01*
X207369Y283217D01*
X206932Y284271D01*
X206238Y285175D01*
X206238D01*
Y285175D01*
X205334Y285870D01*
X204280Y286306D01*
X203150Y286455D01*
X200804D01*
X200784Y286955D01*
X201425Y287005D01*
X203007Y287385D01*
X204509Y288007D01*
X205896Y288857D01*
X207133Y289914D01*
X208190Y291151D01*
X209040Y292538D01*
X209662Y294041D01*
X210042Y295622D01*
X210170Y297244D01*
X210042Y298866D01*
X209662Y300448D01*
X209040Y301950D01*
X208190Y303337D01*
X207133Y304574D01*
X205896Y305631D01*
X204509Y306481D01*
X203007Y307103D01*
X201425Y307483D01*
X199803Y307611D01*
D02*
G37*
G36*
X826772Y309579D02*
X825150Y309452D01*
X823568Y309072D01*
X822065Y308449D01*
X820678Y307599D01*
X819441Y306543D01*
X818385Y305306D01*
X817535Y303919D01*
X816912Y302416D01*
X816533Y300834D01*
X816405Y299213D01*
X816533Y297591D01*
X816912Y296009D01*
X817535Y294506D01*
X818385Y293119D01*
X819441Y291882D01*
X820678Y290826D01*
X822065Y289976D01*
X823568Y289353D01*
X825150Y288974D01*
X825791Y288923D01*
X825771Y288423D01*
X823425D01*
X822295Y288274D01*
X821241Y287838D01*
X820337Y287144D01*
Y287144D01*
X820337D01*
X819642Y286239D01*
X819206Y285186D01*
X819057Y284055D01*
Y277362D01*
X819206Y276232D01*
X819642Y275178D01*
X820337Y274273D01*
X821241Y273579D01*
X822295Y273143D01*
X823425Y272994D01*
X830118D01*
X831249Y273143D01*
X832302Y273579D01*
X833207Y274273D01*
X833901Y275178D01*
X834337Y276232D01*
X834486Y277362D01*
Y284055D01*
X834337Y285186D01*
X833901Y286239D01*
X833207Y287144D01*
X833207D01*
Y287144D01*
X832302Y287838D01*
X831249Y288274D01*
X830118Y288423D01*
X827772D01*
X827753Y288923D01*
X828393Y288974D01*
X829975Y289353D01*
X831478Y289976D01*
X832865Y290826D01*
X834102Y291882D01*
X835158Y293119D01*
X836008Y294506D01*
X836631Y296009D01*
X837011Y297591D01*
X837138Y299213D01*
X837011Y300834D01*
X836631Y302416D01*
X836008Y303919D01*
X835158Y305306D01*
X834102Y306543D01*
X832865Y307599D01*
X831478Y308449D01*
X829975Y309072D01*
X828393Y309452D01*
X826772Y309579D01*
D02*
G37*
G36*
X185335Y288129D02*
X184567Y287976D01*
X183915Y287541D01*
X183480Y286890D01*
X183328Y286122D01*
X183480Y285354D01*
X183915Y284703D01*
X184567Y284268D01*
X185335Y284115D01*
X186103Y284268D01*
X186754Y284703D01*
X187189Y285354D01*
X187342Y286122D01*
X187189Y286890D01*
X186754Y287541D01*
X186103Y287976D01*
X185335Y288129D01*
D02*
G37*
G36*
X489468Y290098D02*
X488700Y289945D01*
X488049Y289510D01*
X487614Y288859D01*
X487461Y288090D01*
X487614Y287322D01*
X488049Y286671D01*
X488700Y286236D01*
X489468Y286084D01*
X490237Y286236D01*
X490888Y286671D01*
X491323Y287322D01*
X491476Y288090D01*
X491323Y288859D01*
X490888Y289510D01*
X490237Y289945D01*
X489468Y290098D01*
D02*
G37*
G36*
X812303D02*
X811535Y289945D01*
X810884Y289510D01*
X810449Y288859D01*
X810296Y288090D01*
X810449Y287322D01*
X810884Y286671D01*
X811535Y286236D01*
X812303Y286084D01*
X813071Y286236D01*
X813722Y286671D01*
X814157Y287322D01*
X814310Y288090D01*
X814157Y288859D01*
X813722Y289510D01*
X813071Y289945D01*
X812303Y290098D01*
D02*
G37*
G36*
X76083Y288129D02*
X75315Y287976D01*
X74664Y287541D01*
X74228Y286890D01*
X74076Y286122D01*
X74228Y285354D01*
X74664Y284703D01*
X75315Y284268D01*
X76083Y284115D01*
X76851Y284268D01*
X77502Y284703D01*
X77937Y285354D01*
X78090Y286122D01*
X77937Y286890D01*
X77502Y287541D01*
X76851Y287976D01*
X76083Y288129D01*
D02*
G37*
G36*
X484252Y284496D02*
X482813Y284307D01*
X481472Y283752D01*
X480321Y282868D01*
X479437Y281717D01*
X478882Y280376D01*
X478693Y278937D01*
X478882Y277498D01*
X479437Y276157D01*
X480321Y275006D01*
X481472Y274122D01*
X482813Y273567D01*
X484252Y273378D01*
X485691Y273567D01*
X487032Y274122D01*
X488183Y275006D01*
X489067Y276157D01*
X489622Y277498D01*
X489811Y278937D01*
X489622Y280376D01*
X489067Y281717D01*
X488183Y282868D01*
X487032Y283752D01*
X485691Y284307D01*
X484252Y284496D01*
D02*
G37*
G36*
X807087D02*
X805648Y284307D01*
X804307Y283752D01*
X803156Y282868D01*
X802272Y281717D01*
X801717Y280376D01*
X801527Y278937D01*
X801717Y277498D01*
X802272Y276157D01*
X803156Y275006D01*
X804307Y274122D01*
X805648Y273567D01*
X807087Y273378D01*
X808525Y273567D01*
X809866Y274122D01*
X811018Y275006D01*
X811901Y276157D01*
X812457Y277498D01*
X812646Y278937D01*
X812457Y280376D01*
X811901Y281717D01*
X811018Y282868D01*
X809866Y283752D01*
X808525Y284307D01*
X807087Y284496D01*
D02*
G37*
G36*
X220472Y278582D02*
X219704Y278429D01*
X219053Y277994D01*
X218618Y277343D01*
X218465Y276575D01*
X218618Y275807D01*
X219053Y275156D01*
X219704Y274721D01*
X220472Y274568D01*
X221240Y274721D01*
X221892Y275156D01*
X222327Y275807D01*
X222480Y276575D01*
X222327Y277343D01*
X221892Y277994D01*
X221240Y278429D01*
X220472Y278582D01*
D02*
G37*
G36*
X353740Y71023D02*
X353023Y70952D01*
X351575Y70513D01*
X350242Y69800D01*
X349073Y68841D01*
X348113Y67672D01*
X347400Y66338D01*
X346961Y64891D01*
X346891Y64173D01*
X353740D01*
Y71023D01*
D02*
G37*
G36*
X355315D02*
Y64173D01*
X362164D01*
X362094Y64891D01*
X361655Y66338D01*
X360942Y67672D01*
X359982Y68841D01*
X358813Y69800D01*
X357480Y70513D01*
X356032Y70952D01*
X355315Y71023D01*
D02*
G37*
G36*
X515748Y79209D02*
X514282Y79065D01*
X512872Y78637D01*
X511572Y77943D01*
X510433Y77008D01*
X509498Y75869D01*
X508804Y74569D01*
X508376Y73159D01*
X508231Y71693D01*
X508376Y70227D01*
X508804Y68817D01*
X509498Y67517D01*
X510433Y66378D01*
X511572Y65443D01*
X512872Y64749D01*
X514282Y64321D01*
X515748Y64176D01*
X517214Y64321D01*
X518624Y64749D01*
X519924Y65443D01*
X521063Y66378D01*
X521998Y67517D01*
X522692Y68817D01*
X523120Y70227D01*
X523265Y71693D01*
X523120Y73159D01*
X522692Y74569D01*
X521998Y75869D01*
X521063Y77008D01*
X519924Y77943D01*
X518624Y78637D01*
X517214Y79065D01*
X515748Y79209D01*
D02*
G37*
G36*
X334842Y79170D02*
X333376Y79026D01*
X331966Y78598D01*
X330667Y77903D01*
X329528Y76968D01*
X328593Y75829D01*
X327898Y74530D01*
X327470Y73120D01*
X327326Y71653D01*
X327470Y70187D01*
X327898Y68777D01*
X328593Y67478D01*
X329528Y66339D01*
X330667Y65404D01*
X331966Y64709D01*
X333376Y64281D01*
X334842Y64137D01*
X336309Y64281D01*
X337719Y64709D01*
X339019Y65404D01*
X340158Y66339D01*
X341092Y67478D01*
X341787Y68777D01*
X342215Y70187D01*
X342359Y71653D01*
X342215Y73120D01*
X341787Y74530D01*
X341092Y75829D01*
X340158Y76968D01*
X339019Y77903D01*
X337719Y78598D01*
X336309Y79026D01*
X334842Y79170D01*
D02*
G37*
G36*
X362164Y62598D02*
X355315D01*
Y55749D01*
X356032Y55820D01*
X357480Y56259D01*
X358813Y56972D01*
X359982Y57931D01*
X360942Y59100D01*
X361655Y60434D01*
X362094Y61881D01*
X362164Y62598D01*
D02*
G37*
G36*
X534646Y62638D02*
X527796D01*
X527867Y61920D01*
X528306Y60473D01*
X529019Y59139D01*
X529978Y57970D01*
X531147Y57011D01*
X532481Y56298D01*
X533928Y55859D01*
X534646Y55788D01*
Y62638D01*
D02*
G37*
G36*
X543070D02*
X536221D01*
Y55788D01*
X536938Y55859D01*
X538385Y56298D01*
X539719Y57011D01*
X540888Y57970D01*
X541847Y59139D01*
X542560Y60473D01*
X542999Y61920D01*
X543070Y62638D01*
D02*
G37*
G36*
X534646Y71062D02*
X533928Y70991D01*
X532481Y70552D01*
X531147Y69839D01*
X529978Y68880D01*
X529019Y67711D01*
X528306Y66377D01*
X527867Y64930D01*
X527796Y64213D01*
X534646D01*
Y71062D01*
D02*
G37*
G36*
X500000Y183355D02*
X498561Y183165D01*
X497220Y182610D01*
X496069Y181726D01*
X495185Y180575D01*
X494630Y179234D01*
X494441Y177795D01*
X494630Y176356D01*
X495185Y175016D01*
X496069Y173864D01*
X497220Y172981D01*
X498561Y172425D01*
X500000Y172236D01*
X501439Y172425D01*
X502780Y172981D01*
X503931Y173864D01*
X504815Y175016D01*
X505370Y176356D01*
X505559Y177795D01*
X505370Y179234D01*
X504815Y180575D01*
X503931Y181726D01*
X502780Y182610D01*
X501439Y183165D01*
X500000Y183355D01*
D02*
G37*
G36*
X812303Y187735D02*
X811535Y187583D01*
X810884Y187148D01*
X810449Y186496D01*
X810296Y185728D01*
X810449Y184960D01*
X810884Y184309D01*
X811535Y183874D01*
X812303Y183721D01*
X813071Y183874D01*
X813722Y184309D01*
X814157Y184960D01*
X814310Y185728D01*
X814157Y186496D01*
X813722Y187148D01*
X813071Y187583D01*
X812303Y187735D01*
D02*
G37*
G36*
X505217Y188956D02*
X504449Y188803D01*
X503797Y188368D01*
X503362Y187717D01*
X503209Y186949D01*
X503362Y186181D01*
X503797Y185530D01*
X504449Y185094D01*
X505217Y184942D01*
X505985Y185094D01*
X506636Y185530D01*
X507071Y186181D01*
X507224Y186949D01*
X507071Y187717D01*
X506636Y188368D01*
X505985Y188803D01*
X505217Y188956D01*
D02*
G37*
G36*
X519685Y208437D02*
X518063Y208310D01*
X516482Y207930D01*
X514979Y207308D01*
X513592Y206458D01*
X512355Y205401D01*
X511298Y204164D01*
X510448Y202777D01*
X509826Y201274D01*
X509446Y199693D01*
X509318Y198071D01*
X509446Y196449D01*
X509826Y194867D01*
X510448Y193365D01*
X511298Y191978D01*
X512355Y190741D01*
X513592Y189684D01*
X514979Y188834D01*
X516482Y188212D01*
X518063Y187832D01*
X518704Y187782D01*
X518684Y187282D01*
X516339D01*
X515208Y187133D01*
X514155Y186696D01*
X513250Y186002D01*
Y186002D01*
X513250D01*
X512556Y185097D01*
X512119Y184044D01*
X511971Y182913D01*
Y176221D01*
X512119Y175090D01*
X512556Y174036D01*
X513250Y173132D01*
X514154Y172438D01*
X515208Y172001D01*
X516339Y171852D01*
X523032D01*
X524162Y172001D01*
X525215Y172438D01*
X526120Y173132D01*
X526814Y174036D01*
X527251Y175090D01*
X527400Y176221D01*
Y182913D01*
X527251Y184044D01*
X526814Y185097D01*
X526120Y186002D01*
X526120D01*
Y186002D01*
X525215Y186696D01*
X524162Y187133D01*
X523032Y187282D01*
X520686D01*
X520666Y187782D01*
X521307Y187832D01*
X522889Y188212D01*
X524391Y188834D01*
X525778Y189684D01*
X527015Y190741D01*
X528072Y191978D01*
X528922Y193365D01*
X529544Y194867D01*
X529924Y196449D01*
X530052Y198071D01*
X529924Y199693D01*
X529544Y201274D01*
X528922Y202777D01*
X528072Y204164D01*
X527015Y205401D01*
X525778Y206458D01*
X524391Y207308D01*
X522889Y207930D01*
X521307Y208310D01*
X519685Y208437D01*
D02*
G37*
G36*
X536221Y71062D02*
Y64213D01*
X543070D01*
X542999Y64930D01*
X542560Y66377D01*
X541847Y67711D01*
X540888Y68880D01*
X539719Y69839D01*
X538385Y70552D01*
X536938Y70991D01*
X536221Y71062D01*
D02*
G37*
G36*
X826772Y207217D02*
X825150Y207089D01*
X823568Y206710D01*
X822065Y206087D01*
X820678Y205237D01*
X819441Y204181D01*
X818385Y202944D01*
X817535Y201557D01*
X816912Y200054D01*
X816533Y198472D01*
X816405Y196850D01*
X816533Y195229D01*
X816912Y193647D01*
X817535Y192144D01*
X818385Y190757D01*
X819441Y189520D01*
X820678Y188464D01*
X822065Y187614D01*
X823568Y186991D01*
X825150Y186611D01*
X825791Y186561D01*
X825771Y186061D01*
X823425D01*
X822295Y185912D01*
X821241Y185476D01*
X820337Y184782D01*
Y184782D01*
X820337D01*
X819642Y183877D01*
X819206Y182823D01*
X819057Y181693D01*
Y175000D01*
X819206Y173870D01*
X819642Y172816D01*
X820337Y171911D01*
X821241Y171217D01*
X822295Y170781D01*
X823425Y170632D01*
X830118D01*
X831249Y170781D01*
X832302Y171217D01*
X833207Y171911D01*
X833901Y172816D01*
X834337Y173870D01*
X834486Y175000D01*
Y181693D01*
X834337Y182823D01*
X833901Y183877D01*
X833207Y184782D01*
X833207D01*
Y184782D01*
X832302Y185476D01*
X831249Y185912D01*
X830118Y186061D01*
X827772D01*
X827753Y186561D01*
X828393Y186611D01*
X829975Y186991D01*
X831478Y187614D01*
X832865Y188464D01*
X834102Y189520D01*
X835158Y190757D01*
X836008Y192144D01*
X836631Y193647D01*
X837011Y195229D01*
X837138Y196850D01*
X837011Y198472D01*
X836631Y200054D01*
X836008Y201557D01*
X835158Y202944D01*
X834102Y204181D01*
X832865Y205237D01*
X831478Y206087D01*
X829975Y206710D01*
X828393Y207089D01*
X826772Y207217D01*
D02*
G37*
G36*
X807087Y182134D02*
X805648Y181945D01*
X804307Y181389D01*
X803156Y180506D01*
X802272Y179355D01*
X801717Y178014D01*
X801527Y176575D01*
X801717Y175136D01*
X802272Y173795D01*
X803156Y172644D01*
X804307Y171760D01*
X805648Y171205D01*
X807087Y171015D01*
X808525Y171205D01*
X809866Y171760D01*
X811018Y172644D01*
X811901Y173795D01*
X812457Y175136D01*
X812646Y176575D01*
X812457Y178014D01*
X811901Y179355D01*
X811018Y180506D01*
X809866Y181389D01*
X808525Y181945D01*
X807087Y182134D01*
D02*
G37*
G36*
X334842Y58792D02*
X333221Y58664D01*
X331639Y58284D01*
X330136Y57662D01*
X328749Y56812D01*
X327512Y55756D01*
X326456Y54519D01*
X325606Y53132D01*
X324983Y51629D01*
X324604Y50047D01*
X324476Y48425D01*
X324604Y46804D01*
X324983Y45222D01*
X325606Y43719D01*
X326456Y42332D01*
X327512Y41095D01*
X328749Y40038D01*
X330136Y39189D01*
X331639Y38566D01*
X333221Y38186D01*
X333862Y38136D01*
X333842Y37636D01*
X331496D01*
X330365Y37487D01*
X329312Y37051D01*
X328407Y36356D01*
Y36356D01*
X328407D01*
X327713Y35452D01*
X327277Y34398D01*
X327128Y33268D01*
Y26575D01*
X327277Y25444D01*
X327713Y24391D01*
X328407Y23486D01*
X329312Y22792D01*
X330365Y22356D01*
X331496Y22207D01*
X338189D01*
X339319Y22356D01*
X340373Y22792D01*
X341278Y23486D01*
X341972Y24391D01*
X342408Y25444D01*
X342557Y26575D01*
Y33268D01*
X342408Y34398D01*
X341972Y35452D01*
X341278Y36356D01*
X341278D01*
Y36356D01*
X340373Y37051D01*
X339319Y37487D01*
X338189Y37636D01*
X335843D01*
X335823Y38136D01*
X336464Y38186D01*
X338046Y38566D01*
X339549Y39189D01*
X340936Y40038D01*
X342173Y41095D01*
X343229Y42332D01*
X344079Y43719D01*
X344702Y45222D01*
X345081Y46804D01*
X345209Y48425D01*
X345081Y50047D01*
X344702Y51629D01*
X344079Y53132D01*
X343229Y54519D01*
X342173Y55756D01*
X340936Y56812D01*
X339549Y57662D01*
X338046Y58284D01*
X336464Y58664D01*
X334842Y58792D01*
D02*
G37*
G36*
X515748Y58831D02*
X514126Y58704D01*
X512545Y58324D01*
X511042Y57701D01*
X509655Y56851D01*
X508418Y55795D01*
X507361Y54558D01*
X506511Y53171D01*
X505889Y51668D01*
X505509Y50086D01*
X505381Y48465D01*
X505509Y46843D01*
X505889Y45261D01*
X506511Y43758D01*
X507361Y42371D01*
X508418Y41134D01*
X509655Y40078D01*
X511042Y39228D01*
X512545Y38605D01*
X514126Y38226D01*
X514767Y38175D01*
X514747Y37675D01*
X512402D01*
X511271Y37526D01*
X510218Y37090D01*
X509313Y36396D01*
Y36396D01*
X509313D01*
X508619Y35491D01*
X508182Y34438D01*
X508034Y33307D01*
Y26614D01*
X508182Y25484D01*
X508619Y24430D01*
X509313Y23526D01*
X510218Y22831D01*
X511271Y22395D01*
X512402Y22246D01*
X519095D01*
X520225Y22395D01*
X521278Y22831D01*
X522183Y23526D01*
X522877Y24430D01*
X523314Y25484D01*
X523463Y26614D01*
Y33307D01*
X523314Y34438D01*
X522877Y35491D01*
X522183Y36396D01*
X522183D01*
Y36396D01*
X521278Y37090D01*
X520225Y37526D01*
X519095Y37675D01*
X516749D01*
X516729Y38175D01*
X517370Y38226D01*
X518952Y38605D01*
X520454Y39228D01*
X521841Y40078D01*
X523078Y41134D01*
X524135Y42371D01*
X524985Y43758D01*
X525607Y45261D01*
X525987Y46843D01*
X526115Y48465D01*
X525987Y50086D01*
X525607Y51668D01*
X524985Y53171D01*
X524135Y54558D01*
X523078Y55795D01*
X521841Y56851D01*
X520454Y57701D01*
X518952Y58324D01*
X517370Y58704D01*
X515748Y58831D01*
D02*
G37*
G36*
X315158Y33709D02*
X313719Y33520D01*
X312378Y32964D01*
X311226Y32081D01*
X310343Y30929D01*
X309788Y29588D01*
X309598Y28150D01*
X309788Y26711D01*
X310343Y25370D01*
X311226Y24218D01*
X312378Y23335D01*
X313719Y22780D01*
X315158Y22590D01*
X316596Y22780D01*
X317937Y23335D01*
X319089Y24218D01*
X319972Y25370D01*
X320527Y26711D01*
X320717Y28150D01*
X320527Y29588D01*
X319972Y30929D01*
X319089Y32081D01*
X317937Y32964D01*
X316596Y33520D01*
X315158Y33709D01*
D02*
G37*
G36*
X852362Y41770D02*
X850447Y41619D01*
X848579Y41171D01*
X846804Y40436D01*
X845166Y39432D01*
X843705Y38184D01*
X842458Y36724D01*
X841454Y35085D01*
X840719Y33311D01*
X840271Y31443D01*
X840120Y29528D01*
X840271Y27612D01*
X840719Y25744D01*
X841454Y23970D01*
X842458Y22332D01*
X843705Y20871D01*
X845166Y19623D01*
X846804Y18620D01*
X848579Y17884D01*
X850447Y17436D01*
X852362Y17285D01*
X854277Y17436D01*
X856145Y17884D01*
X857920Y18620D01*
X859558Y19623D01*
X861019Y20871D01*
X862267Y22332D01*
X863270Y23970D01*
X864005Y25744D01*
X864454Y27612D01*
X864605Y29528D01*
X864454Y31443D01*
X864005Y33311D01*
X863270Y35085D01*
X862267Y36724D01*
X861019Y38184D01*
X859558Y39432D01*
X857920Y40436D01*
X856145Y41171D01*
X854277Y41619D01*
X852362Y41770D01*
D02*
G37*
G36*
X59055Y26015D02*
X57820Y25893D01*
X56633Y25533D01*
X55538Y24948D01*
X54579Y24161D01*
X53792Y23202D01*
X53207Y22107D01*
X52847Y20920D01*
X52725Y19685D01*
X52847Y18450D01*
X53207Y17263D01*
X53792Y16169D01*
X54579Y15209D01*
X55538Y14422D01*
X56633Y13837D01*
X57820Y13477D01*
X59055Y13355D01*
X60290Y13477D01*
X61477Y13837D01*
X62572Y14422D01*
X63531Y15209D01*
X64318Y16169D01*
X64903Y17263D01*
X65263Y18450D01*
X65385Y19685D01*
X65263Y20920D01*
X64903Y22107D01*
X64318Y23202D01*
X63531Y24161D01*
X62572Y24948D01*
X61477Y25533D01*
X60290Y25893D01*
X59055Y26015D01*
D02*
G37*
G36*
X29528Y41770D02*
X27612Y41619D01*
X25744Y41171D01*
X23970Y40436D01*
X22332Y39432D01*
X20871Y38184D01*
X19623Y36724D01*
X18620Y35085D01*
X17884Y33311D01*
X17436Y31443D01*
X17285Y29528D01*
X17436Y27612D01*
X17884Y25744D01*
X18620Y23970D01*
X19623Y22332D01*
X20871Y20871D01*
X22332Y19623D01*
X23970Y18620D01*
X25744Y17884D01*
X27612Y17436D01*
X29528Y17285D01*
X31443Y17436D01*
X33311Y17884D01*
X35085Y18620D01*
X36724Y19623D01*
X38184Y20871D01*
X39432Y22332D01*
X40436Y23970D01*
X41171Y25744D01*
X41619Y27612D01*
X41770Y29528D01*
X41619Y31443D01*
X41171Y33311D01*
X40436Y35085D01*
X39432Y36724D01*
X38184Y38184D01*
X36724Y39432D01*
X35085Y40436D01*
X33311Y41171D01*
X31443Y41619D01*
X29528Y41770D01*
D02*
G37*
G36*
X440945D02*
X439030Y41619D01*
X437162Y41171D01*
X435387Y40436D01*
X433749Y39432D01*
X432288Y38184D01*
X431040Y36724D01*
X430037Y35085D01*
X429302Y33311D01*
X428853Y31443D01*
X428702Y29528D01*
X428853Y27612D01*
X429302Y25744D01*
X430037Y23970D01*
X431040Y22332D01*
X432288Y20871D01*
X433749Y19623D01*
X435387Y18620D01*
X437162Y17884D01*
X439030Y17436D01*
X440945Y17285D01*
X442860Y17436D01*
X444728Y17884D01*
X446503Y18620D01*
X448141Y19623D01*
X449602Y20871D01*
X450849Y22332D01*
X451853Y23970D01*
X452588Y25744D01*
X453037Y27612D01*
X453187Y29528D01*
X453037Y31443D01*
X452588Y33311D01*
X451853Y35085D01*
X450849Y36724D01*
X449602Y38184D01*
X448141Y39432D01*
X446503Y40436D01*
X444728Y41171D01*
X442860Y41619D01*
X440945Y41770D01*
D02*
G37*
G36*
X496063Y33748D02*
X494624Y33559D01*
X493283Y33004D01*
X492132Y32120D01*
X491248Y30969D01*
X490693Y29628D01*
X490504Y28189D01*
X490693Y26750D01*
X491248Y25409D01*
X492132Y24258D01*
X493283Y23374D01*
X494624Y22819D01*
X496063Y22630D01*
X497502Y22819D01*
X498843Y23374D01*
X499994Y24258D01*
X500878Y25409D01*
X501433Y26750D01*
X501622Y28189D01*
X501433Y29628D01*
X500878Y30969D01*
X499994Y32120D01*
X498843Y33004D01*
X497502Y33559D01*
X496063Y33748D01*
D02*
G37*
G36*
X494095Y52634D02*
X493015Y52492D01*
X492010Y52075D01*
X491146Y51413D01*
X490484Y50549D01*
X490067Y49544D01*
X489925Y48465D01*
X490067Y47385D01*
X490484Y46380D01*
X491146Y45516D01*
X492010Y44854D01*
X493015Y44437D01*
X494095Y44295D01*
X495174Y44437D01*
X496179Y44854D01*
X497043Y45516D01*
X497705Y46380D01*
X498122Y47385D01*
X498264Y48465D01*
X498122Y49544D01*
X497705Y50549D01*
X497043Y51413D01*
X496179Y52075D01*
X495174Y52492D01*
X494095Y52634D01*
D02*
G37*
G36*
X537402D02*
X536322Y52492D01*
X535317Y52075D01*
X534453Y51413D01*
X533791Y50549D01*
X533374Y49544D01*
X533232Y48465D01*
X533374Y47385D01*
X533791Y46380D01*
X534453Y45516D01*
X535317Y44854D01*
X536322Y44437D01*
X537402Y44295D01*
X538481Y44437D01*
X539486Y44854D01*
X540350Y45516D01*
X541012Y46380D01*
X541429Y47385D01*
X541571Y48465D01*
X541429Y49544D01*
X541012Y50549D01*
X540350Y51413D01*
X539486Y52075D01*
X538481Y52492D01*
X537402Y52634D01*
D02*
G37*
G36*
X353740Y62598D02*
X346891D01*
X346961Y61881D01*
X347400Y60434D01*
X348113Y59100D01*
X349073Y57931D01*
X350242Y56972D01*
X351575Y56259D01*
X353023Y55820D01*
X353740Y55749D01*
Y62598D01*
D02*
G37*
G36*
X356496Y52595D02*
X355417Y52453D01*
X354411Y52036D01*
X353548Y51373D01*
X352885Y50510D01*
X352469Y49504D01*
X352326Y48425D01*
X352469Y47346D01*
X352885Y46340D01*
X353548Y45477D01*
X354411Y44814D01*
X355417Y44398D01*
X356496Y44256D01*
X357575Y44398D01*
X358581Y44814D01*
X359444Y45477D01*
X360107Y46340D01*
X360524Y47346D01*
X360666Y48425D01*
X360524Y49504D01*
X360107Y50510D01*
X359444Y51373D01*
X358581Y52036D01*
X357575Y52453D01*
X356496Y52595D01*
D02*
G37*
G36*
X320374Y39310D02*
X319606Y39157D01*
X318955Y38722D01*
X318520Y38071D01*
X318367Y37303D01*
X318520Y36535D01*
X318955Y35884D01*
X319606Y35449D01*
X320374Y35296D01*
X321142Y35449D01*
X321793Y35884D01*
X322228Y36535D01*
X322381Y37303D01*
X322228Y38071D01*
X321793Y38722D01*
X321142Y39157D01*
X320374Y39310D01*
D02*
G37*
G36*
X501279Y39350D02*
X500511Y39197D01*
X499860Y38762D01*
X499425Y38111D01*
X499272Y37343D01*
X499425Y36575D01*
X499860Y35923D01*
X500511Y35488D01*
X501279Y35335D01*
X502048Y35488D01*
X502699Y35923D01*
X503134Y36575D01*
X503287Y37343D01*
X503134Y38111D01*
X502699Y38762D01*
X502048Y39197D01*
X501279Y39350D01*
D02*
G37*
G36*
X313189Y52595D02*
X312110Y52453D01*
X311104Y52036D01*
X310241Y51373D01*
X309578Y50510D01*
X309161Y49504D01*
X309019Y48425D01*
X309161Y47346D01*
X309578Y46340D01*
X310241Y45477D01*
X311104Y44814D01*
X312110Y44398D01*
X313189Y44256D01*
X314268Y44398D01*
X315274Y44814D01*
X316137Y45477D01*
X316800Y46340D01*
X317216Y47346D01*
X317358Y48425D01*
X317216Y49504D01*
X316800Y50510D01*
X316137Y51373D01*
X315274Y52036D01*
X314268Y52453D01*
X313189Y52595D01*
D02*
G37*
G36*
X847244Y219448D02*
Y212598D01*
X854093D01*
X854023Y213316D01*
X853584Y214763D01*
X852871Y216097D01*
X851912Y217266D01*
X850743Y218225D01*
X849409Y218938D01*
X847962Y219377D01*
X847244Y219448D01*
D02*
G37*
G36*
X323819Y217558D02*
X323051Y217406D01*
X322400Y216970D01*
X321965Y216319D01*
X321812Y215551D01*
X321965Y214783D01*
X322400Y214132D01*
X323051Y213697D01*
X323819Y213544D01*
X324587Y213697D01*
X325238Y214132D01*
X325673Y214783D01*
X325826Y215551D01*
X325673Y216319D01*
X325238Y216970D01*
X324587Y217406D01*
X323819Y217558D01*
D02*
G37*
G36*
X519685Y228816D02*
X518219Y228671D01*
X516809Y228244D01*
X515509Y227549D01*
X514370Y226614D01*
X513435Y225475D01*
X512741Y224176D01*
X512313Y222766D01*
X512169Y221299D01*
X512313Y219833D01*
X512741Y218423D01*
X513435Y217123D01*
X514370Y215984D01*
X515509Y215050D01*
X516809Y214355D01*
X518219Y213927D01*
X519685Y213783D01*
X521151Y213927D01*
X522562Y214355D01*
X523861Y215050D01*
X525000Y215984D01*
X525935Y217123D01*
X526629Y218423D01*
X527057Y219833D01*
X527202Y221299D01*
X527057Y222766D01*
X526629Y224176D01*
X525935Y225475D01*
X525000Y226614D01*
X523861Y227549D01*
X522562Y228244D01*
X521151Y228671D01*
X519685Y228816D01*
D02*
G37*
G36*
X845669Y219448D02*
X844952Y219377D01*
X843505Y218938D01*
X842171Y218225D01*
X841002Y217266D01*
X840042Y216097D01*
X839330Y214763D01*
X838891Y213316D01*
X838820Y212598D01*
X845669D01*
Y219448D01*
D02*
G37*
G36*
X704724Y219705D02*
X703286Y219516D01*
X701945Y218960D01*
X700793Y218077D01*
X699910Y216925D01*
X699355Y215584D01*
X699165Y214146D01*
X699355Y212707D01*
X699910Y211366D01*
X700793Y210215D01*
X701945Y209331D01*
X703286Y208776D01*
X704724Y208586D01*
X706163Y208776D01*
X707504Y209331D01*
X708656Y210215D01*
X709539Y211366D01*
X710094Y212707D01*
X710284Y214146D01*
X710094Y215584D01*
X709539Y216925D01*
X708656Y218077D01*
X707504Y218960D01*
X706163Y219516D01*
X704724Y219705D01*
D02*
G37*
G36*
X396949Y215295D02*
X396181Y215142D01*
X395530Y214707D01*
X395094Y214055D01*
X394942Y213287D01*
X395094Y212519D01*
X395530Y211868D01*
X396181Y211433D01*
X396949Y211280D01*
X397717Y211433D01*
X398368Y211868D01*
X398803Y212519D01*
X398956Y213287D01*
X398803Y214055D01*
X398368Y214707D01*
X397717Y215142D01*
X396949Y215295D01*
D02*
G37*
G36*
X826772Y227595D02*
X825305Y227451D01*
X823895Y227023D01*
X822596Y226328D01*
X821457Y225394D01*
X820522Y224255D01*
X819827Y222955D01*
X819400Y221545D01*
X819255Y220079D01*
X819400Y218612D01*
X819827Y217202D01*
X820522Y215903D01*
X821457Y214764D01*
X822596Y213829D01*
X823895Y213134D01*
X825305Y212707D01*
X826772Y212562D01*
X828238Y212707D01*
X829648Y213134D01*
X830948Y213829D01*
X832087Y214764D01*
X833021Y215903D01*
X833716Y217202D01*
X834144Y218612D01*
X834288Y220079D01*
X834144Y221545D01*
X833716Y222955D01*
X833021Y224255D01*
X832087Y225394D01*
X830948Y226328D01*
X829648Y227023D01*
X828238Y227451D01*
X826772Y227595D01*
D02*
G37*
G36*
X538583Y220668D02*
X537865Y220598D01*
X536418Y220159D01*
X535084Y219446D01*
X533915Y218486D01*
X532956Y217317D01*
X532243Y215984D01*
X531804Y214536D01*
X531733Y213819D01*
X538583D01*
Y220668D01*
D02*
G37*
G36*
X433071Y228579D02*
X431992Y228437D01*
X430986Y228020D01*
X430123Y227358D01*
X429460Y226494D01*
X429043Y225489D01*
X428901Y224410D01*
X429043Y223330D01*
X429460Y222325D01*
X430123Y221461D01*
X430986Y220798D01*
X431992Y220382D01*
X433071Y220240D01*
X434150Y220382D01*
X435156Y220798D01*
X436019Y221461D01*
X436682Y222325D01*
X437098Y223330D01*
X437240Y224410D01*
X437098Y225489D01*
X436682Y226494D01*
X436019Y227358D01*
X435156Y228020D01*
X434150Y228437D01*
X433071Y228579D01*
D02*
G37*
G36*
X607579Y225306D02*
X606811Y225153D01*
X606159Y224718D01*
X605724Y224067D01*
X605572Y223299D01*
X605724Y222531D01*
X606159Y221880D01*
X606811Y221445D01*
X607579Y221292D01*
X608347Y221445D01*
X608998Y221880D01*
X609433Y222531D01*
X609586Y223299D01*
X609433Y224067D01*
X608998Y224718D01*
X608347Y225153D01*
X607579Y225306D01*
D02*
G37*
G36*
X709941D02*
X709173Y225153D01*
X708522Y224718D01*
X708087Y224067D01*
X707934Y223299D01*
X708087Y222531D01*
X708522Y221880D01*
X709173Y221445D01*
X709941Y221292D01*
X710709Y221445D01*
X711360Y221880D01*
X711795Y222531D01*
X711948Y223299D01*
X711795Y224067D01*
X711360Y224718D01*
X710709Y225153D01*
X709941Y225306D01*
D02*
G37*
G36*
X389764Y228579D02*
X388685Y228437D01*
X387679Y228020D01*
X386816Y227358D01*
X386153Y226494D01*
X385736Y225489D01*
X385594Y224410D01*
X385736Y223330D01*
X386153Y222325D01*
X386816Y221461D01*
X387679Y220798D01*
X388685Y220382D01*
X389764Y220240D01*
X390843Y220382D01*
X391848Y220798D01*
X392712Y221461D01*
X393375Y222325D01*
X393791Y223330D01*
X393933Y224410D01*
X393791Y225489D01*
X393375Y226494D01*
X392712Y227358D01*
X391848Y228020D01*
X390843Y228437D01*
X389764Y228579D01*
D02*
G37*
G36*
X540158Y220668D02*
Y213819D01*
X547007D01*
X546936Y214536D01*
X546497Y215984D01*
X545784Y217317D01*
X544825Y218486D01*
X543656Y219446D01*
X542322Y220159D01*
X540875Y220598D01*
X540158Y220668D01*
D02*
G37*
G36*
X303346Y256430D02*
X301725Y256302D01*
X300143Y255922D01*
X298640Y255300D01*
X297253Y254450D01*
X296016Y253393D01*
X294960Y252156D01*
X294110Y250769D01*
X293487Y249266D01*
X293108Y247685D01*
X292980Y246063D01*
X293108Y244441D01*
X293487Y242860D01*
X294110Y241357D01*
X294960Y239970D01*
X296016Y238733D01*
X297253Y237676D01*
X298640Y236826D01*
X300143Y236204D01*
X301725Y235824D01*
X302365Y235774D01*
X302346Y235274D01*
X300000D01*
X298869Y235125D01*
X297816Y234688D01*
X296911Y233994D01*
Y233994D01*
X296911D01*
X296217Y233089D01*
X295781Y232036D01*
X295632Y230906D01*
Y224213D01*
X295781Y223082D01*
X296217Y222029D01*
X296911Y221124D01*
X297816Y220430D01*
X298869Y219993D01*
X300000Y219845D01*
X306693D01*
X307823Y219993D01*
X308877Y220430D01*
X309782Y221124D01*
X310476Y222029D01*
X310912Y223082D01*
X311061Y224213D01*
Y230906D01*
X310912Y232036D01*
X310476Y233089D01*
X309782Y233994D01*
X309782D01*
Y233994D01*
X308877Y234688D01*
X307823Y235125D01*
X306693Y235274D01*
X304347D01*
X304327Y235774D01*
X304968Y235824D01*
X306550Y236204D01*
X308053Y236826D01*
X309440Y237676D01*
X310677Y238733D01*
X311733Y239970D01*
X312583Y241357D01*
X313206Y242860D01*
X313585Y244441D01*
X313713Y246063D01*
X313585Y247685D01*
X313206Y249266D01*
X312583Y250769D01*
X311733Y252156D01*
X310677Y253393D01*
X309440Y254450D01*
X308053Y255300D01*
X306550Y255922D01*
X304968Y256302D01*
X303346Y256430D01*
D02*
G37*
G36*
X283661Y231347D02*
X282223Y231157D01*
X280882Y230602D01*
X279730Y229718D01*
X278847Y228567D01*
X278292Y227226D01*
X278102Y225787D01*
X278292Y224348D01*
X278847Y223008D01*
X279730Y221856D01*
X280882Y220973D01*
X282223Y220417D01*
X283661Y220228D01*
X285100Y220417D01*
X286441Y220973D01*
X287593Y221856D01*
X288476Y223008D01*
X289031Y224348D01*
X289221Y225787D01*
X289031Y227226D01*
X288476Y228567D01*
X287593Y229718D01*
X286441Y230602D01*
X285100Y231157D01*
X283661Y231347D01*
D02*
G37*
G36*
X541339Y202240D02*
X540259Y202098D01*
X539254Y201682D01*
X538390Y201019D01*
X537728Y200156D01*
X537311Y199150D01*
X537169Y198071D01*
X537311Y196992D01*
X537728Y195986D01*
X538390Y195123D01*
X539254Y194460D01*
X540259Y194043D01*
X541339Y193901D01*
X542418Y194043D01*
X543423Y194460D01*
X544287Y195123D01*
X544949Y195986D01*
X545366Y196992D01*
X545508Y198071D01*
X545366Y199150D01*
X544949Y200156D01*
X544287Y201019D01*
X543423Y201682D01*
X542418Y202098D01*
X541339Y202240D01*
D02*
G37*
G36*
X411417Y234776D02*
X409796Y234648D01*
X408214Y234269D01*
X406711Y233646D01*
X405324Y232796D01*
X404087Y231740D01*
X403031Y230503D01*
X402181Y229116D01*
X401558Y227613D01*
X401178Y226031D01*
X401051Y224410D01*
X401178Y222788D01*
X401558Y221206D01*
X402181Y219703D01*
X403031Y218316D01*
X404087Y217079D01*
X405324Y216023D01*
X406711Y215173D01*
X408214Y214550D01*
X409796Y214171D01*
X410436Y214120D01*
X410417Y213620D01*
X408071D01*
X406940Y213471D01*
X405887Y213035D01*
X404982Y212341D01*
Y212341D01*
X404982D01*
X404288Y211436D01*
X403852Y210383D01*
X403703Y209252D01*
Y202559D01*
X403852Y201429D01*
X404288Y200375D01*
X404982Y199470D01*
X405887Y198776D01*
X406940Y198340D01*
X408071Y198191D01*
X414764D01*
X415894Y198340D01*
X416948Y198776D01*
X417852Y199470D01*
X418547Y200375D01*
X418983Y201429D01*
X419132Y202559D01*
Y209252D01*
X418983Y210383D01*
X418547Y211436D01*
X417852Y212341D01*
X417852D01*
Y212341D01*
X416948Y213035D01*
X415894Y213471D01*
X414764Y213620D01*
X412418D01*
X412398Y214120D01*
X413039Y214171D01*
X414621Y214550D01*
X416124Y215173D01*
X417511Y216023D01*
X418748Y217079D01*
X419804Y218316D01*
X420654Y219703D01*
X421277Y221206D01*
X421656Y222788D01*
X421784Y224410D01*
X421656Y226031D01*
X421277Y227613D01*
X420654Y229116D01*
X419804Y230503D01*
X418748Y231740D01*
X417511Y232796D01*
X416124Y233646D01*
X414621Y234269D01*
X413039Y234648D01*
X411417Y234776D01*
D02*
G37*
G36*
X391732Y209693D02*
X390293Y209504D01*
X388953Y208948D01*
X387801Y208065D01*
X386918Y206913D01*
X386362Y205573D01*
X386173Y204134D01*
X386362Y202695D01*
X386918Y201354D01*
X387801Y200203D01*
X388953Y199319D01*
X390293Y198764D01*
X391732Y198574D01*
X393171Y198764D01*
X394512Y199319D01*
X395663Y200203D01*
X396547Y201354D01*
X397102Y202695D01*
X397292Y204134D01*
X397102Y205573D01*
X396547Y206913D01*
X395663Y208065D01*
X394512Y208948D01*
X393171Y209504D01*
X391732Y209693D01*
D02*
G37*
G36*
X498032Y202240D02*
X496952Y202098D01*
X495947Y201682D01*
X495083Y201019D01*
X494421Y200156D01*
X494004Y199150D01*
X493862Y198071D01*
X494004Y196992D01*
X494421Y195986D01*
X495083Y195123D01*
X495947Y194460D01*
X496952Y194043D01*
X498032Y193901D01*
X499111Y194043D01*
X500116Y194460D01*
X500980Y195123D01*
X501642Y195986D01*
X502059Y196992D01*
X502201Y198071D01*
X502059Y199150D01*
X501642Y200156D01*
X500980Y201019D01*
X500116Y201682D01*
X499111Y202098D01*
X498032Y202240D01*
D02*
G37*
G36*
X436024Y194921D02*
X435256Y194768D01*
X434604Y194333D01*
X434169Y193682D01*
X434017Y192913D01*
X434169Y192145D01*
X434604Y191494D01*
X435256Y191059D01*
X436024Y190906D01*
X436792Y191059D01*
X437443Y191494D01*
X437878Y192145D01*
X438031Y192913D01*
X437878Y193682D01*
X437443Y194333D01*
X436792Y194768D01*
X436024Y194921D01*
D02*
G37*
G36*
X805118Y201020D02*
X804039Y200878D01*
X803033Y200461D01*
X802170Y199799D01*
X801507Y198935D01*
X801091Y197930D01*
X800949Y196850D01*
X801091Y195771D01*
X801507Y194766D01*
X802170Y193902D01*
X803033Y193239D01*
X804039Y192823D01*
X805118Y192681D01*
X806197Y192823D01*
X807203Y193239D01*
X808066Y193902D01*
X808729Y194766D01*
X809146Y195771D01*
X809288Y196850D01*
X809146Y197930D01*
X808729Y198935D01*
X808066Y199799D01*
X807203Y200461D01*
X806197Y200878D01*
X805118Y201020D01*
D02*
G37*
G36*
X848425D02*
X847346Y200878D01*
X846340Y200461D01*
X845477Y199799D01*
X844814Y198935D01*
X844398Y197930D01*
X844256Y196850D01*
X844398Y195771D01*
X844814Y194766D01*
X845477Y193902D01*
X846340Y193239D01*
X847346Y192823D01*
X848425Y192681D01*
X849504Y192823D01*
X850510Y193239D01*
X851373Y193902D01*
X852036Y194766D01*
X852453Y195771D01*
X852595Y196850D01*
X852453Y197930D01*
X852036Y198935D01*
X851373Y199799D01*
X850510Y200461D01*
X849504Y200878D01*
X848425Y201020D01*
D02*
G37*
G36*
X436024Y205747D02*
X435256Y205594D01*
X434604Y205159D01*
X434169Y204508D01*
X434017Y203740D01*
X434169Y202972D01*
X434604Y202321D01*
X435256Y201886D01*
X436024Y201733D01*
X436792Y201886D01*
X437443Y202321D01*
X437878Y202972D01*
X438031Y203740D01*
X437878Y204508D01*
X437443Y205159D01*
X436792Y205594D01*
X436024Y205747D01*
D02*
G37*
G36*
X622047Y244788D02*
X620426Y244660D01*
X618844Y244281D01*
X617341Y243658D01*
X615954Y242808D01*
X614717Y241752D01*
X613660Y240515D01*
X612811Y239128D01*
X612188Y237625D01*
X611808Y236043D01*
X611681Y234421D01*
X611808Y232800D01*
X612188Y231218D01*
X612811Y229715D01*
X613660Y228328D01*
X614717Y227091D01*
X615954Y226034D01*
X617341Y225184D01*
X618844Y224562D01*
X620426Y224182D01*
X621066Y224132D01*
X621047Y223632D01*
X618701D01*
X617570Y223483D01*
X616517Y223047D01*
X615612Y222353D01*
Y222353D01*
X615612D01*
X614918Y221448D01*
X614481Y220394D01*
X614333Y219264D01*
Y212571D01*
X614481Y211440D01*
X614918Y210387D01*
X615612Y209482D01*
X616517Y208788D01*
X617570Y208352D01*
X618701Y208203D01*
X625394D01*
X626524Y208352D01*
X627578Y208788D01*
X628482Y209482D01*
X629177Y210387D01*
X629613Y211440D01*
X629762Y212571D01*
Y219264D01*
X629613Y220394D01*
X629177Y221448D01*
X628482Y222353D01*
X628482D01*
Y222353D01*
X627578Y223047D01*
X626524Y223483D01*
X625394Y223632D01*
X623048D01*
X623028Y224132D01*
X623669Y224182D01*
X625251Y224562D01*
X626754Y225184D01*
X628141Y226034D01*
X629378Y227091D01*
X630434Y228328D01*
X631284Y229715D01*
X631907Y231218D01*
X632286Y232800D01*
X632414Y234421D01*
X632286Y236043D01*
X631907Y237625D01*
X631284Y239128D01*
X630434Y240515D01*
X629378Y241752D01*
X628141Y242808D01*
X626754Y243658D01*
X625251Y244281D01*
X623669Y244660D01*
X622047Y244788D01*
D02*
G37*
G36*
X724409D02*
X722788Y244660D01*
X721206Y244281D01*
X719703Y243658D01*
X718316Y242808D01*
X717079Y241752D01*
X716023Y240515D01*
X715173Y239128D01*
X714550Y237625D01*
X714171Y236043D01*
X714043Y234421D01*
X714171Y232800D01*
X714550Y231218D01*
X715173Y229715D01*
X716023Y228328D01*
X717079Y227091D01*
X718316Y226034D01*
X719703Y225184D01*
X721206Y224562D01*
X722788Y224182D01*
X723428Y224132D01*
X723409Y223632D01*
X721063D01*
X719933Y223483D01*
X718879Y223047D01*
X717974Y222353D01*
Y222353D01*
X717974D01*
X717280Y221448D01*
X716844Y220394D01*
X716695Y219264D01*
Y212571D01*
X716844Y211440D01*
X717280Y210387D01*
X717974Y209482D01*
X718879Y208788D01*
X719932Y208352D01*
X721063Y208203D01*
X727756D01*
X728886Y208352D01*
X729940Y208788D01*
X730845Y209482D01*
X731539Y210387D01*
X731975Y211440D01*
X732124Y212571D01*
Y219264D01*
X731975Y220394D01*
X731539Y221448D01*
X730845Y222353D01*
X730845D01*
Y222353D01*
X729940Y223047D01*
X728886Y223483D01*
X727756Y223632D01*
X725410D01*
X725390Y224132D01*
X726031Y224182D01*
X727613Y224562D01*
X729116Y225184D01*
X730503Y226034D01*
X731740Y227091D01*
X732796Y228328D01*
X733646Y229715D01*
X734269Y231218D01*
X734648Y232800D01*
X734776Y234421D01*
X734648Y236043D01*
X734269Y237625D01*
X733646Y239128D01*
X732796Y240515D01*
X731740Y241752D01*
X730503Y242808D01*
X729116Y243658D01*
X727613Y244281D01*
X726031Y244660D01*
X724409Y244788D01*
D02*
G37*
G36*
X602362Y219705D02*
X600923Y219516D01*
X599582Y218960D01*
X598431Y218077D01*
X597548Y216925D01*
X596992Y215584D01*
X596803Y214146D01*
X596992Y212707D01*
X597548Y211366D01*
X598431Y210215D01*
X599582Y209331D01*
X600923Y208776D01*
X602362Y208586D01*
X603801Y208776D01*
X605142Y209331D01*
X606293Y210215D01*
X607177Y211366D01*
X607732Y212707D01*
X607922Y214146D01*
X607732Y215584D01*
X607177Y216925D01*
X606293Y218077D01*
X605142Y218960D01*
X603801Y219516D01*
X602362Y219705D01*
D02*
G37*
G36*
X547007Y212244D02*
X540158D01*
Y205395D01*
X540875Y205465D01*
X542322Y205904D01*
X543656Y206617D01*
X544825Y207577D01*
X545784Y208746D01*
X546497Y210079D01*
X546936Y211526D01*
X547007Y212244D01*
D02*
G37*
G36*
X845669Y211024D02*
X838820D01*
X838891Y210306D01*
X839330Y208859D01*
X840042Y207525D01*
X841002Y206356D01*
X842171Y205397D01*
X843505Y204684D01*
X844952Y204245D01*
X845669Y204174D01*
Y211024D01*
D02*
G37*
G36*
X854093D02*
X847244D01*
Y204174D01*
X847962Y204245D01*
X849409Y204684D01*
X850743Y205397D01*
X851912Y206356D01*
X852871Y207525D01*
X853584Y208859D01*
X854023Y210306D01*
X854093Y211024D01*
D02*
G37*
G36*
X538583Y212244D02*
X531733D01*
X531804Y211526D01*
X532243Y210079D01*
X532956Y208746D01*
X533915Y207577D01*
X535084Y206617D01*
X536418Y205904D01*
X537865Y205465D01*
X538583Y205395D01*
Y212244D01*
D02*
G37*
G36*
X117873Y311417D02*
X111024D01*
Y304568D01*
X111741Y304639D01*
X113188Y305078D01*
X114522Y305790D01*
X115691Y306750D01*
X116650Y307919D01*
X117363Y309253D01*
X117802Y310700D01*
X117873Y311417D01*
D02*
G37*
G36*
X144390Y398562D02*
X143622Y398409D01*
X142971Y397974D01*
X142535Y397323D01*
X142383Y396555D01*
X142535Y395787D01*
X142971Y395136D01*
X143622Y394701D01*
X144390Y394548D01*
X145158Y394701D01*
X145809Y395136D01*
X146244Y395787D01*
X146397Y396555D01*
X146244Y397323D01*
X145809Y397974D01*
X145158Y398409D01*
X144390Y398562D01*
D02*
G37*
G36*
X218799D02*
X218031Y398409D01*
X217380Y397974D01*
X216945Y397323D01*
X216792Y396555D01*
X216945Y395787D01*
X217380Y395136D01*
X218031Y394701D01*
X218799Y394548D01*
X219567Y394701D01*
X220218Y395136D01*
X220654Y395787D01*
X220806Y396555D01*
X220654Y397323D01*
X220218Y397974D01*
X219567Y398409D01*
X218799Y398562D01*
D02*
G37*
G36*
X553150Y399645D02*
X552382Y399492D01*
X551730Y399057D01*
X551295Y398406D01*
X551143Y397638D01*
X551295Y396870D01*
X551730Y396219D01*
X552382Y395783D01*
X553150Y395631D01*
X553918Y395783D01*
X554569Y396219D01*
X555004Y396870D01*
X555157Y397638D01*
X555004Y398406D01*
X554569Y399057D01*
X553918Y399492D01*
X553150Y399645D01*
D02*
G37*
G36*
X69980Y398562D02*
X69212Y398409D01*
X68561Y397974D01*
X68126Y397323D01*
X67973Y396555D01*
X68126Y395787D01*
X68561Y395136D01*
X69212Y394701D01*
X69980Y394548D01*
X70748Y394701D01*
X71399Y395136D01*
X71835Y395787D01*
X71987Y396555D01*
X71835Y397323D01*
X71399Y397974D01*
X70748Y398409D01*
X69980Y398562D01*
D02*
G37*
G36*
X553150Y392755D02*
X552382Y392602D01*
X551730Y392167D01*
X551295Y391516D01*
X551143Y390748D01*
X551295Y389980D01*
X551730Y389329D01*
X552382Y388894D01*
X553150Y388741D01*
X553918Y388894D01*
X554569Y389329D01*
X555004Y389980D01*
X555157Y390748D01*
X555004Y391516D01*
X554569Y392167D01*
X553918Y392602D01*
X553150Y392755D01*
D02*
G37*
G36*
X314961Y395708D02*
X314193Y395555D01*
X313541Y395120D01*
X313106Y394469D01*
X312954Y393701D01*
X313106Y392933D01*
X313541Y392282D01*
X314193Y391846D01*
X314961Y391694D01*
X315729Y391846D01*
X316380Y392282D01*
X316815Y392933D01*
X316968Y393701D01*
X316815Y394469D01*
X316380Y395120D01*
X315729Y395555D01*
X314961Y395708D01*
D02*
G37*
G36*
X350394Y396692D02*
X349626Y396539D01*
X348974Y396104D01*
X348539Y395453D01*
X348387Y394685D01*
X348539Y393917D01*
X348974Y393266D01*
X349626Y392831D01*
X350394Y392678D01*
X351162Y392831D01*
X351813Y393266D01*
X352248Y393917D01*
X352401Y394685D01*
X352248Y395453D01*
X351813Y396104D01*
X351162Y396539D01*
X350394Y396692D01*
D02*
G37*
G36*
X487047Y400472D02*
X486279Y400319D01*
X485628Y399884D01*
X485193Y399233D01*
X485040Y398465D01*
X485193Y397696D01*
X485628Y397045D01*
X486279Y396610D01*
X487047Y396458D01*
X487815Y396610D01*
X488466Y397045D01*
X488902Y397696D01*
X489054Y398465D01*
X488902Y399233D01*
X488466Y399884D01*
X487815Y400319D01*
X487047Y400472D01*
D02*
G37*
G36*
X137205Y411847D02*
X136126Y411705D01*
X135120Y411288D01*
X134256Y410626D01*
X133594Y409762D01*
X133177Y408756D01*
X133035Y407677D01*
X133177Y406598D01*
X133594Y405592D01*
X134256Y404729D01*
X135120Y404066D01*
X136126Y403650D01*
X137205Y403508D01*
X138284Y403650D01*
X139289Y404066D01*
X140153Y404729D01*
X140816Y405592D01*
X141232Y406598D01*
X141374Y407677D01*
X141232Y408756D01*
X140816Y409762D01*
X140153Y410626D01*
X139289Y411288D01*
X138284Y411705D01*
X137205Y411847D01*
D02*
G37*
G36*
X180512D02*
X179433Y411705D01*
X178427Y411288D01*
X177564Y410626D01*
X176901Y409762D01*
X176484Y408756D01*
X176342Y407677D01*
X176484Y406598D01*
X176901Y405592D01*
X177564Y404729D01*
X178427Y404066D01*
X179433Y403650D01*
X180512Y403508D01*
X181591Y403650D01*
X182597Y404066D01*
X183460Y404729D01*
X184123Y405592D01*
X184539Y406598D01*
X184681Y407677D01*
X184539Y408756D01*
X184123Y409762D01*
X183460Y410626D01*
X182597Y411288D01*
X181591Y411705D01*
X180512Y411847D01*
D02*
G37*
G36*
X211614D02*
X210535Y411705D01*
X209529Y411288D01*
X208666Y410626D01*
X208003Y409762D01*
X207587Y408756D01*
X207445Y407677D01*
X207587Y406598D01*
X208003Y405592D01*
X208666Y404729D01*
X209529Y404066D01*
X210535Y403650D01*
X211614Y403508D01*
X212693Y403650D01*
X213699Y404066D01*
X214563Y404729D01*
X215225Y405592D01*
X215642Y406598D01*
X215784Y407677D01*
X215642Y408756D01*
X215225Y409762D01*
X214563Y410626D01*
X213699Y411288D01*
X212693Y411705D01*
X211614Y411847D01*
D02*
G37*
G36*
X106102D02*
X105023Y411705D01*
X104018Y411288D01*
X103154Y410626D01*
X102491Y409762D01*
X102075Y408756D01*
X101933Y407677D01*
X102075Y406598D01*
X102491Y405592D01*
X103154Y404729D01*
X104018Y404066D01*
X105023Y403650D01*
X106102Y403508D01*
X107182Y403650D01*
X108187Y404066D01*
X109051Y404729D01*
X109713Y405592D01*
X110130Y406598D01*
X110272Y407677D01*
X110130Y408756D01*
X109713Y409762D01*
X109051Y410626D01*
X108187Y411288D01*
X107182Y411705D01*
X106102Y411847D01*
D02*
G37*
G36*
X395669Y400629D02*
X394901Y400476D01*
X394250Y400041D01*
X393815Y399390D01*
X393662Y398622D01*
X393815Y397854D01*
X394250Y397203D01*
X394901Y396768D01*
X395669Y396615D01*
X396437Y396768D01*
X397089Y397203D01*
X397524Y397854D01*
X397676Y398622D01*
X397524Y399390D01*
X397089Y400041D01*
X396437Y400476D01*
X395669Y400629D01*
D02*
G37*
G36*
X533465Y406535D02*
X532696Y406382D01*
X532045Y405947D01*
X531610Y405296D01*
X531458Y404528D01*
X531610Y403759D01*
X532045Y403108D01*
X532696Y402673D01*
X533465Y402521D01*
X534233Y402673D01*
X534884Y403108D01*
X535319Y403759D01*
X535472Y404528D01*
X535319Y405296D01*
X534884Y405947D01*
X534233Y406382D01*
X533465Y406535D01*
D02*
G37*
G36*
X62795Y411847D02*
X61716Y411705D01*
X60711Y411288D01*
X59847Y410626D01*
X59184Y409762D01*
X58768Y408756D01*
X58626Y407677D01*
X58768Y406598D01*
X59184Y405592D01*
X59847Y404729D01*
X60711Y404066D01*
X61716Y403650D01*
X62795Y403508D01*
X63874Y403650D01*
X64880Y404066D01*
X65744Y404729D01*
X66406Y405592D01*
X66823Y406598D01*
X66965Y407677D01*
X66823Y408756D01*
X66406Y409762D01*
X65744Y410626D01*
X64880Y411288D01*
X63874Y411705D01*
X62795Y411847D01*
D02*
G37*
G36*
X158858Y418044D02*
X157237Y417916D01*
X155655Y417536D01*
X154152Y416914D01*
X152765Y416064D01*
X151528Y415007D01*
X150471Y413770D01*
X149622Y412384D01*
X148999Y410881D01*
X148619Y409299D01*
X148492Y407677D01*
X148619Y406055D01*
X148999Y404474D01*
X149622Y402971D01*
X150471Y401584D01*
X151528Y400347D01*
X152765Y399290D01*
X154152Y398441D01*
X155655Y397818D01*
X157237Y397438D01*
X157877Y397388D01*
X157858Y396888D01*
X155512D01*
X154381Y396739D01*
X153328Y396303D01*
X152423Y395608D01*
Y395608D01*
X152423D01*
X151729Y394704D01*
X151293Y393650D01*
X151144Y392520D01*
Y385827D01*
X151293Y384696D01*
X151729Y383643D01*
X152423Y382738D01*
X153328Y382044D01*
X154381Y381608D01*
X155512Y381459D01*
X162205D01*
X163335Y381608D01*
X164389Y382044D01*
X165293Y382738D01*
X165988Y383643D01*
X166424Y384696D01*
X166573Y385827D01*
Y392520D01*
X166424Y393650D01*
X165988Y394704D01*
X165293Y395608D01*
X165293D01*
Y395608D01*
X164389Y396303D01*
X163335Y396739D01*
X162205Y396888D01*
X159859D01*
X159839Y397388D01*
X160480Y397438D01*
X162062Y397818D01*
X163565Y398441D01*
X164952Y399290D01*
X166189Y400347D01*
X167245Y401584D01*
X168095Y402971D01*
X168718Y404474D01*
X169097Y406055D01*
X169225Y407677D01*
X169097Y409299D01*
X168718Y410881D01*
X168095Y412384D01*
X167245Y413770D01*
X166189Y415007D01*
X164952Y416064D01*
X163565Y416914D01*
X162062Y417536D01*
X160480Y417916D01*
X158858Y418044D01*
D02*
G37*
G36*
X233268D02*
X231646Y417916D01*
X230064Y417536D01*
X228561Y416914D01*
X227174Y416064D01*
X225937Y415007D01*
X224881Y413770D01*
X224031Y412384D01*
X223409Y410881D01*
X223029Y409299D01*
X222901Y407677D01*
X223029Y406055D01*
X223409Y404474D01*
X224031Y402971D01*
X224881Y401584D01*
X225937Y400347D01*
X227174Y399290D01*
X228561Y398441D01*
X230064Y397818D01*
X231646Y397438D01*
X232287Y397388D01*
X232267Y396888D01*
X229921D01*
X228791Y396739D01*
X227737Y396303D01*
X226833Y395608D01*
Y395608D01*
X226833D01*
X226138Y394704D01*
X225702Y393650D01*
X225553Y392520D01*
Y385827D01*
X225702Y384696D01*
X226138Y383643D01*
X226833Y382738D01*
X227737Y382044D01*
X228791Y381608D01*
X229921Y381459D01*
X236614D01*
X237745Y381608D01*
X238798Y382044D01*
X239703Y382738D01*
X240397Y383643D01*
X240833Y384696D01*
X240982Y385827D01*
Y392520D01*
X240833Y393650D01*
X240397Y394704D01*
X239703Y395608D01*
X239703D01*
Y395608D01*
X238798Y396303D01*
X237745Y396739D01*
X236614Y396888D01*
X234268D01*
X234249Y397388D01*
X234889Y397438D01*
X236471Y397818D01*
X237974Y398441D01*
X239361Y399290D01*
X240598Y400347D01*
X241654Y401584D01*
X242504Y402971D01*
X243127Y404474D01*
X243507Y406055D01*
X243634Y407677D01*
X243507Y409299D01*
X243127Y410881D01*
X242504Y412384D01*
X241654Y413770D01*
X240598Y415007D01*
X239361Y416064D01*
X237974Y416914D01*
X236471Y417536D01*
X234889Y417916D01*
X233268Y418044D01*
D02*
G37*
G36*
X64764Y392961D02*
X63325Y392772D01*
X61984Y392216D01*
X60833Y391333D01*
X59949Y390181D01*
X59394Y388841D01*
X59204Y387402D01*
X59394Y385963D01*
X59949Y384622D01*
X60833Y383471D01*
X61984Y382587D01*
X63325Y382032D01*
X64764Y381842D01*
X66203Y382032D01*
X67544Y382587D01*
X68695Y383471D01*
X69578Y384622D01*
X70134Y385963D01*
X70323Y387402D01*
X70134Y388841D01*
X69578Y390181D01*
X68695Y391333D01*
X67544Y392216D01*
X66203Y392772D01*
X64764Y392961D01*
D02*
G37*
G36*
X84449Y418044D02*
X82827Y417916D01*
X81245Y417536D01*
X79742Y416914D01*
X78355Y416064D01*
X77118Y415007D01*
X76062Y413770D01*
X75212Y412384D01*
X74590Y410881D01*
X74210Y409299D01*
X74082Y407677D01*
X74210Y406055D01*
X74590Y404474D01*
X75212Y402971D01*
X76062Y401584D01*
X77118Y400347D01*
X78355Y399290D01*
X79742Y398441D01*
X81245Y397818D01*
X82827Y397438D01*
X83468Y397388D01*
X83448Y396888D01*
X81102D01*
X79972Y396739D01*
X78918Y396303D01*
X78014Y395608D01*
Y395608D01*
X78014D01*
X77320Y394704D01*
X76883Y393650D01*
X76734Y392520D01*
Y385827D01*
X76883Y384696D01*
X77320Y383643D01*
X78014Y382738D01*
X78918Y382044D01*
X79972Y381608D01*
X81102Y381459D01*
X87795D01*
X88926Y381608D01*
X89979Y382044D01*
X90884Y382738D01*
X91578Y383643D01*
X92014Y384696D01*
X92163Y385827D01*
Y392520D01*
X92014Y393650D01*
X91578Y394704D01*
X90884Y395608D01*
X90884D01*
Y395608D01*
X89979Y396303D01*
X88926Y396739D01*
X87795Y396888D01*
X85449D01*
X85430Y397388D01*
X86071Y397438D01*
X87652Y397818D01*
X89155Y398441D01*
X90542Y399290D01*
X91779Y400347D01*
X92836Y401584D01*
X93686Y402971D01*
X94308Y404474D01*
X94688Y406055D01*
X94815Y407677D01*
X94688Y409299D01*
X94308Y410881D01*
X93686Y412384D01*
X92836Y413770D01*
X91779Y415007D01*
X90542Y416064D01*
X89155Y416914D01*
X87652Y417536D01*
X86071Y417916D01*
X84449Y418044D01*
D02*
G37*
G36*
X210630Y381928D02*
X209862Y381776D01*
X209211Y381341D01*
X208776Y380689D01*
X208623Y379921D01*
X208776Y379153D01*
X209211Y378502D01*
X209862Y378067D01*
X210630Y377914D01*
X211398Y378067D01*
X212049Y378502D01*
X212484Y379153D01*
X212637Y379921D01*
X212484Y380689D01*
X212049Y381341D01*
X211398Y381776D01*
X210630Y381928D01*
D02*
G37*
G36*
X222441D02*
X221673Y381776D01*
X221022Y381341D01*
X220587Y380689D01*
X220434Y379921D01*
X220587Y379153D01*
X221022Y378502D01*
X221673Y378067D01*
X222441Y377914D01*
X223209Y378067D01*
X223860Y378502D01*
X224295Y379153D01*
X224448Y379921D01*
X224295Y380689D01*
X223860Y381341D01*
X223209Y381776D01*
X222441Y381928D01*
D02*
G37*
G36*
X340551Y382913D02*
X339783Y382760D01*
X339132Y382325D01*
X338697Y381674D01*
X338544Y380906D01*
X338697Y380137D01*
X339132Y379486D01*
X339783Y379051D01*
X340551Y378898D01*
X341319Y379051D01*
X341970Y379486D01*
X342406Y380137D01*
X342558Y380906D01*
X342406Y381674D01*
X341970Y382325D01*
X341319Y382760D01*
X340551Y382913D01*
D02*
G37*
G36*
X139173Y392961D02*
X137734Y392772D01*
X136393Y392216D01*
X135242Y391333D01*
X134359Y390181D01*
X133803Y388841D01*
X133614Y387402D01*
X133803Y385963D01*
X134359Y384622D01*
X135242Y383471D01*
X136393Y382587D01*
X137734Y382032D01*
X139173Y381842D01*
X140612Y382032D01*
X141953Y382587D01*
X143104Y383471D01*
X143988Y384622D01*
X144543Y385963D01*
X144733Y387402D01*
X144543Y388841D01*
X143988Y390181D01*
X143104Y391333D01*
X141953Y392216D01*
X140612Y392772D01*
X139173Y392961D01*
D02*
G37*
G36*
X486890Y390472D02*
X486122Y390319D01*
X485470Y389884D01*
X485036Y389233D01*
X484883Y388465D01*
X485036Y387697D01*
X485470Y387045D01*
X486122Y386610D01*
X486890Y386457D01*
X487658Y386610D01*
X488309Y387045D01*
X488744Y387697D01*
X488897Y388465D01*
X488744Y389233D01*
X488309Y389884D01*
X487658Y390319D01*
X486890Y390472D01*
D02*
G37*
G36*
X180118Y390787D02*
X179350Y390634D01*
X178699Y390199D01*
X178264Y389548D01*
X178111Y388779D01*
X178264Y388012D01*
X178699Y387360D01*
X179350Y386925D01*
X180118Y386772D01*
X180886Y386925D01*
X181537Y387360D01*
X181972Y388012D01*
X182125Y388779D01*
X181972Y389548D01*
X181537Y390199D01*
X180886Y390634D01*
X180118Y390787D01*
D02*
G37*
G36*
X395669Y390787D02*
X394901Y390634D01*
X394250Y390199D01*
X393815Y389548D01*
X393662Y388779D01*
X393815Y388012D01*
X394250Y387360D01*
X394901Y386925D01*
X395669Y386772D01*
X396437Y386925D01*
X397089Y387360D01*
X397524Y388012D01*
X397676Y388779D01*
X397524Y389548D01*
X397089Y390199D01*
X396437Y390634D01*
X395669Y390787D01*
D02*
G37*
G36*
X350394Y389802D02*
X349626Y389650D01*
X348974Y389214D01*
X348539Y388563D01*
X348387Y387795D01*
X348539Y387027D01*
X348974Y386376D01*
X349626Y385941D01*
X350394Y385788D01*
X351162Y385941D01*
X351813Y386376D01*
X352248Y387027D01*
X352401Y387795D01*
X352248Y388563D01*
X351813Y389214D01*
X351162Y389650D01*
X350394Y389802D01*
D02*
G37*
G36*
X213583Y392961D02*
X212144Y392772D01*
X210803Y392216D01*
X209652Y391333D01*
X208768Y390181D01*
X208213Y388841D01*
X208023Y387402D01*
X208213Y385963D01*
X208768Y384622D01*
X209652Y383471D01*
X210803Y382587D01*
X212144Y382032D01*
X213583Y381842D01*
X215021Y382032D01*
X216362Y382587D01*
X217514Y383471D01*
X218397Y384622D01*
X218953Y385963D01*
X219142Y387402D01*
X218953Y388841D01*
X218397Y390181D01*
X217514Y391333D01*
X216362Y392216D01*
X215021Y392772D01*
X213583Y392961D01*
D02*
G37*
G36*
X553150Y385865D02*
X552382Y385713D01*
X551730Y385278D01*
X551295Y384626D01*
X551143Y383858D01*
X551295Y383090D01*
X551730Y382439D01*
X552382Y382004D01*
X553150Y381851D01*
X553918Y382004D01*
X554569Y382439D01*
X555004Y383090D01*
X555157Y383858D01*
X555004Y384626D01*
X554569Y385278D01*
X553918Y385713D01*
X553150Y385865D01*
D02*
G37*
G36*
X832677Y398062D02*
X831442Y397940D01*
X830255Y397580D01*
X829161Y396995D01*
X828201Y396208D01*
X827414Y395249D01*
X826829Y394155D01*
X826469Y392967D01*
X826348Y391732D01*
X826469Y390497D01*
X826829Y389310D01*
X827414Y388216D01*
X828201Y387257D01*
X829161Y386469D01*
X830255Y385884D01*
X831442Y385524D01*
X832677Y385403D01*
X833912Y385524D01*
X835099Y385884D01*
X836194Y386469D01*
X837153Y387257D01*
X837940Y388216D01*
X838525Y389310D01*
X838885Y390497D01*
X839007Y391732D01*
X838885Y392967D01*
X838525Y394155D01*
X837940Y395249D01*
X837153Y396208D01*
X836194Y396995D01*
X835099Y397580D01*
X833912Y397940D01*
X832677Y398062D01*
D02*
G37*
G36*
X103347Y430275D02*
X102629Y430204D01*
X101182Y429765D01*
X99848Y429052D01*
X98679Y428093D01*
X97720Y426924D01*
X97007Y425590D01*
X96568Y424143D01*
X96497Y423425D01*
X103347D01*
Y430275D01*
D02*
G37*
G36*
X104921D02*
Y423425D01*
X111771D01*
X111700Y424143D01*
X111261Y425590D01*
X110548Y426924D01*
X109589Y428093D01*
X108420Y429052D01*
X107086Y429765D01*
X105639Y430204D01*
X104921Y430275D01*
D02*
G37*
G36*
X177756D02*
X177038Y430204D01*
X175591Y429765D01*
X174258Y429052D01*
X173089Y428093D01*
X172129Y426924D01*
X171416Y425590D01*
X170977Y424143D01*
X170906Y423425D01*
X177756D01*
Y430275D01*
D02*
G37*
G36*
X233268Y438422D02*
X231801Y438278D01*
X230391Y437850D01*
X229092Y437155D01*
X227953Y436221D01*
X227018Y435081D01*
X226323Y433782D01*
X225896Y432372D01*
X225751Y430905D01*
X225896Y429439D01*
X226323Y428029D01*
X227018Y426730D01*
X227953Y425591D01*
X229092Y424656D01*
X230391Y423961D01*
X231801Y423533D01*
X233268Y423389D01*
X234734Y423533D01*
X236144Y423961D01*
X237444Y424656D01*
X238583Y425591D01*
X239517Y426730D01*
X240212Y428029D01*
X240640Y429439D01*
X240784Y430905D01*
X240640Y432372D01*
X240212Y433782D01*
X239517Y435081D01*
X238583Y436221D01*
X237444Y437155D01*
X236144Y437850D01*
X234734Y438278D01*
X233268Y438422D01*
D02*
G37*
G36*
X542323Y427204D02*
X541555Y427051D01*
X540904Y426616D01*
X540469Y425965D01*
X540316Y425197D01*
X540469Y424429D01*
X540904Y423778D01*
X541555Y423343D01*
X542323Y423190D01*
X543091Y423343D01*
X543742Y423778D01*
X544177Y424429D01*
X544330Y425197D01*
X544177Y425965D01*
X543742Y426616D01*
X543091Y427051D01*
X542323Y427204D01*
D02*
G37*
G36*
X84449Y438422D02*
X82982Y438278D01*
X81572Y437850D01*
X80273Y437155D01*
X79134Y436221D01*
X78199Y435081D01*
X77504Y433782D01*
X77077Y432372D01*
X76932Y430905D01*
X77077Y429439D01*
X77504Y428029D01*
X78199Y426730D01*
X79134Y425591D01*
X80273Y424656D01*
X81572Y423961D01*
X82982Y423533D01*
X84449Y423389D01*
X85915Y423533D01*
X87325Y423961D01*
X88625Y424656D01*
X89764Y425591D01*
X90699Y426730D01*
X91393Y428029D01*
X91821Y429439D01*
X91965Y430905D01*
X91821Y432372D01*
X91393Y433782D01*
X90699Y435081D01*
X89764Y436221D01*
X88625Y437155D01*
X87325Y437850D01*
X85915Y438278D01*
X84449Y438422D01*
D02*
G37*
G36*
X158858D02*
X157392Y438278D01*
X155982Y437850D01*
X154682Y437155D01*
X153543Y436221D01*
X152609Y435081D01*
X151914Y433782D01*
X151486Y432372D01*
X151342Y430905D01*
X151486Y429439D01*
X151914Y428029D01*
X152609Y426730D01*
X153543Y425591D01*
X154682Y424656D01*
X155982Y423961D01*
X157392Y423533D01*
X158858Y423389D01*
X160325Y423533D01*
X161735Y423961D01*
X163034Y424656D01*
X164173Y425591D01*
X165108Y426730D01*
X165803Y428029D01*
X166230Y429439D01*
X166375Y430905D01*
X166230Y432372D01*
X165803Y433782D01*
X165108Y435081D01*
X164173Y436221D01*
X163034Y437155D01*
X161735Y437850D01*
X160325Y438278D01*
X158858Y438422D01*
D02*
G37*
G36*
X179331Y430275D02*
Y423425D01*
X186180D01*
X186109Y424143D01*
X185670Y425590D01*
X184958Y426924D01*
X183998Y428093D01*
X182829Y429052D01*
X181495Y429765D01*
X180048Y430204D01*
X179331Y430275D01*
D02*
G37*
G36*
X548228Y440983D02*
X547460Y440831D01*
X546809Y440396D01*
X546374Y439744D01*
X546221Y438976D01*
X546374Y438208D01*
X546809Y437557D01*
X547460Y437122D01*
X548228Y436969D01*
X548996Y437122D01*
X549648Y437557D01*
X550083Y438208D01*
X550235Y438976D01*
X550083Y439744D01*
X549648Y440396D01*
X548996Y440831D01*
X548228Y440983D01*
D02*
G37*
G36*
X395669Y440983D02*
X394901Y440831D01*
X394250Y440396D01*
X393815Y439745D01*
X393662Y438976D01*
X393815Y438208D01*
X394250Y437557D01*
X394901Y437122D01*
X395669Y436969D01*
X396437Y437122D01*
X397089Y437557D01*
X397524Y438208D01*
X397676Y438976D01*
X397524Y439745D01*
X397089Y440396D01*
X396437Y440831D01*
X395669Y440983D01*
D02*
G37*
G36*
X487205D02*
X486437Y440831D01*
X485785Y440396D01*
X485350Y439745D01*
X485198Y438976D01*
X485350Y438208D01*
X485785Y437557D01*
X486437Y437122D01*
X487205Y436969D01*
X487973Y437122D01*
X488624Y437557D01*
X489059Y438208D01*
X489212Y438976D01*
X489059Y439745D01*
X488624Y440396D01*
X487973Y440831D01*
X487205Y440983D01*
D02*
G37*
G36*
X545276Y434094D02*
X544508Y433941D01*
X543856Y433506D01*
X543421Y432855D01*
X543268Y432087D01*
X543421Y431319D01*
X543856Y430667D01*
X544508Y430232D01*
X545276Y430080D01*
X546044Y430232D01*
X546695Y430667D01*
X547130Y431319D01*
X547283Y432087D01*
X547130Y432855D01*
X546695Y433506D01*
X546044Y433941D01*
X545276Y434094D01*
D02*
G37*
G36*
X252165Y430275D02*
X251448Y430204D01*
X250001Y429765D01*
X248667Y429052D01*
X247498Y428093D01*
X246538Y426924D01*
X245826Y425590D01*
X245387Y424143D01*
X245316Y423425D01*
X252165D01*
Y430275D01*
D02*
G37*
G36*
X253740D02*
Y423425D01*
X260590D01*
X260519Y424143D01*
X260080Y425590D01*
X259367Y426924D01*
X258408Y428093D01*
X257239Y429052D01*
X255905Y429765D01*
X254458Y430204D01*
X253740Y430275D01*
D02*
G37*
G36*
X486890Y430472D02*
X486122Y430319D01*
X485471Y429884D01*
X485036Y429233D01*
X484883Y428465D01*
X485036Y427697D01*
X485471Y427045D01*
X486122Y426610D01*
X486890Y426458D01*
X487658Y426610D01*
X488309Y427045D01*
X488744Y427697D01*
X488897Y428465D01*
X488744Y429233D01*
X488309Y429884D01*
X487658Y430319D01*
X486890Y430472D01*
D02*
G37*
G36*
X852362Y431534D02*
X850447Y431383D01*
X848579Y430935D01*
X846804Y430199D01*
X845166Y429196D01*
X843705Y427948D01*
X842458Y426487D01*
X841454Y424849D01*
X840719Y423074D01*
X840271Y421207D01*
X840120Y419291D01*
X840271Y417376D01*
X840719Y415508D01*
X841454Y413733D01*
X842458Y412095D01*
X843705Y410635D01*
X845166Y409387D01*
X846804Y408383D01*
X848579Y407648D01*
X850447Y407200D01*
X852362Y407049D01*
X854277Y407200D01*
X856145Y407648D01*
X857920Y408383D01*
X859558Y409387D01*
X861019Y410635D01*
X862267Y412095D01*
X863270Y413733D01*
X864005Y415508D01*
X864454Y417376D01*
X864605Y419291D01*
X864454Y421207D01*
X864005Y423074D01*
X863270Y424849D01*
X862267Y426487D01*
X861019Y427948D01*
X859558Y429196D01*
X857920Y430199D01*
X856145Y430935D01*
X854277Y431383D01*
X852362Y431534D01*
D02*
G37*
G36*
X536417Y413424D02*
X535649Y413272D01*
X534998Y412837D01*
X534563Y412185D01*
X534410Y411417D01*
X534563Y410649D01*
X534998Y409998D01*
X535649Y409563D01*
X536417Y409410D01*
X537185Y409563D01*
X537837Y409998D01*
X538272Y410649D01*
X538424Y411417D01*
X538272Y412185D01*
X537837Y412837D01*
X537185Y413272D01*
X536417Y413424D01*
D02*
G37*
G36*
X103347Y421850D02*
X96497D01*
X96568Y421133D01*
X97007Y419686D01*
X97720Y418352D01*
X98679Y417183D01*
X99848Y416224D01*
X101182Y415511D01*
X102629Y415072D01*
X103347Y415001D01*
Y421850D01*
D02*
G37*
G36*
X29528Y431534D02*
X27612Y431383D01*
X25744Y430935D01*
X23970Y430199D01*
X22332Y429196D01*
X20871Y427948D01*
X19623Y426487D01*
X18620Y424849D01*
X17884Y423074D01*
X17436Y421207D01*
X17285Y419291D01*
X17436Y417376D01*
X17884Y415508D01*
X18620Y413733D01*
X19623Y412095D01*
X20871Y410635D01*
X22332Y409387D01*
X23970Y408383D01*
X25744Y407648D01*
X27612Y407200D01*
X29528Y407049D01*
X31443Y407200D01*
X33311Y407648D01*
X35085Y408383D01*
X36724Y409387D01*
X38184Y410635D01*
X39432Y412095D01*
X40436Y413733D01*
X41171Y415508D01*
X41619Y417376D01*
X41770Y419291D01*
X41619Y421207D01*
X41171Y423074D01*
X40436Y424849D01*
X39432Y426487D01*
X38184Y427948D01*
X36724Y429196D01*
X35085Y430199D01*
X33311Y430935D01*
X31443Y431383D01*
X29528Y431534D01*
D02*
G37*
G36*
X254921Y411847D02*
X253842Y411705D01*
X252836Y411288D01*
X251973Y410626D01*
X251310Y409762D01*
X250894Y408756D01*
X250752Y407677D01*
X250894Y406598D01*
X251310Y405592D01*
X251973Y404729D01*
X252836Y404066D01*
X253842Y403650D01*
X254921Y403508D01*
X256000Y403650D01*
X257006Y404066D01*
X257870Y404729D01*
X258532Y405592D01*
X258949Y406598D01*
X259091Y407677D01*
X258949Y408756D01*
X258532Y409762D01*
X257870Y410626D01*
X257006Y411288D01*
X256000Y411705D01*
X254921Y411847D01*
D02*
G37*
G36*
X395669Y410472D02*
X394901Y410319D01*
X394250Y409884D01*
X393815Y409233D01*
X393662Y408465D01*
X393815Y407696D01*
X394250Y407045D01*
X394901Y406610D01*
X395669Y406458D01*
X396437Y406610D01*
X397089Y407045D01*
X397524Y407696D01*
X397676Y408465D01*
X397524Y409233D01*
X397089Y409884D01*
X396437Y410319D01*
X395669Y410472D01*
D02*
G37*
G36*
X487205D02*
X486437Y410319D01*
X485785Y409884D01*
X485350Y409233D01*
X485198Y408465D01*
X485350Y407696D01*
X485785Y407045D01*
X486437Y406610D01*
X487205Y406458D01*
X487973Y406610D01*
X488624Y407045D01*
X489059Y407696D01*
X489212Y408465D01*
X489059Y409233D01*
X488624Y409884D01*
X487973Y410319D01*
X487205Y410472D01*
D02*
G37*
G36*
X111771Y421850D02*
X104921D01*
Y415001D01*
X105639Y415072D01*
X107086Y415511D01*
X108420Y416224D01*
X109589Y417183D01*
X110548Y418352D01*
X111261Y419686D01*
X111700Y421133D01*
X111771Y421850D01*
D02*
G37*
G36*
X395669Y420314D02*
X394901Y420161D01*
X394250Y419726D01*
X393815Y419075D01*
X393662Y418307D01*
X393815Y417539D01*
X394250Y416888D01*
X394901Y416453D01*
X395669Y416300D01*
X396437Y416453D01*
X397089Y416888D01*
X397524Y417539D01*
X397676Y418307D01*
X397524Y419075D01*
X397089Y419726D01*
X396437Y420161D01*
X395669Y420314D01*
D02*
G37*
G36*
X539370D02*
X538602Y420161D01*
X537951Y419726D01*
X537516Y419075D01*
X537363Y418307D01*
X537516Y417539D01*
X537951Y416888D01*
X538602Y416453D01*
X539370Y416300D01*
X540138Y416453D01*
X540789Y416888D01*
X541224Y417539D01*
X541377Y418307D01*
X541224Y419075D01*
X540789Y419726D01*
X540138Y420161D01*
X539370Y420314D01*
D02*
G37*
G36*
X487047Y420472D02*
X486279Y420319D01*
X485628Y419884D01*
X485193Y419233D01*
X485040Y418465D01*
X485193Y417697D01*
X485628Y417045D01*
X486279Y416610D01*
X487047Y416458D01*
X487815Y416610D01*
X488466Y417045D01*
X488902Y417697D01*
X489054Y418465D01*
X488902Y419233D01*
X488466Y419884D01*
X487815Y420319D01*
X487047Y420472D01*
D02*
G37*
G36*
X260590Y421850D02*
X253740D01*
Y415001D01*
X254458Y415072D01*
X255905Y415511D01*
X257239Y416224D01*
X258408Y417183D01*
X259367Y418352D01*
X260080Y419686D01*
X260519Y421133D01*
X260590Y421850D01*
D02*
G37*
G36*
X177756D02*
X170906D01*
X170977Y421133D01*
X171416Y419686D01*
X172129Y418352D01*
X173089Y417183D01*
X174258Y416224D01*
X175591Y415511D01*
X177038Y415072D01*
X177756Y415001D01*
Y421850D01*
D02*
G37*
G36*
X186180D02*
X179331D01*
Y415001D01*
X180048Y415072D01*
X181495Y415511D01*
X182829Y416224D01*
X183998Y417183D01*
X184958Y418352D01*
X185670Y419686D01*
X186109Y421133D01*
X186180Y421850D01*
D02*
G37*
G36*
X252165D02*
X245316D01*
X245387Y421133D01*
X245826Y419686D01*
X246538Y418352D01*
X247498Y417183D01*
X248667Y416224D01*
X250001Y415511D01*
X251448Y415072D01*
X252165Y415001D01*
Y421850D01*
D02*
G37*
G36*
X395669Y380944D02*
X394901Y380791D01*
X394250Y380356D01*
X393815Y379705D01*
X393662Y378937D01*
X393815Y378169D01*
X394250Y377518D01*
X394901Y377083D01*
X395669Y376930D01*
X396437Y377083D01*
X397089Y377518D01*
X397524Y378169D01*
X397676Y378937D01*
X397524Y379705D01*
X397089Y380356D01*
X396437Y380791D01*
X395669Y380944D01*
D02*
G37*
G36*
X109449Y319842D02*
X108731Y319771D01*
X107284Y319332D01*
X105950Y318619D01*
X104781Y317660D01*
X103822Y316491D01*
X103109Y315157D01*
X102670Y313710D01*
X102600Y312992D01*
X109449D01*
Y319842D01*
D02*
G37*
G36*
X111024D02*
Y312992D01*
X117873D01*
X117802Y313710D01*
X117363Y315157D01*
X116650Y316491D01*
X115691Y317660D01*
X114522Y318619D01*
X113188Y319332D01*
X111741Y319771D01*
X111024Y319842D01*
D02*
G37*
G36*
X218701D02*
X217983Y319771D01*
X216536Y319332D01*
X215202Y318619D01*
X214033Y317660D01*
X213074Y316491D01*
X212361Y315157D01*
X211922Y313710D01*
X211851Y312992D01*
X218701D01*
Y319842D01*
D02*
G37*
G36*
X199803Y327989D02*
X198337Y327845D01*
X196927Y327417D01*
X195627Y326722D01*
X194488Y325787D01*
X193553Y324648D01*
X192859Y323349D01*
X192431Y321939D01*
X192287Y320472D01*
X192431Y319006D01*
X192859Y317596D01*
X193553Y316297D01*
X194488Y315158D01*
X195627Y314223D01*
X196927Y313528D01*
X198337Y313100D01*
X199803Y312956D01*
X201270Y313100D01*
X202680Y313528D01*
X203979Y314223D01*
X205118Y315158D01*
X206053Y316297D01*
X206748Y317596D01*
X207175Y319006D01*
X207320Y320472D01*
X207175Y321939D01*
X206748Y323349D01*
X206053Y324648D01*
X205118Y325787D01*
X203979Y326722D01*
X202680Y327417D01*
X201270Y327845D01*
X199803Y327989D01*
D02*
G37*
G36*
X411417Y315983D02*
X410649Y315831D01*
X409998Y315396D01*
X409563Y314744D01*
X409410Y313976D01*
X409563Y313208D01*
X409998Y312557D01*
X410649Y312122D01*
X411417Y311969D01*
X412185Y312122D01*
X412837Y312557D01*
X413272Y313208D01*
X413424Y313976D01*
X413272Y314744D01*
X412837Y315396D01*
X412185Y315831D01*
X411417Y315983D01*
D02*
G37*
G36*
X344488Y316968D02*
X343720Y316815D01*
X343069Y316380D01*
X342634Y315729D01*
X342481Y314961D01*
X342634Y314193D01*
X343069Y313541D01*
X343720Y313106D01*
X344488Y312954D01*
X345256Y313106D01*
X345907Y313541D01*
X346342Y314193D01*
X346495Y314961D01*
X346342Y315729D01*
X345907Y316380D01*
X345256Y316815D01*
X344488Y316968D01*
D02*
G37*
G36*
X90551Y327989D02*
X89085Y327845D01*
X87675Y327417D01*
X86375Y326722D01*
X85236Y325787D01*
X84301Y324648D01*
X83607Y323349D01*
X83179Y321939D01*
X83035Y320472D01*
X83179Y319006D01*
X83607Y317596D01*
X84301Y316297D01*
X85236Y315158D01*
X86375Y314223D01*
X87675Y313528D01*
X89085Y313100D01*
X90551Y312956D01*
X92018Y313100D01*
X93428Y313528D01*
X94727Y314223D01*
X95866Y315158D01*
X96801Y316297D01*
X97496Y317596D01*
X97923Y319006D01*
X98068Y320472D01*
X97923Y321939D01*
X97496Y323349D01*
X96801Y324648D01*
X95866Y325787D01*
X94727Y326722D01*
X93428Y327417D01*
X92018Y327845D01*
X90551Y327989D01*
D02*
G37*
G36*
X220276Y319842D02*
Y312992D01*
X227125D01*
X227054Y313710D01*
X226615Y315157D01*
X225902Y316491D01*
X224943Y317660D01*
X223774Y318619D01*
X222440Y319332D01*
X220993Y319771D01*
X220276Y319842D01*
D02*
G37*
G36*
X845669Y321810D02*
X844952Y321739D01*
X843505Y321300D01*
X842171Y320587D01*
X841002Y319628D01*
X840042Y318459D01*
X839330Y317125D01*
X838891Y315678D01*
X838820Y314961D01*
X845669D01*
Y321810D01*
D02*
G37*
G36*
X847244D02*
Y314961D01*
X854093D01*
X854023Y315678D01*
X853584Y317125D01*
X852871Y318459D01*
X851912Y319628D01*
X850743Y320587D01*
X849409Y321300D01*
X847962Y321739D01*
X847244Y321810D01*
D02*
G37*
G36*
X595768Y326987D02*
X595000Y326835D01*
X594348Y326399D01*
X593913Y325748D01*
X593761Y324980D01*
X593913Y324212D01*
X594348Y323561D01*
X595000Y323126D01*
X595768Y322973D01*
X596536Y323126D01*
X597187Y323561D01*
X597622Y324212D01*
X597775Y324980D01*
X597622Y325748D01*
X597187Y326399D01*
X596536Y326835D01*
X595768Y326987D01*
D02*
G37*
G36*
X524409Y321810D02*
Y314961D01*
X531259D01*
X531188Y315678D01*
X530749Y317125D01*
X530036Y318459D01*
X529077Y319628D01*
X527908Y320587D01*
X526574Y321300D01*
X525127Y321739D01*
X524409Y321810D01*
D02*
G37*
G36*
X503937Y329958D02*
X502471Y329813D01*
X501061Y329385D01*
X499761Y328691D01*
X498622Y327756D01*
X497687Y326617D01*
X496993Y325317D01*
X496565Y323907D01*
X496420Y322441D01*
X496565Y320974D01*
X496993Y319565D01*
X497687Y318265D01*
X498622Y317126D01*
X499761Y316191D01*
X501061Y315497D01*
X502471Y315069D01*
X503937Y314924D01*
X505403Y315069D01*
X506813Y315497D01*
X508113Y316191D01*
X509252Y317126D01*
X510187Y318265D01*
X510881Y319565D01*
X511309Y320974D01*
X511453Y322441D01*
X511309Y323907D01*
X510881Y325317D01*
X510187Y326617D01*
X509252Y327756D01*
X508113Y328691D01*
X506813Y329385D01*
X505403Y329813D01*
X503937Y329958D01*
D02*
G37*
G36*
X826772D02*
X825305Y329813D01*
X823895Y329385D01*
X822596Y328691D01*
X821457Y327756D01*
X820522Y326617D01*
X819827Y325317D01*
X819400Y323907D01*
X819255Y322441D01*
X819400Y320974D01*
X819827Y319565D01*
X820522Y318265D01*
X821457Y317126D01*
X822596Y316191D01*
X823895Y315497D01*
X825305Y315069D01*
X826772Y314924D01*
X828238Y315069D01*
X829648Y315497D01*
X830948Y316191D01*
X832087Y317126D01*
X833021Y318265D01*
X833716Y319565D01*
X834144Y320974D01*
X834288Y322441D01*
X834144Y323907D01*
X833716Y325317D01*
X833021Y326617D01*
X832087Y327756D01*
X830948Y328691D01*
X829648Y329385D01*
X828238Y329813D01*
X826772Y329958D01*
D02*
G37*
G36*
X522835Y321810D02*
X522117Y321739D01*
X520670Y321300D01*
X519336Y320587D01*
X518167Y319628D01*
X517208Y318459D01*
X516495Y317125D01*
X516056Y315678D01*
X515985Y314961D01*
X522835D01*
Y321810D01*
D02*
G37*
G36*
X638779Y310078D02*
X638012Y309925D01*
X637360Y309490D01*
X636925Y308839D01*
X636772Y308071D01*
X636925Y307303D01*
X637360Y306652D01*
X638012Y306217D01*
X638779Y306064D01*
X639548Y306217D01*
X640199Y306652D01*
X640634Y307303D01*
X640787Y308071D01*
X640634Y308839D01*
X640199Y309490D01*
X639548Y309925D01*
X638779Y310078D01*
D02*
G37*
G36*
X522835Y313386D02*
X515985D01*
X516056Y312668D01*
X516495Y311221D01*
X517208Y309887D01*
X518167Y308718D01*
X519336Y307759D01*
X520670Y307046D01*
X522117Y306607D01*
X522835Y306537D01*
Y313386D01*
D02*
G37*
G36*
X531259D02*
X524409D01*
Y306537D01*
X525127Y306607D01*
X526574Y307046D01*
X527908Y307759D01*
X529077Y308718D01*
X530036Y309887D01*
X530749Y311221D01*
X531188Y312668D01*
X531259Y313386D01*
D02*
G37*
G36*
X428150Y310078D02*
X427382Y309925D01*
X426730Y309490D01*
X426295Y308839D01*
X426143Y308071D01*
X426295Y307303D01*
X426730Y306652D01*
X427382Y306217D01*
X428150Y306064D01*
X428918Y306217D01*
X429569Y306652D01*
X430004Y307303D01*
X430157Y308071D01*
X430004Y308839D01*
X429569Y309490D01*
X428918Y309925D01*
X428150Y310078D01*
D02*
G37*
G36*
X218701Y311417D02*
X211851D01*
X211922Y310700D01*
X212361Y309253D01*
X213074Y307919D01*
X214033Y306750D01*
X215202Y305790D01*
X216536Y305078D01*
X217983Y304639D01*
X218701Y304568D01*
Y311417D01*
D02*
G37*
G36*
X227125D02*
X220276D01*
Y304568D01*
X220993Y304639D01*
X222440Y305078D01*
X223774Y305790D01*
X224943Y306750D01*
X225902Y307919D01*
X226615Y309253D01*
X227054Y310700D01*
X227125Y311417D01*
D02*
G37*
G36*
X423228Y310078D02*
X422460Y309925D01*
X421809Y309490D01*
X421374Y308839D01*
X421221Y308071D01*
X421374Y307303D01*
X421809Y306652D01*
X422460Y306217D01*
X423228Y306064D01*
X423996Y306217D01*
X424648Y306652D01*
X425083Y307303D01*
X425235Y308071D01*
X425083Y308839D01*
X424648Y309490D01*
X423996Y309925D01*
X423228Y310078D01*
D02*
G37*
G36*
X845669Y313386D02*
X838820D01*
X838891Y312668D01*
X839330Y311221D01*
X840042Y309887D01*
X841002Y308718D01*
X842171Y307759D01*
X843505Y307046D01*
X844952Y306607D01*
X845669Y306537D01*
Y313386D01*
D02*
G37*
G36*
X590551Y321386D02*
X589112Y321197D01*
X587772Y320641D01*
X586620Y319758D01*
X585737Y318606D01*
X585181Y317266D01*
X584992Y315827D01*
X585181Y314388D01*
X585737Y313047D01*
X586620Y311896D01*
X587772Y311012D01*
X589112Y310457D01*
X590551Y310267D01*
X591990Y310457D01*
X593331Y311012D01*
X594482Y311896D01*
X595366Y313047D01*
X595921Y314388D01*
X596110Y315827D01*
X595921Y317266D01*
X595366Y318606D01*
X594482Y319758D01*
X593331Y320641D01*
X591990Y321197D01*
X590551Y321386D01*
D02*
G37*
G36*
X718504Y346981D02*
X716882Y346853D01*
X715301Y346473D01*
X713798Y345851D01*
X712411Y345001D01*
X711174Y343945D01*
X710117Y342707D01*
X709267Y341320D01*
X708645Y339818D01*
X708265Y338236D01*
X708137Y336614D01*
X708265Y334993D01*
X708645Y333411D01*
X709267Y331908D01*
X710117Y330521D01*
X711174Y329284D01*
X712411Y328227D01*
X713798Y327378D01*
X715301Y326755D01*
X716882Y326375D01*
X717523Y326325D01*
X717503Y325825D01*
X715158D01*
X714027Y325676D01*
X712973Y325240D01*
X712069Y324545D01*
Y324545D01*
X712069D01*
X711375Y323641D01*
X710938Y322587D01*
X710789Y321457D01*
Y314764D01*
X710938Y313633D01*
X711375Y312580D01*
X712069Y311675D01*
X712973Y310981D01*
X714027Y310544D01*
X715158Y310396D01*
X721850D01*
X722981Y310544D01*
X724034Y310981D01*
X724939Y311675D01*
X725633Y312580D01*
X726070Y313633D01*
X726219Y314764D01*
Y321457D01*
X726070Y322587D01*
X725633Y323641D01*
X724939Y324545D01*
X724939D01*
Y324545D01*
X724034Y325240D01*
X722981Y325676D01*
X721850Y325825D01*
X719504D01*
X719485Y326325D01*
X720126Y326375D01*
X721707Y326755D01*
X723210Y327378D01*
X724597Y328227D01*
X725834Y329284D01*
X726891Y330521D01*
X727741Y331908D01*
X728363Y333411D01*
X728743Y334993D01*
X728870Y336614D01*
X728743Y338236D01*
X728363Y339818D01*
X727741Y341320D01*
X726891Y342707D01*
X725834Y343945D01*
X724597Y345001D01*
X723210Y345851D01*
X721707Y346473D01*
X720126Y346853D01*
X718504Y346981D01*
D02*
G37*
G36*
X698819Y321898D02*
X697380Y321708D01*
X696039Y321153D01*
X694888Y320270D01*
X694004Y319118D01*
X693449Y317777D01*
X693259Y316339D01*
X693449Y314900D01*
X694004Y313559D01*
X694888Y312407D01*
X696039Y311524D01*
X697380Y310969D01*
X698819Y310779D01*
X700258Y310969D01*
X701599Y311524D01*
X702750Y312407D01*
X703633Y313559D01*
X704189Y314900D01*
X704378Y316339D01*
X704189Y317777D01*
X703633Y319118D01*
X702750Y320270D01*
X701599Y321153D01*
X700258Y321708D01*
X698819Y321898D01*
D02*
G37*
G36*
X739173Y314015D02*
X738405Y313862D01*
X737754Y313427D01*
X737319Y312776D01*
X737166Y312008D01*
X737319Y311240D01*
X737754Y310589D01*
X738405Y310154D01*
X739173Y310001D01*
X739941Y310154D01*
X740592Y310589D01*
X741027Y311240D01*
X741180Y312008D01*
X741027Y312776D01*
X740592Y313427D01*
X739941Y313862D01*
X739173Y314015D01*
D02*
G37*
G36*
X854093Y313386D02*
X847244D01*
Y306537D01*
X847962Y306607D01*
X849409Y307046D01*
X850743Y307759D01*
X851912Y308718D01*
X852871Y309887D01*
X853584Y311221D01*
X854023Y312668D01*
X854093Y313386D01*
D02*
G37*
G36*
X440945Y331140D02*
X439030Y330989D01*
X437162Y330541D01*
X435387Y329806D01*
X433749Y328802D01*
X432288Y327554D01*
X431040Y326094D01*
X430037Y324456D01*
X429302Y322681D01*
X428853Y320813D01*
X428702Y318898D01*
X428853Y316983D01*
X429302Y315114D01*
X430037Y313340D01*
X431040Y311702D01*
X432288Y310241D01*
X433749Y308993D01*
X435387Y307990D01*
X437162Y307254D01*
X439030Y306806D01*
X440945Y306655D01*
X442860Y306806D01*
X444728Y307254D01*
X446503Y307990D01*
X448141Y308993D01*
X449602Y310241D01*
X450849Y311702D01*
X451853Y313340D01*
X452588Y315114D01*
X453037Y316983D01*
X453187Y318898D01*
X453037Y320813D01*
X452588Y322681D01*
X451853Y324456D01*
X450849Y326094D01*
X449602Y327554D01*
X448141Y328802D01*
X446503Y329806D01*
X444728Y330541D01*
X442860Y330989D01*
X440945Y331140D01*
D02*
G37*
G36*
X610236Y346469D02*
X608614Y346341D01*
X607033Y345962D01*
X605530Y345339D01*
X604143Y344489D01*
X602906Y343433D01*
X601850Y342196D01*
X600999Y340809D01*
X600377Y339306D01*
X599997Y337724D01*
X599870Y336102D01*
X599997Y334481D01*
X600377Y332899D01*
X600999Y331396D01*
X601850Y330009D01*
X602906Y328772D01*
X604143Y327716D01*
X605530Y326866D01*
X607033Y326243D01*
X608614Y325863D01*
X609255Y325813D01*
X609236Y325313D01*
X606890D01*
X605759Y325164D01*
X604706Y324728D01*
X603801Y324034D01*
Y324034D01*
X603801D01*
X603107Y323129D01*
X602670Y322075D01*
X602522Y320945D01*
Y314252D01*
X602670Y313121D01*
X603107Y312068D01*
X603801Y311163D01*
X604706Y310469D01*
X605759Y310033D01*
X606890Y309884D01*
X613583D01*
X614713Y310033D01*
X615767Y310469D01*
X616671Y311163D01*
X617366Y312068D01*
X617802Y313121D01*
X617951Y314252D01*
Y320945D01*
X617802Y322075D01*
X617366Y323129D01*
X616671Y324034D01*
X616671D01*
Y324034D01*
X615767Y324728D01*
X614713Y325164D01*
X613583Y325313D01*
X611237D01*
X611217Y325813D01*
X611858Y325863D01*
X613440Y326243D01*
X614943Y326866D01*
X616330Y327716D01*
X617566Y328772D01*
X618623Y330009D01*
X619473Y331396D01*
X620095Y332899D01*
X620475Y334481D01*
X620603Y336102D01*
X620475Y337724D01*
X620095Y339306D01*
X619473Y340809D01*
X618623Y342196D01*
X617566Y343433D01*
X616330Y344489D01*
X614943Y345339D01*
X613440Y345962D01*
X611858Y346341D01*
X610236Y346469D01*
D02*
G37*
G36*
X737402Y359212D02*
X736684Y359141D01*
X735237Y358702D01*
X733903Y357989D01*
X732734Y357030D01*
X731775Y355861D01*
X731062Y354527D01*
X730623Y353080D01*
X730552Y352362D01*
X737402D01*
Y359212D01*
D02*
G37*
G36*
X738976D02*
Y352362D01*
X745826D01*
X745755Y353080D01*
X745316Y354527D01*
X744603Y355861D01*
X743644Y357030D01*
X742475Y357989D01*
X741141Y358702D01*
X739694Y359141D01*
X738976Y359212D01*
D02*
G37*
G36*
X540354Y358306D02*
X539586Y358154D01*
X538935Y357718D01*
X538500Y357067D01*
X538347Y356299D01*
X538500Y355531D01*
X538935Y354880D01*
X539586Y354445D01*
X540354Y354292D01*
X541122Y354445D01*
X541774Y354880D01*
X542209Y355531D01*
X542361Y356299D01*
X542209Y357067D01*
X541774Y357718D01*
X541122Y358154D01*
X540354Y358306D01*
D02*
G37*
G36*
X718504Y367359D02*
X717037Y367215D01*
X715627Y366787D01*
X714328Y366092D01*
X713189Y365158D01*
X712254Y364019D01*
X711560Y362719D01*
X711132Y361309D01*
X710987Y359842D01*
X711132Y358376D01*
X711560Y356966D01*
X712254Y355667D01*
X713189Y354528D01*
X714328Y353593D01*
X715627Y352898D01*
X717037Y352470D01*
X718504Y352326D01*
X719970Y352470D01*
X721380Y352898D01*
X722680Y353593D01*
X723819Y354528D01*
X724754Y355667D01*
X725448Y356966D01*
X725876Y358376D01*
X726020Y359842D01*
X725876Y361309D01*
X725448Y362719D01*
X724754Y364019D01*
X723819Y365158D01*
X722680Y366092D01*
X721380Y366787D01*
X719970Y367215D01*
X718504Y367359D01*
D02*
G37*
G36*
X610236Y366847D02*
X608770Y366703D01*
X607360Y366275D01*
X606060Y365581D01*
X604921Y364646D01*
X603987Y363507D01*
X603292Y362207D01*
X602864Y360797D01*
X602720Y359331D01*
X602864Y357864D01*
X603292Y356454D01*
X603987Y355155D01*
X604921Y354016D01*
X606060Y353081D01*
X607360Y352386D01*
X608770Y351959D01*
X610236Y351814D01*
X611703Y351959D01*
X613113Y352386D01*
X614412Y353081D01*
X615551Y354016D01*
X616486Y355155D01*
X617181Y356454D01*
X617608Y357864D01*
X617753Y359331D01*
X617608Y360797D01*
X617181Y362207D01*
X616486Y363507D01*
X615551Y364646D01*
X614412Y365581D01*
X613113Y366275D01*
X611703Y366703D01*
X610236Y366847D01*
D02*
G37*
G36*
X629134Y358700D02*
X628416Y358629D01*
X626969Y358190D01*
X625635Y357477D01*
X624466Y356518D01*
X623507Y355349D01*
X622794Y354015D01*
X622355Y352568D01*
X622285Y351850D01*
X629134D01*
Y358700D01*
D02*
G37*
G36*
X630709D02*
Y351850D01*
X637558D01*
X637487Y352568D01*
X637048Y354015D01*
X636336Y355349D01*
X635376Y356518D01*
X634207Y357477D01*
X632873Y358190D01*
X631426Y358629D01*
X630709Y358700D01*
D02*
G37*
G36*
X395669Y360275D02*
X394901Y360122D01*
X394250Y359687D01*
X393815Y359036D01*
X393662Y358268D01*
X393815Y357500D01*
X394250Y356849D01*
X394901Y356413D01*
X395669Y356261D01*
X396437Y356413D01*
X397089Y356849D01*
X397524Y357500D01*
X397676Y358268D01*
X397524Y359036D01*
X397089Y359687D01*
X396437Y360122D01*
X395669Y360275D01*
D02*
G37*
G36*
X180118Y378976D02*
X179350Y378823D01*
X178699Y378388D01*
X178264Y377737D01*
X178111Y376969D01*
X178264Y376200D01*
X178699Y375549D01*
X179350Y375114D01*
X180118Y374961D01*
X180886Y375114D01*
X181537Y375549D01*
X181972Y376200D01*
X182125Y376969D01*
X181972Y377737D01*
X181537Y378388D01*
X180886Y378823D01*
X180118Y378976D01*
D02*
G37*
G36*
X553150D02*
X552382Y378823D01*
X551730Y378388D01*
X551295Y377737D01*
X551143Y376969D01*
X551295Y376200D01*
X551730Y375549D01*
X552382Y375114D01*
X553150Y374961D01*
X553918Y375114D01*
X554569Y375549D01*
X555004Y376200D01*
X555157Y376969D01*
X555004Y377737D01*
X554569Y378388D01*
X553918Y378823D01*
X553150Y378976D01*
D02*
G37*
G36*
X486732Y380472D02*
X485964Y380319D01*
X485313Y379884D01*
X484878Y379233D01*
X484725Y378465D01*
X484878Y377696D01*
X485313Y377045D01*
X485964Y376610D01*
X486732Y376458D01*
X487500Y376610D01*
X488152Y377045D01*
X488587Y377696D01*
X488739Y378465D01*
X488587Y379233D01*
X488152Y379884D01*
X487500Y380319D01*
X486732Y380472D01*
D02*
G37*
G36*
X553150Y372086D02*
X552382Y371933D01*
X551730Y371498D01*
X551295Y370847D01*
X551143Y370079D01*
X551295Y369311D01*
X551730Y368659D01*
X552382Y368224D01*
X553150Y368072D01*
X553918Y368224D01*
X554569Y368659D01*
X555004Y369311D01*
X555157Y370079D01*
X555004Y370847D01*
X554569Y371498D01*
X553918Y371933D01*
X553150Y372086D01*
D02*
G37*
G36*
X487008Y360472D02*
X486240Y360319D01*
X485589Y359884D01*
X485154Y359233D01*
X485001Y358465D01*
X485154Y357697D01*
X485589Y357045D01*
X486240Y356610D01*
X487008Y356457D01*
X487776Y356610D01*
X488427Y357045D01*
X488862Y357697D01*
X489015Y358465D01*
X488862Y359233D01*
X488427Y359884D01*
X487776Y360319D01*
X487008Y360472D01*
D02*
G37*
G36*
X547244Y365196D02*
X546476Y365043D01*
X545825Y364608D01*
X545390Y363957D01*
X545237Y363189D01*
X545390Y362421D01*
X545825Y361770D01*
X546476Y361335D01*
X547244Y361182D01*
X548012Y361335D01*
X548663Y361770D01*
X549098Y362421D01*
X549251Y363189D01*
X549098Y363957D01*
X548663Y364608D01*
X548012Y365043D01*
X547244Y365196D01*
D02*
G37*
G36*
X486850Y370472D02*
X486082Y370319D01*
X485431Y369884D01*
X484996Y369233D01*
X484843Y368465D01*
X484996Y367696D01*
X485431Y367045D01*
X486082Y366610D01*
X486850Y366458D01*
X487618Y366610D01*
X488270Y367045D01*
X488705Y367696D01*
X488858Y368465D01*
X488705Y369233D01*
X488270Y369884D01*
X487618Y370319D01*
X486850Y370472D01*
D02*
G37*
G36*
X740158Y340784D02*
X739078Y340642D01*
X738073Y340225D01*
X737209Y339563D01*
X736547Y338699D01*
X736130Y337693D01*
X735988Y336614D01*
X736130Y335535D01*
X736547Y334529D01*
X737209Y333666D01*
X738073Y333003D01*
X739078Y332587D01*
X740158Y332445D01*
X741237Y332587D01*
X742242Y333003D01*
X743106Y333666D01*
X743768Y334529D01*
X744185Y335535D01*
X744327Y336614D01*
X744185Y337693D01*
X743768Y338699D01*
X743106Y339563D01*
X742242Y340225D01*
X741237Y340642D01*
X740158Y340784D01*
D02*
G37*
G36*
X421260Y344527D02*
X420492Y344374D01*
X419841Y343939D01*
X419406Y343288D01*
X419253Y342520D01*
X419406Y341752D01*
X419841Y341101D01*
X420492Y340665D01*
X421260Y340513D01*
X422028Y340665D01*
X422679Y341101D01*
X423114Y341752D01*
X423267Y342520D01*
X423114Y343288D01*
X422679Y343939D01*
X422028Y344374D01*
X421260Y344527D01*
D02*
G37*
G36*
X431102D02*
X430334Y344374D01*
X429683Y343939D01*
X429248Y343288D01*
X429095Y342520D01*
X429248Y341752D01*
X429683Y341101D01*
X430334Y340665D01*
X431102Y340513D01*
X431870Y340665D01*
X432522Y341101D01*
X432957Y341752D01*
X433109Y342520D01*
X432957Y343288D01*
X432522Y343939D01*
X431870Y344374D01*
X431102Y344527D01*
D02*
G37*
G36*
X696850Y340784D02*
X695771Y340642D01*
X694766Y340225D01*
X693902Y339563D01*
X693239Y338699D01*
X692823Y337693D01*
X692681Y336614D01*
X692823Y335535D01*
X693239Y334529D01*
X693902Y333666D01*
X694766Y333003D01*
X695771Y332587D01*
X696850Y332445D01*
X697930Y332587D01*
X698935Y333003D01*
X699799Y333666D01*
X700461Y334529D01*
X700878Y335535D01*
X701020Y336614D01*
X700878Y337693D01*
X700461Y338699D01*
X699799Y339563D01*
X698935Y340225D01*
X697930Y340642D01*
X696850Y340784D01*
D02*
G37*
G36*
X704035Y327499D02*
X703267Y327346D01*
X702616Y326911D01*
X702181Y326260D01*
X702028Y325492D01*
X702181Y324724D01*
X702616Y324073D01*
X703267Y323638D01*
X704035Y323485D01*
X704804Y323638D01*
X705455Y324073D01*
X705890Y324724D01*
X706042Y325492D01*
X705890Y326260D01*
X705455Y326911D01*
X704804Y327346D01*
X704035Y327499D01*
D02*
G37*
G36*
X588583Y340272D02*
X587503Y340130D01*
X586498Y339713D01*
X585634Y339051D01*
X584972Y338187D01*
X584555Y337181D01*
X584413Y336102D01*
X584555Y335023D01*
X584972Y334018D01*
X585634Y333154D01*
X586498Y332491D01*
X587503Y332075D01*
X588583Y331933D01*
X589662Y332075D01*
X590667Y332491D01*
X591531Y333154D01*
X592194Y334018D01*
X592610Y335023D01*
X592752Y336102D01*
X592610Y337181D01*
X592194Y338187D01*
X591531Y339051D01*
X590667Y339713D01*
X589662Y340130D01*
X588583Y340272D01*
D02*
G37*
G36*
X631890D02*
X630811Y340130D01*
X629805Y339713D01*
X628941Y339051D01*
X628279Y338187D01*
X627862Y337181D01*
X627720Y336102D01*
X627862Y335023D01*
X628279Y334018D01*
X628941Y333154D01*
X629805Y332491D01*
X630811Y332075D01*
X631890Y331933D01*
X632969Y332075D01*
X633975Y332491D01*
X634838Y333154D01*
X635501Y334018D01*
X635917Y335023D01*
X636059Y336102D01*
X635917Y337181D01*
X635501Y338187D01*
X634838Y339051D01*
X633975Y339713D01*
X632969Y340130D01*
X631890Y340272D01*
D02*
G37*
G36*
X440945Y344527D02*
X440177Y344374D01*
X439526Y343939D01*
X439091Y343288D01*
X438938Y342520D01*
X439091Y341752D01*
X439526Y341101D01*
X440177Y340665D01*
X440945Y340513D01*
X441713Y340665D01*
X442364Y341101D01*
X442799Y341752D01*
X442952Y342520D01*
X442799Y343288D01*
X442364Y343939D01*
X441713Y344374D01*
X440945Y344527D01*
D02*
G37*
G36*
X745826Y350787D02*
X738976D01*
Y343938D01*
X739694Y344009D01*
X741141Y344448D01*
X742475Y345161D01*
X743644Y346120D01*
X744603Y347289D01*
X745316Y348623D01*
X745755Y350070D01*
X745826Y350787D01*
D02*
G37*
G36*
X533465Y351416D02*
X532696Y351264D01*
X532045Y350829D01*
X531610Y350178D01*
X531458Y349410D01*
X531610Y348641D01*
X532045Y347990D01*
X532696Y347555D01*
X533465Y347402D01*
X534233Y347555D01*
X534884Y347990D01*
X535319Y348641D01*
X535472Y349410D01*
X535319Y350178D01*
X534884Y350829D01*
X534233Y351264D01*
X533465Y351416D01*
D02*
G37*
G36*
X473425Y353385D02*
X472657Y353232D01*
X472006Y352797D01*
X471571Y352146D01*
X471418Y351378D01*
X471571Y350610D01*
X472006Y349959D01*
X472657Y349524D01*
X473425Y349371D01*
X474193Y349524D01*
X474844Y349959D01*
X475280Y350610D01*
X475432Y351378D01*
X475280Y352146D01*
X474844Y352797D01*
X474193Y353232D01*
X473425Y353385D01*
D02*
G37*
G36*
X737402Y350787D02*
X730552D01*
X730623Y350070D01*
X731062Y348623D01*
X731775Y347289D01*
X732734Y346120D01*
X733903Y345161D01*
X735237Y344448D01*
X736684Y344009D01*
X737402Y343938D01*
Y350787D01*
D02*
G37*
G36*
X450787Y344527D02*
X450019Y344374D01*
X449368Y343939D01*
X448933Y343288D01*
X448780Y342520D01*
X448933Y341752D01*
X449368Y341101D01*
X450019Y340665D01*
X450787Y340513D01*
X451555Y340665D01*
X452207Y341101D01*
X452642Y341752D01*
X452795Y342520D01*
X452642Y343288D01*
X452207Y343939D01*
X451555Y344374D01*
X450787Y344527D01*
D02*
G37*
G36*
X629134Y350276D02*
X622285D01*
X622355Y349558D01*
X622794Y348111D01*
X623507Y346777D01*
X624466Y345608D01*
X625635Y344649D01*
X626969Y343936D01*
X628416Y343497D01*
X629134Y343426D01*
Y350276D01*
D02*
G37*
G36*
X637558D02*
X630709D01*
Y343426D01*
X631426Y343497D01*
X632873Y343936D01*
X634207Y344649D01*
X635376Y345608D01*
X636336Y346777D01*
X637048Y348111D01*
X637487Y349558D01*
X637558Y350276D01*
D02*
G37*
%LPD*%
D14*
X104134Y422638D02*
D03*
X178543D02*
D03*
X252953D02*
D03*
X110236Y312205D02*
D03*
X219488D02*
D03*
X323031Y261024D02*
D03*
X431102Y239370D02*
D03*
X539370Y213032D02*
D03*
X523622Y314173D02*
D03*
X641732Y249382D02*
D03*
X744095D02*
D03*
X629921Y351063D02*
D03*
X738189Y351575D02*
D03*
X846457Y314173D02*
D03*
Y211811D02*
D03*
X354528Y63386D02*
D03*
X535433Y63425D02*
D03*
D17*
X787402Y314961D02*
D03*
X551181D02*
D03*
X157480D02*
D03*
X78740Y236221D02*
D03*
X157480D02*
D03*
X236221D02*
D03*
X472441D02*
D03*
X551181D02*
D03*
X787402D02*
D03*
Y157480D02*
D03*
X708661D02*
D03*
X629921D02*
D03*
X551181D02*
D03*
X472441D02*
D03*
X393701D02*
D03*
X314961D02*
D03*
X236221D02*
D03*
X157480D02*
D03*
X78740D02*
D03*
Y78740D02*
D03*
X157480D02*
D03*
X236221D02*
D03*
X393701D02*
D03*
X472441D02*
D03*
X551181D02*
D03*
X629921D02*
D03*
X708661D02*
D03*
X787402D02*
D03*
X704035Y329626D02*
D03*
X734055Y315158D02*
D03*
X812303Y292224D02*
D03*
X842323Y277756D02*
D03*
X812303Y189862D02*
D03*
X842323Y175394D02*
D03*
X709941Y227433D02*
D03*
X739961Y212965D02*
D03*
X607579Y227433D02*
D03*
X637598Y212965D02*
D03*
X501279Y41476D02*
D03*
X531299Y27008D02*
D03*
X320374Y41437D02*
D03*
X350394Y26969D02*
D03*
X625787Y314646D02*
D03*
X595768Y329114D02*
D03*
X519488Y277756D02*
D03*
X489468Y292224D02*
D03*
X535236Y176614D02*
D03*
X505217Y191083D02*
D03*
X426968Y202953D02*
D03*
X396949Y217421D02*
D03*
X318898Y224606D02*
D03*
X288878Y239075D02*
D03*
X215354Y275787D02*
D03*
X185335Y290256D02*
D03*
X106102Y275787D02*
D03*
X76083Y290256D02*
D03*
X248819Y386221D02*
D03*
X218799Y400689D02*
D03*
X174409Y386221D02*
D03*
X144390Y400689D02*
D03*
X69980D02*
D03*
X100000Y386221D02*
D03*
X289370Y426181D02*
D03*
X326772Y437992D02*
D03*
X395669Y428150D02*
D03*
M02*
