G04*
G04 #@! TF.GenerationSoftware,Altium Limited,CircuitStudio,1.5.2 (30)*
G04*
G04 Layer_Color=13948096*
%FSLAX25Y25*%
%MOIN*%
G70*
G01*
G75*
%ADD23C,0.00591*%
%ADD24C,0.01000*%
%ADD27C,0.00394*%
D23*
X291339Y55315D02*
X293701Y52953D01*
X316929Y46654D02*
Y50591D01*
Y63583D02*
Y66339D01*
X277165Y55315D02*
Y59646D01*
Y71850D02*
Y74606D01*
X296063D02*
X304331Y66339D01*
X293701Y52953D02*
X300000Y46654D01*
X277165Y55315D02*
X291339D01*
X277165Y74606D02*
X296063D01*
X304331Y66339D02*
X316929D01*
X300000Y46654D02*
X316929D01*
X293307Y14764D02*
X295276Y16732D01*
X279528Y14764D02*
X293307D01*
X292126Y32087D02*
X295276D01*
X279528D02*
X282677D01*
X295276Y30118D02*
Y32087D01*
X279528Y30118D02*
Y32087D01*
Y14764D02*
Y16732D01*
X137402Y387402D02*
X139764Y385039D01*
X162992Y378740D02*
Y382677D01*
Y395669D02*
Y398425D01*
X123228Y387402D02*
Y391732D01*
Y403937D02*
Y406693D01*
X142126D02*
X150394Y398425D01*
X139764Y385039D02*
X146063Y378740D01*
X123228Y387402D02*
X137402D01*
X123228Y406693D02*
X142126D01*
X150394Y398425D02*
X162992D01*
X146063Y378740D02*
X162992D01*
X139370Y346850D02*
X141339Y348819D01*
X125591Y346850D02*
X139370D01*
X138189Y364173D02*
X141339D01*
X125591D02*
X128740D01*
X141339Y362205D02*
Y364173D01*
X125591Y362205D02*
Y364173D01*
Y346850D02*
Y348819D01*
X257874Y220866D02*
Y222835D01*
Y236221D02*
Y238189D01*
X273622Y236221D02*
Y238189D01*
X257874D02*
X261024D01*
X270472D02*
X273622D01*
X257874Y220866D02*
X271654D01*
X273622Y222835D01*
X278346Y252756D02*
X295276D01*
X282677Y272441D02*
X295276D01*
X255512Y280709D02*
X274409D01*
X255512Y261417D02*
X269685D01*
X272047Y259055D02*
X278346Y252756D01*
X274409Y280709D02*
X282677Y272441D01*
X255512Y277953D02*
Y280709D01*
Y261417D02*
Y265748D01*
X295276Y269685D02*
Y272441D01*
Y252756D02*
Y256693D01*
X269685Y261417D02*
X272047Y259055D01*
X482283Y55315D02*
X484646Y52953D01*
X507874Y46654D02*
Y50591D01*
Y63583D02*
Y66339D01*
X468110Y55315D02*
Y59646D01*
Y71850D02*
Y74606D01*
X487008D02*
X495276Y66339D01*
X484646Y52953D02*
X490945Y46654D01*
X468110Y55315D02*
X482283D01*
X468110Y74606D02*
X487008D01*
X495276Y66339D02*
X507874D01*
X490945Y46654D02*
X507874D01*
X484252Y14764D02*
X486221Y16732D01*
X470472Y14764D02*
X484252D01*
X483071Y32087D02*
X486221D01*
X470472D02*
X473622D01*
X486221Y30118D02*
Y32087D01*
X470472Y30118D02*
Y32087D01*
Y14764D02*
Y16732D01*
X777559Y124409D02*
Y126378D01*
Y139764D02*
Y141732D01*
X793307Y139764D02*
Y141732D01*
X777559D02*
X780709D01*
X790158D02*
X793307D01*
X777559Y124409D02*
X791339D01*
X793307Y126378D01*
X798032Y156299D02*
X814961D01*
X802362Y175984D02*
X814961D01*
X775197Y184252D02*
X794095D01*
X775197Y164961D02*
X789370D01*
X791732Y162598D02*
X798032Y156299D01*
X794095Y184252D02*
X802362Y175984D01*
X775197Y181496D02*
Y184252D01*
Y164961D02*
Y169291D01*
X814961Y173228D02*
Y175984D01*
Y156299D02*
Y160236D01*
X789370Y164961D02*
X791732Y162598D01*
X789370Y267323D02*
X791732Y264961D01*
X814961Y258661D02*
Y262598D01*
Y275590D02*
Y278346D01*
X775197Y267323D02*
Y271654D01*
Y283858D02*
Y286614D01*
X794095D02*
X802362Y278346D01*
X791732Y264961D02*
X798032Y258661D01*
X775197Y267323D02*
X789370D01*
X775197Y286614D02*
X794095D01*
X802362Y278346D02*
X814961D01*
X798032Y258661D02*
X814961D01*
X791339Y226772D02*
X793307Y228740D01*
X777559Y226772D02*
X791339D01*
X790158Y244094D02*
X793307D01*
X777559D02*
X780709D01*
X793307Y242126D02*
Y244094D01*
X777559Y242126D02*
Y244094D01*
Y226772D02*
Y228740D01*
X108268Y240551D02*
Y242520D01*
Y255906D02*
Y257874D01*
X124016Y255906D02*
Y257874D01*
X108268D02*
X111417D01*
X120866D02*
X124016D01*
X108268Y240551D02*
X122047D01*
X124016Y242520D01*
X128740Y272441D02*
X145669D01*
X133071Y292126D02*
X145669D01*
X105905Y300394D02*
X124803D01*
X105905Y281102D02*
X120079D01*
X122441Y278740D02*
X128740Y272441D01*
X124803Y300394D02*
X133071Y292126D01*
X105905Y297638D02*
Y300394D01*
Y281102D02*
Y285433D01*
X145669Y289370D02*
Y292126D01*
Y272441D02*
Y276378D01*
X120079Y281102D02*
X122441Y278740D01*
X391732Y220079D02*
X394094Y217717D01*
X417323Y211417D02*
Y215354D01*
Y228346D02*
Y231102D01*
X377559Y220079D02*
Y224410D01*
Y236614D02*
Y239370D01*
X396457D02*
X404724Y231102D01*
X394094Y217717D02*
X400394Y211417D01*
X377559Y220079D02*
X391732D01*
X377559Y239370D02*
X396457D01*
X404724Y231102D02*
X417323D01*
X400394Y211417D02*
X417323D01*
X393701Y179528D02*
X395669Y181496D01*
X379921Y179528D02*
X393701D01*
X392520Y196850D02*
X395669D01*
X379921D02*
X383071D01*
X395669Y194882D02*
Y196850D01*
X379921Y194882D02*
Y196850D01*
Y179528D02*
Y181496D01*
X679134Y177717D02*
Y179685D01*
Y193071D02*
Y195039D01*
X694882Y193071D02*
Y195039D01*
X679134D02*
X682283D01*
X691732D02*
X694882D01*
X679134Y177717D02*
X692913D01*
X694882Y179685D01*
X699606Y209606D02*
X716535D01*
X703937Y229291D02*
X716535D01*
X676772Y237559D02*
X695669D01*
X676772Y218268D02*
X690945D01*
X693307Y215905D02*
X699606Y209606D01*
X695669Y237559D02*
X703937Y229291D01*
X676772Y234803D02*
Y237559D01*
Y218268D02*
Y222598D01*
X716535Y226535D02*
Y229291D01*
Y209606D02*
Y213543D01*
X690945Y218268D02*
X693307Y215905D01*
X685039Y320472D02*
X687402Y318110D01*
X710630Y311811D02*
Y315748D01*
Y328740D02*
Y331496D01*
X670866Y320472D02*
Y324803D01*
Y337008D02*
Y339764D01*
X689764D02*
X698032Y331496D01*
X687402Y318110D02*
X693701Y311811D01*
X670866Y320472D02*
X685039D01*
X670866Y339764D02*
X689764D01*
X698032Y331496D02*
X710630D01*
X693701Y311811D02*
X710630D01*
X687008Y279921D02*
X688976Y281890D01*
X673228Y279921D02*
X687008D01*
X685827Y297244D02*
X688976D01*
X673228D02*
X676378D01*
X688976Y295276D02*
Y297244D01*
X673228Y295276D02*
Y297244D01*
Y279921D02*
Y281890D01*
X200000Y346850D02*
Y348819D01*
Y362205D02*
Y364173D01*
X215748Y362205D02*
Y364173D01*
X200000D02*
X203150D01*
X212598D02*
X215748D01*
X200000Y346850D02*
X213779D01*
X215748Y348819D01*
X220472Y378740D02*
X237402D01*
X224803Y398425D02*
X237402D01*
X197638Y406693D02*
X216535D01*
X197638Y387402D02*
X211811D01*
X214173Y385039D02*
X220472Y378740D01*
X216535Y406693D02*
X224803Y398425D01*
X197638Y403937D02*
Y406693D01*
Y387402D02*
Y391732D01*
X237402Y395669D02*
Y398425D01*
Y378740D02*
Y382677D01*
X211811Y387402D02*
X214173Y385039D01*
X194882Y281102D02*
X197244Y278740D01*
X220472Y272441D02*
Y276378D01*
Y289370D02*
Y292126D01*
X180709Y281102D02*
Y285433D01*
Y297638D02*
Y300394D01*
X199606D02*
X207874Y292126D01*
X197244Y278740D02*
X203543Y272441D01*
X180709Y281102D02*
X194882D01*
X180709Y300394D02*
X199606D01*
X207874Y292126D02*
X220472D01*
X203543Y272441D02*
X220472D01*
X196850Y240551D02*
X198819Y242520D01*
X183071Y240551D02*
X196850D01*
X195669Y257874D02*
X198819D01*
X183071D02*
X186221D01*
X198819Y255906D02*
Y257874D01*
X183071Y255906D02*
Y257874D01*
Y240551D02*
Y242520D01*
X564961Y279410D02*
Y281378D01*
Y294764D02*
Y296732D01*
X580709Y294764D02*
Y296732D01*
X564961D02*
X568110D01*
X577559D02*
X580709D01*
X564961Y279410D02*
X578740D01*
X580709Y281378D01*
X585433Y311299D02*
X602362D01*
X589764Y330984D02*
X602362D01*
X562598Y339252D02*
X581496D01*
X562598Y319961D02*
X576772D01*
X579134Y317598D02*
X585433Y311299D01*
X581496Y339252D02*
X589764Y330984D01*
X562598Y336496D02*
Y339252D01*
Y319961D02*
Y324291D01*
X602362Y328228D02*
Y330984D01*
Y311299D02*
Y315236D01*
X576772Y319961D02*
X579134Y317598D01*
X474409Y283071D02*
X476772Y280709D01*
X500000Y274410D02*
Y278346D01*
Y291339D02*
Y294094D01*
X460236Y283071D02*
Y287402D01*
Y299606D02*
Y302362D01*
X479134D02*
X487402Y294094D01*
X476772Y280709D02*
X483071Y274410D01*
X460236Y283071D02*
X474409D01*
X460236Y302362D02*
X479134D01*
X487402Y294094D02*
X500000D01*
X483071Y274410D02*
X500000D01*
X476378Y242520D02*
X478346Y244488D01*
X462598Y242520D02*
X476378D01*
X475197Y259842D02*
X478346D01*
X462598D02*
X465748D01*
X478346Y257874D02*
Y259842D01*
X462598Y257874D02*
Y259842D01*
Y242520D02*
Y244488D01*
X576772Y177717D02*
Y179685D01*
Y193071D02*
Y195039D01*
X592520Y193071D02*
Y195039D01*
X576772D02*
X579921D01*
X589370D02*
X592520D01*
X576772Y177717D02*
X590551D01*
X592520Y179685D01*
X597244Y209606D02*
X614173D01*
X601575Y229291D02*
X614173D01*
X574409Y237559D02*
X593307D01*
X574409Y218268D02*
X588583D01*
X590945Y215905D02*
X597244Y209606D01*
X593307Y237559D02*
X601575Y229291D01*
X574409Y234803D02*
Y237559D01*
Y218268D02*
Y222598D01*
X614173Y226535D02*
Y229291D01*
Y209606D02*
Y213543D01*
X588583Y218268D02*
X590945Y215905D01*
X490158Y181929D02*
X492520Y179567D01*
X515748Y173268D02*
Y177205D01*
Y190197D02*
Y192953D01*
X475984Y181929D02*
Y186260D01*
Y198465D02*
Y201220D01*
X494882D02*
X503150Y192953D01*
X492520Y179567D02*
X498819Y173268D01*
X475984Y181929D02*
X490158D01*
X475984Y201220D02*
X494882D01*
X503150Y192953D02*
X515748D01*
X498819Y173268D02*
X515748D01*
X492126Y141378D02*
X494095Y143347D01*
X478346Y141378D02*
X492126D01*
X490945Y158701D02*
X494095D01*
X478346D02*
X481496D01*
X494095Y156732D02*
Y158701D01*
X478346Y156732D02*
Y158701D01*
Y141378D02*
Y143347D01*
X62992Y387402D02*
X65354Y385039D01*
X88583Y378740D02*
Y382677D01*
Y395669D02*
Y398425D01*
X48819Y387402D02*
Y391732D01*
Y403937D02*
Y406693D01*
X67716D02*
X75984Y398425D01*
X65354Y385039D02*
X71653Y378740D01*
X48819Y387402D02*
X62992D01*
X48819Y406693D02*
X67716D01*
X75984Y398425D02*
X88583D01*
X71653Y378740D02*
X88583D01*
X64961Y346850D02*
X66929Y348819D01*
X51181Y346850D02*
X64961D01*
X63779Y364173D02*
X66929D01*
X51181D02*
X54331D01*
X66929Y362205D02*
Y364173D01*
X51181Y362205D02*
Y364173D01*
Y346850D02*
Y348819D01*
X41339Y192520D02*
X43701Y190157D01*
X66929Y183858D02*
Y187795D01*
Y200787D02*
Y203543D01*
X27165Y192520D02*
Y196850D01*
Y209055D02*
Y211811D01*
X46063D02*
X54331Y203543D01*
X43701Y190157D02*
X50000Y183858D01*
X27165Y192520D02*
X41339D01*
X27165Y211811D02*
X46063D01*
X54331Y203543D02*
X66929D01*
X50000Y183858D02*
X66929D01*
X43307Y151969D02*
X45276Y153937D01*
X29528Y151969D02*
X43307D01*
X42126Y169291D02*
X45276D01*
X29528D02*
X32677D01*
X45276Y167323D02*
Y169291D01*
X29528Y167323D02*
Y169291D01*
Y151969D02*
Y153937D01*
D24*
X256298Y397243D02*
X257085Y396456D01*
Y394882D01*
X256298Y394094D01*
X253149D01*
X252362Y394882D01*
Y396456D01*
X253149Y397243D01*
X252362Y398817D02*
Y400392D01*
Y399605D01*
X257085D01*
X256298Y398817D01*
Y402753D02*
X257085Y403540D01*
Y405115D01*
X256298Y405902D01*
X253149D01*
X252362Y405115D01*
Y403540D01*
X253149Y402753D01*
X256298D01*
Y407476D02*
X257085Y408263D01*
Y409837D01*
X256298Y410625D01*
X255511D01*
X254724Y409837D01*
Y409050D01*
Y409837D01*
X253937Y410625D01*
X253149D01*
X252362Y409837D01*
Y408263D01*
X253149Y407476D01*
X287008Y370865D02*
X285434D01*
X286221D01*
Y366142D01*
X287008D01*
X285434D01*
X279924Y370077D02*
X280711Y370865D01*
X282285D01*
X283072Y370077D01*
Y366929D01*
X282285Y366142D01*
X280711D01*
X279924Y366929D01*
X278349Y366142D02*
X276775D01*
X277562D01*
Y370865D01*
X278349Y370077D01*
X274413D02*
X273626Y370865D01*
X272052D01*
X271265Y370077D01*
Y366929D01*
X272052Y366142D01*
X273626D01*
X274413Y366929D01*
Y370077D01*
X269691Y366142D02*
X268116D01*
X268903D01*
Y370865D01*
X269691Y370077D01*
X295276Y338976D02*
X299998D01*
Y341338D01*
X299211Y342125D01*
X297637D01*
X296850Y341338D01*
Y338976D01*
Y340551D02*
X295276Y342125D01*
Y343699D02*
Y345273D01*
Y344486D01*
X299998D01*
X299211Y343699D01*
X295276Y347635D02*
Y349209D01*
Y348422D01*
X299998D01*
X299211Y347635D01*
X299998Y354719D02*
X299211Y353145D01*
X297637Y351571D01*
X296063D01*
X295276Y352358D01*
Y353932D01*
X296063Y354719D01*
X296850D01*
X297637Y353932D01*
Y351571D01*
X294882Y368504D02*
X299605D01*
Y370865D01*
X298818Y371653D01*
X297243D01*
X296456Y370865D01*
Y368504D01*
Y370078D02*
X294882Y371653D01*
Y373227D02*
Y374801D01*
Y374014D01*
X299605D01*
X298818Y373227D01*
X294882Y377163D02*
Y378737D01*
Y377950D01*
X299605D01*
X298818Y377163D01*
X295669Y381098D02*
X294882Y381885D01*
Y383460D01*
X295669Y384247D01*
X298818D01*
X299605Y383460D01*
Y381885D01*
X298818Y381098D01*
X298030D01*
X297243Y381885D01*
Y384247D01*
X550197Y357085D02*
X547048D01*
X548623D01*
Y352362D01*
X545474D02*
Y357085D01*
X543113D01*
X542325Y356298D01*
Y354724D01*
X543113Y353937D01*
X545474D01*
X540751Y352362D02*
X539177D01*
X539964D01*
Y357085D01*
X540751Y356298D01*
X536815D02*
X536028Y357085D01*
X534454D01*
X533667Y356298D01*
Y353149D01*
X534454Y352362D01*
X536028D01*
X536815Y353149D01*
Y356298D01*
X532093D02*
X531305Y357085D01*
X529731D01*
X528944Y356298D01*
Y353149D01*
X529731Y352362D01*
X531305D01*
X532093Y353149D01*
Y356298D01*
X335039Y412203D02*
X331891D01*
X333465D01*
Y407480D01*
X330316D02*
Y412203D01*
X327955D01*
X327168Y411416D01*
Y409842D01*
X327955Y409055D01*
X330316D01*
X325594Y407480D02*
X324019D01*
X324806D01*
Y412203D01*
X325594Y411416D01*
X321658D02*
X320871Y412203D01*
X319296D01*
X318509Y411416D01*
Y408267D01*
X319296Y407480D01*
X320871D01*
X321658Y408267D01*
Y411416D01*
X316935Y407480D02*
X315361D01*
X316148D01*
Y412203D01*
X316935Y411416D01*
X550197Y350195D02*
X547048D01*
X548623D01*
Y345472D01*
X545474D02*
Y350195D01*
X543113D01*
X542325Y349408D01*
Y347834D01*
X543113Y347047D01*
X545474D01*
X540751Y345472D02*
X539177D01*
X539964D01*
Y350195D01*
X540751Y349408D01*
X536815D02*
X536028Y350195D01*
X534454D01*
X533667Y349408D01*
Y346260D01*
X534454Y345472D01*
X536028D01*
X536815Y346260D01*
Y349408D01*
X528944Y345472D02*
X532093D01*
X528944Y348621D01*
Y349408D01*
X529731Y350195D01*
X531305D01*
X532093Y349408D01*
X329134Y390943D02*
X325985D01*
X327560D01*
Y386221D01*
X324411D02*
Y390943D01*
X322049D01*
X321262Y390156D01*
Y388582D01*
X322049Y387795D01*
X324411D01*
X319688Y386221D02*
X318114D01*
X318901D01*
Y390943D01*
X319688Y390156D01*
X315752D02*
X314965Y390943D01*
X313391D01*
X312604Y390156D01*
Y387008D01*
X313391Y386221D01*
X314965D01*
X315752Y387008D01*
Y390156D01*
X311030D02*
X310242Y390943D01*
X308668D01*
X307881Y390156D01*
Y389369D01*
X308668Y388582D01*
X309455D01*
X308668D01*
X307881Y387795D01*
Y387008D01*
X308668Y386221D01*
X310242D01*
X311030Y387008D01*
X550197Y343306D02*
X547048D01*
X548623D01*
Y338583D01*
X545474D02*
Y343306D01*
X543113D01*
X542325Y342518D01*
Y340944D01*
X543113Y340157D01*
X545474D01*
X540751Y338583D02*
X539177D01*
X539964D01*
Y343306D01*
X540751Y342518D01*
X536815D02*
X536028Y343306D01*
X534454D01*
X533667Y342518D01*
Y339370D01*
X534454Y338583D01*
X536028D01*
X536815Y339370D01*
Y342518D01*
X529731Y338583D02*
Y343306D01*
X532093Y340944D01*
X528944D01*
X330315Y403935D02*
X327166D01*
X328741D01*
Y399213D01*
X325592D02*
Y403935D01*
X323231D01*
X322444Y403148D01*
Y401574D01*
X323231Y400787D01*
X325592D01*
X320869Y399213D02*
X319295D01*
X320082D01*
Y403935D01*
X320869Y403148D01*
X316933D02*
X316146Y403935D01*
X314572D01*
X313785Y403148D01*
Y400000D01*
X314572Y399213D01*
X316146D01*
X316933Y400000D01*
Y403148D01*
X309062Y403935D02*
X312211D01*
Y401574D01*
X310636Y402361D01*
X309849D01*
X309062Y401574D01*
Y400000D01*
X309849Y399213D01*
X311423D01*
X312211Y400000D01*
X550197Y336416D02*
X547048D01*
X548623D01*
Y331693D01*
X545474D02*
Y336416D01*
X543113D01*
X542325Y335629D01*
Y334054D01*
X543113Y333267D01*
X545474D01*
X540751Y331693D02*
X539177D01*
X539964D01*
Y336416D01*
X540751Y335629D01*
X536815D02*
X536028Y336416D01*
X534454D01*
X533667Y335629D01*
Y332480D01*
X534454Y331693D01*
X536028D01*
X536815Y332480D01*
Y335629D01*
X528944Y336416D02*
X530518Y335629D01*
X532093Y334054D01*
Y332480D01*
X531305Y331693D01*
X529731D01*
X528944Y332480D01*
Y333267D01*
X529731Y334054D01*
X532093D01*
X550197Y329526D02*
X547048D01*
X548623D01*
Y324803D01*
X545474D02*
Y329526D01*
X543113D01*
X542325Y328739D01*
Y327165D01*
X543113Y326377D01*
X545474D01*
X540751Y324803D02*
X539177D01*
X539964D01*
Y329526D01*
X540751Y328739D01*
X536815D02*
X536028Y329526D01*
X534454D01*
X533667Y328739D01*
Y325590D01*
X534454Y324803D01*
X536028D01*
X536815Y325590D01*
Y328739D01*
X532093Y329526D02*
X528944D01*
Y328739D01*
X532093Y325590D01*
Y324803D01*
X550197Y322636D02*
X547048D01*
X548623D01*
Y317913D01*
X545474D02*
Y322636D01*
X543113D01*
X542325Y321849D01*
Y320275D01*
X543113Y319488D01*
X545474D01*
X540751Y317913D02*
X539177D01*
X539964D01*
Y322636D01*
X540751Y321849D01*
X536815D02*
X536028Y322636D01*
X534454D01*
X533667Y321849D01*
Y318701D01*
X534454Y317913D01*
X536028D01*
X536815Y318701D01*
Y321849D01*
X532093D02*
X531305Y322636D01*
X529731D01*
X528944Y321849D01*
Y321062D01*
X529731Y320275D01*
X528944Y319488D01*
Y318701D01*
X529731Y317913D01*
X531305D01*
X532093Y318701D01*
Y319488D01*
X531305Y320275D01*
X532093Y321062D01*
Y321849D01*
X531305Y320275D02*
X529731D01*
X550197Y412203D02*
X547048D01*
X548623D01*
Y407480D01*
X545474D02*
Y412203D01*
X543113D01*
X542325Y411416D01*
Y409842D01*
X543113Y409055D01*
X545474D01*
X540751Y407480D02*
X539177D01*
X539964D01*
Y412203D01*
X540751Y411416D01*
X536815D02*
X536028Y412203D01*
X534454D01*
X533667Y411416D01*
Y408267D01*
X534454Y407480D01*
X536028D01*
X536815Y408267D01*
Y411416D01*
X532093Y408267D02*
X531305Y407480D01*
X529731D01*
X528944Y408267D01*
Y411416D01*
X529731Y412203D01*
X531305D01*
X532093Y411416D01*
Y410629D01*
X531305Y409842D01*
X528944D01*
X322835Y354132D02*
X319686D01*
X321260D01*
Y349410D01*
X318112D02*
Y354132D01*
X315750D01*
X314963Y353345D01*
Y351771D01*
X315750Y350984D01*
X318112D01*
X313389Y349410D02*
X311815D01*
X312602D01*
Y354132D01*
X313389Y353345D01*
X309453Y349410D02*
X307879D01*
X308666D01*
Y354132D01*
X309453Y353345D01*
X305517Y349410D02*
X303943D01*
X304730D01*
Y354132D01*
X305517Y353345D01*
X550197Y405313D02*
X547048D01*
X548623D01*
Y400591D01*
X545474D02*
Y405313D01*
X543113D01*
X542325Y404526D01*
Y402952D01*
X543113Y402165D01*
X545474D01*
X540751Y400591D02*
X539177D01*
X539964D01*
Y405313D01*
X540751Y404526D01*
X536815Y400591D02*
X535241D01*
X536028D01*
Y405313D01*
X536815Y404526D01*
X529731Y400591D02*
X532880D01*
X529731Y403739D01*
Y404526D01*
X530518Y405313D01*
X532093D01*
X532880Y404526D01*
X550197Y398424D02*
X547048D01*
X548623D01*
Y393701D01*
X545474D02*
Y398424D01*
X543113D01*
X542325Y397637D01*
Y396062D01*
X543113Y395275D01*
X545474D01*
X540751Y393701D02*
X539177D01*
X539964D01*
Y398424D01*
X540751Y397637D01*
X536815Y393701D02*
X535241D01*
X536028D01*
Y398424D01*
X536815Y397637D01*
X532880D02*
X532093Y398424D01*
X530518D01*
X529731Y397637D01*
Y396849D01*
X530518Y396062D01*
X531305D01*
X530518D01*
X529731Y395275D01*
Y394488D01*
X530518Y393701D01*
X532093D01*
X532880Y394488D01*
X322835Y361022D02*
X319686D01*
X321260D01*
Y356299D01*
X318112D02*
Y361022D01*
X315750D01*
X314963Y360235D01*
Y358661D01*
X315750Y357874D01*
X318112D01*
X313389Y356299D02*
X311815D01*
X312602D01*
Y361022D01*
X313389Y360235D01*
X309453Y356299D02*
X307879D01*
X308666D01*
Y361022D01*
X309453Y360235D01*
X303156Y356299D02*
Y361022D01*
X305517Y358661D01*
X302369D01*
X322835Y367912D02*
X319686D01*
X321260D01*
Y363189D01*
X318112D02*
Y367912D01*
X315750D01*
X314963Y367125D01*
Y365550D01*
X315750Y364763D01*
X318112D01*
X313389Y363189D02*
X311815D01*
X312602D01*
Y367912D01*
X313389Y367125D01*
X309453Y363189D02*
X307879D01*
X308666D01*
Y367912D01*
X309453Y367125D01*
X302369Y367912D02*
X305517D01*
Y365550D01*
X303943Y366338D01*
X303156D01*
X302369Y365550D01*
Y363976D01*
X303156Y363189D01*
X304730D01*
X305517Y363976D01*
X550197Y391534D02*
X547048D01*
X548623D01*
Y386811D01*
X545474D02*
Y391534D01*
X543113D01*
X542325Y390747D01*
Y389173D01*
X543113Y388385D01*
X545474D01*
X540751Y386811D02*
X539177D01*
X539964D01*
Y391534D01*
X540751Y390747D01*
X536815Y386811D02*
X535241D01*
X536028D01*
Y391534D01*
X536815Y390747D01*
X529731Y391534D02*
X531305Y390747D01*
X532880Y389173D01*
Y387598D01*
X532093Y386811D01*
X530518D01*
X529731Y387598D01*
Y388385D01*
X530518Y389173D01*
X532880D01*
X550197Y384644D02*
X547048D01*
X548623D01*
Y379921D01*
X545474D02*
Y384644D01*
X543113D01*
X542325Y383857D01*
Y382283D01*
X543113Y381496D01*
X545474D01*
X540751Y379921D02*
X539177D01*
X539964D01*
Y384644D01*
X540751Y383857D01*
X536815Y379921D02*
X535241D01*
X536028D01*
Y384644D01*
X536815Y383857D01*
X532880Y384644D02*
X529731D01*
Y383857D01*
X532880Y380708D01*
Y379921D01*
X306298Y390551D02*
Y393700D01*
Y392126D01*
X301575D01*
Y395274D02*
X306298D01*
Y397636D01*
X305510Y398423D01*
X303936D01*
X303149Y397636D01*
Y395274D01*
X301575Y399997D02*
Y401571D01*
Y400784D01*
X306298D01*
X305510Y399997D01*
X301575Y403933D02*
Y405507D01*
Y404720D01*
X306298D01*
X305510Y403933D01*
Y407868D02*
X306298Y408656D01*
Y410230D01*
X305510Y411017D01*
X304723D01*
X303936Y410230D01*
X303149Y411017D01*
X302362D01*
X301575Y410230D01*
Y408656D01*
X302362Y407868D01*
X303149D01*
X303936Y408656D01*
X304723Y407868D01*
X305510D01*
X303936Y408656D02*
Y410230D01*
X550197Y377754D02*
X547048D01*
X548623D01*
Y373031D01*
X545474D02*
Y377754D01*
X543113D01*
X542325Y376967D01*
Y375393D01*
X543113Y374606D01*
X545474D01*
X540751Y373031D02*
X539177D01*
X539964D01*
Y377754D01*
X540751Y376967D01*
X536815Y373031D02*
X535241D01*
X536028D01*
Y377754D01*
X536815Y376967D01*
X532880Y373819D02*
X532093Y373031D01*
X530518D01*
X529731Y373819D01*
Y376967D01*
X530518Y377754D01*
X532093D01*
X532880Y376967D01*
Y376180D01*
X532093Y375393D01*
X529731D01*
X550197Y370865D02*
X547048D01*
X548623D01*
Y366142D01*
X545474D02*
Y370865D01*
X543113D01*
X542325Y370077D01*
Y368503D01*
X543113Y367716D01*
X545474D01*
X540751Y366142D02*
X539177D01*
X539964D01*
Y370865D01*
X540751Y370077D01*
X533667Y366142D02*
X536815D01*
X533667Y369290D01*
Y370077D01*
X534454Y370865D01*
X536028D01*
X536815Y370077D01*
X528944Y366142D02*
X532093D01*
X528944Y369290D01*
Y370077D01*
X529731Y370865D01*
X531305D01*
X532093Y370077D01*
X325197Y381888D02*
X322048D01*
X323623D01*
Y377165D01*
X320474D02*
Y381888D01*
X318112D01*
X317325Y381101D01*
Y379527D01*
X318112Y378740D01*
X320474D01*
X315751Y377165D02*
X314177D01*
X314964D01*
Y381888D01*
X315751Y381101D01*
X308667Y377165D02*
X311815D01*
X308667Y380314D01*
Y381101D01*
X309454Y381888D01*
X311028D01*
X311815Y381101D01*
X307092D02*
X306305Y381888D01*
X304731D01*
X303944Y381101D01*
Y380314D01*
X304731Y379527D01*
X305518D01*
X304731D01*
X303944Y378740D01*
Y377953D01*
X304731Y377165D01*
X306305D01*
X307092Y377953D01*
X550197Y363975D02*
X547048D01*
X548623D01*
Y359252D01*
X545474D02*
Y363975D01*
X543113D01*
X542325Y363188D01*
Y361613D01*
X543113Y360826D01*
X545474D01*
X540751Y359252D02*
X539177D01*
X539964D01*
Y363975D01*
X540751Y363188D01*
X533667Y359252D02*
X536815D01*
X533667Y362401D01*
Y363188D01*
X534454Y363975D01*
X536028D01*
X536815Y363188D01*
X529731Y359252D02*
Y363975D01*
X532093Y361613D01*
X528944D01*
X608661Y296455D02*
X605513D01*
X607087D01*
Y291732D01*
X603938D02*
Y296455D01*
X601577D01*
X600790Y295668D01*
Y294094D01*
X601577Y293307D01*
X603938D01*
X599216Y291732D02*
X597641D01*
X598428D01*
Y296455D01*
X599216Y295668D01*
X595280D02*
X594493Y296455D01*
X592918D01*
X592131Y295668D01*
Y294881D01*
X592918Y294094D01*
X593706D01*
X592918D01*
X592131Y293307D01*
Y292519D01*
X592918Y291732D01*
X594493D01*
X595280Y292519D01*
X590557Y295668D02*
X589770Y296455D01*
X588196D01*
X587408Y295668D01*
Y292519D01*
X588196Y291732D01*
X589770D01*
X590557Y292519D01*
Y295668D01*
X713386Y299998D02*
X710237D01*
X711811D01*
Y295276D01*
X708663D02*
Y299998D01*
X706301D01*
X705514Y299211D01*
Y297637D01*
X706301Y296850D01*
X708663D01*
X703940Y295276D02*
X702366D01*
X703153D01*
Y299998D01*
X703940Y299211D01*
X700004D02*
X699217Y299998D01*
X697643D01*
X696856Y299211D01*
Y298424D01*
X697643Y297637D01*
X698430D01*
X697643D01*
X696856Y296850D01*
Y296063D01*
X697643Y295276D01*
X699217D01*
X700004Y296063D01*
X695282Y295276D02*
X693707D01*
X694494D01*
Y299998D01*
X695282Y299211D01*
X827953Y248817D02*
X824804D01*
X826379D01*
Y244094D01*
X823230D02*
Y248817D01*
X820868D01*
X820081Y248030D01*
Y246456D01*
X820868Y245669D01*
X823230D01*
X818507Y244094D02*
X816933D01*
X817720D01*
Y248817D01*
X818507Y248030D01*
X814571D02*
X813784Y248817D01*
X812210D01*
X811423Y248030D01*
Y247243D01*
X812210Y246456D01*
X812997D01*
X812210D01*
X811423Y245669D01*
Y244882D01*
X812210Y244094D01*
X813784D01*
X814571Y244882D01*
X806700Y244094D02*
X809848D01*
X806700Y247243D01*
Y248030D01*
X807487Y248817D01*
X809061D01*
X809848Y248030D01*
X625984Y197636D02*
X622836D01*
X624410D01*
Y192913D01*
X621261D02*
Y197636D01*
X618900D01*
X618113Y196849D01*
Y195275D01*
X618900Y194488D01*
X621261D01*
X616538Y192913D02*
X614964D01*
X615751D01*
Y197636D01*
X616538Y196849D01*
X612603D02*
X611816Y197636D01*
X610241D01*
X609454Y196849D01*
Y196062D01*
X610241Y195275D01*
X611028D01*
X610241D01*
X609454Y194488D01*
Y193701D01*
X610241Y192913D01*
X611816D01*
X612603Y193701D01*
X607880Y197636D02*
X604731D01*
Y196849D01*
X607880Y193701D01*
Y192913D01*
X723228Y198030D02*
X720080D01*
X721654D01*
Y193307D01*
X718505D02*
Y198030D01*
X716144D01*
X715357Y197243D01*
Y195668D01*
X716144Y194881D01*
X718505D01*
X713783Y193307D02*
X712208D01*
X712995D01*
Y198030D01*
X713783Y197243D01*
X709847D02*
X709060Y198030D01*
X707485D01*
X706698Y197243D01*
Y196456D01*
X707485Y195668D01*
X708273D01*
X707485D01*
X706698Y194881D01*
Y194094D01*
X707485Y193307D01*
X709060D01*
X709847Y194094D01*
X705124Y197243D02*
X704337Y198030D01*
X702763D01*
X701975Y197243D01*
Y196456D01*
X702763Y195668D01*
X701975Y194881D01*
Y194094D01*
X702763Y193307D01*
X704337D01*
X705124Y194094D01*
Y194881D01*
X704337Y195668D01*
X705124Y196456D01*
Y197243D01*
X704337Y195668D02*
X702763D01*
X514961Y261022D02*
X511812D01*
X513386D01*
Y256299D01*
X510238D02*
Y261022D01*
X507876D01*
X507089Y260235D01*
Y258661D01*
X507876Y257874D01*
X510238D01*
X505515Y256299D02*
X503941D01*
X504728D01*
Y261022D01*
X505515Y260235D01*
X498430Y256299D02*
X501579D01*
X498430Y259448D01*
Y260235D01*
X499218Y261022D01*
X500792D01*
X501579Y260235D01*
X493708Y261022D02*
X495282Y260235D01*
X496856Y258661D01*
Y257086D01*
X496069Y256299D01*
X494495D01*
X493708Y257086D01*
Y257874D01*
X494495Y258661D01*
X496856D01*
X523622Y162203D02*
X520473D01*
X522048D01*
Y157480D01*
X518899D02*
Y162203D01*
X516538D01*
X515751Y161416D01*
Y159842D01*
X516538Y159055D01*
X518899D01*
X514176Y157480D02*
X512602D01*
X513389D01*
Y162203D01*
X514176Y161416D01*
X510241D02*
X509453Y162203D01*
X507879D01*
X507092Y161416D01*
Y160629D01*
X507879Y159842D01*
X508666D01*
X507879D01*
X507092Y159055D01*
Y158267D01*
X507879Y157480D01*
X509453D01*
X510241Y158267D01*
X502369Y162203D02*
X503943Y161416D01*
X505518Y159842D01*
Y158267D01*
X504731Y157480D01*
X503156D01*
X502369Y158267D01*
Y159055D01*
X503156Y159842D01*
X505518D01*
X516929Y33857D02*
X513780D01*
X515355D01*
Y29134D01*
X512206D02*
Y33857D01*
X509845D01*
X509058Y33070D01*
Y31495D01*
X509845Y30708D01*
X512206D01*
X507483Y29134D02*
X505909D01*
X506696D01*
Y33857D01*
X507483Y33070D01*
X503548D02*
X502761Y33857D01*
X501186D01*
X500399Y33070D01*
Y32283D01*
X501186Y31495D01*
X501973D01*
X501186D01*
X500399Y30708D01*
Y29921D01*
X501186Y29134D01*
X502761D01*
X503548Y29921D01*
X495676Y33857D02*
X498825D01*
Y31495D01*
X497251Y32283D01*
X496463D01*
X495676Y31495D01*
Y29921D01*
X496463Y29134D01*
X498038D01*
X498825Y29921D01*
X426378Y198030D02*
X423229D01*
X424804D01*
Y193307D01*
X421655D02*
Y198030D01*
X419294D01*
X418506Y197243D01*
Y195668D01*
X419294Y194881D01*
X421655D01*
X416932Y193307D02*
X415358D01*
X416145D01*
Y198030D01*
X416932Y197243D01*
X409848Y193307D02*
X412996D01*
X409848Y196456D01*
Y197243D01*
X410635Y198030D01*
X412209D01*
X412996Y197243D01*
X408274Y194094D02*
X407486Y193307D01*
X405912D01*
X405125Y194094D01*
Y197243D01*
X405912Y198030D01*
X407486D01*
X408274Y197243D01*
Y196456D01*
X407486Y195668D01*
X405125D01*
X94213Y366928D02*
X91064D01*
X92638D01*
Y362205D01*
X89490D02*
Y366928D01*
X87128D01*
X86341Y366141D01*
Y364566D01*
X87128Y363779D01*
X89490D01*
X84767Y362205D02*
X83193D01*
X83980D01*
Y366928D01*
X84767Y366141D01*
X80831Y362205D02*
X79257D01*
X80044D01*
Y366928D01*
X80831Y366141D01*
X76895D02*
X76108Y366928D01*
X74534D01*
X73747Y366141D01*
Y362992D01*
X74534Y362205D01*
X76108D01*
X76895Y362992D01*
Y366141D01*
X152362Y337400D02*
X149214D01*
X150788D01*
Y332677D01*
X147639D02*
Y337400D01*
X145278D01*
X144491Y336613D01*
Y335039D01*
X145278Y334251D01*
X147639D01*
X142916Y332677D02*
X141342D01*
X142129D01*
Y337400D01*
X142916Y336613D01*
X135832Y332677D02*
X138981D01*
X135832Y335826D01*
Y336613D01*
X136619Y337400D01*
X138194D01*
X138981Y336613D01*
X134258D02*
X133471Y337400D01*
X131896D01*
X131109Y336613D01*
Y333464D01*
X131896Y332677D01*
X133471D01*
X134258Y333464D01*
Y336613D01*
X241535Y367125D02*
X238387D01*
X239961D01*
Y362402D01*
X236813D02*
Y367125D01*
X234451D01*
X233664Y366337D01*
Y364763D01*
X234451Y363976D01*
X236813D01*
X232090Y362402D02*
X230515D01*
X231302D01*
Y367125D01*
X232090Y366337D01*
X225005Y362402D02*
X228154D01*
X225005Y365550D01*
Y366337D01*
X225793Y367125D01*
X227367D01*
X228154Y366337D01*
X223431Y362402D02*
X221857D01*
X222644D01*
Y367125D01*
X223431Y366337D01*
X152362Y253148D02*
X149214D01*
X150788D01*
Y248425D01*
X147639D02*
Y253148D01*
X145278D01*
X144491Y252361D01*
Y250787D01*
X145278Y249999D01*
X147639D01*
X142916Y248425D02*
X141342D01*
X142129D01*
Y253148D01*
X142916Y252361D01*
X135832Y248425D02*
X138981D01*
X135832Y251574D01*
Y252361D01*
X136619Y253148D01*
X138194D01*
X138981Y252361D01*
X131109Y253148D02*
X134258D01*
Y250787D01*
X132684Y251574D01*
X131896D01*
X131109Y250787D01*
Y249212D01*
X131896Y248425D01*
X133471D01*
X134258Y249212D01*
X227165Y260235D02*
X224017D01*
X225591D01*
Y255512D01*
X222443D02*
Y260235D01*
X220081D01*
X219294Y259448D01*
Y257873D01*
X220081Y257086D01*
X222443D01*
X217720Y255512D02*
X216145D01*
X216932D01*
Y260235D01*
X217720Y259448D01*
X210635Y255512D02*
X213784D01*
X210635Y258660D01*
Y259448D01*
X211422Y260235D01*
X212997D01*
X213784Y259448D01*
X209061Y260235D02*
X205912D01*
Y259448D01*
X209061Y256299D01*
Y255512D01*
X359618Y349731D02*
X355619D01*
X357618D01*
Y343733D01*
X353620D02*
Y349731D01*
X350621D01*
X349621Y348731D01*
Y346732D01*
X350621Y345732D01*
X353620D01*
X347622Y343733D02*
X345622D01*
X346622D01*
Y349731D01*
X347622Y348731D01*
X339624Y343733D02*
Y349731D01*
X342623Y346732D01*
X338625D01*
X336625Y348731D02*
X335626Y349731D01*
X333626D01*
X332627Y348731D01*
Y344732D01*
X333626Y343733D01*
X335626D01*
X336625Y344732D01*
Y348731D01*
X80709Y172927D02*
X76710D01*
X78709D01*
Y166929D01*
X74711D02*
Y172927D01*
X71712D01*
X70712Y171927D01*
Y169928D01*
X71712Y168929D01*
X74711D01*
X68713Y166929D02*
X66713D01*
X67713D01*
Y172927D01*
X68713Y171927D01*
X60715Y166929D02*
Y172927D01*
X63714Y169928D01*
X59715D01*
X57716Y166929D02*
X55717D01*
X56716D01*
Y172927D01*
X57716Y171927D01*
X328346Y34250D02*
X325198D01*
X326772D01*
Y29528D01*
X323624D02*
Y34250D01*
X321262D01*
X320475Y33463D01*
Y31889D01*
X321262Y31102D01*
X323624D01*
X318901Y29528D02*
X317326D01*
X318113D01*
Y34250D01*
X318901Y33463D01*
X314965D02*
X314178Y34250D01*
X312603D01*
X311816Y33463D01*
Y32676D01*
X312603Y31889D01*
X313391D01*
X312603D01*
X311816Y31102D01*
Y30315D01*
X312603Y29528D01*
X314178D01*
X314965Y30315D01*
X307881Y29528D02*
Y34250D01*
X310242Y31889D01*
X307094D01*
X284646Y8463D02*
X281497D01*
X283071D01*
Y3740D01*
X279923D02*
Y8463D01*
X277561D01*
X276774Y7676D01*
Y6102D01*
X277561Y5314D01*
X279923D01*
X275200Y3740D02*
X273626D01*
X274413D01*
Y8463D01*
X275200Y7676D01*
X271264D02*
X270477Y8463D01*
X268903D01*
X268116Y7676D01*
Y6889D01*
X268903Y6102D01*
X269690D01*
X268903D01*
X268116Y5314D01*
Y4527D01*
X268903Y3740D01*
X270477D01*
X271264Y4527D01*
X266541D02*
X265754Y3740D01*
X264180D01*
X263393Y4527D01*
Y7676D01*
X264180Y8463D01*
X265754D01*
X266541Y7676D01*
Y6889D01*
X265754Y6102D01*
X263393D01*
X827165Y146062D02*
X824017D01*
X825591D01*
Y141339D01*
X822443D02*
Y146062D01*
X820081D01*
X819294Y145274D01*
Y143700D01*
X820081Y142913D01*
X822443D01*
X817720Y141339D02*
X816145D01*
X816932D01*
Y146062D01*
X817720Y145274D01*
X813784D02*
X812997Y146062D01*
X811422D01*
X810635Y145274D01*
Y144487D01*
X811422Y143700D01*
X812210D01*
X811422D01*
X810635Y142913D01*
Y142126D01*
X811422Y141339D01*
X812997D01*
X813784Y142126D01*
X809061Y145274D02*
X808274Y146062D01*
X806699D01*
X805912Y145274D01*
Y144487D01*
X806699Y143700D01*
X807487D01*
X806699D01*
X805912Y142913D01*
Y142126D01*
X806699Y141339D01*
X808274D01*
X809061Y142126D01*
X314961Y235132D02*
X310962D01*
X312961D01*
Y229134D01*
X308963D02*
Y235132D01*
X305963D01*
X304964Y234132D01*
Y232133D01*
X305963Y231133D01*
X308963D01*
X302964Y229134D02*
X300965D01*
X301965D01*
Y235132D01*
X302964Y234132D01*
X293967Y229134D02*
X297966D01*
X293967Y233133D01*
Y234132D01*
X294967Y235132D01*
X296966D01*
X297966Y234132D01*
X291968D02*
X290968Y235132D01*
X288969D01*
X287969Y234132D01*
Y233133D01*
X288969Y232133D01*
X287969Y231133D01*
Y230134D01*
X288969Y229134D01*
X290968D01*
X291968Y230134D01*
Y231133D01*
X290968Y232133D01*
X291968Y233133D01*
Y234132D01*
X290968Y232133D02*
X288969D01*
D27*
X274775Y406910D02*
G03*
X280343Y406910I2784J0D01*
G01*
X299213Y390158D02*
Y391339D01*
X295276Y390158D02*
Y391339D01*
Y360827D02*
Y362008D01*
X299213Y360827D02*
Y362008D01*
X285236Y406988D02*
X290846D01*
X270866Y372539D02*
X284252D01*
X270866Y406910D02*
X284252D01*
X258465Y402362D02*
Y402756D01*
X261221Y402362D02*
Y402756D01*
M02*
