G04*
G04 #@! TF.GenerationSoftware,Altium Limited,CircuitStudio,1.5.2 (30)*
G04*
G04 Layer_Color=8150272*
%FSLAX25Y25*%
%MOIN*%
G70*
G01*
G75*
%ADD31C,0.08268*%
G04:AMPARAMS|DCode=32|XSize=3.94mil|YSize=3.94mil|CornerRadius=0mil|HoleSize=0mil|Usage=FLASHONLY|Rotation=180.000|XOffset=0mil|YOffset=0mil|HoleType=Round|Shape=RoundedRectangle|*
%AMROUNDEDRECTD32*
21,1,0.00394,0.00394,0,0,180.0*
21,1,0.00394,0.00394,0,0,180.0*
1,1,0.00000,-0.00197,0.00197*
1,1,0.00000,0.00197,0.00197*
1,1,0.00000,0.00197,-0.00197*
1,1,0.00000,-0.00197,-0.00197*
%
%ADD32ROUNDEDRECTD32*%
G04:AMPARAMS|DCode=33|XSize=3.94mil|YSize=3.94mil|CornerRadius=0mil|HoleSize=0mil|Usage=FLASHONLY|Rotation=90.000|XOffset=0mil|YOffset=0mil|HoleType=Round|Shape=RoundedRectangle|*
%AMROUNDEDRECTD33*
21,1,0.00394,0.00394,0,0,90.0*
21,1,0.00394,0.00394,0,0,90.0*
1,1,0.00000,0.00197,0.00197*
1,1,0.00000,0.00197,-0.00197*
1,1,0.00000,-0.00197,-0.00197*
1,1,0.00000,-0.00197,0.00197*
%
%ADD33ROUNDEDRECTD33*%
%ADD34C,0.14567*%
%ADD35C,0.10630*%
%ADD36C,0.00394*%
%ADD37C,0.07874*%
%ADD38C,0.03543*%
%ADD39R,0.05118X0.03937*%
G04:AMPARAMS|DCode=40|XSize=33.47mil|YSize=43.31mil|CornerRadius=9.35mil|HoleSize=0mil|Usage=FLASHONLY|Rotation=270.000|XOffset=0mil|YOffset=0mil|HoleType=Round|Shape=RoundedRectangle|*
%AMROUNDEDRECTD40*
21,1,0.03347,0.02461,0,0,270.0*
21,1,0.01476,0.04331,0,0,270.0*
1,1,0.01870,-0.01230,-0.00738*
1,1,0.01870,-0.01230,0.00738*
1,1,0.01870,0.01230,0.00738*
1,1,0.01870,0.01230,-0.00738*
%
%ADD40ROUNDEDRECTD40*%
G04:AMPARAMS|DCode=41|XSize=33.47mil|YSize=43.31mil|CornerRadius=9.35mil|HoleSize=0mil|Usage=FLASHONLY|Rotation=180.000|XOffset=0mil|YOffset=0mil|HoleType=Round|Shape=RoundedRectangle|*
%AMROUNDEDRECTD41*
21,1,0.03347,0.02461,0,0,180.0*
21,1,0.01476,0.04331,0,0,180.0*
1,1,0.01870,-0.00738,0.01230*
1,1,0.01870,0.00738,0.01230*
1,1,0.01870,0.00738,-0.01230*
1,1,0.01870,-0.00738,-0.01230*
%
%ADD41ROUNDEDRECTD41*%
%ADD42C,0.04331*%
G04:AMPARAMS|DCode=43|XSize=64.96mil|YSize=27.56mil|CornerRadius=7.87mil|HoleSize=0mil|Usage=FLASHONLY|Rotation=180.000|XOffset=0mil|YOffset=0mil|HoleType=Round|Shape=RoundedRectangle|*
%AMROUNDEDRECTD43*
21,1,0.06496,0.01181,0,0,180.0*
21,1,0.04921,0.02756,0,0,180.0*
1,1,0.01575,-0.02461,0.00591*
1,1,0.01575,0.02461,0.00591*
1,1,0.01575,0.02461,-0.00591*
1,1,0.01575,-0.02461,-0.00591*
%
%ADD43ROUNDEDRECTD43*%
G04:AMPARAMS|DCode=44|XSize=27.56mil|YSize=27.56mil|CornerRadius=7.87mil|HoleSize=0mil|Usage=FLASHONLY|Rotation=270.000|XOffset=0mil|YOffset=0mil|HoleType=Round|Shape=RoundedRectangle|*
%AMROUNDEDRECTD44*
21,1,0.02756,0.01181,0,0,270.0*
21,1,0.01181,0.02756,0,0,270.0*
1,1,0.01575,-0.00591,-0.00591*
1,1,0.01575,-0.00591,0.00591*
1,1,0.01575,0.00591,0.00591*
1,1,0.01575,0.00591,-0.00591*
%
%ADD44ROUNDEDRECTD44*%
D31*
X29528Y29528D02*
D03*
X852362D02*
D03*
X29528Y419291D02*
D03*
X852362D02*
D03*
X440945Y29528D02*
D03*
Y318898D02*
D03*
D32*
X84449Y385827D02*
D03*
Y392520D02*
D03*
X158858D02*
D03*
Y385827D02*
D03*
X233268D02*
D03*
Y392520D02*
D03*
X90551Y275394D02*
D03*
Y282087D02*
D03*
X199803D02*
D03*
Y275394D02*
D03*
X303346Y224213D02*
D03*
Y230906D02*
D03*
X411417Y209252D02*
D03*
Y202559D02*
D03*
X519685Y182913D02*
D03*
Y176221D02*
D03*
X503937Y284055D02*
D03*
Y277362D02*
D03*
X622047Y212571D02*
D03*
Y219264D02*
D03*
X724409Y212571D02*
D03*
Y219264D02*
D03*
X610236Y314252D02*
D03*
Y320945D02*
D03*
X718504Y321457D02*
D03*
Y314764D02*
D03*
X826772Y284055D02*
D03*
Y277362D02*
D03*
Y175000D02*
D03*
Y181693D02*
D03*
X334842Y33268D02*
D03*
Y26575D02*
D03*
X515748Y33307D02*
D03*
Y26614D02*
D03*
D33*
X87795Y389173D02*
D03*
X81102D02*
D03*
X155512D02*
D03*
X162205D02*
D03*
X236614D02*
D03*
X229921D02*
D03*
X93898Y278740D02*
D03*
X87205D02*
D03*
X196457D02*
D03*
X203150D02*
D03*
X306693Y227559D02*
D03*
X300000D02*
D03*
X408071Y205906D02*
D03*
X414764D02*
D03*
X516339Y179567D02*
D03*
X523032D02*
D03*
X500591Y280709D02*
D03*
X507283D02*
D03*
X625394Y215917D02*
D03*
X618701D02*
D03*
X727756D02*
D03*
X721063D02*
D03*
X613583Y317598D02*
D03*
X606890D02*
D03*
X715158Y318110D02*
D03*
X721850D02*
D03*
X823425Y280709D02*
D03*
X830118D02*
D03*
Y178347D02*
D03*
X823425D02*
D03*
X331496Y29921D02*
D03*
X338189D02*
D03*
X512402Y29961D02*
D03*
X519095D02*
D03*
D34*
X84449Y430905D02*
D03*
X104134Y422638D02*
D03*
X178543D02*
D03*
X158858Y430905D02*
D03*
X233268D02*
D03*
X252953Y422638D02*
D03*
X90551Y320472D02*
D03*
X110236Y312205D02*
D03*
X219488D02*
D03*
X199803Y320472D02*
D03*
X303346Y269291D02*
D03*
X323031Y261024D02*
D03*
X431102Y239370D02*
D03*
X411417Y247638D02*
D03*
X539370Y213032D02*
D03*
X519685Y221299D02*
D03*
X523622Y314173D02*
D03*
X503937Y322441D02*
D03*
X622047Y257650D02*
D03*
X641732Y249382D02*
D03*
X724409Y257650D02*
D03*
X744095Y249382D02*
D03*
X610236Y359331D02*
D03*
X629921Y351063D02*
D03*
X738189Y351575D02*
D03*
X718504Y359842D02*
D03*
X846457Y314173D02*
D03*
X826772Y322441D02*
D03*
Y220079D02*
D03*
X846457Y211811D02*
D03*
X354528Y63386D02*
D03*
X334842Y71653D02*
D03*
X535433Y63425D02*
D03*
X515748Y71693D02*
D03*
D35*
X64764Y387402D02*
D03*
X139173D02*
D03*
X213583D02*
D03*
X70866Y276969D02*
D03*
X180118D02*
D03*
X283661Y225787D02*
D03*
X391732Y204134D02*
D03*
X500000Y177795D02*
D03*
X484252Y278937D02*
D03*
X602362Y214146D02*
D03*
X704724D02*
D03*
X590551Y315827D02*
D03*
X698819Y316339D02*
D03*
X807087Y278937D02*
D03*
Y176575D02*
D03*
X315158Y28150D02*
D03*
X496063Y28189D02*
D03*
X393701Y236221D02*
D03*
D36*
X62795Y407677D02*
D03*
X106102D02*
D03*
X84449D02*
D03*
X158858D02*
D03*
X180512D02*
D03*
X137205D02*
D03*
X211614D02*
D03*
X254921D02*
D03*
X233268D02*
D03*
X68898Y297244D02*
D03*
X112205D02*
D03*
X90551D02*
D03*
X199803D02*
D03*
X221457D02*
D03*
X178150D02*
D03*
X281693Y246063D02*
D03*
X325000D02*
D03*
X303346D02*
D03*
X411417Y224410D02*
D03*
X433071D02*
D03*
X389764D02*
D03*
X519685Y198071D02*
D03*
X541339D02*
D03*
X498032D02*
D03*
X503937Y299213D02*
D03*
X525591D02*
D03*
X482283D02*
D03*
X600394Y234421D02*
D03*
X643701D02*
D03*
X622047D02*
D03*
X702756D02*
D03*
X746063D02*
D03*
X724409D02*
D03*
X588583Y336102D02*
D03*
X631890D02*
D03*
X610236D02*
D03*
X718504Y336614D02*
D03*
X740158D02*
D03*
X696850D02*
D03*
X826772Y299213D02*
D03*
X848425D02*
D03*
X805118D02*
D03*
Y196850D02*
D03*
X848425D02*
D03*
X826772D02*
D03*
X334842Y48425D02*
D03*
X356496D02*
D03*
X313189D02*
D03*
X515748Y48465D02*
D03*
X537402D02*
D03*
X494095D02*
D03*
D37*
X832677Y391732D02*
D03*
X59055Y19685D02*
D03*
D38*
X314961Y393701D02*
D03*
X787402Y314961D02*
D03*
X551181D02*
D03*
X157480D02*
D03*
X78740Y236221D02*
D03*
X157480D02*
D03*
X236221D02*
D03*
X472441D02*
D03*
X551181D02*
D03*
X787402D02*
D03*
Y157480D02*
D03*
X708661D02*
D03*
X629921D02*
D03*
X551181D02*
D03*
X472441D02*
D03*
X393701D02*
D03*
X314961D02*
D03*
X236221D02*
D03*
X157480D02*
D03*
X78740D02*
D03*
Y78740D02*
D03*
X157480D02*
D03*
X236221D02*
D03*
X393701D02*
D03*
X472441D02*
D03*
X551181D02*
D03*
X629921D02*
D03*
X708661D02*
D03*
X787402D02*
D03*
X180118Y388779D02*
D03*
Y376969D02*
D03*
X739173Y312008D02*
D03*
Y304134D02*
D03*
X638779Y308071D02*
D03*
X630905Y300197D02*
D03*
X522638Y274606D02*
D03*
Y268701D02*
D03*
X436024Y203740D02*
D03*
Y192913D02*
D03*
X323819Y224410D02*
D03*
Y215551D02*
D03*
X220472Y276575D02*
D03*
Y265748D02*
D03*
X222441Y379921D02*
D03*
X210630D02*
D03*
X340551Y380906D02*
D03*
X350394Y387795D02*
D03*
X350394Y394685D02*
D03*
X533465Y349410D02*
D03*
X540354Y356299D02*
D03*
X547244Y363189D02*
D03*
X553150Y370079D02*
D03*
Y376969D02*
D03*
Y383858D02*
D03*
Y390748D02*
D03*
Y397638D02*
D03*
X548228Y438976D02*
D03*
X545276Y432087D02*
D03*
X542323Y425197D02*
D03*
X539370Y418307D02*
D03*
X536417Y411417D02*
D03*
X533465Y404528D02*
D03*
X411417Y313976D02*
D03*
X344488Y314961D02*
D03*
Y290354D02*
D03*
X428150Y308071D02*
D03*
X423228D02*
D03*
X437992Y293307D02*
D03*
X442913Y293307D02*
D03*
X309055Y302165D02*
D03*
X704035Y325492D02*
D03*
X704035Y329626D02*
D03*
X734055Y315158D02*
D03*
X812303Y288090D02*
D03*
X812303Y292224D02*
D03*
X842323Y277756D02*
D03*
X812303Y185728D02*
D03*
X812303Y189862D02*
D03*
X842323Y175394D02*
D03*
X709941Y223299D02*
D03*
X709941Y227433D02*
D03*
X739961Y212965D02*
D03*
X607579Y223299D02*
D03*
X607579Y227433D02*
D03*
X637598Y212965D02*
D03*
X501279Y37343D02*
D03*
X501279Y41476D02*
D03*
X531299Y27008D02*
D03*
X320374Y37303D02*
D03*
X320374Y41437D02*
D03*
X350394Y26969D02*
D03*
X625787Y314646D02*
D03*
X595768Y329114D02*
D03*
X595768Y324980D02*
D03*
X519488Y277756D02*
D03*
X489468Y292224D02*
D03*
X489468Y288090D02*
D03*
X535236Y176614D02*
D03*
X505217Y191083D02*
D03*
X505217Y186949D02*
D03*
X426968Y202953D02*
D03*
X396949Y217421D02*
D03*
X396949Y213287D02*
D03*
X318898Y224606D02*
D03*
X288878Y239075D02*
D03*
X288878Y234941D02*
D03*
X215354Y275787D02*
D03*
X185335Y290256D02*
D03*
X185335Y286122D02*
D03*
X106102Y275787D02*
D03*
X76083Y290256D02*
D03*
X76083Y286122D02*
D03*
X248819Y386221D02*
D03*
X218799Y400689D02*
D03*
X218799Y396555D02*
D03*
X174409Y386221D02*
D03*
X144390Y400689D02*
D03*
X144390Y396555D02*
D03*
X69980D02*
D03*
X69980Y400689D02*
D03*
X100000Y386221D02*
D03*
X289370Y426181D02*
D03*
X326772Y437992D02*
D03*
X473425Y351378D02*
D03*
X487008Y358465D02*
D03*
X486850Y368465D02*
D03*
X486732Y378465D02*
D03*
X486890Y388465D02*
D03*
X487047Y398465D02*
D03*
X487205Y408465D02*
D03*
X487047Y418465D02*
D03*
X486890Y428465D02*
D03*
X487205Y438976D02*
D03*
X395669D02*
D03*
Y428150D02*
D03*
Y418307D02*
D03*
Y408465D02*
D03*
Y398622D02*
D03*
Y388779D02*
D03*
Y378937D02*
D03*
Y358268D02*
D03*
X421260Y342520D02*
D03*
X431102D02*
D03*
X440945D02*
D03*
X450787D02*
D03*
D39*
X74016Y392126D02*
D03*
Y386221D02*
D03*
X94882D02*
D03*
Y392126D02*
D03*
X169291D02*
D03*
Y386221D02*
D03*
X148425D02*
D03*
Y392126D02*
D03*
X222835D02*
D03*
Y386221D02*
D03*
X243701D02*
D03*
Y392126D02*
D03*
X80118Y281693D02*
D03*
Y275787D02*
D03*
X100984D02*
D03*
Y281693D02*
D03*
X210236D02*
D03*
Y275787D02*
D03*
X189370D02*
D03*
Y281693D02*
D03*
X292913Y230512D02*
D03*
Y224606D02*
D03*
X313779D02*
D03*
Y230512D02*
D03*
X421850Y208858D02*
D03*
Y202953D02*
D03*
X400984D02*
D03*
Y208858D02*
D03*
X530118Y182520D02*
D03*
Y176614D02*
D03*
X509252D02*
D03*
Y182520D02*
D03*
X514370Y283661D02*
D03*
Y277756D02*
D03*
X493504D02*
D03*
Y283661D02*
D03*
X611614Y218870D02*
D03*
Y212965D02*
D03*
X632480D02*
D03*
Y218870D02*
D03*
X713976D02*
D03*
Y212965D02*
D03*
X734842D02*
D03*
Y218870D02*
D03*
X599803Y320551D02*
D03*
Y314646D02*
D03*
X620669D02*
D03*
Y320551D02*
D03*
X728937Y321063D02*
D03*
Y315158D02*
D03*
X708071D02*
D03*
Y321063D02*
D03*
X837205Y283661D02*
D03*
Y277756D02*
D03*
X816339D02*
D03*
Y283661D02*
D03*
Y181299D02*
D03*
Y175394D02*
D03*
X837205D02*
D03*
Y181299D02*
D03*
X345276Y32874D02*
D03*
Y26969D02*
D03*
X324410D02*
D03*
Y32874D02*
D03*
X526181Y32913D02*
D03*
Y27008D02*
D03*
X505315D02*
D03*
Y32913D02*
D03*
D40*
X326772Y423228D02*
D03*
Y417323D02*
D03*
D41*
X370079Y380906D02*
D03*
X364173D02*
D03*
X370079Y387795D02*
D03*
X364173D02*
D03*
X370079Y394685D02*
D03*
X364173D02*
D03*
X370079Y401575D02*
D03*
X364173D02*
D03*
X370079Y408465D02*
D03*
X364173D02*
D03*
X519685Y438976D02*
D03*
X513779D02*
D03*
X519685Y432087D02*
D03*
X513779D02*
D03*
X519685Y425197D02*
D03*
X513779D02*
D03*
X519685Y418307D02*
D03*
X513779D02*
D03*
X519685Y411417D02*
D03*
X513779D02*
D03*
X519685Y404528D02*
D03*
X513779D02*
D03*
X519685Y397638D02*
D03*
X513779D02*
D03*
X519685Y390748D02*
D03*
X513779D02*
D03*
Y383858D02*
D03*
X519685D02*
D03*
X513779Y376969D02*
D03*
X519685D02*
D03*
X513779Y370079D02*
D03*
X519685D02*
D03*
X513779Y363189D02*
D03*
X519685D02*
D03*
X513779Y356299D02*
D03*
X519685D02*
D03*
X513779Y349409D02*
D03*
X519685D02*
D03*
D42*
X368110Y438976D02*
D03*
Y418307D02*
D03*
Y428150D02*
D03*
X357283Y380906D02*
D03*
Y387795D02*
D03*
Y394685D02*
D03*
Y401575D02*
D03*
X357283Y408465D02*
D03*
X101378Y391732D02*
D03*
X177165D02*
D03*
X250000D02*
D03*
X107283Y281496D02*
D03*
X520669Y283465D02*
D03*
X217520Y281496D02*
D03*
X319882Y230315D02*
D03*
X428150Y208661D02*
D03*
X626968Y320866D02*
D03*
X736221D02*
D03*
X843504Y283465D02*
D03*
X844488Y181102D02*
D03*
X351378Y32480D02*
D03*
X532480D02*
D03*
X536417Y182087D02*
D03*
X638779Y218504D02*
D03*
X741142D02*
D03*
X321850Y19685D02*
D03*
X548228Y383858D02*
D03*
X543307Y438976D02*
D03*
X540354Y432087D02*
D03*
X537402Y425197D02*
D03*
X534449Y418307D02*
D03*
X531496Y411417D02*
D03*
X528543Y404528D02*
D03*
X548228Y397638D02*
D03*
Y390748D02*
D03*
Y376969D02*
D03*
Y370079D02*
D03*
X542323Y363189D02*
D03*
X535433Y356299D02*
D03*
X528543Y349410D02*
D03*
D43*
X296457Y404291D02*
D03*
X317717D02*
D03*
Y409291D02*
D03*
Y414291D02*
D03*
Y419291D02*
D03*
Y424291D02*
D03*
Y429291D02*
D03*
Y434291D02*
D03*
X296457Y409291D02*
D03*
Y414291D02*
D03*
Y419291D02*
D03*
Y424291D02*
D03*
Y429291D02*
D03*
Y434291D02*
D03*
D44*
X289370Y434154D02*
D03*
Y430020D02*
D03*
X326772Y434154D02*
D03*
Y430020D02*
D03*
X73819Y400689D02*
D03*
Y396555D02*
D03*
X147638Y400689D02*
D03*
Y396555D02*
D03*
X222441Y400689D02*
D03*
Y396555D02*
D03*
X79724Y290453D02*
D03*
Y286319D02*
D03*
X188976Y290453D02*
D03*
Y286319D02*
D03*
X292323Y239272D02*
D03*
Y235138D02*
D03*
X400591Y217618D02*
D03*
Y213484D02*
D03*
X493110Y292421D02*
D03*
Y288287D02*
D03*
X599409Y328839D02*
D03*
Y324705D02*
D03*
X707677Y329823D02*
D03*
Y325689D02*
D03*
X815945Y292421D02*
D03*
Y288287D02*
D03*
X323819Y41437D02*
D03*
Y37303D02*
D03*
X504921Y41437D02*
D03*
Y37303D02*
D03*
X508858Y191043D02*
D03*
Y186909D02*
D03*
X611221Y227461D02*
D03*
Y223327D02*
D03*
X713583Y227461D02*
D03*
Y223327D02*
D03*
X815945Y190059D02*
D03*
Y185925D02*
D03*
M02*
