G04*
G04 #@! TF.GenerationSoftware,Altium Limited,CircuitStudio,1.5.2 (30)*
G04*
G04 Layer_Color=15065295*
%FSLAX25Y25*%
%MOIN*%
G70*
G01*
G75*
%ADD23C,0.00591*%
%ADD24C,0.01000*%
D23*
X-67323Y-215709D02*
X-7480D01*
X-67323D02*
Y-155866D01*
X-7480Y-215709D02*
Y-155866D01*
X-67323D02*
X-43307D01*
X-31496D02*
X-7480D01*
X31102Y-179370D02*
X90945D01*
X31102D02*
Y-119528D01*
X90945Y-179370D02*
Y-119528D01*
X31102D02*
X55118D01*
X66929D02*
X90945D01*
X-83071Y-114567D02*
X-23228D01*
X-83071D02*
Y-54724D01*
X-23228Y-114567D02*
Y-54724D01*
X-83071D02*
X-59055D01*
X-47244D02*
X-23228D01*
X19291Y-77677D02*
X79134D01*
X19291D02*
Y-17835D01*
X79134Y-77677D02*
Y-17835D01*
X19291D02*
X43307D01*
X55118D02*
X79134D01*
X-362598Y-116535D02*
X-302756D01*
X-362598D02*
Y-56693D01*
X-302756Y-116535D02*
Y-56693D01*
X-362598D02*
X-338583D01*
X-326772D02*
X-302756D01*
X-345669Y-10236D02*
X-285827D01*
X-345669D02*
Y49606D01*
X-285827Y-10236D02*
Y49606D01*
X-345669D02*
X-321654D01*
X-309842D02*
X-285827D01*
X127559Y-77165D02*
X187402D01*
X127559D02*
Y-17323D01*
X187402Y-77165D02*
Y-17323D01*
X127559D02*
X151575D01*
X163386D02*
X187402D01*
X133465Y-179370D02*
X193307D01*
X133465D02*
Y-119528D01*
X193307Y-179370D02*
Y-119528D01*
X133465D02*
X157480D01*
X169291D02*
X193307D01*
X-165748Y-177559D02*
X-105905D01*
X-165748D02*
Y-117717D01*
X-105905Y-177559D02*
Y-117717D01*
X-165748D02*
X-141732D01*
X-129921D02*
X-105905D01*
X-437402Y-116535D02*
X-377559D01*
X-437402D02*
Y-56693D01*
X-377559Y-116535D02*
Y-56693D01*
X-437402D02*
X-413386D01*
X-401575D02*
X-377559D01*
X231890Y-130315D02*
X291732D01*
X231890D02*
Y-70472D01*
X291732Y-130315D02*
Y-70472D01*
X231890D02*
X255906D01*
X267717D02*
X291732D01*
X231890Y-232677D02*
X291732D01*
X231890D02*
Y-172835D01*
X291732Y-232677D02*
Y-172835D01*
X231890D02*
X255906D01*
X267717D02*
X291732D01*
X-75197Y-342323D02*
X-15354D01*
X-75197D02*
Y-282480D01*
X-15354Y-342323D02*
Y-282480D01*
X-75197D02*
X-51181D01*
X-39370D02*
X-15354D01*
X-287795Y-136221D02*
X-227953D01*
X-287795D02*
Y-76378D01*
X-227953Y-136221D02*
Y-76378D01*
X-287795D02*
X-263779D01*
X-251969D02*
X-227953D01*
X-420079Y-10236D02*
X-360236D01*
X-420079D02*
Y49606D01*
X-360236Y-10236D02*
Y49606D01*
X-420079D02*
X-396063D01*
X-384252D02*
X-360236D01*
X-266142Y-342323D02*
X-206299D01*
X-266142D02*
Y-282480D01*
X-206299Y-342323D02*
Y-282480D01*
X-266142D02*
X-242126D01*
X-230315D02*
X-206299D01*
X-494488Y-10236D02*
X-434646D01*
X-494488D02*
Y49606D01*
X-434646Y-10236D02*
Y49606D01*
X-494488D02*
X-470472D01*
X-458661D02*
X-434646D01*
X-516142Y-205118D02*
X-456299D01*
X-516142D02*
Y-145276D01*
X-456299Y-205118D02*
Y-145276D01*
X-516142D02*
X-492126D01*
X-480315D02*
X-456299D01*
X-69095Y54134D02*
Y58858D01*
X-73819D02*
X-69095D01*
X-76181Y48622D02*
Y50591D01*
Y38622D02*
Y40591D01*
Y28622D02*
Y30591D01*
Y18622D02*
Y20591D01*
Y8622D02*
Y10591D01*
Y-1378D02*
Y591D01*
Y-11378D02*
Y-9409D01*
Y-21378D02*
Y-19410D01*
X-148228Y48622D02*
Y50591D01*
Y38622D02*
Y40591D01*
Y28622D02*
Y30591D01*
Y18622D02*
Y20591D01*
Y8622D02*
Y10591D01*
Y-1378D02*
Y591D01*
Y-11378D02*
Y-9409D01*
Y-21378D02*
Y-19410D01*
Y-32480D02*
Y-29409D01*
Y-32480D02*
X-136417D01*
X-128150D02*
X-126181D01*
X-118150D02*
X-116181D01*
X-108150D02*
X-106181D01*
X-98150D02*
X-96181D01*
X-87992D02*
X-76181D01*
Y-29409D01*
D24*
X-498757Y-209175D02*
X-499757Y-208175D01*
X-501756D01*
X-502756Y-209175D01*
Y-210174D01*
X-501756Y-211174D01*
X-499757D01*
X-498757Y-212174D01*
Y-213174D01*
X-499757Y-214173D01*
X-501756D01*
X-502756Y-213174D01*
X-496758Y-208175D02*
Y-214173D01*
X-494759Y-212174D01*
X-492759Y-214173D01*
Y-208175D01*
X-490760Y-215173D02*
X-486761D01*
X-484762Y-214173D02*
Y-210174D01*
X-482762Y-208175D01*
X-480763Y-210174D01*
Y-214173D01*
Y-211174D01*
X-484762D01*
X-474765Y-214173D02*
X-478764D01*
X-474765Y-210174D01*
Y-209175D01*
X-475765Y-208175D01*
X-477764D01*
X-478764Y-209175D01*
X-475135Y-13899D02*
X-476135Y-12900D01*
X-478134D01*
X-479134Y-13899D01*
Y-14899D01*
X-478134Y-15899D01*
X-476135D01*
X-475135Y-16898D01*
Y-17898D01*
X-476135Y-18898D01*
X-478134D01*
X-479134Y-17898D01*
X-473136Y-12900D02*
Y-18898D01*
X-471136Y-16898D01*
X-469137Y-18898D01*
Y-12900D01*
X-467138Y-19897D02*
X-463139D01*
X-457141Y-13899D02*
X-458141Y-12900D01*
X-460140D01*
X-461140Y-13899D01*
Y-14899D01*
X-460140Y-15899D01*
X-458141D01*
X-457141Y-16898D01*
Y-17898D01*
X-458141Y-18898D01*
X-460140D01*
X-461140Y-17898D01*
X-451143Y-18898D02*
X-455142D01*
X-451143Y-14899D01*
Y-13899D01*
X-452143Y-12900D01*
X-454142D01*
X-455142Y-13899D01*
X-245214Y-345986D02*
X-246214Y-344986D01*
X-248213D01*
X-249213Y-345986D01*
Y-346986D01*
X-248213Y-347985D01*
X-246214D01*
X-245214Y-348985D01*
Y-349985D01*
X-246214Y-350984D01*
X-248213D01*
X-249213Y-349985D01*
X-243215Y-344986D02*
Y-350984D01*
X-241215Y-348985D01*
X-239216Y-350984D01*
Y-344986D01*
X-237216Y-351984D02*
X-233218D01*
X-231218Y-344986D02*
Y-349985D01*
X-230219Y-350984D01*
X-228219D01*
X-227220Y-349985D01*
Y-344986D01*
X-225220Y-352984D02*
Y-346986D01*
X-222221D01*
X-221222Y-347985D01*
Y-349985D01*
X-222221Y-350984D01*
X-225220D01*
X-399348Y-13899D02*
X-400347Y-12900D01*
X-402347D01*
X-403346Y-13899D01*
Y-14899D01*
X-402347Y-15899D01*
X-400347D01*
X-399348Y-16898D01*
Y-17898D01*
X-400347Y-18898D01*
X-402347D01*
X-403346Y-17898D01*
X-397348Y-12900D02*
Y-18898D01*
X-395349Y-16898D01*
X-393350Y-18898D01*
Y-12900D01*
X-391350Y-19897D02*
X-387352D01*
X-381354Y-13899D02*
X-382353Y-12900D01*
X-384353D01*
X-385352Y-13899D01*
Y-14899D01*
X-384353Y-15899D01*
X-382353D01*
X-381354Y-16898D01*
Y-17898D01*
X-382353Y-18898D01*
X-384353D01*
X-385352Y-17898D01*
X-379354Y-18898D02*
X-377355D01*
X-378355D01*
Y-12900D01*
X-379354Y-13899D01*
X-273757Y-139687D02*
X-274757Y-138687D01*
X-276756D01*
X-277756Y-139687D01*
Y-140686D01*
X-276756Y-141686D01*
X-274757D01*
X-273757Y-142686D01*
Y-143685D01*
X-274757Y-144685D01*
X-276756D01*
X-277756Y-143685D01*
X-271758Y-138687D02*
Y-144685D01*
X-269759Y-142686D01*
X-267759Y-144685D01*
Y-138687D01*
X-265760Y-145685D02*
X-261761D01*
X-259762Y-144685D02*
Y-138687D01*
X-256763D01*
X-255763Y-139687D01*
Y-141686D01*
X-256763Y-142686D01*
X-259762D01*
X-257762D02*
X-255763Y-144685D01*
X-253764D02*
X-251764D01*
X-252764D01*
Y-140686D01*
X-253764D01*
X-246766Y-146684D02*
X-245766D01*
X-244767Y-145685D01*
Y-140686D01*
X-247766D01*
X-248765Y-141686D01*
Y-143685D01*
X-247766Y-144685D01*
X-244767D01*
X-242767Y-138687D02*
Y-144685D01*
Y-141686D01*
X-241768Y-140686D01*
X-239768D01*
X-238769Y-141686D01*
Y-144685D01*
X-235770Y-139687D02*
Y-140686D01*
X-236769D01*
X-234770D01*
X-235770D01*
Y-143685D01*
X-234770Y-144685D01*
X-54072Y-346025D02*
X-55072Y-345026D01*
X-57071D01*
X-58071Y-346025D01*
Y-347025D01*
X-57071Y-348025D01*
X-55072D01*
X-54072Y-349024D01*
Y-350024D01*
X-55072Y-351024D01*
X-57071D01*
X-58071Y-350024D01*
X-52073Y-345026D02*
Y-351024D01*
X-50073Y-349024D01*
X-48074Y-351024D01*
Y-345026D01*
X-46075Y-352023D02*
X-42076D01*
X-40077Y-351024D02*
Y-345026D01*
X-37078D01*
X-36078Y-346025D01*
Y-348025D01*
X-37078Y-349024D01*
X-40077D01*
X-38077D02*
X-36078Y-351024D01*
X-34079Y-346025D02*
X-33079Y-345026D01*
X-31080D01*
X-30080Y-346025D01*
Y-347025D01*
X-31080Y-348025D01*
X-32079D01*
X-31080D01*
X-30080Y-349024D01*
Y-350024D01*
X-31080Y-351024D01*
X-33079D01*
X-34079Y-350024D01*
X252030Y-237128D02*
X251030Y-236128D01*
X249031D01*
X248031Y-237128D01*
Y-238127D01*
X249031Y-239127D01*
X251030D01*
X252030Y-240127D01*
Y-241126D01*
X251030Y-242126D01*
X249031D01*
X248031Y-241126D01*
X254030Y-236128D02*
Y-242126D01*
X256029Y-240127D01*
X258028Y-242126D01*
Y-236128D01*
X260028Y-243126D02*
X264026D01*
X266026Y-242126D02*
Y-236128D01*
X269025D01*
X270024Y-237128D01*
Y-239127D01*
X269025Y-240127D01*
X266026D01*
X268025D02*
X270024Y-242126D01*
X276022D02*
X272024D01*
X276022Y-238127D01*
Y-237128D01*
X275023Y-236128D01*
X273023D01*
X272024Y-237128D01*
X255967Y-134765D02*
X254967Y-133766D01*
X252968D01*
X251969Y-134765D01*
Y-135765D01*
X252968Y-136765D01*
X254967D01*
X255967Y-137764D01*
Y-138764D01*
X254967Y-139764D01*
X252968D01*
X251969Y-138764D01*
X257967Y-133766D02*
Y-139764D01*
X259966Y-137764D01*
X261965Y-139764D01*
Y-133766D01*
X263965Y-140763D02*
X267963D01*
X269963Y-139764D02*
Y-133766D01*
X272962D01*
X273961Y-134765D01*
Y-136765D01*
X272962Y-137764D01*
X269963D01*
X271962D02*
X273961Y-139764D01*
X275961D02*
X277960D01*
X276960D01*
Y-133766D01*
X275961Y-134765D01*
X-420214Y-120002D02*
X-421214Y-119002D01*
X-423213D01*
X-424213Y-120002D01*
Y-121001D01*
X-423213Y-122001D01*
X-421214D01*
X-420214Y-123001D01*
Y-124000D01*
X-421214Y-125000D01*
X-423213D01*
X-424213Y-124000D01*
X-418215Y-119002D02*
Y-125000D01*
X-416215Y-123001D01*
X-414216Y-125000D01*
Y-119002D01*
X-412217Y-126000D02*
X-408218D01*
X-406218Y-119002D02*
Y-125000D01*
X-402220D01*
X-397221D02*
X-399221D01*
X-400220Y-124000D01*
Y-122001D01*
X-399221Y-121001D01*
X-397221D01*
X-396222Y-122001D01*
Y-123001D01*
X-400220D01*
X-393223Y-125000D02*
Y-120002D01*
Y-122001D01*
X-394222D01*
X-392223D01*
X-393223D01*
Y-120002D01*
X-392223Y-119002D01*
X-388224Y-120002D02*
Y-121001D01*
X-389224D01*
X-387225D01*
X-388224D01*
Y-124000D01*
X-387225Y-125000D01*
X-144623Y-182009D02*
X-145623Y-181010D01*
X-147622D01*
X-148622Y-182009D01*
Y-183009D01*
X-147622Y-184009D01*
X-145623D01*
X-144623Y-185009D01*
Y-186008D01*
X-145623Y-187008D01*
X-147622D01*
X-148622Y-186008D01*
X-142624Y-181010D02*
Y-187008D01*
X-140625Y-185009D01*
X-138625Y-187008D01*
Y-181010D01*
X-136626Y-188008D02*
X-132627D01*
X-130628Y-181010D02*
Y-187008D01*
X-126629D01*
X-124630Y-182009D02*
X-123630Y-181010D01*
X-121631D01*
X-120631Y-182009D01*
Y-183009D01*
X-121631Y-184009D01*
X-122630D01*
X-121631D01*
X-120631Y-185009D01*
Y-186008D01*
X-121631Y-187008D01*
X-123630D01*
X-124630Y-186008D01*
X155573Y-183006D02*
X154574Y-182006D01*
X152575D01*
X151575Y-183006D01*
Y-184005D01*
X152575Y-185005D01*
X154574D01*
X155573Y-186005D01*
Y-187004D01*
X154574Y-188004D01*
X152575D01*
X151575Y-187004D01*
X157573Y-182006D02*
Y-188004D01*
X159572Y-186005D01*
X161572Y-188004D01*
Y-182006D01*
X163571Y-189004D02*
X167570D01*
X169569Y-182006D02*
Y-188004D01*
X173568D01*
X179566D02*
X175567D01*
X179566Y-184005D01*
Y-183006D01*
X178566Y-182006D01*
X176567D01*
X175567Y-183006D01*
X149668Y-80632D02*
X148668Y-79632D01*
X146669D01*
X145669Y-80632D01*
Y-81631D01*
X146669Y-82631D01*
X148668D01*
X149668Y-83631D01*
Y-84630D01*
X148668Y-85630D01*
X146669D01*
X145669Y-84630D01*
X151667Y-79632D02*
Y-85630D01*
X153667Y-83631D01*
X155666Y-85630D01*
Y-79632D01*
X157665Y-86630D02*
X161664D01*
X163663Y-79632D02*
Y-85630D01*
X167662D01*
X169661D02*
X171661D01*
X170661D01*
Y-79632D01*
X169661Y-80632D01*
X-330450Y-13899D02*
X-331450Y-12900D01*
X-333449D01*
X-334449Y-13899D01*
Y-14899D01*
X-333449Y-15899D01*
X-331450D01*
X-330450Y-16898D01*
Y-17898D01*
X-331450Y-18898D01*
X-333449D01*
X-334449Y-17898D01*
X-328451Y-12900D02*
Y-18898D01*
X-326451Y-16898D01*
X-324452Y-18898D01*
Y-12900D01*
X-322453Y-19897D02*
X-318454D01*
X-316455Y-12900D02*
Y-18898D01*
Y-15899D01*
X-312456D01*
Y-12900D01*
Y-18898D01*
X-309457D02*
X-307457D01*
X-306458Y-17898D01*
Y-15899D01*
X-307457Y-14899D01*
X-309457D01*
X-310457Y-15899D01*
Y-17898D01*
X-309457Y-18898D01*
X-304458D02*
Y-14899D01*
X-303459D01*
X-302459Y-15899D01*
Y-18898D01*
Y-15899D01*
X-301460Y-14899D01*
X-300460Y-15899D01*
Y-18898D01*
X-295461D02*
X-297461D01*
X-298461Y-17898D01*
Y-15899D01*
X-297461Y-14899D01*
X-295461D01*
X-294462Y-15899D01*
Y-16898D01*
X-298461D01*
X-347379Y-120002D02*
X-348379Y-119002D01*
X-350378D01*
X-351378Y-120002D01*
Y-121001D01*
X-350378Y-122001D01*
X-348379D01*
X-347379Y-123001D01*
Y-124000D01*
X-348379Y-125000D01*
X-350378D01*
X-351378Y-124000D01*
X-345380Y-119002D02*
Y-125000D01*
X-343380Y-123001D01*
X-341381Y-125000D01*
Y-119002D01*
X-339382Y-126000D02*
X-335383D01*
X-333384Y-119002D02*
Y-125000D01*
X-330385D01*
X-329385Y-124000D01*
Y-120002D01*
X-330385Y-119002D01*
X-333384D01*
X-326386Y-125000D02*
X-324387D01*
X-323387Y-124000D01*
Y-122001D01*
X-324387Y-121001D01*
X-326386D01*
X-327386Y-122001D01*
Y-124000D01*
X-326386Y-125000D01*
X-321388Y-121001D02*
Y-124000D01*
X-320388Y-125000D01*
X-319388Y-124000D01*
X-318389Y-125000D01*
X-317389Y-124000D01*
Y-121001D01*
X-315390Y-125000D02*
Y-121001D01*
X-312391D01*
X-311391Y-122001D01*
Y-125000D01*
X40416Y-81616D02*
X39416Y-80616D01*
X37417D01*
X36417Y-81616D01*
Y-82616D01*
X37417Y-83615D01*
X39416D01*
X40416Y-84615D01*
Y-85615D01*
X39416Y-86614D01*
X37417D01*
X36417Y-85615D01*
X42415Y-80616D02*
Y-86614D01*
X44415Y-84615D01*
X46414Y-86614D01*
Y-80616D01*
X48413Y-87614D02*
X52412D01*
X54412Y-80616D02*
Y-86614D01*
X57411D01*
X58410Y-85615D01*
Y-84615D01*
X57411Y-83615D01*
X54412D01*
X57411D01*
X58410Y-82616D01*
Y-81616D01*
X57411Y-80616D01*
X54412D01*
X63409Y-86614D02*
Y-80616D01*
X60410Y-83615D01*
X64408D01*
X-60962Y-118033D02*
X-61962Y-117033D01*
X-63961D01*
X-64961Y-118033D01*
Y-119033D01*
X-63961Y-120033D01*
X-61962D01*
X-60962Y-121032D01*
Y-122032D01*
X-61962Y-123031D01*
X-63961D01*
X-64961Y-122032D01*
X-58963Y-117033D02*
Y-123031D01*
X-56963Y-121032D01*
X-54964Y-123031D01*
Y-117033D01*
X-52965Y-124031D02*
X-48966D01*
X-46966Y-117033D02*
Y-123031D01*
X-43967D01*
X-42968Y-122032D01*
Y-121032D01*
X-43967Y-120033D01*
X-46966D01*
X-43967D01*
X-42968Y-119033D01*
Y-118033D01*
X-43967Y-117033D01*
X-46966D01*
X-40968Y-118033D02*
X-39969Y-117033D01*
X-37969D01*
X-36970Y-118033D01*
Y-119033D01*
X-37969Y-120033D01*
X-38969D01*
X-37969D01*
X-36970Y-121032D01*
Y-122032D01*
X-37969Y-123031D01*
X-39969D01*
X-40968Y-122032D01*
X52227Y-183006D02*
X51227Y-182006D01*
X49228D01*
X48228Y-183006D01*
Y-184005D01*
X49228Y-185005D01*
X51227D01*
X52227Y-186005D01*
Y-187004D01*
X51227Y-188004D01*
X49228D01*
X48228Y-187004D01*
X54226Y-182006D02*
Y-188004D01*
X56226Y-186005D01*
X58225Y-188004D01*
Y-182006D01*
X60224Y-189004D02*
X64223D01*
X66223Y-182006D02*
Y-188004D01*
X69222D01*
X70221Y-187004D01*
Y-186005D01*
X69222Y-185005D01*
X66223D01*
X69222D01*
X70221Y-184005D01*
Y-183006D01*
X69222Y-182006D01*
X66223D01*
X76219Y-188004D02*
X72221D01*
X76219Y-184005D01*
Y-183006D01*
X75220Y-182006D01*
X73220D01*
X72221Y-183006D01*
X-44230Y-219411D02*
X-45229Y-218411D01*
X-47229D01*
X-48228Y-219411D01*
Y-220411D01*
X-47229Y-221410D01*
X-45229D01*
X-44230Y-222410D01*
Y-223410D01*
X-45229Y-224410D01*
X-47229D01*
X-48228Y-223410D01*
X-42230Y-218411D02*
Y-224410D01*
X-40231Y-222410D01*
X-38232Y-224410D01*
Y-218411D01*
X-36232Y-225409D02*
X-32234D01*
X-30234Y-218411D02*
Y-224410D01*
X-27235D01*
X-26235Y-223410D01*
Y-222410D01*
X-27235Y-221410D01*
X-30234D01*
X-27235D01*
X-26235Y-220411D01*
Y-219411D01*
X-27235Y-218411D01*
X-30234D01*
X-24236Y-224410D02*
X-22237D01*
X-23236D01*
Y-218411D01*
X-24236Y-219411D01*
M02*
